<svg width="34" height="34" viewBox="0 0 34 34" fill="none" xmlns="http://www.w3.org/2000/svg">
  <path fill-rule="evenodd" clip-rule="evenodd"
    d="M11.5 9C11.1022 9 10.7206 9.15804 10.4393 9.43934C10.158 9.72065 10 10.1022 10 10.5V23.5C10 23.8978 10.158 24.2794 10.4393 24.5607C10.7206 24.842 11.1022 25 11.5 25H22.5C22.8978 25 23.2794 24.842 23.5607 24.5607C23.842 24.2794 24 23.8978 24 23.5V14.621C23.9997 14.2233 23.8414 13.842 23.56 13.561L19.44 9.439C19.3005 9.29961 19.1349 9.1891 18.9527 9.11377C18.7705 9.03844 18.5752 8.99978 18.378 9H11.5ZM13.75 17.5C13.5511 17.5 13.3603 17.579 13.2197 17.7197C13.079 17.8603 13 18.0511 13 18.25C13 18.4489 13.079 18.6397 13.2197 18.7803C13.3603 18.921 13.5511 19 13.75 19H20.25C20.4489 19 20.6397 18.921 20.7803 18.7803C20.921 18.6397 21 18.4489 21 18.25C21 18.0511 20.921 17.8603 20.7803 17.7197C20.6397 17.579 20.4489 17.5 20.25 17.5H13.75ZM13.75 20.5C13.5511 20.5 13.3603 20.579 13.2197 20.7197C13.079 20.8603 13 21.0511 13 21.25C13 21.4489 13.079 21.6397 13.2197 21.7803C13.3603 21.921 13.5511 22 13.75 22H20.25C20.4489 22 20.6397 21.921 20.7803 21.7803C20.921 21.6397 21 21.4489 21 21.25C21 21.0511 20.921 20.8603 20.7803 20.7197C20.6397 20.579 20.4489 20.5 20.25 20.5H13.75Z"
    fill="currentColor" />
</svg>