<svg width="20" height="20" viewBox="0 0 20 20" fill="none" xmlns="http://www.w3.org/2000/svg">
<g id="Icon">
<path id="Vector" d="M13.3333 18.75H15C15.3958 18.75 15.7604 18.5156 15.9583 18.1289L19.8472 10.6289C20.0486 10.2422 20.0486 9.76562 19.8507 9.375C19.6528 8.98438 19.2882 8.75 18.8889 8.75H5C4.60417 8.75 4.23958 8.98438 4.04167 9.37109L1.66667 13.9492V3.75C1.66667 3.40625 1.91667 3.125 2.22222 3.125H6.30208C6.44792 3.125 6.59028 3.19141 6.69444 3.30859L7.61458 4.34375C8.34375 5.16406 9.33333 5.625 10.3646 5.625H14.4444C14.75 5.625 15 5.90625 15 6.25V7.5H16.6667V6.25C16.6667 4.87109 15.6701 3.75 14.4444 3.75H10.3646C9.77431 3.75 9.20833 3.48828 8.79167 3.01953L7.87153 1.98047C7.45486 1.51172 6.88889 1.25 6.29861 1.25H2.22222C0.996528 1.25 0 2.37109 0 3.75V16.25C0 17.6289 0.996528 18.75 2.22222 18.75H3.04514H13.3333Z" fill="#3C4363"/>
</g>
</svg>
