<svg width="40" height="40" viewBox="0 0 40 40" fill="none" xmlns="http://www.w3.org/2000/svg">
<path d="M16.6667 18.3333L35 19.8333C36 19.8333 36.5 20.6666 36.3333 21.6666L35 29.9999H33.3333" stroke="currentColor" stroke-linecap="round" stroke-linejoin="round"/>
<path d="M26.6667 30H18.3333" stroke="currentColor" stroke-linecap="round" stroke-linejoin="round"/>
<path d="M30 8.33325C29.558 8.33325 29.1341 8.50885 28.8215 8.82141C28.5089 9.13397 28.3333 9.55789 28.3333 9.99992V19.2883" stroke="currentColor" stroke-linecap="round" stroke-linejoin="round"/>
<path d="M5 6.66675H20L21.6667 18.7434" stroke="currentColor" stroke-linecap="round" stroke-linejoin="round"/>
<path d="M6.66667 18.3334V6.66675" stroke="currentColor" stroke-linecap="round" stroke-linejoin="round"/>
<path d="M11.6667 25H11.6833" stroke="currentColor" stroke-linecap="round" stroke-linejoin="round"/>
<path d="M13.3333 16.8334V6.66675" stroke="currentColor" stroke-linecap="round" stroke-linejoin="round"/>
<path d="M30 33.3334C31.8409 33.3334 33.3333 31.841 33.3333 30.0001C33.3333 28.1591 31.8409 26.6667 30 26.6667C28.159 26.6667 26.6667 28.1591 26.6667 30.0001C26.6667 31.841 28.159 33.3334 30 33.3334Z" stroke="currentColor" stroke-linecap="round" stroke-linejoin="round"/>
<path d="M11.6667 33.3334C16.269 33.3334 20 29.6025 20 25.0001C20 20.3977 16.269 16.6667 11.6667 16.6667C7.06429 16.6667 3.33333 20.3977 3.33333 25.0001C3.33333 29.6025 7.06429 33.3334 11.6667 33.3334Z" stroke="currentColor" stroke-linecap="round" stroke-linejoin="round"/>
</svg>
