<svg width="40" height="40" viewBox="0 0 40 40" fill="none" xmlns="http://www.w3.org/2000/svg">
<path d="M26.6667 35V31.6667C26.6667 29.8986 25.9643 28.2029 24.714 26.9526C23.4638 25.7024 21.7681 25 20 25H10C8.23189 25 6.5362 25.7024 5.28596 26.9526C4.03571 28.2029 3.33334 29.8986 3.33334 31.6667V35" stroke="currentColor" stroke-linecap="round" stroke-linejoin="round"/>
<path d="M15 18.3333C18.6819 18.3333 21.6667 15.3486 21.6667 11.6667C21.6667 7.98477 18.6819 5 15 5C11.3181 5 8.33334 7.98477 8.33334 11.6667C8.33334 15.3486 11.3181 18.3333 15 18.3333Z" stroke="currentColor" stroke-linecap="round" stroke-linejoin="round"/>
<path d="M36.6667 34.9999V31.6666C36.6656 30.1894 36.1739 28.7545 35.2689 27.5871C34.364 26.4196 33.0969 25.5858 31.6667 25.2166" stroke="currentColor" stroke-linecap="round" stroke-linejoin="round"/>
<path d="M26.6667 5.21655C28.1007 5.58372 29.3717 6.41772 30.2794 7.58707C31.1871 8.75642 31.6797 10.1946 31.6797 11.6749C31.6797 13.1552 31.1871 14.5934 30.2794 15.7627C29.3717 16.9321 28.1007 17.7661 26.6667 18.1332" stroke="currentColor" stroke-linecap="round" stroke-linejoin="round"/>
</svg>
