<svg width="20" height="20" viewBox="0 0 20 20" fill="none" xmlns="http://www.w3.org/2000/svg">
<path fill-rule="evenodd" clip-rule="evenodd" d="M4.08296 9C4.41774 7.00451 5.7375 5.34301 7.52522 4.53254C6.70695 5.89844 6.19916 7.41993 6.04778 9H4.08296ZM2 10C2 5.58222 5.58092 2.0008 9.99852 2H10C14.4183 2 18 5.58172 18 10C18 14.4183 14.4183 18 10 18C5.58172 18 2 14.4183 2 10ZM15.917 9C15.5823 7.00451 14.2625 5.34301 12.4748 4.53254C13.2931 5.89844 13.8008 7.41993 13.9522 9H15.917ZM13.9522 11H15.917C15.5823 12.9955 14.2625 14.657 12.4748 15.4675C13.2931 14.1016 13.8008 12.5801 13.9522 11ZM11.9408 9C11.7466 7.36402 11.0784 5.8007 10 4.48014C8.92159 5.8007 8.25345 7.36402 8.05919 9H11.9408ZM8.05919 11H11.9408C11.7465 12.636 11.0784 14.1993 10 15.5199C8.92159 14.1993 8.25345 12.636 8.05919 11ZM6.04778 11C6.19916 12.5801 6.70695 14.1016 7.52522 15.4675C5.7375 14.657 4.41774 12.9955 4.08296 11H6.04778Z" fill="#3C4363"/>
</svg>
