<svg width="20" height="20" viewBox="0 0 20 20" fill="none" xmlns="http://www.w3.org/2000/svg">
<g id="Frame">
<path id="Vector" d="M5.25 12C5.25 11.8011 5.32902 11.6103 5.46967 11.4697C5.61032 11.329 5.80109 11.25 6 11.25H6.01C6.20891 11.25 6.39968 11.329 6.54033 11.4697C6.68098 11.6103 6.76 11.8011 6.76 12V12.01C6.76 12.2089 6.68098 12.3997 6.54033 12.5403C6.39968 12.681 6.20891 12.76 6.01 12.76H6C5.80109 12.76 5.61032 12.681 5.46967 12.5403C5.32902 12.3997 5.25 12.2089 5.25 12.01V12ZM6 13.25C5.80109 13.25 5.61032 13.329 5.46967 13.4697C5.32902 13.6103 5.25 13.8011 5.25 14V14.01C5.25 14.424 5.586 14.76 6 14.76H6.01C6.20891 14.76 6.39968 14.681 6.54033 14.5403C6.68098 14.3997 6.76 14.2089 6.76 14.01V14C6.76 13.8011 6.68098 13.6103 6.54033 13.4697C6.39968 13.329 6.20891 13.25 6.01 13.25H6ZM7.25 12C7.25 11.8011 7.32902 11.6103 7.46967 11.4697C7.61032 11.329 7.80109 11.25 8 11.25H8.01C8.20891 11.25 8.39968 11.329 8.54033 11.4697C8.68098 11.6103 8.76 11.8011 8.76 12V12.01C8.76 12.2089 8.68098 12.3997 8.54033 12.5403C8.39968 12.681 8.20891 12.76 8.01 12.76H8C7.80109 12.76 7.61032 12.681 7.46967 12.5403C7.32902 12.3997 7.25 12.2089 7.25 12.01V12ZM8 13.25C7.80109 13.25 7.61032 13.329 7.46967 13.4697C7.32902 13.6103 7.25 13.8011 7.25 14V14.01C7.25 14.424 7.586 14.76 8 14.76H8.01C8.20891 14.76 8.39968 14.681 8.54033 14.5403C8.68098 14.3997 8.76 14.2089 8.76 14.01V14C8.76 13.8011 8.68098 13.6103 8.54033 13.4697C8.39968 13.329 8.20891 13.25 8.01 13.25H8ZM9.25 10C9.25 9.80109 9.32902 9.61032 9.46967 9.46967C9.61032 9.32902 9.80109 9.25 10 9.25H10.01C10.2089 9.25 10.3997 9.32902 10.5403 9.46967C10.681 9.61032 10.76 9.80109 10.76 10V10.01C10.76 10.2089 10.681 10.3997 10.5403 10.5403C10.3997 10.681 10.2089 10.76 10.01 10.76H10C9.80109 10.76 9.61032 10.681 9.46967 10.5403C9.32902 10.3997 9.25 10.2089 9.25 10.01V10ZM10 11.25C9.80109 11.25 9.61032 11.329 9.46967 11.4697C9.32902 11.6103 9.25 11.8011 9.25 12V12.01C9.25 12.424 9.586 12.76 10 12.76H10.01C10.2089 12.76 10.3997 12.681 10.5403 12.5403C10.681 12.3997 10.76 12.2089 10.76 12.01V12C10.76 11.8011 10.681 11.6103 10.5403 11.4697C10.3997 11.329 10.2089 11.25 10.01 11.25H10ZM9.25 14C9.25 13.8011 9.32902 13.6103 9.46967 13.4697C9.61032 13.329 9.80109 13.25 10 13.25H10.01C10.2089 13.25 10.3997 13.329 10.5403 13.4697C10.681 13.6103 10.76 13.8011 10.76 14V14.01C10.76 14.2089 10.681 14.3997 10.5403 14.5403C10.3997 14.681 10.2089 14.76 10.01 14.76H10C9.80109 14.76 9.61032 14.681 9.46967 14.5403C9.32902 14.3997 9.25 14.2089 9.25 14.01V14ZM12 9.25C11.8011 9.25 11.6103 9.32902 11.4697 9.46967C11.329 9.61032 11.25 9.80109 11.25 10V10.01C11.25 10.424 11.586 10.76 12 10.76H12.01C12.2089 10.76 12.3997 10.681 12.5403 10.5403C12.681 10.3997 12.76 10.2089 12.76 10.01V10C12.76 9.80109 12.681 9.61032 12.5403 9.46967C12.3997 9.32902 12.2089 9.25 12.01 9.25H12ZM11.25 12C11.25 11.8011 11.329 11.6103 11.4697 11.4697C11.6103 11.329 11.8011 11.25 12 11.25H12.01C12.2089 11.25 12.3997 11.329 12.5403 11.4697C12.681 11.6103 12.76 11.8011 12.76 12V12.01C12.76 12.2089 12.681 12.3997 12.5403 12.5403C12.3997 12.681 12.2089 12.76 12.01 12.76H12C11.8011 12.76 11.6103 12.681 11.4697 12.5403C11.329 12.3997 11.25 12.2089 11.25 12.01V12ZM12 13.25C11.8011 13.25 11.6103 13.329 11.4697 13.4697C11.329 13.6103 11.25 13.8011 11.25 14V14.01C11.25 14.424 11.586 14.76 12 14.76H12.01C12.2089 14.76 12.3997 14.681 12.5403 14.5403C12.681 14.3997 12.76 14.2089 12.76 14.01V14C12.76 13.8011 12.681 13.6103 12.5403 13.4697C12.3997 13.329 12.2089 13.25 12.01 13.25H12ZM13.25 10C13.25 9.80109 13.329 9.61032 13.4697 9.46967C13.6103 9.32902 13.8011 9.25 14 9.25H14.01C14.2089 9.25 14.3997 9.32902 14.5403 9.46967C14.681 9.61032 14.76 9.80109 14.76 10V10.01C14.76 10.2089 14.681 10.3997 14.5403 10.5403C14.3997 10.681 14.2089 10.76 14.01 10.76H14C13.8011 10.76 13.6103 10.681 13.4697 10.5403C13.329 10.3997 13.25 10.2089 13.25 10.01V10ZM14 11.25C13.8011 11.25 13.6103 11.329 13.4697 11.4697C13.329 11.6103 13.25 11.8011 13.25 12V12.01C13.25 12.424 13.586 12.76 14 12.76H14.01C14.2089 12.76 14.3997 12.681 14.5403 12.5403C14.681 12.3997 14.76 12.2089 14.76 12.01V12C14.76 11.8011 14.681 11.6103 14.5403 11.4697C14.3997 11.329 14.2089 11.25 14.01 11.25H14Z" fill="#3C4363"/>
<path id="Vector_2" fill-rule="evenodd" clip-rule="evenodd" d="M5.75 2C5.94891 2 6.13968 2.07902 6.28033 2.21967C6.42098 2.36032 6.5 2.55109 6.5 2.75V4H13.5V2.75C13.5 2.55109 13.579 2.36032 13.7197 2.21967C13.8603 2.07902 14.0511 2 14.25 2C14.4489 2 14.6397 2.07902 14.7803 2.21967C14.921 2.36032 15 2.55109 15 2.75V4H15.25C15.9793 4 16.6788 4.28973 17.1945 4.80546C17.7103 5.32118 18 6.02065 18 6.75V15.25C18 15.9793 17.7103 16.6788 17.1945 17.1945C16.6788 17.7103 15.9793 18 15.25 18H4.75C4.02065 18 3.32118 17.7103 2.80546 17.1945C2.28973 16.6788 2 15.9793 2 15.25V6.75C2 6.02065 2.28973 5.32118 2.80546 4.80546C3.32118 4.28973 4.02065 4 4.75 4H5V2.75C5 2.55109 5.07902 2.36032 5.21967 2.21967C5.36032 2.07902 5.55109 2 5.75 2ZM4.75 7.5C4.06 7.5 3.5 8.06 3.5 8.75V15.25C3.5 15.94 4.06 16.5 4.75 16.5H15.25C15.94 16.5 16.5 15.94 16.5 15.25V8.75C16.5 8.06 15.94 7.5 15.25 7.5H4.75Z" fill="#3C4363"/>
</g>
</svg>
