<svg width="20" height="20" viewBox="0 0 20 20" fill="none" xmlns="http://www.w3.org/2000/svg">
<g id="globe">
<path id="Icon" d="M3.80313 8.03125L4.09687 8.54375C4.35625 8.99687 4.78125 9.33125 5.28437 9.475L7.09375 9.99062C7.63125 10.1438 8 10.6344 8 11.1938V12.4406C8 12.7844 8.19375 13.0969 8.5 13.25C8.80625 13.4031 9 13.7156 9 14.0594V15.2781C9 15.7656 9.46562 16.1187 9.93437 15.9844C10.4375 15.8406 10.8281 15.4375 10.9563 14.9281L11.0437 14.5781C11.175 14.05 11.5188 13.5969 11.9906 13.3281L12.2437 13.1844C12.7125 12.9187 13 12.4188 13 11.8813V11.6219C13 11.225 12.8406 10.8438 12.5594 10.5625L12.4375 10.4406C12.1562 10.1594 11.775 10 11.3781 10H10.0312C9.68437 10 9.34062 9.90938 9.0375 9.7375L7.95937 9.12187C7.825 9.04375 7.72188 8.91875 7.67188 8.77187C7.57188 8.47187 7.70625 8.14687 7.99062 8.00625L8.175 7.9125C8.38125 7.80937 8.62187 7.79063 8.84062 7.86562L9.56563 8.10625C9.82188 8.19062 10.1031 8.09375 10.25 7.87187C10.3969 7.65312 10.3812 7.3625 10.2125 7.15938L9.7875 6.65C9.475 6.275 9.47813 5.72813 9.79688 5.35938L10.2875 4.7875C10.5625 4.46562 10.6063 4.00625 10.3969 3.64062L10.3219 3.50937C10.2125 3.50312 10.1062 3.5 9.99687 3.5C7.09687 3.5 4.6375 5.40313 3.80313 8.03125ZM16.5 10C16.5 8.85 16.2 7.76875 15.675 6.82812L14.875 7.15C14.3844 7.34688 14.1313 7.89375 14.2969 8.39375L14.825 9.97813C14.9344 10.3031 15.2 10.55 15.5312 10.6313L16.4406 10.8594C16.4781 10.5781 16.4969 10.2906 16.4969 10H16.5ZM2 10C2 7.87827 2.84285 5.84344 4.34315 4.34315C5.84344 2.84285 7.87827 2 10 2C12.1217 2 14.1566 2.84285 15.6569 4.34315C17.1571 5.84344 18 7.87827 18 10C18 12.1217 17.1571 14.1566 15.6569 15.6569C14.1566 17.1571 12.1217 18 10 18C7.87827 18 5.84344 17.1571 4.34315 15.6569C2.84285 14.1566 2 12.1217 2 10Z" fill="#3C4363"/>
</g>
</svg>
