<svg width="20" height="20" viewBox="0 0 20 20" fill="none" xmlns="http://www.w3.org/2000/svg">
<g id="Organisation">
<path id="Icon" d="M5.5 2C4.67188 2 4 2.67188 4 3.5V16.5C4 17.3281 4.67188 18 5.5 18H8.5V15.5C8.5 14.6719 9.17188 14 10 14C10.8281 14 11.5 14.6719 11.5 15.5V18H14.5C15.3281 18 16 17.3281 16 16.5V3.5C16 2.67188 15.3281 2 14.5 2H5.5ZM6 9.5C6 9.225 6.225 9 6.5 9H7.5C7.775 9 8 9.225 8 9.5V10.5C8 10.775 7.775 11 7.5 11H6.5C6.225 11 6 10.775 6 10.5V9.5ZM9.5 9H10.5C10.775 9 11 9.225 11 9.5V10.5C11 10.775 10.775 11 10.5 11H9.5C9.225 11 9 10.775 9 10.5V9.5C9 9.225 9.225 9 9.5 9ZM12 9.5C12 9.225 12.225 9 12.5 9H13.5C13.775 9 14 9.225 14 9.5V10.5C14 10.775 13.775 11 13.5 11H12.5C12.225 11 12 10.775 12 10.5V9.5ZM6.5 5H7.5C7.775 5 8 5.225 8 5.5V6.5C8 6.775 7.775 7 7.5 7H6.5C6.225 7 6 6.775 6 6.5V5.5C6 5.225 6.225 5 6.5 5ZM9 5.5C9 5.225 9.225 5 9.5 5H10.5C10.775 5 11 5.225 11 5.5V6.5C11 6.775 10.775 7 10.5 7H9.5C9.225 7 9 6.775 9 6.5V5.5ZM12.5 5H13.5C13.775 5 14 5.225 14 5.5V6.5C14 6.775 13.775 7 13.5 7H12.5C12.225 7 12 6.775 12 6.5V5.5C12 5.225 12.225 5 12.5 5Z" fill="#3C4363"/>
</g>
</svg>
