<svg width="119" height="32" viewBox="0 0 119 32" fill="none" xmlns="http://www.w3.org/2000/svg">
<path d="M24.7478 12.7219C25.4971 14.4742 25.9113 16.3806 25.9113 18.3254C25.9113 22.2344 24.5506 25.816 22.125 28.2808C24.7872 25.7968 26.2859 22.0611 26.2859 17.9403C26.2859 15.9184 25.8324 13.9158 25.0239 12.1057C24.945 12.3175 24.8464 12.5293 24.7478 12.7219Z" fill="#A2C617"/>
<mask id="mask0_2585_46302" style="mask-type:luminance" maskUnits="userSpaceOnUse" x="4" y="3" width="12" height="5">
<path d="M4.17969 7.07904C6.30946 5.09566 9.14915 3.92104 12.541 3.9403C13.4087 3.9403 14.2764 4.05583 15.1046 4.24839C15.2229 4.1136 15.361 3.99806 15.4793 3.86327C14.651 3.67071 13.8031 3.57443 12.9354 3.55518C12.896 3.55518 12.8565 3.55518 12.8171 3.55518C9.24775 3.55518 6.30946 4.9031 4.17969 7.07904Z" fill="white"/>
</mask>
<g mask="url(#mask0_2585_46302)">
<path d="M13.1704 11.5283L2.71875 6.36769L6.48528 -0.891846L16.9172 4.28804L13.1704 11.5283Z" fill="url(#paint0_linear_2585_46302)"/>
</g>
<path d="M15.4762 3.86279C15.4171 3.92056 15.3579 3.97833 15.2988 4.0361C15.2988 4.0361 15.2988 4.0361 15.279 4.05535C15.2199 4.11312 15.1607 4.17089 15.1016 4.24791C15.3579 4.30568 15.6143 4.38271 15.8509 4.44048C15.989 4.30568 16.1073 4.19015 16.2453 4.07461C15.989 3.99759 15.7326 3.92056 15.4762 3.86279Z" fill="#D2881E"/>
<path d="M16.246 4.07397C16.1079 4.18951 15.9896 4.3243 15.8516 4.43984C16.6206 4.67091 17.37 4.97901 18.0799 5.36413L18.6913 5.1138C17.9222 4.67091 17.0939 4.3243 16.246 4.07397Z" fill="#DA8F57"/>
<path d="M19.1269 5.34595L18.9297 5.8466C21.2567 7.29081 23.1695 9.44749 24.4119 11.97C24.5105 11.7582 24.5893 11.5657 24.6879 11.3538C23.4061 8.86981 21.4736 6.75164 19.1269 5.34595Z" fill="#CF0E5C"/>
<path d="M19.1269 5.34595L18.5156 5.59627C18.6537 5.6733 18.7917 5.75032 18.9297 5.8466L19.1269 5.34595Z" fill="#97141C"/>
<mask id="mask1_2585_46302" style="mask-type:luminance" maskUnits="userSpaceOnUse" x="16" y="0" width="11" height="12">
<path d="M16.25 4.07449C17.098 4.32482 17.9262 4.69068 18.715 5.11431L18.5178 5.59572L19.1291 5.34539C21.4758 6.75108 23.4084 8.86925 24.6705 11.3533C26.5439 6.98215 26.8002 3.0154 25.2424 1.10905C25.1437 1.03203 25.0451 0.974261 24.9465 0.916493C24.4141 0.58914 23.8225 0.454346 23.152 0.454346C21.18 0.454346 18.6756 1.78302 16.25 4.07449Z" fill="white"/>
</mask>
<g mask="url(#mask1_2585_46302)">
<path d="M23.7611 -4.22534L31.866 8.21408L19.2846 16.032L11.1797 3.59262L23.7611 -4.22534Z" fill="url(#paint1_linear_2585_46302)"/>
</g>
<path d="M14.9062 13.9729L15.2415 13.8381L18.4953 5.59646C18.4164 5.55795 18.3375 5.50018 18.2587 5.46167L14.9062 13.9729Z" fill="#BF4832"/>
<path d="M18.3601 5.25027L18.2812 5.46209C18.3601 5.5006 18.439 5.53911 18.5179 5.59688L18.7151 5.11548L18.3601 5.25027Z" fill="#C0175D"/>
<path d="M18.9257 5.82723C18.7877 5.75021 18.6497 5.65393 18.5116 5.5769L15.2578 13.8185L15.8691 13.5682L18.9257 5.82723Z" fill="#8F1F11"/>
<mask id="mask2_2585_46302" style="mask-type:luminance" maskUnits="userSpaceOnUse" x="14" y="5" width="5" height="10">
<path d="M18.0838 5.36553L14.6328 14.0885L14.9089 13.973L18.281 5.46181L18.3599 5.25L18.0838 5.36553Z" fill="white"/>
</mask>
<g mask="url(#mask2_2585_46302)">
<path d="M18.3599 5.25H14.6328V14.1078H18.3599V5.25Z" fill="url(#paint2_linear_2585_46302)"/>
</g>
<mask id="mask3_2585_46302" style="mask-type:luminance" maskUnits="userSpaceOnUse" x="10" y="13" width="6" height="12">
<path d="M14.6286 14.0892L10.5859 24.3912L10.9015 24.8341L11.0592 24.449L15.2399 13.8389L14.6286 14.0892Z" fill="white"/>
</mask>
<g mask="url(#mask3_2585_46302)">
<path d="M15.2399 13.8389H10.5859V24.8341H15.2399V13.8389Z" fill="url(#paint3_radial_2585_46302)"/>
</g>
<mask id="mask4_2585_46302" style="mask-type:luminance" maskUnits="userSpaceOnUse" x="11" y="5" width="14" height="20">
<path d="M11.5781 24.4288C14.7531 24.1785 19.1309 20.7316 22.4242 15.571C23.1932 14.3771 23.844 13.1832 24.3764 12.0086C24.3764 11.9894 24.3962 11.9894 24.3962 11.9701C23.1735 9.44757 21.2607 7.29088 18.914 5.84668L11.5781 24.4288Z" fill="white"/>
</mask>
<g mask="url(#mask4_2585_46302)">
<path d="M32.9384 10.9885L20.85 30.0328L3.0625 19.2686L15.1509 0.224365L32.9384 10.9885Z" fill="url(#paint4_linear_2585_46302)"/>
</g>
<path d="M11.5793 24.4274L15.8586 13.5862L15.2472 13.8365L11.0469 24.4466C11.2244 24.4466 11.4018 24.4466 11.5793 24.4274Z" fill="#E94F35"/>
<path d="M11.0625 24.4467L11.3977 24.9089L11.5949 24.4275C11.3977 24.4467 11.2203 24.4467 11.0625 24.4467Z" fill="#E3051B"/>
<path d="M4.31886 6.92505L4.0625 7.17538C4.10194 7.13687 4.14138 7.09835 4.18082 7.0791C4.22026 7.02133 4.2597 6.98282 4.31886 6.92505Z" fill="#3B652C"/>
<mask id="mask5_2585_46302" style="mask-type:luminance" maskUnits="userSpaceOnUse" x="0" y="7" width="23" height="25">
<path d="M0 17.3808C0 24.7944 6.15266 31.5726 13.2716 31.7459C16.9395 31.8421 19.9567 30.4942 22.1259 28.2798C19.9962 30.2631 17.117 31.4378 13.666 31.3607C6.56678 31.1874 0.394401 24.4093 0.394401 16.9957C0.394401 13.0867 1.75509 9.52435 4.18065 7.05957C1.51845 9.5436 0 13.26 0 17.3808Z" fill="white"/>
</mask>
<g mask="url(#mask5_2585_46302)">
<path d="M9.93848 42.5871L-12.6016 18.1896L12.2063 -3.66602L34.7463 20.7314L9.93848 42.5871Z" fill="url(#paint5_linear_2585_46302)"/>
</g>
<path d="M21.9844 28.4329L22.2407 28.1826C22.2013 28.2211 22.1619 28.2596 22.1224 28.2981C22.083 28.3367 22.0238 28.3752 21.9844 28.4329Z" fill="#ECE200"/>
<mask id="mask6_2585_46302" style="mask-type:luminance" maskUnits="userSpaceOnUse" x="11" y="0" width="16" height="25">
<path d="M24.7846 0.685847C27.4271 2.82327 26.4214 9.31257 22.4182 15.5708C19.1053 20.7314 14.7471 24.1783 11.5722 24.4286L11.375 24.91C14.5894 25.1411 19.3419 21.5787 22.8915 16.0329C26.1848 10.8916 27.4469 5.57689 26.3228 2.66922C26.0467 1.86047 25.6129 1.22502 24.9818 0.801385L24.6466 0.570312C24.7058 0.608825 24.7452 0.647335 24.7846 0.685847Z" fill="white"/>
</mask>
<g mask="url(#mask6_2585_46302)">
<path d="M0.25 18.5748L15.6908 -6.36182L38.5858 7.15594L23.1647 32.0733L0.25 18.5748Z" fill="url(#paint6_linear_2585_46302)"/>
</g>
<path d="M16.2456 4.07581C19.4995 1.01409 22.8913 -0.333835 24.9619 0.937066C25.0605 0.994834 25.1591 1.07186 25.238 1.12963C25.1 0.975578 24.9619 0.821529 24.8042 0.686737C24.8042 0.686737 24.8042 0.686737 24.7844 0.686737C24.745 0.667481 24.7056 0.62897 24.6661 0.609713L24.4689 0.474922C22.3391 -0.834491 18.829 0.648226 15.4766 3.88325C15.7329 3.92176 15.9893 3.99878 16.2456 4.07581Z" fill="#E5007D"/>
<mask id="mask7_2585_46302" style="mask-type:luminance" maskUnits="userSpaceOnUse" x="0" y="3" width="26" height="29">
<path d="M4.17688 7.0787C1.75131 9.54348 0.390625 13.1058 0.390625 17.0148C0.390625 24.4284 6.56301 31.2065 13.6622 31.3799C17.1132 31.4569 19.9924 30.2823 22.1221 28.2989C24.5477 25.8149 25.9084 22.2525 25.9084 18.3435C25.9084 16.3986 25.4943 14.4923 24.7449 12.74C24.2322 13.8376 23.6209 14.9352 22.9109 16.052C19.3613 21.5978 14.5891 25.1409 11.3944 24.9291L11.0592 24.4669L10.9014 24.8713C10.5465 24.7943 10.1915 24.6595 9.8957 24.4862C9.81682 24.4477 9.75766 24.3899 9.67878 24.3321L9.36326 24.1203C8.75193 23.6967 8.29837 23.0612 8.02229 22.2525C6.89825 19.3448 8.16033 14.0301 11.4536 8.88877C12.5776 7.13647 13.82 5.57673 15.1018 4.26732C14.2736 4.07476 13.4256 3.97847 12.5382 3.95922C12.4987 3.95922 12.4593 3.95922 12.4199 3.95922C9.06745 3.93996 6.2672 5.11458 4.17688 7.0787Z" fill="white"/>
</mask>
<g mask="url(#mask7_2585_46302)">
<path d="M25.9084 3.9397H0.390625V31.4566H25.9084V3.9397Z" fill="url(#paint7_linear_2585_46302)"/>
</g>
<mask id="mask8_2585_46302" style="mask-type:luminance" maskUnits="userSpaceOnUse" x="7" y="4" width="9" height="21">
<path d="M11.4348 8.84976C8.1415 13.9911 6.87941 19.3058 8.00346 22.2135C8.27954 23.0222 8.71338 23.6577 9.34442 24.0813L9.67966 24.3124C9.64022 24.2739 9.60078 24.2546 9.56134 24.2161C6.91885 22.0787 7.92458 15.5894 11.9278 9.33116C13.1307 7.44407 14.4716 5.8073 15.852 4.44012C15.5957 4.36309 15.359 4.30533 15.1027 4.24756C13.8209 5.53771 12.5588 7.09746 11.4348 8.84976Z" fill="white"/>
</mask>
<g mask="url(#mask8_2585_46302)">
<path d="M15.8513 4.24756H6.89844V24.3124H15.8513V4.24756Z" fill="url(#paint8_linear_2585_46302)"/>
</g>
<mask id="mask9_2585_46302" style="mask-type:luminance" maskUnits="userSpaceOnUse" x="8" y="4" width="11" height="21">
<path d="M11.9331 9.33144C8.1666 15.2045 7.06227 21.2895 9.13288 23.7735C9.23148 23.8505 9.31036 23.9083 9.40896 23.9661C9.76392 24.1779 10.1583 24.3319 10.5922 24.3897L14.6348 14.0877L18.0858 5.34543C17.3759 4.97957 16.6265 4.67147 15.8574 4.42114C14.477 5.78832 13.1361 7.44435 11.9331 9.33144Z" fill="white"/>
</mask>
<g mask="url(#mask9_2585_46302)">
<path d="M23.0164 5.67376L17.3961 26.9902L2.13281 23.1583L7.75303 1.8418L23.0164 5.67376Z" fill="url(#paint9_linear_2585_46302)"/>
</g>
<path d="M9.40518 23.967C9.30658 23.9092 9.20798 23.8322 9.10938 23.7744C9.3263 24.044 9.58266 24.2751 9.87846 24.4484C10.194 24.6409 10.5292 24.7757 10.8842 24.8335L10.5687 24.3906C10.1545 24.3328 9.76014 24.198 9.40518 23.967Z" fill="#766F2D"/>
<path d="M44.1107 30.6686C38.2341 30.6686 35 27.0677 35 20.5399C35 12.8953 39.6737 10.1802 44.0515 10.1802C46.9109 10.1802 49.4548 11.4126 51.0719 13.55L48.5477 15.5911C47.187 14.0506 45.6883 13.2611 44.1304 13.2611C40.9949 13.2611 39.1215 15.8992 39.1215 20.3474C39.1215 25.0266 41.0935 27.5877 44.6628 27.5877C46.2207 27.5877 47.6406 27.1063 49.2379 26.0472L50.7169 28.6275C49.0012 29.9176 46.5954 30.6686 44.1107 30.6686Z" fill="#13A538"/>
<path d="M58.8443 10.7764H54.7031V30.1095H58.8443V10.7764Z" fill="#13A538"/>
<path d="M56.7578 6.98431C55.2985 6.98431 54.3125 6.06002 54.3125 4.71209C54.3125 3.36417 55.3379 2.40137 56.7578 2.40137C58.1776 2.40137 59.2031 3.38343 59.2031 4.71209C59.2228 6.02151 58.1776 6.98431 56.7578 6.98431Z" fill="#E5007D"/>
<path d="M68.8005 30.1102H64.6593V13.6656V13.6463V13.627L64.3438 10.7964H67.637L68.0708 13.4152L68.2878 14.6861L68.761 13.473C69.5498 11.4896 71.3444 10.1995 73.3558 10.1995C74.401 10.1995 75.4067 10.4113 76.2152 10.8157L75.5053 14.1277C74.5982 13.7041 73.7502 13.5115 72.8628 13.5115C70.5556 13.5115 68.8794 15.3023 68.8005 17.8826V30.1102Z" fill="#13A538"/>
<path d="M85.0145 30.6302C79.9464 30.6302 77.3828 27.4914 77.3828 21.3102C77.3828 14.2432 81.1099 10.1995 87.6175 10.1995C88.8402 10.1995 91.6404 10.469 94.5196 11.4896V26.6634V26.6827V26.7019L94.8548 30.1295H91.3643L91.1277 28.3194L91.0883 28.0884L90.9897 27.0678L90.4375 27.915L90.2995 28.1076C89.1754 29.7059 87.2626 30.6302 85.0145 30.6302ZM87.0259 12.9531C83.4566 12.9531 81.4846 15.8607 81.4846 21.1562C81.4846 25.6621 83.0227 27.9536 86.0794 27.9536C88.8007 27.9536 90.4375 26.0087 90.4375 24.1409V13.8196V13.5885L90.2206 13.4922C89.4909 13.1649 88.2288 12.9531 87.0259 12.9531Z" fill="#13A538"/>
<path d="M106.96 30.7063C101.872 30.7063 99.2891 27.5098 99.2891 21.2323C99.2891 14.4156 102.937 10.1986 108.794 10.1986C110.135 10.1986 111.062 10.4296 111.87 10.6607L112.344 10.7955V10.3141V3.13159H116.446V26.547V26.5662V26.5855L116.781 30.1093H113.33L113.054 28.2608L113.014 28.0297L112.876 27.1054L112.363 27.8756L112.225 28.0875C111.042 29.7435 109.129 30.7063 106.96 30.7063ZM108.912 12.9522C105.383 12.9522 103.371 15.8021 103.371 20.7894C103.371 25.5071 104.909 27.9141 107.926 27.9141C110.549 27.9141 112.324 26.027 112.324 24.2555V13.9342V13.7032L112.107 13.6069C111.417 13.318 110.293 12.9522 108.912 12.9522Z" fill="#13A538"/>
<defs>
<linearGradient id="paint0_linear_2585_46302" x1="20.9084" y1="10.8123" x2="6.27613" y2="3.21657" gradientUnits="userSpaceOnUse">
<stop stop-color="#ECE200"/>
<stop offset="0.2067" stop-color="#ECE200"/>
<stop offset="0.364" stop-color="#E9E101"/>
<stop offset="0.4762" stop-color="#E0DF03"/>
<stop offset="0.5744" stop-color="#D0DA07"/>
<stop offset="0.6646" stop-color="#BAD40D"/>
<stop offset="0.7493" stop-color="#9DCC14"/>
<stop offset="0.8299" stop-color="#7AC21D"/>
<stop offset="0.9073" stop-color="#50B628"/>
<stop offset="0.9803" stop-color="#21A934"/>
<stop offset="1" stop-color="#13A538"/>
</linearGradient>
<linearGradient id="paint1_linear_2585_46302" x1="18.9948" y1="2.00759" x2="22.3437" y2="7.40412" gradientUnits="userSpaceOnUse">
<stop stop-color="#EC6095"/>
<stop offset="0.2517" stop-color="#EB4C90"/>
<stop offset="0.7632" stop-color="#E81A84"/>
<stop offset="1" stop-color="#E6007E"/>
</linearGradient>
<linearGradient id="paint2_linear_2585_46302" x1="16.4982" y1="3.98162" x2="16.4982" y2="31.375" gradientUnits="userSpaceOnUse">
<stop stop-color="#ECE200"/>
<stop offset="0.055596" stop-color="#D4DB06"/>
<stop offset="0.1867" stop-color="#A1CD13"/>
<stop offset="0.3206" stop-color="#76C11F"/>
<stop offset="0.4548" stop-color="#52B728"/>
<stop offset="0.5893" stop-color="#36AF2F"/>
<stop offset="0.7246" stop-color="#23A934"/>
<stop offset="0.8609" stop-color="#17A637"/>
<stop offset="1" stop-color="#13A538"/>
</linearGradient>
<radialGradient id="paint3_radial_2585_46302" cx="0" cy="0" r="1" gradientUnits="userSpaceOnUse" gradientTransform="translate(12.917 19.3381) scale(4.30968 4.20828)">
<stop stop-color="#B17F4A"/>
<stop offset="1" stop-color="#685C25"/>
</radialGradient>
<linearGradient id="paint4_linear_2585_46302" x1="22.1609" y1="8.57322" x2="15.6629" y2="19.3115" gradientUnits="userSpaceOnUse">
<stop stop-color="#BF4832"/>
<stop offset="1" stop-color="#AF1917"/>
</linearGradient>
<linearGradient id="paint5_linear_2585_46302" x1="18.3049" y1="27.2889" x2="5.38069" y2="12.6202" gradientUnits="userSpaceOnUse">
<stop stop-color="#A2C617"/>
<stop offset="0.0300538" stop-color="#9BC41A"/>
<stop offset="0.1414" stop-color="#87BD23"/>
<stop offset="0.2516" stop-color="#7AB928"/>
<stop offset="0.3583" stop-color="#76B82A"/>
<stop offset="0.4757" stop-color="#6AA72A"/>
<stop offset="0.8255" stop-color="#48772C"/>
<stop offset="1" stop-color="#3B652C"/>
</linearGradient>
<linearGradient id="paint6_linear_2585_46302" x1="11.8949" y1="25.0195" x2="25.8864" y2="1.30956" gradientUnits="userSpaceOnUse">
<stop stop-color="#E6332A"/>
<stop offset="0.004808" stop-color="#E6332A"/>
<stop offset="0.0138675" stop-color="#E2322A"/>
<stop offset="0.2247" stop-color="#911720"/>
<stop offset="0.374" stop-color="#5E061A"/>
<stop offset="0.4471" stop-color="#4A0018"/>
<stop offset="0.6875" stop-color="#4A0018"/>
<stop offset="0.8798" stop-color="#E6007E"/>
<stop offset="0.9025" stop-color="#D60174"/>
<stop offset="0.9472" stop-color="#AB0358"/>
<stop offset="1" stop-color="#710533"/>
</linearGradient>
<linearGradient id="paint7_linear_2585_46302" x1="13.1367" y1="3.98252" x2="13.1367" y2="31.3748" gradientUnits="userSpaceOnUse">
<stop stop-color="#ECE200"/>
<stop offset="0.055596" stop-color="#D4DB06"/>
<stop offset="0.1867" stop-color="#A1CD13"/>
<stop offset="0.3206" stop-color="#76C11F"/>
<stop offset="0.4548" stop-color="#52B728"/>
<stop offset="0.5893" stop-color="#36AF2F"/>
<stop offset="0.7246" stop-color="#23A934"/>
<stop offset="0.8609" stop-color="#17A637"/>
<stop offset="1" stop-color="#13A538"/>
</linearGradient>
<linearGradient id="paint8_linear_2585_46302" x1="7.61447" y1="14.2789" x2="15.8472" y2="14.2789" gradientUnits="userSpaceOnUse">
<stop stop-color="#8A6E28"/>
<stop offset="0.077841" stop-color="#927127"/>
<stop offset="0.4738" stop-color="#B67E21"/>
<stop offset="0.7952" stop-color="#CD861E"/>
<stop offset="1" stop-color="#D5891D"/>
</linearGradient>
<linearGradient id="paint9_linear_2585_46302" x1="15.2532" y1="4.28434" x2="10.2006" y2="24.3892" gradientUnits="userSpaceOnUse">
<stop stop-color="#E0A532"/>
<stop offset="0.3213" stop-color="#C2932D"/>
<stop offset="0.7644" stop-color="#9D7E28"/>
<stop offset="1" stop-color="#8F7626"/>
</linearGradient>
</defs>
</svg>
