<svg width="117" height="80" viewBox="0 0 117 80" fill="none" xmlns="http://www.w3.org/2000/svg">
<path d="M4.64473 21.1017C4.64473 21.1017 36.874 16.9351 37.7853 16.7873C39.1811 16.5615 40.4208 16.2947 41.5744 15.9745C44.1811 15.2602 46.5826 14.1723 48.7049 12.7396C50.7411 11.3767 52.6376 9.38984 54.5137 7.21413C55.7083 5.8266 56.9603 4.02035 58.1303 2.27978V1.43823C56.7428 3.49079 55.3758 5.2601 53.9677 6.82004C52.104 8.89313 50.1499 10.5885 48.1549 11.857C46.0982 13.1789 43.7829 14.1682 41.2747 14.7922C40.1499 15.0754 38.9471 15.3053 37.5924 15.4942C36.7016 15.6173 35.782 15.7158 34.8912 15.8102C34.5341 15.8472 4.64062 19.0163 4.64062 19.0163V21.1058L4.64473 21.1017Z" fill="white"/>
<path d="M47.8671 15.7019C45.8515 16.8596 43.5198 17.7093 40.9418 18.2225C39.8416 18.4441 38.6429 18.6248 37.2718 18.7725C36.4672 18.8587 35.6585 18.9285 34.8498 18.9983C34.4105 19.0353 33.9754 19.0722 33.5402 19.1133C23.6633 19.9959 13.8398 20.94 4.64844 21.8309V23.9204C13.9096 22.8038 23.8029 21.6215 33.6757 20.509C34.115 20.4556 34.5542 20.4105 34.9935 20.3612C35.8022 20.2709 36.6109 20.1847 37.4237 20.078C38.8276 19.8891 40.0592 19.6757 41.1799 19.4211C43.8564 18.8218 46.2784 17.8776 48.3679 16.6133C50.4451 15.3694 52.2801 13.6247 54.2547 11.4901C55.4821 10.1641 56.8532 8.28807 58.1299 6.53108V5.76343C56.6233 7.80778 55.1906 9.51961 53.7785 10.9851C51.8532 12.9802 49.8622 14.5648 47.8671 15.7019Z" fill="white"/>
<path d="M53.5038 15.1894C51.5375 16.9915 49.4849 18.4078 47.3995 19.4012C45.3634 20.3824 43.085 21.072 40.429 21.5072C39.333 21.6878 38.1425 21.8356 36.7919 21.9587L4.64062 24.5942V26.6796L33.2204 23.65L36.9192 23.2601C38.3108 23.1 39.5259 22.9193 40.6343 22.71C43.3806 22.1927 45.7411 21.4169 47.8388 20.3454C49.9857 19.2617 52.1327 17.4554 54.1237 15.5465C55.462 14.2657 56.751 12.6114 58.1303 10.8749V10.1812C56.5416 12.1557 55.0227 13.8019 53.5038 15.1894Z" fill="white"/>
<path d="M45.7365 26.0125C43.8646 27.0593 42.4648 27.6627 39.7923 27.9378C38.1749 28.1102 36.5165 28.1923 34.9114 28.2744C34.1355 28.3113 33.3555 28.3524 32.5796 28.4017C27.7233 28.6808 22.9531 28.9846 18.0845 29.3048L4.64844 30.2079V32.2933L18.2158 31.0495C22.6001 30.6554 27.6946 30.2038 32.67 29.7974L36.2866 29.5182C37.6987 29.4115 38.8564 29.2966 39.9278 29.157C42.6782 28.804 45.0264 28.2457 47.1077 27.4616C49.349 26.6241 51.4632 25.3228 53.5814 23.7957C55.4903 22.4164 58.1299 19.6988 58.134 19.666V18.9312C56.4057 20.6143 55.4123 21.5584 53.5239 22.8023C51.2661 24.2883 47.4114 25.0806 45.7365 26.0166V26.0125Z" fill="white"/>
<path d="M46.418 29.9745C44.3901 30.5698 42.1076 30.9721 39.4393 31.202C38.3597 31.2964 37.1938 31.3662 35.8761 31.4195L32.28 31.5755C23.3431 31.9901 14.4515 32.454 4.64844 32.9713V35.0485C14.0122 34.326 23.1871 33.6199 32.358 32.9672L35.9417 32.7209C37.3252 32.6306 38.4746 32.532 39.5542 32.4089C42.2882 32.1051 44.6282 31.633 46.7054 30.968C49.0083 30.2414 51.2497 29.1823 53.3721 27.8317C54.9402 26.8341 56.5084 25.6477 58.134 24.2274V24.1904C56.3401 25.7175 54.6323 26.0583 52.9328 27.0845C50.8474 28.3448 48.6553 29.3136 46.418 29.9622V29.9745Z" fill="white"/>
<path d="M46.0855 33.4268C44.0411 33.903 41.8285 34.2108 39.1191 34.3915C38.0723 34.4613 36.9475 34.5146 35.5805 34.5557L32.0172 34.6829C23.0435 35.0237 13.9424 35.4095 4.64844 35.8159V37.8931C13.8849 37.2651 22.949 36.6493 32.087 36.0787L35.6421 35.8652C37.0337 35.7872 38.1708 35.7051 39.2135 35.6107C41.9763 35.3562 44.2341 34.9867 46.3236 34.4448C48.6676 33.8414 50.9459 32.9588 53.097 31.8176C54.7596 30.9391 56.4181 29.8799 58.134 28.6033V27.7166C56.2785 29.0548 54.4969 30.1468 52.7111 31.0376C50.6011 32.0926 48.372 32.8972 46.0855 33.4268Z" fill="white"/>
<path d="M45.778 36.8063C43.7295 37.1799 41.521 37.4221 38.828 37.5576C37.8141 37.6109 36.7344 37.6479 35.3141 37.6807L4.64062 38.51V40.5872L31.8411 39.1709L35.3633 38.9944C36.7385 38.9287 37.8633 38.863 38.9019 38.7809C41.6277 38.5715 43.8732 38.2719 45.9627 37.8367C48.3355 37.3441 50.6384 36.6257 52.8059 35.7021C54.5506 34.9631 56.3035 34.06 58.1221 32.964V32.1306C56.1762 33.2595 54.3248 34.1709 52.4857 34.8975C50.347 35.7472 48.0892 36.3917 45.7698 36.8105L45.778 36.8063Z" fill="white"/>
<path d="M45.5395 40.207C41.7751 40.7078 37.8999 40.7653 34.156 40.8227C33.2981 40.8351 32.436 40.8474 31.5821 40.8679L4.64844 41.3523V43.4254L31.6273 42.2636C32.4811 42.2267 33.3391 42.1898 34.1971 42.1569C37.9697 42.005 41.8736 41.849 45.6873 41.2456C48.1011 40.8679 50.4246 40.3014 52.5962 39.5748C54.3901 38.9754 56.2539 38.1955 58.1381 37.28V36.4836C56.1594 37.4073 54.2095 38.1708 52.3376 38.7456C50.1947 39.4065 47.9082 39.8991 45.5436 40.2111L45.5395 40.207Z" fill="white"/>
<path d="M45.3223 43.6306C41.796 43.9221 38.1876 43.9221 34.6942 43.9221C33.6063 43.9221 32.5226 43.9221 31.4347 43.9303C22.5143 43.9672 13.6596 44.0411 4.64062 44.1191V46.1922C13.2326 45.9007 22.3501 45.5969 31.4676 45.326C32.5513 45.2891 33.631 45.2644 34.7147 45.2357C38.2246 45.1495 41.8535 45.0551 45.4167 44.6692C47.9044 44.4024 50.1705 44.0124 52.3421 43.4746C54.2345 43.0107 56.1763 42.3909 58.1303 41.6478V40.8843C56.1147 41.6068 54.1073 42.1979 52.1532 42.6248C50.0063 43.0969 47.769 43.4253 45.3223 43.6265V43.6306Z" fill="white"/>
<path d="M45.1869 46.9997C43.7172 47.0572 42.1285 47.0859 40.3223 47.0859C39.6408 47.0859 38.9594 47.0859 38.2779 47.0777L31.3362 46.9915C26.5989 46.9545 21.8821 46.9463 17.4527 46.9463L4.64062 46.9586V49.0317L17.4814 48.6951C21.8903 48.5884 26.6235 48.4734 31.3444 48.3913L38.2779 48.301C40.1786 48.2723 42.6909 48.2148 45.2361 48.0465C47.7279 47.8864 49.9981 47.636 52.1697 47.2912C54.1278 46.9792 56.1229 46.5564 58.1262 46.0473V45.3125C56.0736 45.7846 54.0293 46.1623 52.0506 46.4291C49.8872 46.7165 47.6417 46.9053 45.1827 47.0038L45.1869 46.9997Z" fill="white"/>
<path d="M38.1996 50.2614L31.2824 50.1875C22.4564 50.0643 13.6386 49.9042 4.64844 49.7359V51.809C13.2322 51.7515 22.3251 51.6858 31.2906 51.5873L38.2119 51.4847C40.5436 51.4436 42.8301 51.4026 45.1372 51.3246C49.895 51.1727 54.152 50.8402 58.134 50.3106V49.5881C54.1397 50.0192 49.8704 50.245 45.1126 50.2737C42.8096 50.2942 40.5066 50.2737 38.1996 50.2573V50.2614Z" fill="white"/>
<path d="M58.134 53.9262L4.64844 52.5715V54.6405H58.134V53.9262Z" fill="white"/>
<path d="M53.315 19.1058C51.283 20.7355 49.7148 21.8931 47.2271 22.8825C45.0637 23.7404 42.7361 24.0935 40.076 24.4547C38.3642 24.6928 36.5784 25.05 34.8707 25.1608C34.1687 25.206 33.4668 25.2552 32.7648 25.3086L4.64062 27.357V29.4383L32.8797 26.7043L36.5415 26.3595C37.9003 26.2322 39.1031 26.0803 40.2279 25.8997C42.966 25.4605 45.3223 24.7913 47.4365 23.8513C49.6286 22.8866 51.8495 21.302 53.9102 19.5696C55.3142 18.3915 56.6648 16.9136 58.1303 15.2962V14.5491C56.3528 16.3841 54.8831 17.8496 53.315 19.1016V19.1058Z" fill="white"/>
<path d="M73.9386 53.4937H26.6641V74.7499H73.9386V53.4937Z" fill="white"/>
<path d="M73.7355 53.6988V74.5446H26.8714V53.6988H73.7355ZM74.146 53.2883H26.4609V74.9551H74.146V53.2883Z" fill="white"/>
<path d="M73.9345 23.0889H26.6641V54.8461H73.9345V23.0889Z" fill="#0054A4"/>
<path d="M73.7314 23.2941V54.6407H26.8714V23.2941H73.7314ZM74.1419 22.8835H26.4609V55.0512H74.1419V22.8835Z" fill="white"/>
<path d="M50.8095 27.7494H52.4392L51.1256 28.7715L51.6346 30.3972L50.3251 29.3955L49.0196 30.3972L49.5328 28.7715L48.2109 27.7494H49.8325L50.3251 26.1648L50.8095 27.7494Z" fill="white"/>
<path d="M50.872 48.6536H52.5058L51.1922 49.6429L51.7012 51.2029L50.3917 50.2423L49.0821 51.2029L49.5994 49.6429L48.2734 48.6536H49.8991L50.3917 47.1306L50.872 48.6536Z" fill="white"/>
<path d="M56.0401 47.2723H57.6699L56.3562 48.2575L56.8694 49.8215L55.5598 48.8568L54.2503 49.8215L54.7676 48.2575L53.4375 47.2723H55.0672L55.5598 45.7493L56.0401 47.2723Z" fill="white"/>
<path d="M56.0401 29.1473H57.6699L56.3562 30.1325L56.8694 31.6924L55.5598 30.7318L54.2503 31.6924L54.7676 30.1325L53.4375 29.1473H55.0672L55.5598 27.6243L56.0401 29.1473Z" fill="white"/>
<path d="M59.8761 32.9861H61.5058L60.1922 33.9714L60.7012 35.5354L59.3917 34.5707L58.0862 35.5354L58.6035 33.9714L57.2734 32.9861H58.8991L59.3917 31.4631L59.8761 32.9861Z" fill="white"/>
<path d="M59.8761 43.4869H61.5058L60.1922 44.4721L60.7012 46.0361L59.3917 45.0714L58.0862 46.0361L58.6035 44.4721L57.2734 43.4869H58.8991L59.3917 41.9639L59.8761 43.4869Z" fill="white"/>
<path d="M61.3173 38.1529H62.9511L61.6375 39.1381L62.1465 40.7022L60.837 39.7375L59.5275 40.7022L60.0447 39.1381L58.7188 38.1529H60.3444L60.837 36.6299L61.3173 38.1529Z" fill="white"/>
<path d="M45.5401 29.158H47.1699L45.8562 30.1432L46.3653 31.7073L45.0557 30.7426L43.7462 31.7073L44.2635 30.1432L42.9375 29.158H44.5631L45.0557 27.635L45.5401 29.158Z" fill="white"/>
<path d="M41.8017 32.9966H43.4355L42.1219 33.9819L42.6309 35.5459L41.3214 34.5812L40.0159 35.5459L40.5291 33.9819L39.2031 32.9966H40.8329L41.3214 31.4736L41.8017 32.9966Z" fill="white"/>
<path d="M40.4189 38.1666H42.0486L40.7349 39.1559L41.2481 40.7159L39.9386 39.7553L38.629 40.7159L39.1422 39.1559L37.8203 38.1666H39.4459L39.9386 36.6477L40.4189 38.1666Z" fill="white"/>
<path d="M41.8017 43.4974H43.4355L42.1219 44.4826L42.6309 46.0466L41.3214 45.0819L40.0159 46.0466L40.5291 44.4826L39.2031 43.4974H40.8329L41.3214 41.9744L41.8017 43.4974Z" fill="white"/>
<path d="M45.5907 47.283H47.2205L45.9068 48.2682L46.4159 49.8323L45.1063 48.8676L43.8009 49.8323L44.314 48.2682L42.9922 47.283H44.6137L45.1063 45.76L45.5907 47.283Z" fill="white"/>
<path d="M73.9386 73.7102H26.6641V76.7972H73.9386V73.7102Z" fill="#0054A4"/>
<path d="M73.7355 73.9154V76.5919H26.8714V73.9154H73.7355ZM74.146 73.5049H26.4609V77.0024H74.146V73.5049Z" fill="white"/>
<path d="M80.3088 1.36011C80.3088 1.36011 90.1077 16.549 91.8975 19.3446C93.6874 22.1361 95.7358 24.3447 102.985 25.8471C110.235 27.3455 113.392 28.0557 113.392 28.0557V28.5976C113.392 28.5976 108.786 27.637 102.858 26.348C96.9304 25.0548 94.5084 24.6197 91.8031 20.9538C89.5535 17.8996 80.3047 4.92335 80.3047 4.92335V1.36421L80.3088 1.36011Z" fill="white"/>
<path d="M80.3096 5.67822C80.3096 5.67822 90.4369 20.12 91.7793 21.8893C93.1217 23.6586 94.932 26.5117 102.937 28.1989C105.002 28.634 113.421 30.2843 113.421 30.2843V30.74C113.421 30.74 107.026 29.5125 102.937 28.6546C98.8483 27.7966 94.5502 27.0166 91.808 23.5724C89.3162 20.4443 80.2891 8.91305 80.2891 8.91305L80.3096 5.67822Z" fill="white"/>
<path d="M80.3096 10.0178C80.3096 10.0178 89.8499 22.2921 91.7793 24.747C93.7087 27.2018 96.3647 29.2298 102.937 30.4859C106.726 31.2084 113.393 32.4276 113.393 32.4276V32.8833C113.393 32.8833 107.551 31.7996 102.937 30.9703C98.3228 30.1411 94.5092 29.3406 91.7793 26.2905C89.3819 23.614 80.2891 13.0843 80.2891 13.0843L80.3096 10.0219V10.0178Z" fill="white"/>
<path d="M80.2891 14.2797C80.2891 14.2797 89.9484 25.4128 91.808 27.3997C94.7021 30.4908 96.102 31.5582 102.937 32.8513C105.671 33.3685 113.393 34.7068 113.393 34.7068V35.1912C113.393 35.1912 106.997 34.05 102.937 33.3357C98.877 32.6214 95.441 32.3546 91.7793 28.8529C88.9878 26.1846 80.3096 17.1492 80.3096 17.1492L80.2891 14.2756V14.2797Z" fill="white"/>
<path d="M80.3047 18.7114C80.3047 18.7114 89.2251 27.833 91.8031 30.452C94.5412 33.2312 98.0429 34.2575 102.903 35.1031C107.542 35.9118 113.388 36.8437 113.388 36.8437V37.3568C113.388 37.3568 107.895 36.4783 102.903 35.645C98.0059 34.8281 94.5782 34.3683 91.7744 31.8478C89.2621 29.5899 80.3047 21.392 80.3047 21.392V18.7073V18.7114Z" fill="white"/>
<path d="M80.3047 22.8196C80.3047 22.8196 88.7859 30.5085 91.8031 33.1316C94.5782 35.5496 96.8278 36.3008 102.932 37.3558C109.036 38.4108 113.388 39.0676 113.388 39.0676V39.6095C113.388 39.6095 107.866 38.7228 102.903 37.9552C97.9362 37.1834 94.7752 36.8796 91.8031 34.5315C88.3753 31.818 80.3047 25.3319 80.3047 25.3319V22.8196Z" fill="white"/>
<path d="M80.2891 27.2158C80.2891 27.2158 89.9689 34.7036 91.7793 36.0172C93.5896 37.3308 95.987 38.862 102.937 39.8432C109.829 40.8161 113.364 41.3005 113.364 41.3005V41.8711C113.364 41.8711 107.112 40.9844 102.937 40.4712C98.7621 39.9581 95.556 39.7405 91.808 37.3021C88.1586 34.9293 80.3096 29.5393 80.3096 29.5393L80.2891 27.2199V27.2158Z" fill="white"/>
<path d="M80.2891 31.4204C80.2891 31.4204 89.9936 37.73 91.8368 38.7275C93.6759 39.7251 95.8392 41.3548 102.937 42.2374C110.035 43.1241 113.364 43.5223 113.364 43.5223V44.0642C113.364 44.0642 107.494 43.4361 102.908 42.9517C98.3228 42.4673 95.1988 41.8105 91.7793 39.9837C88.3597 38.1569 80.3096 33.5715 80.3096 33.5715L80.2891 31.4204Z" fill="white"/>
<path d="M80.3096 35.6287C80.3096 35.6287 88.9016 40.1894 91.808 41.6139C95.0511 43.2026 97.8549 43.962 102.937 44.5532C107.929 45.132 113.393 45.6944 113.393 45.6944V46.2076C113.393 46.2076 108.339 45.678 102.937 45.1813C97.5839 44.6846 95.675 44.4588 91.808 42.7839C88.3515 41.2855 80.2891 37.6279 80.2891 37.6279L80.3096 35.6287Z" fill="white"/>
<path d="M80.3096 39.9111C80.3096 39.9111 87.0666 42.7355 91.8368 44.5828C96.5289 46.4013 100.113 46.5532 102.966 46.8652C104.222 47.0048 113.364 47.9202 113.364 47.9202V48.4334C113.364 48.4334 107.904 48.0064 102.937 47.5795C97.9698 47.1526 95.831 46.9719 91.808 45.6665C87.7398 44.3488 80.2891 41.8118 80.2891 41.8118L80.3096 39.9111Z" fill="white"/>
<path d="M80.3096 44.2441C80.3096 44.2441 87.1651 46.3172 91.8368 47.5159C96.5084 48.7146 100.802 49.199 102.966 49.3427C105.125 49.4863 113.364 50.1432 113.364 50.1432V50.6276C113.364 50.6276 108.692 50.3156 102.937 49.9133C98.2818 49.589 94.5461 49.2482 91.808 48.6571C88.7743 48.0044 80.2891 46.0298 80.2891 46.0298L80.3096 44.24V44.2441Z" fill="white"/>
<path d="M80.2891 48.5268C80.2891 48.5268 85.9131 49.471 91.8368 50.4275C96.2785 51.1459 102.292 51.5974 102.937 51.6262C103.581 51.6549 113.393 52.3117 113.393 52.3117V52.8249C113.393 52.8249 107.112 52.5088 102.937 52.283C98.5897 52.049 94.2629 51.7904 91.808 51.54C86.3072 50.9776 80.2891 50.2345 80.2891 50.2345V48.5227V48.5268Z" fill="white"/>
<path d="M80.3047 52.9617C80.3047 52.9617 89.1471 53.286 91.8319 53.3434C94.5207 53.4009 113.388 54.1439 113.388 54.1439V54.6571L80.3047 54.6366V52.9617Z" fill="white"/>
<path d="M29.6135 57.7296C29.6135 57.6352 29.6586 57.5818 29.7613 57.5818H32.483C32.5733 57.5818 32.6225 57.6352 32.6225 57.7214V58.1811C32.6225 58.2714 32.5856 58.3125 32.4747 58.3125H30.455V59.5851H32.2449C32.3393 59.5851 32.3926 59.6302 32.3926 59.7164V60.1762C32.3926 60.2665 32.3557 60.3076 32.2449 60.3076H30.455V61.7649H32.524C32.6143 61.7649 32.6554 61.8101 32.6554 61.9045V62.356C32.6554 62.4505 32.6184 62.4874 32.5158 62.4874H29.7572C29.6545 62.4874 29.6094 62.4422 29.6094 62.356V57.7296H29.6135Z" fill="#5877B8"/>
<path d="M36.0835 62.4874H35.558C35.4472 62.4874 35.4184 62.434 35.4184 62.3478V62.118L35.402 62.1097C35.1147 62.3109 34.6097 62.5531 34.1623 62.5531C33.1647 62.5531 33.0703 61.962 33.0703 61.1861V59.0145C33.0703 58.9242 33.1073 58.8667 33.2099 58.8667H33.7477C33.8421 58.8667 33.879 58.9201 33.879 59.0145V61.0917C33.879 61.535 33.9693 61.8142 34.4168 61.8142C34.7329 61.8142 35.2214 61.5761 35.4143 61.4817V59.0145C35.4143 58.9242 35.4431 58.8667 35.5539 58.8667H36.0794C36.182 58.8667 36.2189 58.9201 36.2189 59.0145V62.3478C36.2189 62.4423 36.182 62.4874 36.0794 62.4874H36.0835Z" fill="#5877B8"/>
<path d="M37.6644 62.346C37.6644 62.4363 37.6274 62.4856 37.5248 62.4856H36.9911C36.8885 62.4856 36.8516 62.4404 36.8516 62.346V59.0127C36.8516 58.9183 36.8885 58.8649 36.9911 58.8649H37.5166C37.6274 58.8649 37.6644 58.9224 37.6644 59.0127V59.337L37.6808 59.3534C37.9025 59.1481 38.4279 58.8936 38.7728 58.8279C38.8672 58.8074 38.937 58.8279 38.9493 58.9552L39.0026 59.4519C39.0109 59.5545 39.0191 59.5997 38.8631 59.6284C38.4485 59.7105 37.923 59.8583 37.6644 59.9692V62.3501V62.346Z" fill="#5877B8"/>
<path d="M40.768 62.5489C39.2819 62.5489 39.1875 61.4611 39.1875 60.6195C39.1875 59.9257 39.3435 58.7927 40.768 58.7927C42.1924 58.7927 42.4018 59.7451 42.4018 60.6195C42.4018 61.4939 42.2992 62.5489 40.768 62.5489ZM40.7762 59.5029C40.1481 59.5029 40.0085 59.9011 40.0085 60.6688C40.0085 61.4364 40.1481 61.8387 40.768 61.8387C41.4412 61.8387 41.5726 61.4611 41.5726 60.6688C41.5726 59.8765 41.4453 59.5029 40.7762 59.5029Z" fill="#5877B8"/>
<path d="M44.549 62.5585C44.3068 62.5585 43.966 62.5134 43.6253 62.3943L43.6171 62.4025V63.7038C43.6171 63.7859 43.5966 63.8516 43.4775 63.8516H42.9521C42.833 63.8516 42.8125 63.7983 42.8125 63.7038V59.0158C42.8125 58.9214 42.8494 58.868 42.9521 58.868H43.4775C43.5802 58.868 43.6089 58.9255 43.6089 59.0158V59.2375L43.6294 59.2539C43.8962 59.0692 44.3683 58.8105 44.7953 58.8105C45.7641 58.8105 46.0145 59.5413 46.0145 60.6578C46.0145 61.8606 45.7107 62.5585 44.5449 62.5585H44.549ZM44.6105 59.5495C44.3068 59.5495 43.8429 59.7629 43.6212 59.882V61.7293C43.9537 61.8237 44.2206 61.8565 44.471 61.8565C45.0046 61.8565 45.1894 61.5815 45.1894 60.6537C45.1894 59.726 45.0046 59.5536 44.6146 59.5536L44.6105 59.5495Z" fill="#5877B8"/>
<path d="M47.2943 60.8986C47.3148 61.6457 47.5816 61.851 48.1892 61.851C48.456 61.851 48.8706 61.7976 49.1498 61.7689C49.2812 61.7525 49.3263 61.7525 49.3509 61.8961L49.3961 62.1384C49.4166 62.2492 49.4043 62.3067 49.2688 62.3682C48.9815 62.4791 48.4396 62.553 48.0784 62.553C46.6662 62.553 46.4609 61.6498 46.4609 60.6892C46.4609 59.9708 46.5923 58.7886 48.0373 58.7886C49.3592 58.7886 49.5972 59.6465 49.6178 60.4429C49.626 60.7098 49.5521 60.8945 49.2565 60.8945H47.2984L47.2943 60.8986ZM47.3025 60.3444H48.768C48.768 59.8928 48.649 59.4577 48.0373 59.4577C47.4913 59.4577 47.3435 59.7902 47.3066 60.3444H47.3025Z" fill="#5877B8"/>
<path d="M52.2791 62.0697C51.9097 62.3489 51.4129 62.55 50.9203 62.55C50.1362 62.55 49.9064 62.1231 49.9064 61.4991C49.8981 60.6329 50.3661 60.2635 51.2939 60.2635H52.2381V60.0705C52.2381 59.6272 52.0739 59.4712 51.4704 59.4712C51.2282 59.4712 50.7602 59.5081 50.4647 59.5369C50.3169 59.5574 50.2799 59.5533 50.2594 59.4466L50.1937 59.1715C50.1773 59.0771 50.2019 59.0155 50.362 58.9498C50.6781 58.839 51.2652 58.7856 51.61 58.7856C52.8867 58.7856 53.0427 59.3111 53.0427 60.1362V61.5648C53.0427 61.8686 53.0796 61.8768 53.3095 61.9055C53.4203 61.9137 53.4491 61.9343 53.4491 62.0164V62.3284C53.4491 62.4105 53.3957 62.4597 53.2726 62.4844C53.1535 62.5049 53.0345 62.5213 52.9236 62.5213C52.5747 62.5213 52.3612 62.4187 52.2873 62.0697L52.2709 62.0615L52.2791 62.0697ZM52.234 60.8423H51.3308C50.9614 60.8423 50.7233 60.9737 50.7233 61.4622C50.7233 61.7865 50.8341 61.8891 51.183 61.8891C51.4991 61.8891 51.9507 61.7044 52.234 61.5402V60.8382V60.8423Z" fill="#5877B8"/>
<path d="M56.6735 62.4862H56.1398C56.0454 62.4862 56.0003 62.441 56.0003 62.3466L56.0085 60.2694C56.0085 59.8343 55.9059 59.5469 55.4748 59.5469C55.1792 59.5469 54.662 59.785 54.4608 59.8795V62.3466C54.4608 62.4369 54.4239 62.4862 54.3213 62.4862H53.7958C53.6932 62.4862 53.6562 62.441 53.6562 62.3466V59.0133C53.6562 58.9189 53.6932 58.8655 53.7958 58.8655H54.3213C54.4239 58.8655 54.4608 58.9189 54.4608 59.0133V59.2349C54.4608 59.2349 54.4773 59.2432 54.4814 59.2432C54.7564 59.0502 55.2737 58.7998 55.7211 58.7998C56.7187 58.7998 56.809 59.4566 56.809 60.2038V62.3466C56.809 62.4369 56.7802 62.4862 56.6694 62.4862H56.6735Z" fill="#5877B8"/>
<path d="M31.542 65.3269C31.9032 65.3269 32.5026 65.3803 32.8966 65.5404C33.0157 65.5937 33.0609 65.6512 33.0362 65.7703L32.9705 66.074C32.95 66.1644 32.9131 66.2013 32.7776 66.1849C32.4163 66.1397 31.973 66.0905 31.5871 66.0905C30.5814 66.0905 30.4336 66.9033 30.4336 67.8639C30.4336 68.8245 30.6183 69.5921 31.5871 69.5921C32.014 69.5921 32.3794 69.547 32.7776 69.4977C32.9172 69.4813 32.9459 69.5182 32.9788 69.6168L33.0362 69.8959C33.065 70.0149 33.028 70.0806 32.909 70.134C32.5477 70.29 31.9032 70.3557 31.542 70.3557C29.8917 70.3557 29.5469 69.1365 29.5469 67.8803C29.5469 66.6241 29.8589 65.331 31.542 65.331V65.3269Z" fill="#5877B8"/>
<path d="M34.7055 70.3472C33.2194 70.3472 33.125 69.2594 33.125 68.4178C33.125 67.7241 33.281 66.5911 34.7055 66.5911C36.1299 66.5911 36.3393 67.5435 36.3393 68.4178C36.3393 69.2922 36.2367 70.3472 34.7055 70.3472ZM34.7137 67.3013C34.0856 67.3013 33.946 67.6994 33.946 68.4671C33.946 69.2348 34.0856 69.6371 34.7055 69.6371C35.3787 69.6371 35.5101 69.2594 35.5101 68.4671C35.5101 67.6748 35.3828 67.3013 34.7137 67.3013Z" fill="#5877B8"/>
<path d="M41.9258 70.287H41.3921C41.2895 70.287 41.2525 70.2419 41.2525 70.1475V68.0497C41.2525 67.5038 41.1212 67.3478 40.7517 67.3478C40.4767 67.3478 40.0333 67.5612 39.8075 67.6803C39.8075 67.7542 39.8157 67.8855 39.8157 68.058V70.1516C39.8157 70.2419 39.787 70.2911 39.6762 70.2911H39.1384C39.044 70.2911 39.0111 70.246 39.0111 70.1516V68.0169C39.0111 67.5653 38.8921 67.3519 38.5226 67.3519C38.264 67.3519 37.8494 67.5366 37.5702 67.6844V70.1516C37.5702 70.2419 37.5333 70.2911 37.4307 70.2911H36.897C36.8026 70.2911 36.7656 70.246 36.7656 70.1516V66.8182C36.7656 66.7238 36.8026 66.6704 36.897 66.6704H37.4224C37.5333 66.6704 37.5702 66.7279 37.5702 66.8182V67.0317L37.5784 67.0399C37.8658 66.8387 38.2722 66.6171 38.6786 66.6047C39.1055 66.6047 39.4627 66.6951 39.6926 67.122C40.062 66.8469 40.5218 66.6047 40.9939 66.6047C41.9709 66.6047 42.0653 67.241 42.0653 67.98V70.1516C42.0653 70.2419 42.0366 70.2911 41.934 70.2911L41.9258 70.287Z" fill="#5877B8"/>
<path d="M47.7148 70.287H47.1812C47.0785 70.287 47.0416 70.2419 47.0416 70.1475V68.0497C47.0416 67.5038 46.9102 67.3478 46.5408 67.3478C46.2657 67.3478 45.8224 67.5612 45.5966 67.6803C45.5966 67.7542 45.6048 67.8855 45.6048 68.058V70.1516C45.6048 70.2419 45.5761 70.2911 45.4652 70.2911H44.9274C44.833 70.2911 44.8002 70.246 44.8002 70.1516V68.0169C44.8002 67.5653 44.6811 67.3519 44.3117 67.3519C44.0531 67.3519 43.6384 67.5366 43.3593 67.6844V70.1516C43.3593 70.2419 43.3223 70.2911 43.2197 70.2911H42.6861C42.5916 70.2911 42.5547 70.246 42.5547 70.1516V66.8182C42.5547 66.7238 42.5916 66.6704 42.6861 66.6704H43.2115C43.3223 66.6704 43.3593 66.7279 43.3593 66.8182V67.0317L43.3675 67.0399C43.6549 66.8387 44.0613 66.6171 44.4677 66.6047C44.8946 66.6047 45.2518 66.6951 45.4816 67.122C45.8511 66.8469 46.3109 66.6047 46.783 66.6047C47.76 66.6047 47.8544 67.241 47.8544 67.98V70.1516C47.8544 70.2419 47.8257 70.2911 47.723 70.2911L47.7148 70.287Z" fill="#5877B8"/>
<path d="M48.8726 66.1369C48.4868 66.1369 48.4375 65.9234 48.4375 65.7099C48.4375 65.4718 48.5196 65.2871 48.8726 65.2871C49.2257 65.2871 49.3078 65.4554 49.3078 65.7099C49.3078 65.9398 49.2421 66.1369 48.8726 66.1369ZM49.2626 70.1476C49.2626 70.2297 49.2339 70.2871 49.1313 70.2871H48.6058C48.5032 70.2871 48.458 70.242 48.458 70.1476V66.806C48.458 66.7034 48.5032 66.6664 48.6058 66.6664H49.1313C49.2339 66.6664 49.2626 66.7239 49.2626 66.806V70.1476Z" fill="#5877B8"/>
<path d="M51.0885 70.3502C50.719 70.3502 50.2223 70.2969 49.9431 70.186C49.7954 70.1285 49.7666 70.0588 49.7871 69.9438L49.8405 69.7016C49.861 69.5826 49.9144 69.5744 50.0334 69.5908C50.3578 69.6441 50.8298 69.6811 51.0844 69.6811C51.5564 69.6811 51.7494 69.5538 51.7494 69.2583C51.7494 68.9175 51.6221 68.8436 51.1582 68.778C50.4357 68.6753 49.7995 68.5193 49.7995 67.7147C49.7995 66.984 50.3619 66.5981 51.187 66.5981C51.4908 66.5981 51.9998 66.6433 52.3118 66.7623C52.439 66.8157 52.4883 66.8732 52.4678 66.984L52.4103 67.2509C52.3898 67.3535 52.3446 67.3699 52.2092 67.3535C51.8931 67.3165 51.4784 67.2714 51.2034 67.2714C50.7313 67.2714 50.6205 67.4027 50.6205 67.686C50.6205 67.9693 50.797 68.0103 51.2486 68.0842C51.9505 68.1868 52.5868 68.3264 52.5868 69.209C52.5868 70.0916 51.8561 70.3543 51.0926 70.3543L51.0885 70.3502Z" fill="#5877B8"/>
<path d="M54.19 70.3502C53.8206 70.3502 53.3238 70.2969 53.0447 70.186C52.8969 70.1285 52.8682 70.0588 52.8887 69.9438L52.9421 69.7016C52.9626 69.5826 53.016 69.5744 53.135 69.5908C53.4593 69.6441 53.9314 69.6811 54.1859 69.6811C54.658 69.6811 54.8509 69.5538 54.8509 69.2583C54.8509 68.9175 54.7237 68.8436 54.2598 68.778C53.5373 68.6753 52.901 68.5193 52.901 67.7147C52.901 66.984 53.4634 66.5981 54.2885 66.5981C54.5923 66.5981 55.1014 66.6433 55.4134 66.7623C55.5406 66.8157 55.5899 66.8732 55.5693 66.984L55.5119 67.2509C55.4913 67.3535 55.4462 67.3699 55.3107 67.3535C54.9946 67.3165 54.58 67.2714 54.305 67.2714C53.8329 67.2714 53.722 67.4027 53.722 67.686C53.722 67.9693 53.8986 68.0103 54.3501 68.0842C55.0521 68.1868 55.6884 68.3264 55.6884 69.209C55.6884 70.0916 54.9577 70.3543 54.1941 70.3543L54.19 70.3502Z" fill="#5877B8"/>
<path d="M56.5914 66.1369C56.2055 66.1369 56.1562 65.9234 56.1562 65.7099C56.1562 65.4718 56.2384 65.2871 56.5914 65.2871C56.9444 65.2871 57.0265 65.4554 57.0265 65.7099C57.0265 65.9398 56.9609 66.1369 56.5914 66.1369ZM56.9814 70.1476C56.9814 70.2297 56.9526 70.2871 56.85 70.2871H56.3246C56.2219 70.2871 56.1768 70.242 56.1768 70.1476V66.806C56.1768 66.7034 56.2219 66.6664 56.3246 66.6664H56.85C56.9526 66.6664 56.9814 66.7239 56.9814 66.806V70.1476Z" fill="#5877B8"/>
<path d="M59.1117 70.3472C57.6257 70.3472 57.5312 69.2594 57.5312 68.4178C57.5312 67.7241 57.6872 66.5911 59.1117 66.5911C60.5362 66.5911 60.7456 67.5435 60.7456 68.4178C60.7456 69.2922 60.6429 70.3472 59.1117 70.3472ZM59.1158 67.3013C58.4877 67.3013 58.3482 67.6994 58.3482 68.4671C58.3482 69.2348 58.4877 69.6371 59.1076 69.6371C59.7809 69.6371 59.9122 69.2594 59.9122 68.4671C59.9122 67.6748 59.785 67.3013 59.1117 67.3013H59.1158Z" fill="#5877B8"/>
<path d="M64.1579 70.288H63.6242C63.5298 70.288 63.4846 70.2428 63.4846 70.1484L63.4929 68.0712C63.4929 67.6361 63.3902 67.3487 62.9592 67.3487C62.6636 67.3487 62.1464 67.5868 61.9452 67.6812V70.1484C61.9452 70.2387 61.9083 70.288 61.8057 70.288H61.2802C61.1776 70.288 61.1406 70.2428 61.1406 70.1484V66.815C61.1406 66.7206 61.1776 66.6672 61.2802 66.6672H61.8057C61.9083 66.6672 61.9452 66.7206 61.9452 66.815V67.0367C61.9452 67.0367 61.9616 67.0449 61.9658 67.0449C62.2408 66.852 62.758 66.6016 63.2055 66.6016C64.203 66.6016 64.2934 67.2584 64.2934 68.0055V70.1484C64.2934 70.2387 64.2646 70.288 64.1538 70.288H64.1579Z" fill="#5877B8"/>
</svg>
