<svg width="137" height="34" viewBox="0 0 137 34" fill="none" xmlns="http://www.w3.org/2000/svg">
<path d="M55.4684 23.1651C55.4684 22.8933 55.2812 22.6921 54.8984 22.6138V22.4379C55.1103 22.4379 55.816 22.4647 56.0146 22.4647C56.1863 22.4647 56.8697 22.4379 57.0823 22.4379V22.6138C56.727 22.6793 56.5405 22.8777 56.5405 23.1651V26.6156C56.5405 27.7083 57.1747 28.326 58.5012 28.326C59.6443 28.326 60.5336 27.8404 60.5336 26.6969V23.1516C60.5336 22.8953 60.3635 22.6921 59.9353 22.6138V22.4379C60.0911 22.4379 60.6746 22.4647 60.8738 22.4647C61.044 22.4647 61.6564 22.4379 61.813 22.4379V22.6138C61.3999 22.707 61.2162 22.8819 61.2162 23.1516V26.5068C61.2162 28.0126 60.2903 28.8774 58.2924 28.8774C56.4323 28.8774 55.4684 28.0775 55.4684 26.6628V23.1651Z" fill="#1D1D1B"/>
<path d="M63.4495 28.6056C63.8823 28.5293 64.0531 28.322 64.0531 28.0677V23.2985C64.0531 22.894 63.8255 22.7121 63.4375 22.6118V22.4359C63.657 22.4514 64.0254 22.4606 64.2135 22.4606C64.3843 22.4606 64.65 22.4578 64.8289 22.4359L69.201 27.2998V23.1503C69.201 22.8947 69.0294 22.6914 68.6027 22.6118V22.4359C68.7594 22.4359 69.322 22.4634 69.5219 22.4634C69.6958 22.4634 70.2985 22.4359 70.4574 22.4359V22.6118C70.0403 22.7049 69.8391 22.8814 69.8391 23.1503V28.876H69.5756C69.4098 28.84 69.0965 28.6713 68.6191 28.1758L64.7074 23.8647V28.0677C64.7074 28.3232 64.8632 28.5258 65.2901 28.6056V28.7821C65.1335 28.7821 64.5709 28.754 64.371 28.754C64.1986 28.754 63.6083 28.7821 63.4495 28.7821V28.6056Z" fill="#1D1D1B"/>
<path d="M97.9508 27.3208H98.1359C98.2337 27.6772 98.4492 28.0021 98.7513 28.1898C99.0657 28.3994 99.5588 28.4996 99.9571 28.4996C100.837 28.4996 101.394 28.0874 101.394 27.4351C101.394 26.7596 100.68 26.4088 99.8244 26.0042C99.1878 25.7029 97.9375 25.2053 97.9375 24.0616C97.9375 22.9962 98.7963 22.3335 100.17 22.3335C101.076 22.3335 101.502 22.5431 102.113 22.5163L102.102 23.8088H101.915C101.67 23.0471 100.939 22.7817 100.138 22.7817C99.2431 22.7817 98.9082 23.2661 98.9082 23.7588C98.9082 24.464 99.6377 24.8196 100.464 25.1685C101.394 25.5602 102.403 26.0551 102.403 27.1571C102.403 28.2003 101.54 28.9558 99.9638 28.9558C99.0259 28.9558 98.4634 28.7024 97.9703 28.645L97.9508 27.3208Z" fill="#1D1D1B"/>
<path d="M116.733 26.1571L114.953 23.4549C114.65 22.9806 114.417 22.7305 114.078 22.612V22.4368C114.322 22.4368 114.981 22.4644 115.168 22.4644C115.337 22.4644 116.049 22.4368 116.305 22.4368V22.612C116.078 22.6501 115.971 22.758 115.971 22.9204C115.971 23.0637 116.074 23.248 116.178 23.4083C116.279 23.567 117.49 25.4675 117.49 25.4675L118.754 23.4091C118.882 23.2028 118.972 22.9981 118.972 22.8632C118.972 22.7404 118.881 22.6387 118.665 22.612V22.4368C118.879 22.4368 119.329 22.4644 119.472 22.4644C119.616 22.4644 120.133 22.4368 120.345 22.4368V22.6C119.859 22.7885 119.555 23.1922 119.26 23.6602L117.642 26.2193M117.753 25.8966V28.0553C117.753 28.2692 117.925 28.5382 118.314 28.6058V28.7825C118.097 28.7825 117.389 28.7542 117.183 28.7542C117.011 28.7542 116.331 28.7825 116.086 28.7825V28.6058C116.477 28.5382 116.664 28.2692 116.664 28.0553V25.9913" fill="#1D1D1B"/>
<path d="M83.6584 22.4368H87.8328C87.9619 22.4368 88.188 22.4228 88.3169 22.3698H88.5036L88.4744 23.6531H88.2894C88.1305 23.2494 87.9656 22.9261 87.1577 22.9261H85.3453V25.1625H86.7421C86.9457 25.1625 87.1926 25.1462 87.2994 25.1222C87.6134 25.0573 87.7516 24.8919 87.815 24.6387H88.0014C87.9881 24.832 87.9881 25.2733 87.9881 25.4039C87.9881 25.5352 88.0014 25.9997 88.0014 26.2101H87.815C87.7253 25.9573 87.6031 25.7653 87.2994 25.6947C87.1926 25.6679 86.9414 25.646 86.7421 25.646H85.3453V28.2693H87.3165C88.1775 28.2693 88.4276 27.9297 88.6415 27.4497L88.8259 27.4905L88.6415 28.8086C88.0014 28.7549 87.6173 28.7549 86.8905 28.7549H84.8076C84.6068 28.7549 83.8704 28.7825 83.6562 28.7825V28.6067C84.0322 28.5389 84.2518 28.363 84.2518 28.0221V23.1704C84.2518 22.8697 84.0807 22.6818 83.6584 22.6148V22.4368Z" fill="#1D1D1B"/>
<path d="M72.9986 23.2049C72.9986 22.8795 72.7935 22.7003 72.3913 22.6182V22.444C72.6152 22.444 73.3398 22.4707 73.5509 22.4707C73.7276 22.4707 74.4724 22.444 74.6992 22.444V22.6182C74.2992 22.7003 74.0894 22.8624 74.0894 23.2049V28.0228C74.0894 28.3482 74.2954 28.5254 74.6992 28.6058V28.7825C74.473 28.7825 73.7589 28.7548 73.5509 28.7548C73.3709 28.7548 72.6152 28.7825 72.3906 28.7825V28.6058C72.8018 28.5332 72.9986 28.3631 72.9986 28.0228V23.2049Z" fill="#1D1D1B"/>
<path d="M104.664 23.2049C104.664 22.8795 104.456 22.7003 104.055 22.6182V22.444C104.279 22.444 105.004 22.4707 105.213 22.4707C105.392 22.4707 106.136 22.444 106.362 22.444V22.6182C105.963 22.7003 105.754 22.8624 105.754 23.2049V28.0228C105.754 28.3482 105.96 28.5254 106.362 28.6058V28.7825C106.138 28.7825 105.424 28.7548 105.213 28.7548C105.037 28.7548 104.279 28.7825 104.055 28.7825V28.6058C104.465 28.5332 104.664 28.3631 104.664 28.0228V23.2049Z" fill="#1D1D1B"/>
<path d="M110.466 22.4636C108.178 22.4636 107.812 22.4233 107.344 22.3958L107.348 23.7033H107.534C107.705 23.1237 108.046 22.9889 108.488 22.9889H109.923V28.0228C109.923 28.3629 109.726 28.5332 109.314 28.6058V28.7825C109.54 28.7825 110.303 28.7548 110.479 28.7548C110.689 28.7548 111.405 28.7825 111.628 28.7825V28.6058C111.223 28.5254 111.018 28.3482 111.018 28.0228V22.9889H112.442C112.901 22.9889 113.228 23.1364 113.399 23.7033H113.583L113.586 22.3958C113.121 22.4233 112.755 22.4636 110.466 22.4636Z" fill="#1D1D1B"/>
<path d="M92.2084 28.0232C92.2084 28.3486 92.4269 28.5251 92.8306 28.6062V28.7829C92.6067 28.7829 91.8748 28.7552 91.6659 28.7552C91.4868 28.7552 90.7721 28.7829 90.5469 28.7829V28.6062C90.9213 28.5386 91.142 28.3635 91.142 28.0232V23.156C91.142 22.8567 90.9698 22.6682 90.5484 22.6004V22.4253C90.7721 22.4253 91.48 22.4521 91.6801 22.4521C92.0078 22.4521 92.9387 22.3999 93.3051 22.3999C94.9091 22.3999 95.8022 23.0275 95.8022 24.1032C95.8022 24.9489 95.1374 25.5208 94.1137 25.7544C94.1137 25.7544 94.3474 25.8828 94.5801 26.1391C94.863 26.4546 95.6268 27.4918 95.9438 27.8544C96.2603 28.2182 96.6654 28.624 97.0995 28.6423V28.7842C96.8915 28.8272 96.5579 28.8647 96.3027 28.8647C95.7581 28.8647 95.3233 28.6826 94.901 28.1991C94.5355 27.7783 93.9155 26.9051 93.5504 26.4638C93.3171 26.1829 93.0342 25.9634 92.5164 25.8828C92.4164 25.8667 92.3217 25.8532 92.2084 25.8406V28.0232ZM92.2084 25.4367C92.4218 25.4642 92.7358 25.477 93.0462 25.477C94.3019 25.477 94.6974 24.7936 94.6974 24.1888C94.6974 23.3332 94.0936 22.803 92.9946 22.803C92.7672 22.803 92.4373 22.8299 92.2084 22.8706V25.4367Z" fill="#1D1D1B"/>
<path d="M76.3082 23.2264C76.162 22.9201 75.9374 22.6956 75.5547 22.6159V22.4372C75.7926 22.4372 76.6171 22.4655 76.7983 22.4655C76.9649 22.4655 77.6854 22.4372 77.9303 22.4372V22.6108C77.713 22.6503 77.4654 22.764 77.4654 22.9744C77.4654 23.1247 77.5616 23.3295 77.7459 23.715L79.4738 27.435L81.1093 23.7086C81.2384 23.4079 81.3317 23.1749 81.3317 22.997C81.3317 22.8001 81.1399 22.6637 80.8681 22.6108V22.4372C81.0855 22.4372 81.6181 22.4655 81.7837 22.4655C81.9351 22.4655 82.5604 22.4372 82.7991 22.4372V22.6159C82.391 22.7203 82.1425 22.9328 81.9135 23.4362L79.5066 28.8059H78.962L76.3082 23.2264Z" fill="#1D1D1B"/>
<path d="M82.4748 6.2903C82.1967 5.70926 81.7698 5.28571 81.0469 5.13398V4.79581C81.4967 4.79581 82.9904 4.84666 83.3336 4.84666C83.6499 4.84666 85.0966 4.79581 85.5576 4.79581V5.1255C85.1487 5.20113 84.6787 5.41714 84.6787 5.81591C84.6787 6.09747 84.8638 6.48665 85.207 7.21574L88.4845 14.2658L91.5859 7.20375C91.8277 6.63198 92.0082 6.19501 92.0082 5.85684C92.0082 5.48126 91.6412 5.22655 91.1271 5.1255V4.79581C91.5374 4.79581 92.5349 4.84666 92.8519 4.84666C93.1401 4.84666 94.3248 4.79581 94.7755 4.79581V5.11495C94.0026 5.31337 93.5296 5.7334 93.099 6.68699L88.5397 16.8657H87.5079L82.4748 6.2903Z" fill="#1D1D1B"/>
<path d="M38.3438 16.4791C38.9391 16.3506 39.3577 16.0944 39.3577 15.4563V6.12466C39.3577 5.51197 38.9682 5.25774 38.3438 5.10393V4.7728C38.6564 4.7728 40.003 4.823 40.3305 4.823C40.708 4.823 42.1196 4.7728 42.43 4.7728V5.10393C41.8354 5.23168 41.3945 5.48718 41.3945 6.12466V10.0228H48.7418V6.12466C48.7418 5.48718 48.3501 5.23168 47.7294 5.10393V4.7728C48.0397 4.7728 49.4261 4.823 49.8027 4.823C50.128 4.823 51.5061 4.7728 51.8133 4.7728V5.10393C51.2182 5.23168 50.7771 5.48718 50.7771 6.12466V15.4563C50.7771 16.069 51.1911 16.3259 51.8133 16.4791V16.7847C51.5061 16.7847 50.128 16.7594 49.8027 16.7594C49.4261 16.7594 48.0397 16.7847 47.7294 16.7847V16.4791C48.3204 16.3506 48.7418 16.0944 48.7418 15.4563V11.0462H41.3945V15.4563C41.3945 16.0944 41.8078 16.3259 42.43 16.4791V16.7847C42.1196 16.7847 40.708 16.7594 40.3305 16.7594C40.003 16.7594 38.6564 16.7847 38.3438 16.7847V16.4791Z" fill="#1D1D1B"/>
<path d="M123.328 16.4786C124.091 16.35 124.511 16.0635 124.511 15.4049V6.12414C124.511 5.48458 124.097 5.23115 123.36 5.1034V4.77227C123.784 4.77227 125.166 4.82247 125.548 4.82247C126.166 4.82247 127.89 4.69472 129.231 4.69472C133.751 4.69472 136.495 7.08283 136.495 10.7141C136.495 14.2437 133.64 16.8591 128.98 16.8591C127.636 16.8591 126.042 16.7589 125.419 16.7589C125.04 16.7589 123.751 16.8096 123.328 16.8096V16.4786ZM126.546 15.8637C127.006 15.9428 127.857 15.9922 128.528 15.9922C132.324 15.9922 134.301 13.83 134.301 10.8143C134.301 7.68786 132.215 5.4881 128.666 5.4881C127.94 5.4881 127.034 5.53958 126.546 5.61457V15.8637Z" fill="#1D1D1B"/>
<path d="M72.1681 15.3704C72.1681 15.9889 72.5821 16.3248 73.3439 16.478V16.8091C72.9194 16.8091 71.5369 16.7582 71.1393 16.7582C70.8035 16.7582 69.4471 16.8091 69.0234 16.8091V16.478C69.7306 16.3496 70.1477 16.0164 70.1477 15.3704V6.15612C70.1477 5.58916 69.8239 5.23068 69.0248 5.10277V4.77164C69.4495 4.77164 70.7893 4.82184 71.1653 4.82184C71.7869 4.82184 73.5492 4.72383 74.2445 4.72383C77.284 4.72383 78.9761 5.91325 78.9761 7.94769C78.9761 9.55154 77.7137 10.6308 75.7763 11.0762C75.7763 11.0762 76.2157 11.3185 76.6579 11.8061C77.1945 12.4027 78.6748 14.4076 79.2732 15.0943C79.8714 15.782 80.6391 16.5499 81.4598 16.5852V16.8558C81.0666 16.936 80.437 17.0046 79.9557 17.0046C78.9195 17.0046 78.0965 16.6615 77.296 15.7437C76.6059 14.9475 75.3986 13.2547 74.707 12.419C74.2654 11.8866 73.7328 11.4717 72.7547 11.3185C72.562 11.2873 72.3809 11.2633 72.1681 11.2408V15.3704ZM72.1681 10.4763C72.5703 10.5264 73.1648 10.5518 73.7544 10.5518C76.1314 10.5518 76.8781 9.25718 76.8781 8.11349C76.8781 6.48933 75.7351 5.48747 73.6528 5.48747C73.2238 5.48747 72.5987 5.53911 72.1681 5.61394V10.4763Z" fill="#1D1D1B"/>
<path d="M112.229 15.3704C112.229 15.9889 112.645 16.3248 113.407 16.478V16.8091C112.984 16.8091 111.602 16.7582 111.205 16.7582C110.863 16.7582 109.511 16.8091 109.086 16.8091V16.478C109.792 16.3496 110.21 16.0164 110.21 15.3704V6.15612C110.21 5.58916 109.883 5.23068 109.088 5.10277V4.77164C109.514 4.77164 110.85 4.82184 111.229 4.82184C111.852 4.82184 113.613 4.72383 114.304 4.72383C117.349 4.72383 119.036 5.91325 119.036 7.94769C119.036 9.55154 117.776 10.6308 115.837 11.0762C115.837 11.0762 116.279 11.3185 116.718 11.8061C117.259 12.4027 118.739 14.4076 119.336 15.0943C119.936 15.782 120.704 16.5499 121.52 16.5852V16.8558C121.132 16.936 120.499 17.0046 120.023 17.0046C118.984 17.0046 118.158 16.6615 117.359 15.7437C116.669 14.9475 115.466 13.2547 114.768 12.419C114.326 11.8866 113.795 11.4717 112.819 11.3185C112.624 11.2873 112.445 11.2633 112.229 11.2408V15.3704ZM112.229 10.4763C112.637 10.5264 113.227 10.5518 113.818 10.5518C116.196 10.5518 116.94 9.25718 116.94 8.11349C116.94 6.48933 115.796 5.48747 113.718 5.48747C113.285 5.48747 112.663 5.53911 112.229 5.61394V10.4763Z" fill="#1D1D1B"/>
<path d="M53.7507 16.4761C54.5549 16.2983 54.9966 15.8055 55.2898 15.1461L59.359 5.88243C59.5321 5.49918 59.7335 4.71124 59.7335 4.71124H60.8721C60.8721 4.71124 61.0757 5.50126 61.2451 5.88531L65.5454 15.1715C65.8522 15.8111 66.184 16.2729 67.0391 16.4761L67.0369 16.7847C66.5714 16.7847 65.124 16.7592 64.7948 16.7592C64.4673 16.7592 63.0848 16.7847 62.6201 16.7847L62.6216 16.4761C63.2476 16.3307 63.4453 16.0293 63.4453 15.7377C63.4453 15.49 63.3371 15.2104 63.2058 14.9204L62.2813 12.9253H57.5429L56.6963 14.9315C56.6015 15.1589 56.4888 15.4801 56.4888 15.6968C56.4888 16.0314 56.6738 16.2983 57.3841 16.4761L57.3825 16.7847C56.9618 16.7847 55.8508 16.7592 55.5906 16.7592L53.75 16.7847L53.7507 16.4761ZM61.8524 11.9793L59.829 7.51874L57.9444 11.9793H61.8524Z" fill="#1D1D1B"/>
<path d="M94.064 16.4761C94.8677 16.2983 95.3108 15.8055 95.6025 15.1461L99.673 5.88243C99.8462 5.49918 100.05 4.71124 100.05 4.71124H101.188C101.188 4.71124 101.39 5.50126 101.559 5.88531L105.86 15.1715C106.165 15.8111 106.5 16.2729 107.351 16.4761L107.35 16.7847C106.886 16.7847 105.437 16.7592 105.105 16.7592C104.781 16.7592 103.399 16.7847 102.933 16.7847V16.4761C103.563 16.3307 103.758 16.0293 103.758 15.7377C103.758 15.49 103.651 15.2104 103.522 14.9204L102.594 12.9253H97.8556L97.0081 14.9315C96.9133 15.1589 96.8014 15.4801 96.8014 15.6968C96.8014 16.0314 96.9865 16.2983 97.6967 16.4761V16.7847C97.2744 16.7847 96.1652 16.7592 95.9033 16.7592L94.0625 16.7847L94.064 16.4761ZM102.166 11.9793L100.141 7.51874L98.2578 11.9793H102.166Z" fill="#1D1D1B"/>
<path d="M0.773438 1.02687H29.1455V11.1674C29.1455 15.8136 27.3175 25.6668 15.0653 33C15.0653 33 1.78955 27.7542 0.773438 11.1674L0.773438 1.02687Z" fill="#A81D28"/>
<path d="M0.71875 0.999776H29.1183V11.1473C29.1183 15.7952 27.2882 25.6538 15.0248 32.9919C15.0248 32.9919 1.73639 27.7428 0.71875 11.1473L0.71875 0.999776Z" stroke="#12110C" stroke-width="0.306667"/>
<path d="M22.2503 14.0568C22.2503 14.0568 21.9973 14.8197 20.8724 14.0355L17.0098 13.9472C17.0098 13.9472 16.504 14.1012 16.4353 13.6006C16.4353 13.6006 16.5279 12.6005 16.4809 12.5129C16.4809 12.5129 16.504 12.2305 15.9966 12.2305C15.9966 12.2305 15.2162 12.3173 15.193 11.6637C15.193 11.6637 15.0567 10.9677 16.1362 10.9909C16.1362 10.9909 16.4809 11.1426 16.504 10.7283C16.504 10.7283 16.4586 7.89972 16.4809 7.68371C16.4809 7.68371 16.5733 7.42389 16.0436 7.37944C16.0436 7.37944 15.2857 7.53118 15.193 7.05407C15.193 7.05407 15.1476 6.33616 15.6542 6.29171C15.6542 6.29171 16.2742 6.33616 16.389 6.18299C16.389 6.18299 16.5279 6.26901 16.504 5.74953L16.5279 4.85574C16.5279 4.85574 16.5943 4.61719 16.986 4.64053C16.986 4.64053 17.6991 4.68354 17.7924 4.61719C17.7924 4.61719 17.9514 4.42244 17.9984 4.33402C17.9984 4.33402 18.367 4.31292 18.4349 4.40038C18.4349 4.40038 18.987 4.74846 21.0789 4.61719C21.0789 4.61719 21.4013 4.61719 21.4684 4.70481C21.4684 4.70481 21.8608 4.98701 22.0899 4.68354C22.0899 4.68354 22.4346 4.61719 23.4687 4.64053C23.4687 4.64053 24.5967 4.9221 25.3764 4.31292L25.63 4.35673C25.63 4.35673 25.9516 4.85574 26.1814 4.70481C26.1814 4.70481 26.8716 4.64053 26.9856 4.77036C26.9856 4.77036 27.2148 5.09446 27.1005 5.94571C27.1005 5.94571 26.9642 6.31426 27.6303 6.31426C27.6303 6.31426 28.3899 6.18299 28.2964 6.85708C28.2964 6.85708 28.5031 7.6188 27.2401 7.51071C27.2401 7.51071 27.0782 7.72816 27.1005 7.8807C27.1005 7.8807 27.0782 10.3591 27.0551 10.6436C27.0551 10.6436 27.0326 11.0355 27.5833 11.0128C27.5833 11.0128 28.3198 10.9677 28.3443 11.5994C28.3443 11.5994 28.4354 12.426 27.3767 12.2729C27.3767 12.2729 27.0551 12.3173 27.0072 12.5129L26.9642 13.6006C26.9642 13.6006 26.9856 14.1442 26.3433 14.0129C26.2515 14.0129 22.7576 14.0801 22.4578 13.9933C22.4578 13.9933 22.2951 13.9714 22.2503 14.0568Z" fill="white"/>
<path d="M14.8229 17.6929C14.8229 17.6929 14.9841 17.6286 15.0295 17.5213C15.0295 17.5213 15.513 17.4767 15.5808 17.412L17.0991 17.5213C17.0991 17.5213 18.5928 17.6286 19.2366 17.1917C19.2366 17.1917 19.468 17.1917 19.629 17.258C19.629 17.258 19.9491 17.3244 20.0408 17.4529L20.9153 17.431C20.9153 17.431 21.4211 17.5848 21.3741 17.8897V18.2802C21.3741 18.2802 21.2817 19.0638 21.5115 19.1083H22.1799C22.1799 19.1083 22.7321 19.347 22.6627 19.6511C22.6627 19.6511 22.6858 20.0845 22.2039 20.1728C22.2039 20.1728 21.7189 20.3026 21.5599 20.2822C21.5599 20.2822 21.398 20.4771 21.3741 20.7163L21.3071 23.5661C21.3071 23.5661 21.2601 23.8704 21.7435 23.8272C21.7435 23.8272 22.4545 23.7617 22.6627 24.1329C22.6627 24.1329 22.8469 24.7626 22.4791 24.8713L22.2039 25.0005L21.6046 25.091C21.6046 25.091 21.3534 25.1107 21.3294 25.5237V26.2838C21.3294 26.2838 21.3534 26.8077 20.9153 26.8077L20.2715 26.8514C20.2715 26.8514 20.111 26.9799 19.7896 26.8931C19.7896 26.8931 15.8807 26.9601 15.7427 26.9158L15.2825 27.0039C15.2825 27.0039 14.7772 27.4388 14.3632 27.1112L14.0416 26.8719C14.0416 26.8719 13.8111 26.9158 13.7209 26.8931C13.6285 26.8719 9.39806 26.9376 9.39806 26.9376C9.39806 26.9376 8.50124 27.0258 8.43331 26.7414C8.43331 26.7414 8.31857 25.633 8.36403 25.5003C8.36403 25.5003 8.36403 25.1756 8.15736 25.1545C8.15736 25.1545 7.26054 25.1107 7.23739 25.0224C7.23739 25.0224 6.75392 24.6978 6.89198 24.3721C6.89198 24.3721 7.05387 23.9353 7.53582 23.8921C7.53582 23.8921 8.27142 24.0023 8.27142 23.8061C8.27142 23.8061 8.31857 23.6755 8.31857 23.4588C8.31857 23.4588 8.36403 20.8688 8.34088 20.6952C8.34088 20.6952 8.40948 20.369 8.11038 20.369C8.11038 20.369 7.7888 20.4552 7.5828 20.3253C7.5828 20.3253 7.03072 20.3472 6.91581 19.9334C6.91581 19.9334 6.82338 19.673 6.96059 19.4535C6.96059 19.4535 7.21441 18.9755 7.95001 19.1286C7.95001 19.1286 8.36403 19.2381 8.40948 18.9564L8.38785 17.9102C8.38785 17.9102 8.29457 17.6286 8.8698 17.4767C8.8698 17.4767 9.6054 17.6716 9.83455 17.3244C9.83455 17.3244 10.0882 16.8442 10.2927 17.1705C10.2927 17.1705 10.7314 17.5631 11.9266 17.5213C11.9266 17.5213 13.9962 17.3675 14.0416 17.4529C14.0416 17.4529 14.5476 17.5213 14.6848 17.6716L14.8229 17.6929Z" fill="white"/>
<path d="M8.57864 14.0569C8.57864 14.0569 8.32499 14.8199 7.19853 14.035L3.33667 13.9474C3.33667 13.9474 2.8309 14.1014 2.76144 13.6003C2.76144 13.6003 2.85405 12.6007 2.80622 12.513C2.80622 12.513 2.8309 12.2292 2.32427 12.2292C2.32427 12.2292 1.54389 12.3181 1.52142 11.6653C1.52142 11.6653 1.38268 10.9671 2.46301 10.9911C2.46301 10.9911 2.80622 11.1428 2.8309 10.7293C2.8309 10.7293 2.78459 7.90198 2.80622 7.68326C2.80622 7.68326 2.90018 7.42487 2.37125 7.38026C2.37125 7.38026 1.61166 7.53136 1.52142 7.05281C1.52142 7.05281 1.47444 6.33634 1.97954 6.2919C1.97954 6.2919 2.6004 6.33634 2.71599 6.18589C2.71599 6.18589 2.85405 6.26999 2.8309 5.74747L2.85405 4.85673C2.85405 4.85673 2.92333 4.61737 3.312 4.63928C3.312 4.63928 4.02682 4.68229 4.11925 4.61737C4.11925 4.61737 4.27979 4.42263 4.32373 4.33421C4.32373 4.33421 4.69381 4.31374 4.76241 4.39848C4.76241 4.39848 5.31297 4.74864 7.40723 4.61737C7.40723 4.61737 7.72729 4.61737 7.79674 4.70499C7.79674 4.70499 8.18693 4.9872 8.41675 4.68229C8.41675 4.68229 8.76148 4.61737 9.79687 4.63928C9.79687 4.63928 10.9213 4.92164 11.7041 4.31374L11.9562 4.35835C11.9562 4.35835 12.2778 4.85673 12.5098 4.70499C12.5098 4.70499 13.1984 4.63928 13.314 4.77054C13.314 4.77054 13.5445 5.09672 13.4274 5.94589C13.4274 5.94589 13.2908 6.31508 13.9571 6.31508C13.9571 6.31508 14.7151 6.18589 14.6241 6.85727C14.6241 6.85727 14.8315 7.61898 13.567 7.51089C13.567 7.51089 13.4051 7.72898 13.4274 7.88088C13.4274 7.88088 13.4051 10.3593 13.3826 10.6438C13.3826 10.6438 13.3603 11.0328 13.9117 11.013C13.9117 11.013 14.6473 10.9671 14.6696 11.6004C14.6696 11.6004 14.7614 12.4262 13.7049 12.273C13.7049 12.273 13.3826 12.3181 13.3356 12.513L13.2908 13.6003C13.2908 13.6003 13.314 14.1444 12.6686 14.0146C12.5769 14.0146 9.08459 14.0788 8.78447 13.9935C8.78447 13.9935 8.6241 13.9716 8.57864 14.0569Z" fill="white"/>
<path d="M22.2503 14.0568C22.2503 14.0568 21.9973 14.8197 20.8724 14.0355L17.0098 13.9472C17.0098 13.9472 16.504 14.1012 16.4353 13.6006C16.4353 13.6006 16.5279 12.6005 16.4809 12.5129C16.4809 12.5129 16.504 12.2305 15.9966 12.2305C15.9966 12.2305 15.2162 12.3173 15.193 11.6637C15.193 11.6637 15.0567 10.9677 16.1362 10.9909C16.1362 10.9909 16.4809 11.1426 16.504 10.7283C16.504 10.7283 16.4586 7.89972 16.4809 7.68371C16.4809 7.68371 16.5733 7.42389 16.0436 7.37944C16.0436 7.37944 15.2857 7.53118 15.193 7.05407C15.193 7.05407 15.1476 6.33616 15.6542 6.29171C15.6542 6.29171 16.2742 6.33616 16.389 6.18299C16.389 6.18299 16.5279 6.26901 16.504 5.74953L16.5279 4.85574C16.5279 4.85574 16.5943 4.61719 16.986 4.64053C16.986 4.64053 17.6991 4.68354 17.7924 4.61719C17.7924 4.61719 17.9514 4.42244 17.9984 4.33402C17.9984 4.33402 18.367 4.31292 18.4349 4.40038C18.4349 4.40038 18.987 4.74846 21.0789 4.61719C21.0789 4.61719 21.4013 4.61719 21.4684 4.70481C21.4684 4.70481 21.8608 4.98701 22.0899 4.68354C22.0899 4.68354 22.4346 4.61719 23.4687 4.64053C23.4687 4.64053 24.5967 4.9221 25.3764 4.31292L25.63 4.35673C25.63 4.35673 25.9516 4.85574 26.1814 4.70481C26.1814 4.70481 26.8716 4.64053 26.9856 4.77036C26.9856 4.77036 27.2148 5.09446 27.1005 5.94571C27.1005 5.94571 26.9642 6.31426 27.6303 6.31426C27.6303 6.31426 28.3899 6.18299 28.2964 6.85708C28.2964 6.85708 28.5031 7.6188 27.2401 7.51071C27.2401 7.51071 27.0782 7.72816 27.1005 7.8807C27.1005 7.8807 27.0782 10.3591 27.0551 10.6436C27.0551 10.6436 27.0326 11.0355 27.5833 11.0128C27.5833 11.0128 28.3198 10.9677 28.3443 11.5994C28.3443 11.5994 28.4354 12.426 27.3767 12.2729C27.3767 12.2729 27.0551 12.3173 27.0072 12.5129L26.9642 13.6006C26.9642 13.6006 26.9856 14.1442 26.3433 14.0129C26.2515 14.0129 22.7576 14.0801 22.4578 13.9933C22.4578 13.9933 22.2951 13.9714 22.2503 14.0568Z" fill="#12110C"/>
<path d="M22.251 14.0581C22.251 14.0581 21.998 14.8213 20.873 14.037L17.0097 13.9487C17.0097 13.9487 16.5039 14.1026 16.4353 13.6015C16.4353 13.6015 16.5286 12.6012 16.4807 12.5136C16.4807 12.5136 16.5039 12.2312 15.9973 12.2312C15.9973 12.2312 15.2162 12.3188 15.1931 11.665C15.1931 11.665 15.0565 10.969 16.136 10.9916C16.136 10.9916 16.4807 11.1435 16.5039 10.7298C16.5039 10.7298 16.4584 7.90107 16.4807 7.68442C16.4807 7.68442 16.574 7.42396 16.0443 7.38015C16.0443 7.38015 15.2855 7.53204 15.1931 7.05477C15.1931 7.05477 15.1483 6.33607 15.6541 6.29242C15.6541 6.29242 16.2741 6.33607 16.3892 6.18369C16.3892 6.18369 16.5286 6.26971 16.5039 5.74943L16.5286 4.85581C16.5286 4.85581 16.5941 4.61725 16.9874 4.6406C16.9874 4.6406 17.6998 4.68361 17.7924 4.61725C17.7924 4.61725 17.9514 4.42315 17.9991 4.33473C17.9991 4.33473 18.367 4.31298 18.4356 4.4006C18.4356 4.4006 18.987 4.74852 21.0795 4.61725C21.0795 4.61725 21.402 4.61725 21.4691 4.70471C21.4691 4.70471 21.8614 4.98708 22.0906 4.68361C22.0906 4.68361 22.4353 4.61725 23.4694 4.6406C23.4694 4.6406 24.5973 4.92216 25.3777 4.31298L25.6315 4.356C25.6315 4.356 25.953 4.85581 26.1821 4.70471C26.1821 4.70471 26.8722 4.6406 26.9863 4.76963C26.9863 4.76963 27.2161 5.09517 27.1021 5.94498C27.1021 5.94498 26.9648 6.31496 27.6317 6.31496C27.6317 6.31496 28.3906 6.18369 28.2971 6.85715C28.2971 6.85715 28.5038 7.6195 27.2408 7.51078C27.2408 7.51078 27.0796 7.72823 27.1021 7.8814C27.1021 7.8814 27.0796 10.3599 27.0564 10.6437C27.0564 10.6437 27.0333 11.0354 27.5847 11.0143C27.5847 11.0143 28.3218 10.969 28.3456 11.6001C28.3456 11.6001 28.436 12.4267 27.378 12.2736C27.378 12.2736 27.0564 12.3188 27.0088 12.5136L26.9648 13.6015C26.9648 13.6015 26.9863 14.1457 26.3448 14.0145C26.2531 14.0145 22.7583 14.0808 22.4585 13.994C22.4585 13.994 22.2957 13.9727 22.251 14.0581Z" stroke="#12110C" stroke-width="0.0133333"/>
<path d="M17.9104 5.09569C17.9104 5.09569 17.9558 5.53123 17.9558 5.64139C17.9558 5.74932 17.8881 11.9262 17.8881 11.9262C17.8881 11.9262 17.9558 12.4047 17.5209 12.6447C17.5209 12.6447 17.4044 12.6871 17.3828 12.3828L17.4278 5.85948C17.4278 5.85948 17.4739 5.05252 17.9104 5.09569Z" fill="white"/>
<path d="M17.9048 5.09495C17.9048 5.09495 17.9496 5.53049 17.9496 5.64065C17.9496 5.74922 17.8825 11.9269 17.8825 11.9269C17.8825 11.9269 17.9496 12.4054 17.5146 12.6446C17.5146 12.6446 17.3982 12.6878 17.375 12.3835L17.4213 5.85874C17.4213 5.85874 17.4668 5.05178 17.9048 5.09495Z" stroke="#12110C" stroke-width="0.016"/>
<path d="M17.1484 12.7092C17.1484 12.7092 17.194 6.57551 17.1724 6.46679C17.1484 6.3595 17.194 6.55569 17.194 6.55569C17.194 6.55569 17.1252 5.48826 17.4245 5.05209C17.4245 5.05209 17.3312 4.68434 16.8029 5.14034L16.7798 6.03109C16.7798 6.03109 16.7798 6.53234 16.2978 6.51044C16.2978 6.51044 15.7458 6.48789 15.4928 6.72725C15.4928 6.72725 15.3549 7.20644 15.883 7.12042C15.883 7.12042 16.7112 7.12042 16.7575 7.44435L16.7112 10.7298C16.7112 10.7298 16.8954 11.2761 16.2524 11.2761C16.2524 11.2761 15.4683 11.2296 15.4928 11.6864C15.4928 11.6864 15.6547 12.0773 16.321 11.9481C16.321 11.9481 16.8029 12.0335 16.7798 12.4705V13.2965C16.7798 13.2965 16.7335 13.6247 17.194 13.6452H20.7802C20.7802 13.6452 20.9631 13.6663 20.9631 13.4488C20.9631 13.4488 20.9408 13.2754 20.6653 13.2754L17.6773 13.2316C17.6773 13.2316 17.194 13.3847 17.1484 12.7092Z" fill="white"/>
<path d="M17.8394 12.6993C17.8394 12.6993 17.747 13.0036 18.0915 12.94H20.4597L21.102 13.072C21.102 13.072 21.7683 12.9182 21.102 12.5708C21.102 12.5708 18.9877 12.5906 18.8041 12.5482C18.8041 12.5482 18.367 12.4401 18.2728 12.4184C18.2728 12.4184 18.0454 12.3316 17.8394 12.6993Z" fill="white"/>
<path d="M17.8394 12.6987C17.8394 12.6987 17.747 13.0036 18.0915 12.9401H20.4604L21.1029 13.072C21.1029 13.072 21.7697 12.9176 21.1029 12.5695C21.1029 12.5695 18.9883 12.5892 18.804 12.5476C18.804 12.5476 18.367 12.4389 18.2737 12.417C18.2737 12.417 18.0454 12.3301 17.8394 12.6987Z" stroke="#12110C" stroke-width="0.016"/>
<path d="M21.7664 13.0042C21.7664 13.0042 21.3299 13.0042 21.3524 13.5491C21.3524 13.5491 21.3985 13.9607 21.8582 13.9607C21.8582 13.9607 22.2707 13.8966 22.2267 13.4617C22.2267 13.4617 21.9731 12.9181 21.7664 13.0042Z" fill="white"/>
<path d="M22.0909 12.7867C22.0909 12.7867 22.2975 12.5701 22.4363 12.5701C22.4363 12.5701 24.735 12.7648 25.123 12.5044C25.123 12.5044 25.4699 12.4394 25.5624 12.5044C25.5624 12.5044 25.9064 12.7648 25.9064 12.9173C25.9064 12.9173 25.884 13.1142 25.4699 13.0027C25.4699 13.0027 22.8721 13.0267 22.734 13.0267C22.734 13.0267 22.0201 13.1778 22.0909 12.7867Z" fill="white"/>
<path d="M22.0909 12.7874C22.0909 12.7874 22.2975 12.5699 22.4363 12.5699C22.4363 12.5699 24.7357 12.7648 25.1245 12.5042C25.1245 12.5042 25.4713 12.4393 25.5639 12.5042C25.5639 12.5042 25.9078 12.7648 25.9078 12.9186C25.9078 12.9186 25.8855 13.1156 25.4713 13.004C25.4713 13.004 22.8721 13.028 22.734 13.028C22.734 13.028 22.0201 13.1791 22.0909 12.7874Z" stroke="#12110C" stroke-width="0.016"/>
<path d="M22.3906 13.4922C22.3906 13.4922 22.3906 13.3163 22.7129 13.3163L25.9301 13.2952C25.9301 13.2952 26.23 13.4477 26.23 12.9266C26.23 12.9266 26.3478 10.5556 26.3583 7.94512C26.362 7.1679 26.3993 6.35262 26.3703 5.59714C26.3703 5.59714 26.2986 5.27033 26.2062 5.20397C26.2062 5.20397 26.2062 4.85669 26.5977 4.98732C26.5977 4.98732 26.9424 5.00923 26.8507 5.51112L26.8745 6.26916C26.8745 6.26916 26.8052 6.59741 27.4244 6.50931C27.4244 6.50931 28.0444 6.59741 28.0691 6.81342C28.0691 6.81342 28.2526 7.2504 27.5184 7.20595H26.9872C26.9872 7.20595 26.7583 7.33594 26.8269 7.59784L26.7583 10.7525C26.7583 10.7525 26.712 11.2953 27.264 11.2748C27.264 11.2748 27.8377 11.2523 27.9533 11.4267C27.9533 11.4267 28.3466 11.9702 27.4945 11.9265C27.4945 11.9265 26.9656 11.9038 26.8507 11.9921C26.8507 11.9921 26.7583 12.1 26.6895 13.1236C26.6895 13.1236 26.7365 13.7328 26.253 13.6658C26.253 13.6658 23.0569 13.7088 22.7585 13.6447C22.7585 13.6447 22.4369 13.7328 22.3906 13.4922Z" fill="white"/>
<path d="M18.2493 4.89815L18.1798 11.8825C18.1798 11.8825 18.1575 12.2065 18.7321 12.2721C18.7321 12.2721 19.3982 12.337 19.5579 12.2721C19.5579 12.2721 19.9974 12.2496 21.1217 12.294C21.1217 12.294 21.3992 12.5573 21.4223 12.2285C21.4223 12.2285 21.6043 6.57539 21.5149 5.39797C21.5149 5.39797 21.4896 4.89815 21.1001 4.87625C21.1001 4.87625 19.3527 5.00976 19.1917 4.87625L18.5016 4.70405C18.5016 4.70405 18.2254 4.72515 18.2493 4.89815Z" fill="white"/>
<path d="M21.8875 5.24752C21.8875 5.24752 21.8189 8.53213 21.8419 8.64086L21.7964 11.4025L21.7031 12.3604C21.7031 12.3604 21.8419 12.5558 21.9569 12.4259C21.9569 12.4259 22.6925 12.2494 23.152 12.318C23.152 12.318 24.6249 12.4472 24.9225 12.2283C24.9225 12.2283 25.153 12.337 25.2202 11.989C25.2202 11.989 25.3112 5.90051 25.2687 5.79179C25.2687 5.79179 25.3575 4.91927 25.3112 4.83453C25.3112 4.83453 25.2911 4.63898 24.8993 4.81198C24.8993 4.81198 24.9441 4.98706 22.7618 4.91927C22.7618 4.91927 21.9345 4.898 21.8875 5.24752Z" fill="white"/>
<path d="M25.5379 5.16105L25.5156 12.0331C25.5156 12.0331 25.6991 12.6444 25.9976 12.5802C25.9976 12.5802 26.0424 12.4482 26.0647 12.2307L26.1579 5.68277C26.1579 5.68277 25.9266 4.64077 25.5379 5.16105Z" fill="white"/>
<path d="M25.5379 5.16081L25.5156 12.0343C25.5156 12.0343 25.6998 12.6457 25.9983 12.5814C25.9983 12.5814 26.0439 12.4494 26.0662 12.2319L26.1586 5.68253C26.1586 5.68253 25.9274 4.64053 25.5379 5.16081Z" stroke="#12110C" stroke-width="0.016"/>
<path d="M22.7198 7.21918C22.6512 7.04554 23.1107 7.02364 23.1107 7.02364L23.3414 7.06665C23.5026 7.04554 23.6636 7.1111 23.6636 7.1111C23.8242 7.34981 23.548 7.47964 23.548 7.47964L23.4563 7.76345C23.4324 8.00344 23.4563 10.0697 23.4563 10.0697C23.5026 10.177 23.6861 10.3719 23.6861 10.3719C23.6861 10.5687 23.4324 10.5257 23.4324 10.5257L22.7668 10.5476C22.5595 10.5257 22.6281 10.3075 22.6281 10.3075C22.8579 10.1989 22.9273 9.80636 22.9273 9.80636V7.65408L22.7198 7.21918Z" fill="#12110C"/>
<path d="M19.6156 9.24227L19.5701 9.91636L19.7753 10.2419C19.9149 10.4155 19.6842 10.5476 19.6842 10.5476L18.9486 10.4825C18.8121 10.4155 18.9486 10.1987 18.9486 10.1987C19.133 10.0916 19.1559 9.807 19.1559 9.807L19.133 8.54563L19.1559 7.63218C19.1559 7.52265 18.9724 7.32855 18.9724 7.32855C18.8121 7.30664 18.8575 7.1111 18.8575 7.1111C18.9031 7.00173 19.2925 7.06665 19.2925 7.06665H20.2594C21.1794 7.34981 21.0413 7.98074 21.0413 7.98074C21.1108 8.61054 20.3982 8.87308 20.3982 8.87308L20.3505 9.22116L21.0182 10.22C21.1331 10.3075 21.1108 10.3957 21.1108 10.3957C21.0182 10.6351 20.6496 10.3957 20.6496 10.3957L19.8231 9.17671C19.7536 9.08909 19.6156 9.24227 19.6156 9.24227ZM19.6387 7.52265C19.661 8.00264 19.661 8.65499 19.661 8.65499C20.0991 8.98181 20.3505 8.52372 20.3505 8.52372C20.9242 8.00264 20.3505 7.52265 20.2594 7.39346C20.1661 7.26219 19.7067 7.37092 19.7067 7.37092L19.6387 7.52265Z" fill="#12110C"/>
<path d="M14.8229 17.6929C14.8229 17.6929 14.9841 17.6286 15.0295 17.5213C15.0295 17.5213 15.513 17.4767 15.5808 17.412L17.0991 17.5213C17.0991 17.5213 18.5928 17.6286 19.2366 17.1917C19.2366 17.1917 19.468 17.1917 19.629 17.258C19.629 17.258 19.9491 17.3244 20.0408 17.4529L20.9153 17.431C20.9153 17.431 21.4211 17.5848 21.3741 17.8897V18.2802C21.3741 18.2802 21.2817 19.0638 21.5115 19.1083H22.1799C22.1799 19.1083 22.7321 19.347 22.6627 19.6511C22.6627 19.6511 22.6858 20.0845 22.2039 20.1728C22.2039 20.1728 21.7189 20.3026 21.5599 20.2822C21.5599 20.2822 21.398 20.4771 21.3741 20.7163L21.3071 23.5661C21.3071 23.5661 21.2601 23.8704 21.7435 23.8272C21.7435 23.8272 22.4545 23.7617 22.6627 24.1329C22.6627 24.1329 22.8469 24.7626 22.4791 24.8713L22.2039 25.0005L21.6046 25.091C21.6046 25.091 21.3534 25.1107 21.3294 25.5237V26.2838C21.3294 26.2838 21.3534 26.8077 20.9153 26.8077L20.2715 26.8514C20.2715 26.8514 20.111 26.9799 19.7896 26.8931C19.7896 26.8931 15.8807 26.9601 15.7427 26.9158L15.2825 27.0039C15.2825 27.0039 14.7772 27.4388 14.3632 27.1112L14.0416 26.8719C14.0416 26.8719 13.8111 26.9158 13.7209 26.8931C13.6285 26.8719 9.39806 26.9376 9.39806 26.9376C9.39806 26.9376 8.50124 27.0258 8.43331 26.7414C8.43331 26.7414 8.31857 25.633 8.36403 25.5003C8.36403 25.5003 8.36403 25.1756 8.15736 25.1545C8.15736 25.1545 7.26054 25.1107 7.23739 25.0224C7.23739 25.0224 6.75392 24.6978 6.89198 24.3721C6.89198 24.3721 7.05387 23.9353 7.53582 23.8921C7.53582 23.8921 8.27142 24.0023 8.27142 23.8061C8.27142 23.8061 8.31857 23.6755 8.31857 23.4588C8.31857 23.4588 8.36403 20.8688 8.34088 20.6952C8.34088 20.6952 8.40948 20.369 8.11038 20.369C8.11038 20.369 7.7888 20.4552 7.5828 20.3253C7.5828 20.3253 7.03072 20.3472 6.91581 19.9334C6.91581 19.9334 6.82338 19.673 6.96059 19.4535C6.96059 19.4535 7.21441 18.9755 7.95001 19.1286C7.95001 19.1286 8.36403 19.2381 8.40948 18.9564L8.38785 17.9102C8.38785 17.9102 8.29457 17.6286 8.8698 17.4767C8.8698 17.4767 9.6054 17.6716 9.83455 17.3244C9.83455 17.3244 10.0882 16.8442 10.2927 17.1705C10.2927 17.1705 10.7314 17.5631 11.9266 17.5213C11.9266 17.5213 13.9962 17.3675 14.0416 17.4529C14.0416 17.4529 14.5476 17.5213 14.6848 17.6716L14.8229 17.6929Z" fill="#12110C"/>
<path d="M14.8237 17.6668C14.8237 17.6668 14.9832 17.6033 15.0304 17.4945C15.0304 17.4945 15.513 17.4501 15.5816 17.385L17.0993 17.4945C17.0993 17.4945 18.5936 17.6033 19.2375 17.1663C19.2375 17.1663 19.4688 17.1663 19.6298 17.2327C19.6298 17.2327 19.9507 17.2982 20.041 17.4268L20.9168 17.4055C20.9168 17.4055 21.4219 17.5595 21.375 17.8636V18.2548C21.375 18.2548 21.2832 19.0383 21.513 19.0815H22.1807C22.1807 19.0815 22.7321 19.3214 22.6642 19.6257C22.6642 19.6257 22.6873 20.0592 22.2047 20.1474C22.2047 20.1474 21.7205 20.2773 21.5615 20.256C21.5615 20.256 21.3996 20.4515 21.375 20.6909L21.307 23.5414C21.307 23.5414 21.2609 23.8442 21.7435 23.8019C21.7435 23.8019 22.4553 23.7378 22.6642 24.1068C22.6642 24.1068 22.8485 24.7372 22.4806 24.8466L22.2047 24.9766L21.6055 25.0648C21.6055 25.0648 21.3533 25.086 21.331 25.4975V26.2607C21.331 26.2607 21.3533 26.7822 20.9168 26.7822L20.273 26.826C20.273 26.826 20.1118 26.956 19.7904 26.8692C19.7904 26.8692 15.8815 26.9348 15.7435 26.8897L15.2825 26.9778C15.2825 26.9778 14.7781 27.4133 14.364 27.0851L14.0418 26.8457C14.0418 26.8457 13.812 26.8897 13.721 26.8692C13.6284 26.8457 9.39888 26.9129 9.39888 26.9129C9.39888 26.9129 8.50139 27.0005 8.43278 26.7167C8.43278 26.7167 8.31854 25.6069 8.364 25.4756C8.364 25.4756 8.364 25.1509 8.15665 25.129C8.15665 25.129 7.26069 25.086 7.23686 24.9983C7.23686 24.9983 6.75406 24.6717 6.89196 24.3461C6.89196 24.3461 7.05385 23.91 7.53664 23.866C7.53664 23.866 8.27157 23.9778 8.27157 23.7792C8.27157 23.7792 8.31854 23.6493 8.31854 23.4333C8.31854 23.4333 8.364 20.8434 8.34169 20.6696C8.34169 20.6696 8.4103 20.3422 8.11035 20.3422C8.11035 20.3422 7.78894 20.429 7.5821 20.2998C7.5821 20.2998 7.03087 20.3211 6.91595 19.9081C6.91595 19.9081 6.82267 19.6476 6.96141 19.4287C6.96141 19.4287 7.21371 18.95 7.94998 19.1026C7.94998 19.1026 8.364 19.2127 8.4103 18.9304L8.38715 17.8848C8.38715 17.8848 8.29472 17.6033 8.86995 17.4501C8.86995 17.4501 9.60555 17.6463 9.83537 17.2982C9.83537 17.2982 10.0875 16.819 10.2935 17.1438C10.2935 17.1438 10.7322 17.5363 11.9266 17.4945C11.9266 17.4945 13.997 17.3406 14.0418 17.4268C14.0418 17.4268 14.5484 17.4945 14.6856 17.6463L14.8237 17.6668Z" stroke="#12110C" stroke-width="0.0133333"/>
<path d="M15.4209 26.2415C15.4209 26.2415 15.6977 26.1095 15.8821 26.1547C16.0663 26.1979 18.7552 26.1334 18.7552 26.1334C18.7552 26.1334 19.9273 26.2196 20.1123 26.0656L20.3861 25.9796C20.3861 25.9796 20.5017 25.8498 20.5017 25.6768C20.5017 25.5011 20.5248 24.9136 20.5248 24.9136L20.595 24.6978C20.595 24.6978 20.5711 24.4802 20.595 18.6712C20.595 18.6712 20.6852 18.2167 20.3861 17.9322C20.3861 17.9322 20.3861 17.7599 20.4779 17.7805C20.5711 17.8038 20.5248 17.8038 20.5248 17.8038C20.5248 17.8038 20.9382 17.6929 21.0061 17.8452C21.0061 17.8452 21.1918 18.3655 21.0299 18.6712C21.0299 18.6712 20.9836 19.3029 21.3314 19.3029C21.3314 19.3029 21.4671 19.4344 21.7432 19.368C21.7432 19.368 22.3408 19.4344 22.3408 19.6066C22.3408 19.6066 22.3408 19.9997 21.9267 19.9342L21.374 19.9764C21.374 19.9764 21.0061 20.0436 21.0531 20.4553C21.1001 20.8687 21.0299 23.8272 21.0299 23.8272C21.0299 23.8272 21.0299 24.1767 21.606 24.1548C21.606 24.1548 22.3178 24.1323 22.3178 24.327C22.3178 24.327 22.5011 24.7619 21.9962 24.7846C21.9962 24.7846 21.0299 24.7619 21.1001 25.0224C21.1001 25.0224 21.0299 25.633 20.9836 25.7403C20.9836 25.7403 21.0778 26.2415 20.9606 26.3291C20.9606 26.3291 20.8927 26.6107 20.2727 26.5677C20.2727 26.5677 16.3193 26.5464 15.6977 26.5896C15.6977 26.5896 15.3292 26.5464 15.4209 26.2415Z" fill="white"/>
<path d="M14.7153 25.828C14.7153 25.828 15.1055 25.8923 15.1055 26.241C15.1055 26.5883 15.1286 26.7845 14.8974 26.8276C14.6683 26.8713 14.4162 26.8072 14.3482 26.5246C14.2774 26.241 14.3922 25.8923 14.7153 25.828Z" fill="white"/>
<path d="M15.1687 25.6544C15.1687 25.6544 15.5821 25.3917 15.7431 25.4371C15.7431 25.4371 17.8345 25.5662 18.4798 25.4595C19.1228 25.3501 18.732 25.4371 18.732 25.4371C18.732 25.4371 19.2842 25.4371 19.4437 25.24C19.4437 25.24 19.6056 25.1983 19.6974 25.3501L20.0406 25.6995C20.0406 25.6995 20.0666 25.9149 19.6742 25.893C19.6742 25.893 15.9259 25.893 15.8126 25.9149C15.8126 25.9149 15.1001 26.0222 15.1687 25.6544Z" fill="white"/>
<path d="M15.1687 25.6549C15.1687 25.6549 15.5821 25.3922 15.7431 25.4368C15.7431 25.4368 17.836 25.5666 18.4805 25.46C19.1245 25.35 18.7326 25.4368 18.7326 25.4368C18.7326 25.4368 19.2856 25.4368 19.4453 25.239C19.4453 25.239 19.6065 25.1982 19.6989 25.35L20.0421 25.7C20.0421 25.7 20.0675 25.9161 19.6758 25.8934C19.6758 25.8934 15.9275 25.8934 15.8126 25.9161C15.8126 25.9161 15.1001 26.0234 15.1687 25.6549Z" stroke="#12110C" stroke-width="0.016"/>
<path d="M9.72708 17.9328C9.72708 17.9328 9.88829 17.9328 9.86497 18.1941L9.81816 24.7625C9.81816 24.7625 9.88829 25.1987 9.49725 25.4804C9.49725 25.4804 9.28906 25.719 9.28906 25.3506L9.38302 18.6507C9.38302 18.6507 9.40482 18.1501 9.72708 17.9328Z" fill="white"/>
<path d="M9.72078 17.9317C9.72078 17.9317 9.882 17.9317 9.8602 18.1928L9.81187 24.7628C9.81187 24.7628 9.882 25.199 9.49029 25.4807C9.49029 25.4807 9.28125 25.7193 9.28125 25.3507L9.37538 18.6502C9.37538 18.6502 9.39768 18.149 9.72078 17.9317Z" stroke="#12110C" stroke-width="0.016"/>
<path d="M9.35216 17.9761C9.35216 17.9761 9.07603 18.4554 9.09919 18.565L9.07603 20.0204C9.07603 20.0204 9.05288 20.9558 9.07603 21.0651C9.09919 21.1732 9.05288 23.9144 9.05288 23.9144C9.05288 23.9144 9.0299 24.4351 9.05288 24.6102V25.7843C9.05288 25.7843 9.00675 26.3073 9.42009 26.1746C9.42009 26.1746 13.4668 26.0886 13.7205 26.1548C13.7205 26.1548 14.0868 26.2192 13.951 26.3935C13.951 26.3935 13.951 26.5468 13.6958 26.5022C13.6958 26.5022 11.7881 26.675 10.0646 26.6109C10.0646 26.6109 8.91499 26.675 8.84486 26.5468C8.84486 26.5468 8.66202 26.5247 8.66202 25.893C8.66202 25.893 8.66202 25.3072 8.61724 25.1983C8.61724 25.1983 8.66202 24.8899 8.08763 24.827C8.08763 24.827 7.28325 24.9583 7.2601 24.5017C7.2601 24.5017 7.37434 24.1755 8.15692 24.2179C8.15692 24.2179 8.73147 24.3053 8.61724 23.8691L8.68517 20.6522C8.68517 20.6522 8.75597 20.0841 8.36359 20.0614C8.36359 20.0614 7.99722 20.0438 7.88011 20.0841C7.88011 20.0841 7.21397 20.0841 7.2601 19.717C7.2601 19.717 7.48992 19.3244 8.15692 19.4119C8.15692 19.4119 8.66202 19.4982 8.68517 18.9559C8.68517 18.9559 8.66202 17.8456 8.9373 17.8032C8.9373 17.8032 9.51337 17.8229 9.35216 17.9761Z" fill="white"/>
<path d="M10.0405 25.1754C10.0405 25.1754 10.3628 25.5002 10.8926 25.4811L14.0163 25.5235C14.0163 25.5235 14.3634 25.5467 14.3416 25.7189C14.3416 25.7189 14.2924 25.9795 13.8806 25.8927L10.1098 25.8497L9.69513 25.8735C9.69513 25.8735 9.41901 25.8284 9.8577 25.3286L10.0405 25.1754Z" fill="white"/>
<path d="M10.0402 25.1749C10.0402 25.1749 10.3626 25.5003 10.8931 25.4804L14.0176 25.5236C14.0176 25.5236 14.3637 25.5462 14.3429 25.719C14.3429 25.719 14.2944 25.9803 13.8826 25.8942L10.1096 25.8511L9.69479 25.8736C9.69479 25.8736 9.41951 25.8293 9.85735 25.3281L10.0402 25.1749Z" stroke="#12110C" stroke-width="0.016"/>
<path d="M19.7031 24.891C19.7031 24.891 19.9791 25.3923 20.1171 25.4607C20.1171 25.4607 20.3701 25.741 20.3015 25.2412L20.347 18.9762C20.347 18.9762 20.2775 18.7582 20.347 18.4115L20.0717 17.9328C20.0717 17.9328 19.7717 17.7155 19.7717 18.0628L19.7263 24.7414L19.7031 24.891Z" fill="white"/>
<path d="M19.6953 24.8919C19.6953 24.8919 19.9721 25.3923 20.1109 25.4615C20.1109 25.4615 20.3638 25.7425 20.2952 25.2414L20.3407 18.9748C20.3407 18.9748 20.2712 18.7582 20.3407 18.4115L20.0647 17.9323C20.0647 17.9323 19.7639 17.7155 19.7639 18.0628L19.7185 24.742L19.6953 24.8919Z" stroke="#12110C" stroke-width="0.016"/>
<path d="M14.6004 21.9132C14.6004 21.9132 14.6236 22.4334 14.5534 22.9326C14.5161 23.2086 14.6465 24.4792 14.5303 25.1308C14.5303 25.1308 14.5093 25.3489 14.0243 25.1541C14.0243 25.1541 11.0826 25.2182 10.9908 25.1308C10.9908 25.1308 10.1866 25.1541 10.1172 24.7616C10.1172 24.7616 10.2321 21.7819 10.1635 21.6711C10.1635 21.6711 10.1172 20.0404 10.1635 19.8886C10.1635 19.8886 10.2321 18.3879 10.1866 18.2141C10.1866 18.2141 10.2098 17.866 10.1403 17.6911C10.1403 17.6911 10.1403 17.4737 10.532 17.6037C10.532 17.6037 10.6679 17.8436 11.4273 17.737C11.4273 17.737 11.9801 17.8232 12.5092 17.7575C12.5092 17.7575 13.6804 17.6706 13.9804 17.7575C13.9804 17.7575 14.4407 17.6706 14.5764 18.1506L14.5534 19.4982L14.6906 19.9331L14.8525 19.825L14.9205 19.4982L14.9436 18.0624C14.9436 18.0624 15.0354 17.8005 15.4046 17.7575C15.4046 17.7575 15.9792 17.6911 16.0724 17.737C16.1642 17.7787 17.4034 17.8436 17.7503 17.7787C18.0942 17.7137 18.1621 17.996 19.1985 17.497C19.1985 17.497 19.4745 17.5189 19.4745 17.6911C19.4745 17.6911 19.3805 19.5428 19.4745 19.8886C19.4745 19.8886 19.4745 23.2813 19.4028 23.5207L19.4498 24.6083C19.4498 24.6083 19.4954 25.0871 18.6926 25.1308C18.6926 25.1308 19.1985 25.1963 16.0239 25.1095C16.0239 25.1095 15.5188 25.0871 14.9674 25.3257C14.9674 25.3257 14.8525 25.3044 14.8525 25.0221C14.8525 25.0221 14.9436 24.0007 14.8525 22.9982L14.8079 21.8893L14.6004 21.9132Z" fill="white"/>
<path d="M12.5256 20.369C12.5256 20.369 12.5951 21.978 12.5256 22.1953L12.504 22.5441C12.504 22.5441 12.5951 22.7819 12.7331 22.8701C12.7331 22.8701 12.8487 23.1736 12.5719 23.1525C12.5719 23.1525 11.9982 23.1087 11.8601 23.1293C11.8601 23.1293 11.537 23.1293 11.8601 22.7402C11.8601 22.7402 11.975 22.5855 11.9512 22.1953C11.9512 22.1953 11.9512 20.369 11.9982 20.2611C11.9982 20.2611 12.0436 20.0203 11.8824 19.9547L11.6056 19.9773L11.2624 20.2815C11.2624 20.2815 11.1923 20.6091 11.0312 20.2611V20.0853L11.2394 19.5636L11.3775 19.5409C11.3775 19.5409 11.5833 19.6717 11.7668 19.7168H12.8487L13.2389 19.5409C13.2389 19.5409 13.3993 19.5636 13.3553 19.7592C13.3553 19.7592 13.4224 20.2611 13.124 20.3247C13.124 20.3247 12.9398 20.2611 12.8487 20.0203C12.8487 20.0203 12.5496 19.8693 12.5256 20.369Z" fill="#12110C"/>
<path d="M17.6074 19.7817C17.6074 19.7817 16.7352 19.716 16.7136 20.6076C16.7136 20.6076 16.6188 21.2182 17.5858 21.6101C17.5858 21.6101 18.299 21.9348 18.2512 22.3478C18.2512 22.3478 18.1595 23.0876 17.4007 22.7183C17.4007 22.7183 17.0337 22.5432 17.0582 22.3478C17.0582 22.3478 16.9412 22.1078 16.8038 22.1521C16.8038 22.1521 16.642 22.1946 16.7136 22.9132C16.7136 22.9132 16.7136 23.1962 17.0582 22.9132L17.2395 22.9576C17.2395 22.9576 17.861 23.4362 18.3886 22.8476C18.3886 22.8476 18.9645 22.3478 18.5497 21.7393C18.5497 21.7393 18.2512 21.3058 17.7231 21.0877C17.7231 21.0877 17.2172 20.8682 17.1031 20.4988C17.1031 20.4988 17.2642 19.8452 17.8835 20.1933C17.8835 20.1933 18.114 20.4545 18.2512 20.4988C18.2512 20.4988 18.4356 20.4988 18.3886 20.1057L18.3452 19.7817C18.3452 19.7817 18.299 19.5395 17.9759 19.7817C17.9759 19.7817 17.6768 19.889 17.6074 19.7817Z" fill="#12110C"/>
<path d="M14.8052 19.3238C14.9655 19.4346 14.9887 19.6515 14.9887 19.6515C15.4483 20.8035 15.8401 22.4799 15.8401 22.4799C15.9541 22.6953 16.1616 22.8703 16.1616 22.8703C16.5525 23.0002 16.1616 23.1083 16.1616 23.1083C16.0004 23.1746 15.473 23.0884 15.473 23.0884C15.1954 23.0419 15.3096 22.9572 15.3096 22.9572C15.4259 22.8484 15.3334 22.4121 15.3334 22.4121C15.3096 22.2399 15.1045 21.9563 15.1045 21.9563C15.0127 21.9123 14.8515 22.108 14.8515 22.108C14.8515 22.108 14.5994 22.1955 14.5747 22.108C14.5515 22.0196 14.3912 21.9372 14.3912 21.9372C14.115 21.9372 14.001 22.5857 14.001 22.5857C14.1613 23.1302 14.001 23.0419 14.001 23.0419C13.8638 23.2178 13.4257 23.0884 13.4257 23.0884C13.2191 23.0419 13.3585 22.8902 13.3585 22.8902C13.6099 22.8484 13.6785 22.5857 13.6785 22.5857C13.7943 22.434 14.5284 19.607 14.5284 19.607C14.5994 19.4756 14.644 19.2151 14.8052 19.3238ZM14.439 20.759C14.415 20.8684 14.2531 21.4776 14.2531 21.4776L14.3912 21.6971C14.3912 21.6971 14.7597 21.7169 14.8969 21.7169C15.0335 21.7169 15.0582 21.6103 15.0582 21.4993C15.0582 21.3915 14.8052 20.7392 14.8052 20.7392L14.6889 20.6086L14.439 20.759Z" fill="#12110C"/>
<path d="M8.57864 14.0569C8.57864 14.0569 8.32499 14.8199 7.19853 14.035L3.33667 13.9474C3.33667 13.9474 2.8309 14.1014 2.76144 13.6003C2.76144 13.6003 2.85405 12.6007 2.80622 12.513C2.80622 12.513 2.8309 12.2292 2.32427 12.2292C2.32427 12.2292 1.54389 12.3181 1.52142 11.6653C1.52142 11.6653 1.38268 10.9671 2.46301 10.9911C2.46301 10.9911 2.80622 11.1428 2.8309 10.7293C2.8309 10.7293 2.78459 7.90198 2.80622 7.68326C2.80622 7.68326 2.90018 7.42487 2.37125 7.38026C2.37125 7.38026 1.61166 7.53136 1.52142 7.05281C1.52142 7.05281 1.47444 6.33634 1.97954 6.2919C1.97954 6.2919 2.6004 6.33634 2.71599 6.18589C2.71599 6.18589 2.85405 6.26999 2.8309 5.74747L2.85405 4.85673C2.85405 4.85673 2.92333 4.61737 3.312 4.63928C3.312 4.63928 4.02682 4.68229 4.11925 4.61737C4.11925 4.61737 4.27979 4.42263 4.32373 4.33421C4.32373 4.33421 4.69381 4.31374 4.76241 4.39848C4.76241 4.39848 5.31297 4.74864 7.40723 4.61737C7.40723 4.61737 7.72729 4.61737 7.79674 4.70499C7.79674 4.70499 8.18693 4.9872 8.41675 4.68229C8.41675 4.68229 8.76148 4.61737 9.79687 4.63928C9.79687 4.63928 10.9213 4.92164 11.7041 4.31374L11.9562 4.35835C11.9562 4.35835 12.2778 4.85673 12.5098 4.70499C12.5098 4.70499 13.1984 4.63928 13.314 4.77054C13.314 4.77054 13.5445 5.09672 13.4274 5.94589C13.4274 5.94589 13.2908 6.31508 13.9571 6.31508C13.9571 6.31508 14.7151 6.18589 14.6241 6.85727C14.6241 6.85727 14.8315 7.61898 13.567 7.51089C13.567 7.51089 13.4051 7.72898 13.4274 7.88088C13.4274 7.88088 13.4051 10.3593 13.3826 10.6438C13.3826 10.6438 13.3603 11.0328 13.9117 11.013C13.9117 11.013 14.6473 10.9671 14.6696 11.6004C14.6696 11.6004 14.7614 12.4262 13.7049 12.273C13.7049 12.273 13.3826 12.3181 13.3356 12.513L13.2908 13.6003C13.2908 13.6003 13.314 14.1444 12.6686 14.0146C12.5769 14.0146 9.08459 14.0788 8.78447 13.9935C8.78447 13.9935 8.6241 13.9716 8.57864 14.0569Z" fill="#12110C"/>
<path d="M8.57924 14.0581C8.57924 14.0581 8.32559 14.8212 7.19913 14.0362L3.3366 13.9487C3.3366 13.9487 2.83065 14.1025 2.76137 13.6008C2.76137 13.6008 2.85465 12.6012 2.80683 12.5136C2.80683 12.5136 2.83065 12.2305 2.32403 12.2305C2.32403 12.2305 1.54365 12.3194 1.52135 11.6665C1.52135 11.6665 1.38328 10.9676 2.46362 10.9916C2.46362 10.9916 2.80683 11.1435 2.83065 10.7305C2.83065 10.7305 2.78435 7.90186 2.80683 7.68377C2.80683 7.68377 2.90078 7.42459 2.37118 7.38078C2.37118 7.38078 1.61158 7.53203 1.52135 7.05268C1.52135 7.05268 1.47437 6.33606 1.98014 6.29241C1.98014 6.29241 2.60016 6.33606 2.71659 6.18512C2.71659 6.18512 2.85465 6.2705 2.83065 5.74798L2.85465 4.85644C2.85465 4.85644 2.92326 4.61724 3.3126 4.63979C3.3126 4.63979 4.02674 4.68216 4.11918 4.61724C4.11918 4.61724 4.28039 4.42314 4.32433 4.33472C4.32433 4.33472 4.69356 4.31361 4.76302 4.39899C4.76302 4.39899 5.3129 4.74851 7.40783 4.61724C7.40783 4.61724 7.72789 4.61724 7.79734 4.7047C7.79734 4.7047 8.18753 4.98707 8.41735 4.68216C8.41735 4.68216 8.76276 4.61724 9.79747 4.63979C9.79747 4.63979 10.9227 4.92071 11.7047 4.31361L11.9575 4.35806C11.9575 4.35806 12.279 4.85644 12.5104 4.7047C12.5104 4.7047 13.199 4.63979 13.3161 4.76962C13.3161 4.76962 13.5451 5.09659 13.4288 5.94497C13.4288 5.94497 13.2914 6.31559 13.9578 6.31559C13.9578 6.31559 14.7172 6.18512 14.6247 6.85714C14.6247 6.85714 14.8321 7.61949 13.5682 7.51077C13.5682 7.51077 13.4057 7.72886 13.4288 7.88139C13.4288 7.88139 13.4057 10.3598 13.384 10.6436C13.384 10.6436 13.3609 11.0339 13.9123 11.0143C13.9123 11.0143 14.6479 10.9676 14.671 11.6015C14.671 11.6015 14.762 12.4267 13.7055 12.2736C13.7055 12.2736 13.384 12.3194 13.3371 12.5136L13.2914 13.6008C13.2914 13.6008 13.3161 14.1457 12.6701 14.0157C12.5783 14.0157 9.08519 14.0794 8.78507 13.994C8.78507 13.994 8.6247 13.9727 8.57924 14.0581Z" stroke="#12110C" stroke-width="0.0133333"/>
<path d="M4.23273 5.09775C4.23273 5.09775 4.27903 5.53185 4.27903 5.64057C4.27903 5.7493 4.2089 11.9268 4.2089 11.9268C4.2089 11.9268 4.27903 12.4068 3.84119 12.6447C3.84119 12.6447 3.72695 12.6891 3.70312 12.3849L3.7501 5.85946C3.7501 5.85946 3.79556 5.05394 4.23273 5.09775Z" fill="white"/>
<path d="M4.23357 5.09697C4.23357 5.09697 4.27971 5.53107 4.27971 5.6398C4.27971 5.74852 4.20958 11.9267 4.20958 11.9267C4.20958 11.9267 4.27971 12.4066 3.84119 12.646C3.84119 12.646 3.72695 12.6898 3.70312 12.3855L3.74858 5.85933C3.74858 5.85933 3.79488 5.0538 4.23357 5.09697Z" stroke="#12110C" stroke-width="0.016"/>
<path d="M3.46923 12.7096C3.46923 12.7096 3.51401 6.57587 3.49238 6.46634C3.46923 6.35906 3.51401 6.5546 3.51401 6.5546C3.51401 6.5546 3.44692 5.49006 3.74518 5.05388C3.74518 5.05388 3.65275 4.68389 3.12382 5.1399L3.10286 6.03224C3.10286 6.03224 3.10286 6.5327 2.61872 6.51079C2.61872 6.51079 2.06664 6.48825 1.81299 6.72904C1.81299 6.72904 1.6756 7.20679 2.20318 7.12077C2.20318 7.12077 3.03206 7.12077 3.07751 7.44471L3.03206 10.7301C3.03206 10.7301 3.21625 11.2737 2.57174 11.2737C2.57174 11.2737 1.79051 11.232 1.81299 11.6888C1.81299 11.6888 1.97403 12.0805 2.64187 11.9493C2.64187 11.9493 3.12382 12.0367 3.10286 12.4696V13.2983C3.10286 13.2983 3.05436 13.6251 3.51401 13.6449H7.10109C7.10109 13.6449 7.28478 13.6667 7.28478 13.4486C7.28478 13.4486 7.26146 13.277 6.98702 13.277L3.99968 13.2319C3.99968 13.2319 3.51401 13.3844 3.46923 12.7096Z" fill="white"/>
<path d="M4.08908 12.753C4.08908 12.753 3.99799 13.0587 4.3412 12.9916H6.70921L7.35305 13.1216C7.35305 13.1216 8.02156 12.9697 7.35305 12.621C7.35305 12.621 5.23802 12.6443 5.05365 12.6005C5.05365 12.6005 4.618 12.4919 4.52557 12.4699C4.52557 12.4699 4.29507 12.3839 4.08908 12.753Z" fill="white"/>
<path d="M4.08908 12.7527C4.08908 12.7527 3.99799 13.0597 4.3412 12.9913H6.71006L7.35474 13.1226C7.35474 13.1226 8.02309 12.9708 7.35474 12.6215C7.35474 12.6215 5.23869 12.6446 5.0545 12.5996C5.0545 12.5996 4.618 12.4915 4.52557 12.4704C4.52557 12.4704 4.2949 12.3835 4.08908 12.7527Z" stroke="#12110C" stroke-width="0.016"/>
<path d="M8.02511 13.0592C8.02511 13.0592 7.58727 13.0592 7.61025 13.5999C7.61025 13.5999 7.65655 14.0156 8.11535 14.0156C8.11535 14.0156 8.52954 13.948 8.48475 13.5152C8.48475 13.5152 8.23094 12.9703 8.02511 13.0592Z" fill="white"/>
<path d="M8.34851 12.8402C8.34851 12.8402 8.55451 12.6228 8.69392 12.6228C8.69392 12.6228 10.992 12.8191 11.3828 12.5585C11.3828 12.5585 11.7289 12.4936 11.8193 12.5585C11.8193 12.5585 12.1641 12.8191 12.1641 12.9709C12.1641 12.9709 12.1416 13.1685 11.7289 13.0598C11.7289 13.0598 9.12889 13.0802 8.99235 13.0802C8.99235 13.0802 8.27906 13.232 8.34851 12.8402Z" fill="white"/>
<path d="M8.3407 12.8397C8.3407 12.8397 8.54737 12.6216 8.68611 12.6216C8.68611 12.6216 10.9848 12.8186 11.3757 12.558C11.3757 12.558 11.7226 12.4925 11.8129 12.558C11.8129 12.558 12.1576 12.8186 12.1576 12.971C12.1576 12.971 12.1353 13.1688 11.7226 13.0593C11.7226 13.0593 9.1226 13.0805 8.98454 13.0805C8.98454 13.0805 8.27125 13.2323 8.3407 12.8397Z" stroke="#12110C" stroke-width="0.016"/>
<path d="M8.71094 13.4926C8.71094 13.4926 8.71094 13.3196 9.031 13.3196L12.2519 13.297C12.2519 13.297 12.5495 13.4473 12.5495 12.9271C12.5495 12.9271 12.6674 10.5553 12.6779 7.94474C12.6823 7.16831 12.7181 6.35304 12.6869 5.59756C12.6869 5.59756 12.6182 5.27218 12.5265 5.20503C12.5265 5.20503 12.5265 4.85711 12.9189 4.98902C12.9189 4.98902 13.2612 5.00964 13.1702 5.5093L13.1926 6.27101C13.1926 6.27101 13.124 6.59719 13.7447 6.51037C13.7447 6.51037 14.3647 6.59719 14.387 6.81464C14.387 6.81464 14.5729 7.25082 13.838 7.20637H13.3097C13.3097 7.20637 13.0792 7.33636 13.1479 7.59826L13.0792 10.7514C13.0792 10.7514 13.0314 11.2951 13.585 11.2752C13.585 11.2752 14.1596 11.2527 14.273 11.4263C14.273 11.4263 14.6654 11.9706 13.8142 11.927C13.8142 11.927 13.2851 11.9042 13.1702 11.9911C13.1702 11.9911 13.0792 12.1019 13.0098 13.1228C13.0098 13.1228 13.0552 13.7319 12.5726 13.6662C12.5726 13.6662 9.37708 13.7086 9.0795 13.6443C9.0795 13.6443 8.75639 13.7319 8.71094 13.4926Z" fill="white"/>
<path d="M4.57503 4.89878L4.50794 11.8816C4.50794 11.8816 4.48479 12.2057 5.05918 12.2713C5.05918 12.2713 5.72701 12.337 5.8867 12.2713C5.8867 12.2713 6.32235 12.2502 7.44966 12.294C7.44966 12.294 7.72579 12.5537 7.74809 12.2291C7.74809 12.2291 7.93246 6.57251 7.84053 5.3986C7.84053 5.3986 7.81822 4.89878 7.42583 4.87688C7.42583 4.87688 5.68003 5.00687 5.51882 4.87688L4.8302 4.70244C4.8302 4.70244 4.55272 4.72306 4.57503 4.89878Z" fill="white"/>
<path d="M11.8584 5.16027L11.8359 12.0344C11.8359 12.0344 12.0203 12.6452 12.3203 12.5801C12.3203 12.5801 12.3657 12.4488 12.3882 12.2299L12.4815 5.68199C12.4815 5.68199 12.2508 4.63775 11.8584 5.16027Z" fill="white" stroke="#12110C" stroke-width="0.016"/>
<path d="M11.8584 5.16027L11.8359 12.0344C11.8359 12.0344 12.0203 12.6452 12.3203 12.5801C12.3203 12.5801 12.3657 12.4488 12.3882 12.2299L12.4815 5.68199C12.4815 5.68199 12.2508 4.63775 11.8584 5.16027Z" stroke="#12110C" stroke-width="0.016"/>
<path d="M8.20763 5.21997C8.20763 5.21997 8.13835 8.50395 8.15998 8.61411L8.11655 11.377L8.02344 12.3314C8.02344 12.3314 8.15998 12.5298 8.27557 12.3984C8.27557 12.3984 9.01201 12.2254 9.47148 12.2898C9.47148 12.2898 10.9435 12.4211 11.2413 12.2028C11.2413 12.2028 11.4711 12.3109 11.5404 11.9628C11.5404 11.9628 11.6315 5.8736 11.5858 5.76424C11.5858 5.76424 11.6785 4.89524 11.6315 4.80922C11.6315 4.80922 11.6083 4.61143 11.2197 4.78443C11.2197 4.78443 11.2643 4.96015 9.08129 4.89524C9.08129 4.89524 8.25326 4.87269 8.20763 5.21997Z" fill="white"/>
<path d="M7.49885 7.23113L7.29083 7.6462C7.29083 7.6462 6.78708 9.75483 6.5118 10.1889C6.5118 10.1889 6.4655 10.6253 6.07463 10.2764C6.07463 10.2764 5.17715 7.60175 5.13152 7.51429L4.83241 7.31859C4.83241 7.31859 4.65109 7.07939 4.97115 7.05813L5.82166 7.07939C5.82166 7.07939 6.09694 7.29605 5.7299 7.53812C5.7299 7.53812 5.77553 7.88556 6.25815 9.21056C6.25815 9.21056 6.39537 9.71102 6.55658 9.34103L7.0169 7.7965L6.87884 7.33985C6.87884 7.33985 6.7401 7.1224 6.94829 7.1013C6.94829 7.1013 7.43109 7.05813 7.49885 7.23113Z" fill="#12110C"/>
<path d="M8.83196 7.57931L8.80729 9.88492L8.7402 10.0586C8.7402 10.0586 8.5097 10.3403 8.67007 10.3628C8.67007 10.3628 8.46492 10.4941 10.1406 10.5152C10.1406 10.5152 10.786 10.6233 10.6241 9.84047C10.6241 9.84047 10.5555 9.55794 10.3241 9.97174C10.3241 9.97174 10.2555 10.3182 9.42967 10.2103C9.42967 10.2103 9.2453 10.0586 9.2453 9.88492V8.92702C9.2453 8.92702 9.2208 8.68686 9.61234 8.71165C9.61234 8.71165 10.0488 8.97147 10.1183 8.8613C10.1183 8.8613 10.2787 8.51466 10.1183 8.29657C10.1183 8.29657 9.91077 8.27611 9.88846 8.36293C9.88846 8.36293 9.7504 8.62259 9.35954 8.47021C9.35954 8.47021 9.17602 8.12293 9.29076 7.83977C9.29076 7.83977 9.2453 7.29566 9.63634 7.33995C9.63634 7.33995 10.0958 7.42613 10.1406 7.5582C10.1406 7.5582 10.2555 7.8201 10.3719 7.51519L10.2555 7.14377C10.2555 7.14377 10.1884 6.99123 10.0727 7.03504C10.0727 7.03504 9.29076 7.14377 9.19765 7.05551L8.57679 7.12186C8.57679 7.12186 8.48588 7.33995 8.76268 7.4474C8.76268 7.4474 8.83196 7.49185 8.83196 7.57931Z" fill="#12110C"/>
</svg>
