<svg width="101" height="24" viewBox="0 0 101 24" fill="none" xmlns="http://www.w3.org/2000/svg">
<g clip-path="url(#clip0_2585_46380)">
<path d="M4.77926 0.225502C4.94616 0.225502 5.09637 0.354362 5.09637 0.515436V23.4201C5.09637 23.5812 4.96285 23.7101 4.77926 23.7101H0.473354C0.306458 23.7101 0.15625 23.5812 0.15625 23.4201V0.515436C0.15625 0.354362 0.289768 0.225502 0.473354 0.225502H4.77926ZM29.1627 0.225502C29.3296 0.225502 29.4798 0.354362 29.4798 0.515436V23.4201C29.4798 23.5812 29.3463 23.7101 29.1627 23.7101H24.8401C24.74 23.7101 24.6399 23.6617 24.5731 23.5812L14.0754 8.16644V23.4201C14.0754 23.5812 13.9418 23.7101 13.7583 23.7101H9.43566C9.26876 23.7101 9.11855 23.5812 9.11855 23.4201V0.515436C9.11855 0.354362 9.25207 0.225502 9.43566 0.225502H13.7583C13.8584 0.225502 13.9585 0.273825 14.0253 0.354362L24.5564 15.8336V0.515436C24.5564 0.354362 24.6899 0.225502 24.8735 0.225502H29.1627ZM47.2209 13.8201L52.645 23.0819C52.6617 23.1302 52.6784 23.1785 52.6784 23.2107V23.4201C52.6784 23.5812 52.5448 23.7101 52.3613 23.7101H47.7382C47.6214 23.7101 47.5213 23.6456 47.4712 23.549L42.5812 14.8832H38.2586V23.404C38.2586 23.5651 38.125 23.694 37.9415 23.694H33.6355C33.4687 23.694 33.3184 23.5651 33.3184 23.404V0.515436C33.3184 0.354362 33.452 0.225502 33.6355 0.225502H42.3642C45.2849 0.225502 47.588 0.85369 49.1902 2.07785C50.8091 3.31812 51.6436 5.12215 51.6436 7.44161C51.6436 9.03624 51.2264 10.3732 50.3752 11.4523C49.6242 12.451 48.556 13.2564 47.2209 13.8201ZM45.5853 10.1799C46.3363 9.55168 46.7035 8.7141 46.7035 7.61879C46.7035 6.47517 46.353 5.58926 45.6687 4.97718C44.9678 4.3651 43.8996 4.04295 42.4977 4.01074H38.2586V11.1141H42.3809C43.7494 11.1141 44.8343 10.8081 45.5853 10.1799ZM68.1162 15.7208L64.528 6.24967L61.4905 14.3034L60.923 15.8175H68.1663L68.1162 15.7208ZM87.2759 4.01074C82.5026 4.01074 78.614 7.60268 78.614 12C78.614 12.7248 78.7141 13.4497 78.9311 14.1584C83.8211 12.2738 87.8767 8.89128 90.4135 4.5745C89.4121 4.20403 88.3607 4.01074 87.2759 4.01074ZM100.294 12C100.294 18.6201 94.4524 24 87.2759 24H87.2592C84.5721 24 81.9853 23.243 79.7989 21.8094C78.5973 21.0362 77.5625 20.0859 76.7114 18.9906C76.6947 18.9584 76.678 18.9423 76.6613 18.9101C76.6446 18.9101 76.6279 18.9101 76.5945 18.9262C75.9102 19.0872 75.2093 19.2161 74.5083 19.3289L76.1439 23.3235C76.1773 23.404 76.1606 23.5168 76.1105 23.5812C76.0605 23.6617 75.9603 23.7101 75.8602 23.7101H71.354C71.2205 23.7101 71.1036 23.6295 71.0536 23.5168L69.5849 19.651L69.5348 19.5221H59.471L57.969 23.5007C57.9189 23.6134 57.8021 23.694 57.6685 23.694H53.179C53.0789 23.694 52.9788 23.6456 52.9287 23.5651C52.8786 23.4846 52.8619 23.3879 52.8953 23.3074L62.2749 0.402685C62.3249 0.289933 62.4418 0.225502 62.5586 0.225502H66.4306C66.5641 0.225502 66.6809 0.30604 66.7143 0.402685L72.9562 15.6081C73.557 15.5436 74.1578 15.447 74.742 15.3342C74.3915 14.255 74.2246 13.1275 74.2246 11.9839C74.2246 9.47114 75.0591 7.15168 76.4944 5.2349C78.8309 2.07785 82.7697 0 87.2258 0C89.0283 0 90.764 0.338255 92.3996 0.998657C93.5511 1.46577 94.6193 2.07785 95.5873 2.81879C95.6874 2.89933 95.7208 3.02819 95.6707 3.14094C95.2034 4.28456 94.6527 5.41208 94.0184 6.47517C91.1145 11.3718 86.4914 15.2859 80.9672 17.5248C81.0006 17.557 81.0339 17.5893 81.0673 17.6215C82.0854 18.5557 83.3371 19.2483 84.7223 19.6349C85.5234 19.8604 86.3579 19.9732 87.2091 19.9732C91.6986 19.9732 95.4037 16.8161 95.8376 12.7732C95.8543 12.7248 95.8543 12.6765 95.8543 12.6121C95.9044 11.6779 96.0713 11.4201 96.3049 11.0497L98.8918 7.31275C98.9419 7.26443 99.0587 7.16779 99.1922 7.32886C99.9266 8.79463 100.294 10.3893 100.294 12Z" fill="#009992"/>
</g>
<defs>
<clipPath id="clip0_2585_46380">
<rect width="100.137" height="24" fill="white" transform="translate(0.15625)"/>
</clipPath>
</defs>
</svg>
