<svg width="79" height="32" viewBox="0 0 79 32" fill="none" xmlns="http://www.w3.org/2000/svg">
<path d="M29.2928 0.125H0.5V19.4685H29.2928V0.125Z" fill="#0054A4"/>
<path d="M29.1678 0.250046V19.3435H0.625046V0.250046H29.1678ZM29.4178 0H0.375V19.5936H29.4178V0Z" fill="white"/>
<path d="M15.2078 2.96347H16.2005L15.4003 3.58608L15.7104 4.57626L14.9127 3.96615L14.1176 4.57626L14.4301 3.58608L13.625 2.96347H14.6127L14.9127 1.99829L15.2078 2.96347Z" fill="white"/>
<path d="M15.239 15.697H16.2342L15.4341 16.2996L15.7441 17.2497L14.9465 16.6646L14.1488 17.2497L14.4639 16.2996L13.6562 15.697H14.6464L14.9465 14.7693L15.239 15.697Z" fill="white"/>
<path d="M18.39 14.8552H19.3827L18.5825 15.4553L18.8951 16.4079L18.0974 15.8203L17.2998 16.4079L17.6148 15.4553L16.8047 14.8552H17.7974L18.0974 13.9275L18.39 14.8552Z" fill="white"/>
<path d="M18.39 3.81512H19.3827L18.5825 4.41523L18.8951 5.36541L18.0974 4.7803L17.2998 5.36541L17.6148 4.41523L16.8047 3.81512H17.7974L18.0974 2.88745L18.39 3.81512Z" fill="white"/>
<path d="M20.7259 6.15326H21.7186L20.9185 6.75337L21.2285 7.70604L20.4309 7.11844L19.6357 7.70604L19.9508 6.75337L19.1406 6.15326H20.1308L20.4309 5.22559L20.7259 6.15326Z" fill="white"/>
<path d="M20.7259 12.5495H21.7186L20.9185 13.1496L21.2285 14.1023L20.4309 13.5147L19.6357 14.1023L19.9508 13.1496L19.1406 12.5495H20.1308L20.4309 11.6218L20.7259 12.5495Z" fill="white"/>
<path d="M21.6062 9.30072H22.6014L21.8013 9.90083L22.1113 10.8535L21.3137 10.2659L20.516 10.8535L20.8311 9.90083L20.0234 9.30072H21.0136L21.3137 8.37305L21.6062 9.30072Z" fill="white"/>
<path d="M11.9915 3.82171H12.9842L12.1841 4.42182L12.4941 5.3745L11.6965 4.78689L10.8988 5.3745L11.2139 4.42182L10.4062 3.82171H11.3964L11.6965 2.89404L11.9915 3.82171Z" fill="white"/>
<path d="M9.7156 6.15985H10.7108L9.91064 6.75995L10.2207 7.71263L9.42305 7.12502L8.6279 7.71263L8.94046 6.75995L8.13281 6.15985H9.12549L9.42305 5.23218L9.7156 6.15985Z" fill="white"/>
<path d="M8.87967 9.30896H9.87235L9.0722 9.91157L9.38476 10.8617L8.58711 10.2766L7.78947 10.8617L8.10202 9.91157L7.29688 9.30896H8.28706L8.58711 8.38379L8.87967 9.30896Z" fill="white"/>
<path d="M9.7156 12.5561H10.7108L9.91064 13.1562L10.2207 14.1089L9.42305 13.5213L8.6279 14.1089L8.94046 13.1562L8.13281 12.5561H9.12549L9.42305 11.6284L9.7156 12.5561Z" fill="white"/>
<path d="M12.0281 14.8615H13.0208L12.2206 15.4616L12.5307 16.4143L11.733 15.8267L10.9379 16.4143L11.2505 15.4616L10.4453 14.8615H11.433L11.733 13.9338L12.0281 14.8615Z" fill="white"/>
<path d="M64.7109 9.94087C64.7109 5.01365 65.9211 0 72.4907 0C73.9026 0 76.2366 0.201698 77.7637 0.835609C78.2248 1.03731 78.3976 1.26782 78.3112 1.72885L78.0519 2.91022C77.9654 3.25599 77.8214 3.40006 77.3027 3.34244C75.8908 3.16955 74.162 2.96785 72.6636 2.96785C68.7449 2.96785 68.1686 6.1374 68.1686 9.88324C68.1686 13.6579 68.889 16.6257 72.6636 16.6257C74.3349 16.6257 75.7467 16.4529 77.3027 16.2512C77.8502 16.1935 77.9654 16.3376 78.0807 16.7122L78.3112 17.8071C78.4265 18.2681 78.2824 18.5275 77.8214 18.7292C76.4095 19.3343 73.9026 19.5936 72.4907 19.5936C66.0652 19.5936 64.7109 14.8393 64.7109 9.94087Z" fill="#0054A4"/>
<path d="M58.18 11.0939L61.9547 18.7296C62.0987 19.0754 61.9547 19.3347 61.6377 19.3347H59.1597C58.7275 19.3347 58.497 19.2483 58.3241 18.8449L54.9528 11.6125H52.0138V18.7584C52.0138 19.1042 51.8697 19.3347 51.4663 19.3347H49.3341C48.9019 19.3347 48.7578 19.1618 48.7578 18.7872V0.749616C48.7578 0.403848 48.9019 0.202148 49.3341 0.202148H55.7308C58.6987 0.202148 61.6089 1.84455 61.6089 5.8209C61.6089 7.8667 60.6869 10.143 58.18 11.0939ZM58.2377 5.8209C58.2377 3.65984 56.7393 3.05475 55.0681 3.05475H52.0138V8.8752H55.0105C56.4224 8.8752 58.2377 8.44298 58.2377 5.8209Z" fill="#0054A4"/>
<path d="M41.196 14.0041V0.77843C41.196 0.403848 41.3689 0.202148 41.7723 0.202148H43.9333C44.3367 0.202148 44.4808 0.432662 44.4808 0.77843V14.4939C44.4808 17.7211 42.7808 19.594 38.6892 19.594C37.5942 19.594 36.2111 19.45 35.0298 18.9889C34.3382 18.7296 34.223 18.5279 34.367 18.0669L34.6552 16.7703C34.7704 16.3957 34.8569 16.3092 35.2891 16.3957C36.1823 16.5109 37.3925 16.6262 38.2281 16.6262C40.6773 16.6262 41.196 15.6753 41.196 14.0041Z" fill="#0054A4"/>
<path d="M78.3485 30.2298C78.3485 30.3345 78.3136 30.3955 78.1828 30.3955H77.555C77.4416 30.3955 77.3893 30.3432 77.3893 30.2298L77.398 27.7795C77.398 27.265 77.2759 26.9249 76.7701 26.9249C76.4213 26.9249 75.8109 27.204 75.5755 27.3173V30.2298C75.5755 30.3345 75.5319 30.3955 75.4098 30.3955H74.7907C74.6686 30.3955 74.625 30.3432 74.625 30.2298V26.2971C74.625 26.1837 74.6686 26.1227 74.7907 26.1227H75.4098C75.5319 26.1227 75.5755 26.1837 75.5755 26.2971V26.5587C75.5842 26.5587 75.5929 26.5674 75.6017 26.5674C75.9243 26.3407 76.5347 26.0442 77.0666 26.0442C78.2439 26.0442 78.3485 26.8203 78.3485 27.701V30.2298Z" fill="#0054A4"/>
<path d="M73.8011 28.1895C73.8011 29.1836 73.679 30.4655 71.8739 30.4655C70.1212 30.4655 70.0078 29.1836 70.0078 28.1895C70.0078 27.3698 70.1909 26.0356 71.8739 26.0356C73.5656 26.0356 73.8011 27.1605 73.8011 28.1895ZM72.8244 28.2506C72.8244 27.3262 72.6762 26.8728 71.8826 26.8728C71.1414 26.8728 70.9757 27.3437 70.9757 28.2506C70.9757 29.1749 71.1414 29.6283 71.8739 29.6283C72.6674 29.6283 72.8244 29.1836 72.8244 28.2506Z" fill="#0054A4"/>
<path d="M69.068 24.989C69.068 25.2593 68.9896 25.4948 68.5535 25.4948C68.1001 25.4948 68.0391 25.2419 68.0391 24.989C68.0391 24.7099 68.135 24.4919 68.5535 24.4919C68.9808 24.4919 69.068 24.6925 69.068 24.989ZM69.0157 26.2883V30.2298C69.0157 30.3257 68.9808 30.3955 68.8587 30.3955H68.2396C68.1175 30.3955 68.0652 30.3431 68.0652 30.2298V26.2883C68.0652 26.1662 68.1175 26.1226 68.2396 26.1226H68.8587C68.9808 26.1226 69.0157 26.1924 69.0157 26.2883Z" fill="#0054A4"/>
<path d="M67.1321 29.1138C67.1321 30.1341 66.2688 30.4655 65.3706 30.4655C64.9346 30.4655 64.3504 30.4044 64.019 30.2736C63.8446 30.2039 63.8097 30.1254 63.8359 29.9859L63.8969 29.6981C63.9231 29.5586 63.9841 29.5499 64.1237 29.5673C64.5073 29.6283 65.0654 29.6719 65.3619 29.6719C65.92 29.6719 66.1467 29.5237 66.1467 29.1749C66.1467 28.7738 65.9985 28.6866 65.4491 28.6081C64.5945 28.486 63.8446 28.3029 63.8446 27.3524C63.8446 26.4891 64.5073 26.0356 65.484 26.0356C65.8415 26.0356 66.4432 26.088 66.8094 26.2275C66.9577 26.2885 67.0187 26.3583 66.9926 26.4891L66.9228 26.803C66.8966 26.9251 66.8443 26.9425 66.6874 26.9251C66.3124 26.8815 65.8241 26.8292 65.5014 26.8292C64.9433 26.8292 64.8125 26.9861 64.8125 27.3175C64.8125 27.6576 65.0218 27.7012 65.5538 27.7884C66.3822 27.9105 67.1321 28.0762 67.1321 29.1138Z" fill="#0054A4"/>
<path d="M62.9118 24.989C62.9118 25.2593 62.8333 25.4948 62.3973 25.4948C61.9439 25.4948 61.8828 25.2419 61.8828 24.989C61.8828 24.7099 61.9787 24.4919 62.3973 24.4919C62.8246 24.4919 62.9118 24.6925 62.9118 24.989ZM62.8595 26.2883V30.2298C62.8595 30.3257 62.8246 30.3955 62.7025 30.3955H62.0834C61.9613 30.3955 61.909 30.3431 61.909 30.2298V26.2883C61.909 26.1662 61.9613 26.1226 62.0834 26.1226H62.7025C62.8246 26.1226 62.8595 26.1924 62.8595 26.2883Z" fill="#0054A4"/>
<path d="M60.8461 30.2298C60.8461 30.3345 60.8112 30.3955 60.6891 30.3955H60.0613C59.9392 30.3955 59.8956 30.3432 59.8956 30.2298V27.7533C59.8956 27.108 59.7386 26.9249 59.3026 26.9249C58.98 26.9249 58.4568 27.1778 58.1864 27.3173C58.1864 27.4045 58.1952 27.5615 58.1952 27.7621V30.2298C58.1952 30.3345 58.1603 30.3955 58.0295 30.3955H57.3929C57.2795 30.3955 57.2447 30.3432 57.2447 30.2298V27.7097C57.2447 27.1778 57.1051 26.9249 56.6691 26.9249C56.3639 26.9249 55.8756 27.1429 55.5442 27.3173V30.2298C55.5442 30.3345 55.5006 30.3955 55.3786 30.3955H54.7507C54.6374 30.3955 54.5938 30.3432 54.5938 30.2298V26.2971C54.5938 26.1837 54.6374 26.1227 54.7507 26.1227H55.3698C55.5006 26.1227 55.5442 26.1924 55.5442 26.2971V26.55L55.553 26.5587C55.893 26.3232 56.3727 26.0616 56.8523 26.0442C57.358 26.0442 57.7766 26.1488 58.0469 26.6546C58.4829 26.332 59.0236 26.0442 59.5817 26.0442C60.7327 26.0442 60.8461 26.7941 60.8461 27.6661V30.2298Z" fill="#0054A4"/>
<path d="M53.6586 30.2298C53.6586 30.3345 53.6237 30.3955 53.5016 30.3955H52.8738C52.7517 30.3955 52.7081 30.3432 52.7081 30.2298V27.7533C52.7081 27.108 52.5511 26.9249 52.1151 26.9249C51.7925 26.9249 51.2693 27.1778 50.9989 27.3173C50.9989 27.4045 51.0077 27.5615 51.0077 27.7621V30.2298C51.0077 30.3345 50.9728 30.3955 50.842 30.3955H50.2054C50.092 30.3955 50.0572 30.3432 50.0572 30.2298V27.7097C50.0572 27.1778 49.9176 26.9249 49.4816 26.9249C49.1764 26.9249 48.6881 27.1429 48.3567 27.3173V30.2298C48.3567 30.3345 48.3131 30.3955 48.1911 30.3955H47.5632C47.4499 30.3955 47.4062 30.3432 47.4062 30.2298V26.2971C47.4062 26.1837 47.4499 26.1227 47.5632 26.1227H48.1823C48.3131 26.1227 48.3567 26.1924 48.3567 26.2971V26.55L48.3655 26.5587C48.7055 26.3232 49.1852 26.0616 49.6648 26.0442C50.1705 26.0442 50.5891 26.1488 50.8594 26.6546C51.2954 26.332 51.8361 26.0442 52.3942 26.0442C53.5452 26.0442 53.6586 26.7941 53.6586 27.6661V30.2298Z" fill="#0054A4"/>
<path d="M46.5511 28.1895C46.5511 29.1836 46.429 30.4655 44.6239 30.4655C42.8712 30.4655 42.7578 29.1836 42.7578 28.1895C42.7578 27.3698 42.9409 26.0356 44.6239 26.0356C46.3156 26.0356 46.5511 27.1605 46.5511 28.1895ZM45.5744 28.2506C45.5744 27.3262 45.4262 26.8728 44.6326 26.8728C43.8914 26.8728 43.7257 27.3437 43.7257 28.2506C43.7257 29.1749 43.8914 29.6283 44.6239 29.6283C45.4174 29.6283 45.5744 29.1836 45.5744 28.2506Z" fill="#0054A4"/>
<path d="M38.0234 27.5526C38.0234 26.0615 38.3897 24.5442 40.3779 24.5442C40.8052 24.5442 41.5115 24.6052 41.9736 24.7971C42.1132 24.8581 42.1655 24.9279 42.1393 25.0674L42.0608 25.4249C42.0347 25.5296 41.9911 25.5732 41.8341 25.5557C41.4068 25.5034 40.8836 25.4424 40.4302 25.4424C39.2443 25.4424 39.0699 26.4016 39.0699 27.5352C39.0699 28.6775 39.2879 29.5757 40.4302 29.5757C40.936 29.5757 41.3632 29.5234 41.8341 29.4623C41.9998 29.4449 42.0347 29.4885 42.0696 29.6019L42.1393 29.9332C42.1742 30.0727 42.1306 30.1512 41.9911 30.2123C41.5638 30.3954 40.8052 30.4739 40.3779 30.4739C38.4333 30.4739 38.0234 29.035 38.0234 27.5526Z" fill="#0054A4"/>
<path d="M34.5829 30.2298C34.5829 30.3345 34.548 30.3955 34.4172 30.3955H33.7893C33.676 30.3955 33.6237 30.3432 33.6237 30.2298L33.6324 27.7795C33.6324 27.265 33.5103 26.9249 33.0045 26.9249C32.6557 26.9249 32.0453 27.204 31.8099 27.3173V30.2298C31.8099 30.3345 31.7663 30.3955 31.6442 30.3955H31.0251C30.903 30.3955 30.8594 30.3432 30.8594 30.2298V26.2971C30.8594 26.1837 30.903 26.1227 31.0251 26.1227H31.6442C31.7663 26.1227 31.8099 26.1837 31.8099 26.2971V26.5587C31.8186 26.5587 31.8273 26.5674 31.836 26.5674C32.1587 26.3407 32.7691 26.0442 33.301 26.0442C34.4782 26.0442 34.5829 26.8203 34.5829 27.701V30.2298Z" fill="#0054A4"/>
<path d="M28.8251 29.2795V28.4511H27.7612C27.3252 28.4511 27.0462 28.6081 27.0462 29.1836C27.0462 29.5673 27.177 29.6894 27.5868 29.6894C27.9618 29.6894 28.4937 29.4714 28.8251 29.2795ZM28.8948 29.9074L28.8774 29.8987C28.4414 30.23 27.8571 30.4655 27.2729 30.4655C26.3486 30.4655 26.0782 29.9597 26.0782 29.2272C26.0695 28.207 26.6189 27.7709 27.7176 27.7709H28.8338V27.5442C28.8338 27.021 28.6419 26.8379 27.9269 26.8379C27.6391 26.8379 27.0898 26.8815 26.741 26.9164C26.5666 26.9425 26.523 26.9338 26.4968 26.8117L26.4183 26.4891C26.4009 26.3757 26.427 26.306 26.6189 26.2275C26.9938 26.0967 27.6827 26.0356 28.0926 26.0356C29.6012 26.0356 29.7843 26.6548 29.7843 27.6314V29.3144C29.7843 29.6719 29.8279 29.6807 30.0982 29.7155C30.229 29.7243 30.2639 29.7504 30.2639 29.8463V30.2126C30.2639 30.3085 30.2028 30.3695 30.0546 30.3957C29.9151 30.4219 29.7756 30.4393 29.6448 30.4393C29.2349 30.4393 28.982 30.3172 28.8948 29.9074Z" fill="#0054A4"/>
<path d="M24.9603 28.5209H22.6494C22.6756 29.4016 22.9895 29.6458 23.7046 29.6458C24.0185 29.6458 24.5068 29.5847 24.8382 29.5499C24.9951 29.5324 25.0475 29.5324 25.0736 29.6981L25.1259 29.9859C25.1521 30.1167 25.1347 30.1864 24.9777 30.2562C24.6376 30.387 24.0011 30.4742 23.5738 30.4742C21.9082 30.4742 21.6641 29.4103 21.6641 28.2767C21.6641 27.4309 21.821 26.0356 23.5214 26.0356C25.0823 26.0356 25.3614 27.0472 25.3876 27.9889C25.3963 28.3029 25.3091 28.5209 24.9603 28.5209ZM23.5214 26.8205C22.8762 26.8205 22.7018 27.2129 22.6582 27.8669H24.3847C24.3847 27.3349 24.2452 26.8205 23.5214 26.8205Z" fill="#0054A4"/>
<path d="M20.972 28.2328C20.972 29.6541 20.6145 30.4738 19.2367 30.4738C18.949 30.4738 18.5478 30.4215 18.1467 30.282L18.138 30.2907V31.8254C18.138 31.9214 18.1118 31.9999 17.9723 31.9999H17.3532C17.2137 31.9999 17.1875 31.9388 17.1875 31.8254V26.2969C17.1875 26.1835 17.2311 26.1225 17.3532 26.1225H17.9723C18.0944 26.1225 18.1293 26.1923 18.1293 26.2969V26.5585L18.1554 26.5759C18.4694 26.3579 19.0274 26.0527 19.5332 26.0527C20.6755 26.0527 20.972 26.916 20.972 28.2328ZM19.9867 28.224C19.9867 27.1166 19.7687 26.9247 19.3065 26.9247C18.949 26.9247 18.3996 27.1776 18.138 27.3172V29.4972C18.5304 29.6105 18.8443 29.6454 19.1408 29.6454C19.7687 29.6454 19.9867 29.3228 19.9867 28.224Z" fill="#0054A4"/>
<path d="M16.3479 28.1895C16.3479 29.1836 16.2259 30.4655 14.4208 30.4655C12.668 30.4655 12.5547 29.1836 12.5547 28.1895C12.5547 27.3698 12.7378 26.0356 14.4208 26.0356C16.1125 26.0356 16.3479 27.1605 16.3479 28.1895ZM15.3713 28.2506C15.3713 27.3262 15.223 26.8728 14.4295 26.8728C13.6883 26.8728 13.5226 27.3437 13.5226 28.2506C13.5226 29.1749 13.6883 29.6283 14.4208 29.6283C15.2143 29.6283 15.3713 29.1836 15.3713 28.2506Z" fill="#0054A4"/>
<path d="M10.5842 27.4216V30.2295C10.5842 30.3342 10.5406 30.3952 10.4185 30.3952H9.79068C9.6686 30.3952 9.625 30.3429 9.625 30.2295V26.2968C9.625 26.1834 9.6686 26.1224 9.79068 26.1224H10.4098C10.5406 26.1224 10.5842 26.1921 10.5842 26.2968V26.6804L10.6017 26.6979C10.8633 26.4537 11.4824 26.1572 11.8922 26.0788C12.0056 26.0526 12.0841 26.0788 12.1015 26.227L12.1626 26.8112C12.1713 26.9333 12.18 26.9856 11.9969 27.0205C11.5085 27.1164 10.8894 27.2908 10.5842 27.4216Z" fill="#0054A4"/>
<path d="M8.52818 30.23C8.52818 30.3433 8.48458 30.3957 8.36249 30.3957H7.74337C7.61256 30.3957 7.57768 30.3346 7.57768 30.23V29.9597L7.56024 29.9509C7.22016 30.1864 6.62719 30.4741 6.09526 30.4741C4.91805 30.4741 4.80469 29.7765 4.80469 28.8609V26.2972C4.80469 26.1926 4.84829 26.1228 4.97037 26.1228H5.60694C5.7203 26.1228 5.7639 26.1838 5.7639 26.2972V28.7476C5.7639 29.2708 5.86854 29.6021 6.40047 29.6021C6.77543 29.6021 7.35096 29.3231 7.57768 29.2097V26.2972C7.57768 26.1926 7.61256 26.1228 7.74337 26.1228H8.36249C8.48458 26.1228 8.52818 26.1838 8.52818 26.2972V30.23Z" fill="#0054A4"/>
<path d="M0.375 30.2382V24.7794C0.375 24.666 0.427321 24.605 0.549402 24.605H3.7584C3.86305 24.605 3.92409 24.666 3.92409 24.7707V25.3113C3.92409 25.416 3.88049 25.4683 3.74968 25.4683H1.36909V26.9681H3.47936C3.59272 26.9681 3.65376 27.0205 3.65376 27.1251V27.6657C3.65376 27.7704 3.61016 27.8227 3.47936 27.8227H1.36909V29.5406H3.81073C3.91537 29.5406 3.96769 29.5929 3.96769 29.7062V30.2382C3.96769 30.3515 3.92409 30.3951 3.80201 30.3951H0.549402C0.427321 30.3951 0.375 30.3428 0.375 30.2382Z" fill="#0054A4"/>
</svg>
