<svg width="111" height="32" viewBox="0 0 111 32" fill="none" xmlns="http://www.w3.org/2000/svg">
<g clip-path="url(#clip0_2585_46384)">
<path d="M104.605 13.0599C104.115 11.9844 103.457 11.0556 102.629 10.2572C101.802 9.45878 100.84 8.83959 99.7253 8.38334C98.611 7.9271 97.4292 7.69898 96.1967 7.69898C94.9135 7.69898 93.7317 7.9271 92.6343 8.38334C92.094 8.61147 91.5706 8.87218 91.0979 9.18177C90.6083 9.49137 90.1524 9.84985 89.7303 10.2572C89.4771 10.5016 89.2238 10.7623 89.0043 11.0393C88.7511 11.3489 88.4809 11.7563 88.3121 12.0007C88.1095 12.3103 87.6537 13.2391 87.4511 13.8909C87.4848 12.7992 87.6537 11.1534 88.3121 10.2409V2.28921C88.3121 1.76779 88.1264 1.32783 87.7381 0.969356C87.3498 0.610878 86.9108 0.431641 86.4043 0.431641C85.864 0.431641 85.4082 0.610878 85.0367 0.969356C84.6653 1.32783 84.4796 1.76779 84.4796 2.28921V9.34472C83.7029 8.82329 82.8756 8.41593 81.9808 8.12263C81.086 7.82933 80.1574 7.68268 79.1782 7.68268C77.9288 7.68268 76.7638 7.9108 75.6495 8.36705C74.5352 8.82329 73.5729 9.44248 72.7456 10.2409C71.9183 11.0393 71.2598 11.9681 70.7871 13.0436C70.7533 13.125 70.7196 13.2065 70.6858 13.288C70.652 13.2065 70.6183 13.125 70.5845 13.0436C70.0949 11.9681 69.4364 11.0393 68.6091 10.2409C67.7819 9.44248 66.8195 8.82329 65.7052 8.36705C64.5909 7.9108 63.409 7.68268 62.1766 7.68268C60.8934 7.68268 59.7116 7.9108 58.6141 8.36705C57.5167 8.82329 56.5544 9.44248 55.7102 10.2409C54.866 11.0393 54.2076 11.9681 53.7348 13.0436C53.7011 13.125 53.6673 13.1902 53.6335 13.2717C53.5998 13.1902 53.566 13.125 53.5322 13.0436C53.0426 11.9681 52.3842 11.0393 51.5738 10.2409C50.7465 9.44248 49.7841 8.82329 48.6698 8.36705C47.5555 7.9108 46.3905 7.68268 45.1412 7.68268C43.858 7.68268 42.6762 7.9108 41.5788 8.36705C40.4813 8.82329 39.519 9.44248 38.6748 10.2409C37.8306 11.0393 37.1722 11.9681 36.6994 13.0436C36.6657 13.1087 36.6488 13.1902 36.615 13.2554C36.5813 13.1902 36.5644 13.1087 36.5306 13.0436C36.041 11.9681 35.3825 11.0393 34.5552 10.2409C33.728 9.44248 32.7656 8.82329 31.6513 8.36705C30.537 7.9108 29.3552 7.68268 28.1227 7.68268C26.8395 7.68268 25.6577 7.9108 24.5603 8.36705C23.5472 8.7907 22.6524 9.36101 21.8589 10.078V9.78467C21.8589 8.74182 20.981 7.89451 19.9004 7.89451H6.29237C5.21183 7.89451 4.33389 8.74182 4.33389 9.78467C4.33389 10.8275 5.21183 11.6748 6.29237 11.6748H17.0471L4.43519 28.0671C4.18194 28.393 4.04688 28.784 4.04688 29.1914V30.4135C4.04688 31.4563 4.92481 32.3036 6.00535 32.3036H20.5589C21.5888 32.3036 22.4329 31.5378 22.5005 30.5601C23.142 31.049 23.868 31.4726 24.6447 31.7985C25.759 32.2548 26.9239 32.4829 28.1733 32.4829C30.0643 32.4829 31.7357 31.994 33.2215 31.0164C34.4202 30.2342 35.3657 29.2566 36.041 28.0834V30.6253C36.041 31.1467 36.2267 31.5867 36.5981 31.9452C36.9696 32.3036 37.4254 32.4829 37.9657 32.4829C38.4722 32.4829 38.9112 32.3036 39.2995 31.9452C39.6878 31.5867 39.8735 31.1467 39.8735 30.6253V24.026V24.0097C39.8735 24.0097 35.6189 24.0097 35.0955 24.0097C34.6903 24.0097 34.3358 24.1075 34.015 24.3193C33.6942 24.5312 33.4578 24.8245 33.3396 25.1667L33.0189 25.7858C32.5799 26.6983 31.9383 27.4153 31.0773 27.953C30.2162 28.4907 29.2539 28.7514 28.1733 28.7514C27.4642 28.7514 26.7889 28.6211 26.1304 28.3604C25.472 28.0997 24.9148 27.7412 24.4421 27.2686C23.9693 26.7961 23.5979 26.2584 23.3109 25.6392C23.0239 25.02 22.8888 24.3682 22.8888 23.6839V22.0218H35.1462H36.0579H39.8904V16.4654C39.8904 15.781 40.0255 15.1293 40.2956 14.5264C40.5658 13.9072 40.9372 13.3695 41.4268 12.8969C41.9164 12.4244 42.4736 12.0659 43.1152 11.8052C43.7567 11.5445 44.4489 11.4141 45.1749 11.4141C45.884 11.4141 46.5594 11.5445 47.2178 11.8052C47.8763 12.0659 48.4334 12.4244 48.9062 12.8969C49.3789 13.3695 49.7503 13.9072 50.0374 14.5264C50.3244 15.1456 50.4594 15.7973 50.4594 16.4654V30.6253C50.4594 31.1467 50.6452 31.5867 51.0166 31.9452C51.388 32.3036 51.8439 32.4829 52.3842 32.4829C52.8907 32.4829 53.3296 32.3036 53.7179 31.9452C54.1063 31.5867 54.292 31.1467 54.292 30.6253V28.0834C54.6972 28.7514 55.1868 29.3706 55.744 29.9246C56.5713 30.7231 57.5336 31.3423 58.6479 31.7985C59.7622 32.2548 60.9272 32.4829 62.1766 32.4829C63.4259 32.4829 64.5909 32.2548 65.7052 31.7985C66.8195 31.3423 67.7819 30.7231 68.626 29.9246C69.4702 29.1262 70.1287 28.1974 70.6014 27.122C70.6352 27.0568 70.652 26.9916 70.6689 26.9265C70.7027 26.9916 70.7196 27.0568 70.7533 27.122C71.2261 28.1974 71.8845 29.1262 72.7287 29.9246C73.5729 30.7231 74.5352 31.3423 75.6327 31.7985C76.7301 32.2548 77.9119 32.4829 79.1951 32.4829C80.4444 32.4829 81.6094 32.2548 82.7237 31.7985C83.838 31.3423 84.8004 30.7231 85.6276 29.9246C86.4549 29.1262 87.1134 28.1974 87.603 27.122C87.6368 27.0405 87.6705 26.959 87.7043 26.8776C87.7381 26.959 87.7718 27.0405 87.8056 27.122C88.2952 28.1974 88.9537 29.1262 89.781 29.9246C90.6083 30.7231 91.5706 31.3423 92.6849 31.7985C93.7992 32.2548 94.9642 32.4829 96.2136 32.4829C97.4629 32.4829 98.6279 32.2548 99.7422 31.7985C100.857 31.3423 101.819 30.7231 102.663 29.9246C103.507 29.1262 104.166 28.1974 104.638 27.122C105.111 26.0466 105.348 24.9059 105.348 23.7164V16.4654C105.348 15.2596 105.094 14.119 104.605 13.0599ZM8.92619 28.5396L19.1407 15.2596C19.09 15.6507 19.0563 16.058 19.0563 16.4491V23.7002C19.0563 24.9059 19.2926 26.0303 19.7822 27.1057C20.0017 27.6108 20.2719 28.0834 20.5758 28.5233C20.5589 28.5233 20.5589 28.5233 20.542 28.5233L8.92619 28.5396ZM33.4916 18.3556H22.9057V16.4654C22.9057 15.781 23.0407 15.1293 23.3109 14.5264C23.581 13.9072 23.9524 13.3695 24.4421 12.8969C24.9317 12.4244 25.4888 12.0659 26.1304 11.8052C26.772 11.5445 27.4642 11.4141 28.2071 11.4141C28.9162 11.4141 29.5915 11.5445 30.25 11.8052C30.9084 12.0659 31.4656 12.4244 31.9383 12.8969C32.4111 13.3695 32.7825 13.9072 33.0695 14.5264C33.3565 15.1456 33.4916 15.7973 33.4916 16.4654V18.3556ZM67.5117 23.7164C67.5117 24.4008 67.3767 25.0526 67.1065 25.6718C66.8364 26.291 66.4649 26.8287 65.9753 27.3012C65.4857 27.7738 64.9286 28.1323 64.287 28.393C63.6454 28.6537 62.9532 28.784 62.2272 28.784C61.5181 28.784 60.8428 28.6537 60.1843 28.393C59.5259 28.1323 58.9687 27.7738 58.496 27.3012C58.0232 26.8287 57.6518 26.291 57.3648 25.6718C57.0778 25.0526 56.9427 24.4008 56.9427 23.7164V16.4654C56.9427 15.781 57.0778 15.1293 57.3479 14.5264C57.618 13.9072 57.9895 13.3695 58.4791 12.8969C58.9687 12.4244 59.5259 12.0659 60.1674 11.8052C60.809 11.5445 61.5012 11.4141 62.2441 11.4141C62.9532 11.4141 63.6285 11.5445 64.287 11.8052C64.9454 12.0659 65.5026 12.4244 65.9753 12.8969C66.4481 13.3695 66.8195 13.9072 67.1065 14.5264C67.3935 15.1456 67.5286 15.7973 67.5286 16.4654C67.5117 16.4654 67.5117 23.7164 67.5117 23.7164ZM84.5133 23.7164C84.5133 24.4008 84.3783 25.0526 84.0913 25.6718C83.8042 26.291 83.4328 26.8287 82.9601 27.3012C82.4873 27.7738 81.9302 28.1323 81.2717 28.393C80.6133 28.6537 79.9379 28.784 79.2288 28.784C78.486 28.784 77.7937 28.6537 77.169 28.393C76.5275 28.1323 75.9703 27.7738 75.4807 27.3012C74.9911 26.8287 74.6196 26.291 74.3495 25.6718C74.0794 25.0526 73.9443 24.4008 73.9443 23.7164V16.4654C73.9443 15.781 74.0963 15.1293 74.3664 14.5264C74.6534 13.9072 75.0248 13.3695 75.4976 12.8969C75.9703 12.4244 76.5275 12.0659 77.1859 11.8052C77.8444 11.5445 78.5197 11.4141 79.2288 11.4141C79.9717 11.4141 80.6639 11.5445 81.2886 11.8052C81.9302 12.0659 82.4873 12.4244 82.977 12.8969C83.4666 13.3695 83.838 13.9072 84.1081 14.5264C84.3783 15.1456 84.5133 15.7973 84.5133 16.4654V23.7164ZM101.515 23.7164C101.515 24.4008 101.38 25.0526 101.11 25.6718C100.84 26.291 100.468 26.8287 99.9786 27.3012C99.489 27.7738 98.9318 28.1323 98.2902 28.393C97.6487 28.6537 96.9564 28.784 96.2305 28.784C95.5213 28.784 94.846 28.6537 94.1875 28.393C93.5291 28.1323 92.9719 27.7738 92.4992 27.3012C92.0265 26.8287 91.655 26.291 91.368 25.6718C91.081 25.0526 90.9459 24.4008 90.9459 23.7164V16.4654C90.9459 15.781 91.081 15.1293 91.3511 14.5264C91.6213 13.9072 91.9927 13.3695 92.4823 12.8969C92.9719 12.4244 93.5291 12.0659 94.1707 11.8052C94.8122 11.5445 95.5045 11.4141 96.2473 11.4141C96.9564 11.4141 97.6318 11.5445 98.2902 11.8052C98.9487 12.0659 99.5058 12.4244 99.9786 12.8969C100.451 13.3695 100.823 13.9072 101.11 14.5264C101.397 15.1456 101.532 15.7973 101.532 16.4654L101.515 23.7164Z" fill="#0047A8"/>
</g>
<defs>
<clipPath id="clip0_2585_46384">
<rect width="110.08" height="32" fill="white" transform="translate(0.296875)"/>
</clipPath>
</defs>
</svg>
