<svg width="907" height="644" viewBox="0 0 907 644" fill="none" xmlns="http://www.w3.org/2000/svg">
  <path
    d="M470 8V0C463.588 0 457.549 2.49027 453.035 7.03502C451.883 8.18677 450.887 9.40078 450.016 10.7393C449.144 9.43191 448.117 8.18677 446.996 7.03502C442.42 2.49027 436.412 0 430 0V8C438.156 8 444.879 14.1323 445.875 22.0078C441.486 18.1167 435.914 16 430 16V24C438.809 24 446 31.1907 446 40H454C454 31.1907 461.191 24 470 24V16C464.086 16 458.514 18.1167 454.125 22.0078C455.121 14.1323 461.844 8 470 8Z"
    fill="#4D5370" />
  <path d="M40 340H0V348H40V340Z" fill="#4D5370" />
  <path d="M40 356H0V364H40V356Z" fill="#4D5370" />
  <path d="M40 372H0V380H40V372Z" fill="#4D5370" />
</svg>