<svg width="72" height="48" viewBox="0 0 72 48" fill="none" xmlns="http://www.w3.org/2000/svg">
<g>
<g filter="url(#filter0_dd_3066_18958)">
<path d="M72 0H0V48H72V0Z" fill="#0A3693"/>
</g>
<path d="M36.0156 5.33398L35.1916 7.87013L36.4597 8.28216L36.0156 5.33398Z" fill="#F3CA45"/>
<path d="M36.0156 5.33398L36.8397 7.87013L35.5716 8.28216L36.0156 5.33398Z" fill="#F3CA45"/>
<path d="M38.5391 7.17676H35.8724V8.51009L38.5391 7.17676Z" fill="#F3CA45"/>
<path d="M38.5391 7.17676L36.3817 8.74419L35.598 7.6655L38.5391 7.17676Z" fill="#F3CA45"/>
<path d="M37.5703 10.1553L36.7463 7.61912L35.4782 8.03115L37.5703 10.1553Z" fill="#F3CA45"/>
<path d="M37.5703 10.1553L35.4129 8.58785L36.1966 7.50916L37.5703 10.1553Z" fill="#F3CA45"/>
<path d="M33.4844 7.17676H36.151V8.51009L33.4844 7.17676Z" fill="#F3CA45"/>
<path d="M33.4844 7.17676L35.6418 8.74419L36.4255 7.6655L33.4844 7.17676Z" fill="#F3CA45"/>
<path d="M34.4531 10.1553L35.2772 7.61912L36.5452 8.03115L34.4531 10.1553Z" fill="#F3CA45"/>
<path d="M34.4531 10.1553L36.6105 8.58785L35.8268 7.50916L34.4531 10.1553Z" fill="#F3CA45"/>
<path d="M36.0156 37.334L35.1916 39.8701L36.4597 40.2822L36.0156 37.334Z" fill="#F3CA45"/>
<path d="M36.0156 37.334L36.8397 39.8701L35.5716 40.2822L36.0156 37.334Z" fill="#F3CA45"/>
<path d="M38.5391 39.1768H35.8724V40.5101L38.5391 39.1768Z" fill="#F3CA45"/>
<path d="M38.5391 39.1768L36.3817 40.7442L35.598 39.6655L38.5391 39.1768Z" fill="#F3CA45"/>
<path d="M37.5703 42.1553L36.7463 39.6191L35.4782 40.0311L37.5703 42.1553Z" fill="#F3CA45"/>
<path d="M37.5703 42.1553L35.4129 40.5878L36.1966 39.5092L37.5703 42.1553Z" fill="#F3CA45"/>
<path d="M33.4844 39.1768H36.151V40.5101L33.4844 39.1768Z" fill="#F3CA45"/>
<path d="M33.4844 39.1768L35.6418 40.7442L36.4255 39.6655L33.4844 39.1768Z" fill="#F3CA45"/>
<path d="M34.4531 42.1553L35.2772 39.6191L36.5452 40.0311L34.4531 42.1553Z" fill="#F3CA45"/>
<path d="M34.4531 42.1553L36.6105 40.5878L35.8268 39.5092L34.4531 42.1553Z" fill="#F3CA45"/>
<path d="M20.0156 21.334L19.1916 23.8701L20.4597 24.2822L20.0156 21.334Z" fill="#F3CA45"/>
<path d="M20.0156 21.334L20.8397 23.8701L19.5716 24.2822L20.0156 21.334Z" fill="#F3CA45"/>
<path d="M22.5391 23.1768H19.8724V24.5101L22.5391 23.1768Z" fill="#F3CA45"/>
<path d="M22.5391 23.1768L20.3817 24.7442L19.598 23.6655L22.5391 23.1768Z" fill="#F3CA45"/>
<path d="M21.5703 26.1553L20.7463 23.6191L19.4782 24.0311L21.5703 26.1553Z" fill="#F3CA45"/>
<path d="M21.5703 26.1553L19.4129 24.5878L20.1966 23.5092L21.5703 26.1553Z" fill="#F3CA45"/>
<path d="M17.4844 23.1768H20.151V24.5101L17.4844 23.1768Z" fill="#F3CA45"/>
<path d="M17.4844 23.1768L19.6418 24.7442L20.4255 23.6655L17.4844 23.1768Z" fill="#F3CA45"/>
<path d="M18.4531 26.1553L19.2772 23.6191L20.5452 24.0311L18.4531 26.1553Z" fill="#F3CA45"/>
<path d="M18.4531 26.1553L20.6105 24.5878L19.8268 23.5092L18.4531 26.1553Z" fill="#F3CA45"/>
<path d="M26.4297 12.3027L28.5871 10.7353L27.8034 9.65662L26.4297 12.3027Z" fill="#F3CA45"/>
<path d="M26.4297 12.3027L27.2538 9.76658L28.5219 10.1786L26.4297 12.3027Z" fill="#F3CA45"/>
<path d="M25.4609 9.32031L27.6183 10.8877L28.402 9.80905L25.4609 9.32031Z" fill="#F3CA45"/>
<path d="M25.4609 9.32031H28.1276V10.6536L25.4609 9.32031Z" fill="#F3CA45"/>
<path d="M28 7.47754L27.176 10.0137L28.444 10.4257L28 7.47754Z" fill="#F3CA45"/>
<path d="M28 7.47754L28.824 10.0137L27.556 10.4257L28 7.47754Z" fill="#F3CA45"/>
<path d="M29.586 12.3018L27.4286 10.7343L28.2123 9.65564L29.586 12.3018Z" fill="#F3CA45"/>
<path d="M29.586 12.3018L28.762 9.76561L27.4939 10.1776L29.586 12.3018Z" fill="#F3CA45"/>
<path d="M30.5626 9.31934L28.4052 10.8868L27.6215 9.80807L30.5626 9.31934Z" fill="#F3CA45"/>
<path d="M30.5626 9.31934H27.8959V10.6527L30.5626 9.31934Z" fill="#F3CA45"/>
<path d="M23.711 18.1582L22.887 15.622L21.6189 16.0341L23.711 18.1582Z" fill="#F3CA45"/>
<path d="M23.711 18.1582L21.5536 16.5908L22.3373 15.5121L23.711 18.1582Z" fill="#F3CA45"/>
<path d="M20.5625 18.1592L22.7199 16.5918L21.9362 15.5131L20.5625 18.1592Z" fill="#F3CA45"/>
<path d="M20.5625 18.1592L21.3865 15.623L22.6546 16.0351L20.5625 18.1592Z" fill="#F3CA45"/>
<path d="M19.5859 15.1768L21.7433 16.7442L22.527 15.6655L19.5859 15.1768Z" fill="#F3CA45"/>
<path d="M19.5859 15.1768H22.2526V16.5101L19.5859 15.1768Z" fill="#F3CA45"/>
<path d="M24.6797 15.1777L22.5224 16.7452L21.7387 15.6665L24.6797 15.1777Z" fill="#F3CA45"/>
<path d="M24.6797 15.1777H22.0131V16.5111L24.6797 15.1777Z" fill="#F3CA45"/>
<path d="M22.1407 13.335L22.9647 15.8711L21.6967 16.2831L22.1407 13.335Z" fill="#F3CA45"/>
<path d="M22.1407 13.335L21.3166 15.8711L22.5847 16.2831L22.1407 13.335Z" fill="#F3CA45"/>
<path d="M24.6797 31.1777H22.013V32.5111L24.6797 31.1777Z" fill="#F3CA45"/>
<path d="M24.6797 31.1777L22.5223 32.7452L21.7386 31.6665L24.6797 31.1777Z" fill="#F3CA45"/>
<path d="M23.7188 34.1563L22.8947 31.6201L21.6266 32.0321L23.7188 34.1563Z" fill="#F3CA45"/>
<path d="M23.7188 34.1563L21.5614 32.5888L22.3451 31.5101L23.7188 34.1563Z" fill="#F3CA45"/>
<path d="M20.5781 34.1602L22.7355 32.5927L21.9518 31.514L20.5781 34.1602Z" fill="#F3CA45"/>
<path d="M20.5781 34.1602L21.4022 31.624L22.6702 32.036L20.5781 34.1602Z" fill="#F3CA45"/>
<path d="M22.1484 29.334L22.9725 31.8701L21.7044 32.2822L22.1484 29.334Z" fill="#F3CA45"/>
<path d="M22.1484 29.334L21.3244 31.8701L22.5925 32.2822L22.1484 29.334Z" fill="#F3CA45"/>
<path d="M19.6251 31.1777H22.2917V32.5111L19.6251 31.1777Z" fill="#F3CA45"/>
<path d="M19.6251 31.1777L21.7824 32.7452L22.5662 31.6665L19.6251 31.1777Z" fill="#F3CA45"/>
<path d="M30.5312 37.0342H27.8646V38.3675L30.5312 37.0342Z" fill="#F3CA45"/>
<path d="M30.5312 37.0342L28.3739 38.6016L27.5902 37.5229L30.5312 37.0342Z" fill="#F3CA45"/>
<path d="M29.5703 40.0127L28.7463 37.4765L27.4782 37.8886L29.5703 40.0127Z" fill="#F3CA45"/>
<path d="M29.5703 40.0127L27.4129 38.4453L28.1966 37.3666L29.5703 40.0127Z" fill="#F3CA45"/>
<path d="M26.4297 40.0166L28.5871 38.4492L27.8034 37.3705L26.4297 40.0166Z" fill="#F3CA45"/>
<path d="M26.4297 40.0166L27.2537 37.4805L28.5218 37.8925L26.4297 40.0166Z" fill="#F3CA45"/>
<path d="M28 35.1904L28.824 37.7266L27.556 38.1386L28 35.1904Z" fill="#F3CA45"/>
<path d="M28 35.1904L27.176 37.7266L28.444 38.1386L28 35.1904Z" fill="#F3CA45"/>
<path d="M25.4766 37.0342H28.1433V38.3675L25.4766 37.0342Z" fill="#F3CA45"/>
<path d="M25.4766 37.0342L27.634 38.6016L28.4177 37.5229L25.4766 37.0342Z" fill="#F3CA45"/>
<path d="M52 21.334L52.824 23.8701L51.556 24.2822L52 21.334Z" fill="#F3CA45"/>
<path d="M52 21.334L51.176 23.8701L52.444 24.2822L52 21.334Z" fill="#F3CA45"/>
<path d="M49.4766 23.1768H52.1432V24.5101L49.4766 23.1768Z" fill="#F3CA45"/>
<path d="M49.4766 23.1768L51.6339 24.7442L52.4177 23.6655L49.4766 23.1768Z" fill="#F3CA45"/>
<path d="M50.4453 26.1553L51.2694 23.6191L52.5374 24.0311L50.4453 26.1553Z" fill="#F3CA45"/>
<path d="M50.4453 26.1553L52.6027 24.5878L51.819 23.5092L50.4453 26.1553Z" fill="#F3CA45"/>
<path d="M54.5312 23.1768H51.8646V24.5101L54.5312 23.1768Z" fill="#F3CA45"/>
<path d="M54.5312 23.1768L52.3739 24.7442L51.5902 23.6655L54.5312 23.1768Z" fill="#F3CA45"/>
<path d="M53.5625 26.1553L52.7385 23.6191L51.4704 24.0311L53.5625 26.1553Z" fill="#F3CA45"/>
<path d="M53.5625 26.1553L51.4051 24.5878L52.1888 23.5092L53.5625 26.1553Z" fill="#F3CA45"/>
<path d="M45.5859 12.3027L43.4285 10.7353L44.2122 9.65662L45.5859 12.3027Z" fill="#F3CA45"/>
<path d="M45.5859 12.3027L44.7618 9.76658L43.4938 10.1786L45.5859 12.3027Z" fill="#F3CA45"/>
<path d="M46.5547 9.32031L44.3973 10.8877L43.6136 9.80905L46.5547 9.32031Z" fill="#F3CA45"/>
<path d="M46.5547 9.32031H43.888V10.6536L46.5547 9.32031Z" fill="#F3CA45"/>
<path d="M44.0156 7.47754L44.8397 10.0137L43.5716 10.4257L44.0156 7.47754Z" fill="#F3CA45"/>
<path d="M44.0156 7.47754L43.1916 10.0137L44.4597 10.4257L44.0156 7.47754Z" fill="#F3CA45"/>
<path d="M42.4296 12.3018L44.587 10.7343L43.8033 9.65564L42.4296 12.3018Z" fill="#F3CA45"/>
<path d="M42.4296 12.3018L43.2537 9.76561L44.5217 10.1776L42.4296 12.3018Z" fill="#F3CA45"/>
<path d="M41.4531 9.31934L43.6104 10.8868L44.3942 9.80807L41.4531 9.31934Z" fill="#F3CA45"/>
<path d="M41.4531 9.31934H44.1197V10.6527L41.4531 9.31934Z" fill="#F3CA45"/>
<path d="M48.3046 18.1582L49.1287 15.622L50.3967 16.0341L48.3046 18.1582Z" fill="#F3CA45"/>
<path d="M48.3046 18.1582L50.462 16.5908L49.6783 15.5121L48.3046 18.1582Z" fill="#F3CA45"/>
<path d="M51.4531 18.1592L49.2957 16.5918L50.0795 15.5131L51.4531 18.1592Z" fill="#F3CA45"/>
<path d="M51.4531 18.1592L50.6291 15.623L49.361 16.0351L51.4531 18.1592Z" fill="#F3CA45"/>
<path d="M52.4297 15.1768L50.2723 16.7442L49.4886 15.6655L52.4297 15.1768Z" fill="#F3CA45"/>
<path d="M52.4297 15.1768H49.763V16.5101L52.4297 15.1768Z" fill="#F3CA45"/>
<path d="M47.3359 15.1777L49.4933 16.7452L50.277 15.6665L47.3359 15.1777Z" fill="#F3CA45"/>
<path d="M47.3359 15.1777H50.0025V16.5111L47.3359 15.1777Z" fill="#F3CA45"/>
<path d="M49.8749 13.335L49.0509 15.8711L50.319 16.2831L49.8749 13.335Z" fill="#F3CA45"/>
<path d="M49.8749 13.335L50.699 15.8711L49.4309 16.2831L49.8749 13.335Z" fill="#F3CA45"/>
<path d="M47.3359 31.1777H50.0026V32.5111L47.3359 31.1777Z" fill="#F3CA45"/>
<path d="M47.3359 31.1777L49.4933 32.7452L50.277 31.6665L47.3359 31.1777Z" fill="#F3CA45"/>
<path d="M48.2969 34.1563L49.1209 31.6201L50.389 32.0321L48.2969 34.1563Z" fill="#F3CA45"/>
<path d="M48.2969 34.1563L50.4543 32.5888L49.6705 31.5101L48.2969 34.1563Z" fill="#F3CA45"/>
<path d="M51.4375 34.1602L49.2801 32.5927L50.0638 31.514L51.4375 34.1602Z" fill="#F3CA45"/>
<path d="M51.4375 34.1602L50.6135 31.624L49.3454 32.036L51.4375 34.1602Z" fill="#F3CA45"/>
<path d="M49.8672 29.334L49.0431 31.8701L50.3112 32.2822L49.8672 29.334Z" fill="#F3CA45"/>
<path d="M49.8672 29.334L50.6912 31.8701L49.4232 32.2822L49.8672 29.334Z" fill="#F3CA45"/>
<path d="M52.3906 31.1777H49.7239V32.5111L52.3906 31.1777Z" fill="#F3CA45"/>
<path d="M52.3906 31.1777L50.2332 32.7452L49.4495 31.6665L52.3906 31.1777Z" fill="#F3CA45"/>
<path d="M41.4844 37.0342H44.151V38.3675L41.4844 37.0342Z" fill="#F3CA45"/>
<path d="M41.4844 37.0342L43.6418 38.6016L44.4255 37.5229L41.4844 37.0342Z" fill="#F3CA45"/>
<path d="M42.4453 40.0127L43.2694 37.4765L44.5374 37.8886L42.4453 40.0127Z" fill="#F3CA45"/>
<path d="M42.4453 40.0127L44.6027 38.4453L43.819 37.3666L42.4453 40.0127Z" fill="#F3CA45"/>
<path d="M45.5859 40.0166L43.4286 38.4492L44.2123 37.3705L45.5859 40.0166Z" fill="#F3CA45"/>
<path d="M45.5859 40.0166L44.7619 37.4805L43.4938 37.8925L45.5859 40.0166Z" fill="#F3CA45"/>
<path d="M44.0156 35.1904L43.1916 37.7266L44.4597 38.1386L44.0156 35.1904Z" fill="#F3CA45"/>
<path d="M44.0156 35.1904L44.8397 37.7266L43.5716 38.1386L44.0156 35.1904Z" fill="#F3CA45"/>
<path d="M46.539 37.0342H43.8723V38.3675L46.539 37.0342Z" fill="#F3CA45"/>
<path d="M46.539 37.0342L44.3816 38.6016L43.5979 37.5229L46.539 37.0342Z" fill="#F3CA45"/>
</g>
<defs>
<filter id="filter0_dd_3066_18958" x="-20" y="0" width="112" height="88" filterUnits="userSpaceOnUse" color-interpolation-filters="sRGB">
<feFlood flood-opacity="0" result="BackgroundImageFix"/>
<feColorMatrix in="SourceAlpha" type="matrix" values="0 0 0 0 0 0 0 0 0 0 0 0 0 0 0 0 0 0 127 0" result="hardAlpha"/>
<feMorphology radius="5" operator="erode" in="SourceAlpha" result="effect1_dropShadow_3066_18958"/>
<feOffset dy="10"/>
<feGaussianBlur stdDeviation="5"/>
<feColorMatrix type="matrix" values="0 0 0 0 0 0 0 0 0 0 0 0 0 0 0 0 0 0 0.04 0"/>
<feBlend mode="normal" in2="BackgroundImageFix" result="effect1_dropShadow_3066_18958"/>
<feColorMatrix in="SourceAlpha" type="matrix" values="0 0 0 0 0 0 0 0 0 0 0 0 0 0 0 0 0 0 127 0" result="hardAlpha"/>
<feMorphology radius="5" operator="erode" in="SourceAlpha" result="effect2_dropShadow_3066_18958"/>
<feOffset dy="20"/>
<feGaussianBlur stdDeviation="12.5"/>
<feColorMatrix type="matrix" values="0 0 0 0 0 0 0 0 0 0 0 0 0 0 0 0 0 0 0.1 0"/>
<feBlend mode="normal" in2="effect1_dropShadow_3066_18958" result="effect2_dropShadow_3066_18958"/>
<feBlend mode="normal" in="SourceGraphic" in2="effect2_dropShadow_3066_18958" result="shape"/>
</filter>
</defs>
</svg>
