<svg width="16" height="16" viewBox="0 0 16 16" fill="none" xmlns="http://www.w3.org/2000/svg">
<path fill-rule="evenodd" clip-rule="evenodd" d="M3.57753 5.3043H0.260747V15.975H3.57753V5.3043ZM2.99508 0.349324C2.67844 0.137752 2.30617 0.024826 1.92535 0.024826C1.41468 0.024826 0.92493 0.227686 0.563834 0.588778C0.202738 0.949871 -0.00012207 1.43962 -0.00012207 1.95028C-0.00012207 2.3311 0.112801 2.70337 0.324375 3.02C0.535948 3.33664 0.83667 3.58343 1.1885 3.72917C1.54034 3.8749 1.92748 3.91303 2.30099 3.83874C2.67449 3.76444 3.01758 3.58106 3.28686 3.31178C3.55615 3.0425 3.73953 2.69942 3.81383 2.32592C3.88812 1.95242 3.84999 1.56527 3.70425 1.21344C3.55852 0.86161 3.31173 0.560895 2.99508 0.349324ZM8.84466 5.30444H5.66453V15.969H8.96889V10.6895C8.96889 9.2982 9.22975 7.95038 10.9565 7.95038C12.6832 7.95038 12.6832 9.54044 12.6832 10.7827V15.9752H16V10.1243C16 7.25474 15.3851 5.04357 12.0248 5.04357C11.3953 5.02003 10.7711 5.16758 10.2188 5.47054C9.66648 5.7735 9.20661 6.22053 8.88814 6.76406H8.84466V5.30444Z" fill="white"/>
</svg>
