<svg width="69" height="68" viewBox="0 0 69 68" fill="none" xmlns="http://www.w3.org/2000/svg">
<path fill-rule="evenodd" clip-rule="evenodd" d="M24.9496 14.2778H26.6162V53.7223H24.9496V14.2778ZM13.3541 22.9543V24.7987L14.5238 25.0265V26.1962H10.2324V25.0265L11.4401 24.7987V16.5424L10.2324 16.3145V15.1372H14.5238V16.3145L13.3541 16.5424V20.7289L17.3873 16.4436L17.4101 16.4132L16.4303 16.3145V15.1372H20.5546V16.3145L19.5141 16.5196L16.2333 19.9466L19.8938 24.8366L20.9496 25.0265V26.1962H16.6734V25.0265L17.6532 24.9278V24.9202L14.9904 21.245L13.3541 22.9543ZM10.2324 38.3599V39.5296H14.5618V38.3599L13.3541 38.132V35.3369H15.4201C16.2455 35.3369 16.9519 35.1951 17.5392 34.9115C18.1317 34.6279 18.5849 34.2304 18.8988 33.719C19.2128 33.2025 19.3698 32.6 19.3698 31.9113C19.3698 31.2226 19.2128 30.6226 18.8988 30.1112C18.5849 29.5947 18.1317 29.1921 17.5392 28.9035C16.9519 28.6149 16.2455 28.4705 15.4201 28.4705H11.4401H10.2324V29.6478L11.4401 29.8757V38.132L10.2324 38.3599ZM15.4201 33.8557H13.3541V29.9517H15.4201C16.0986 29.9517 16.6075 30.139 16.9468 30.5137C17.2861 30.8884 17.4557 31.3594 17.4557 31.9265C17.4557 32.4835 17.2861 32.9443 16.9468 33.3089C16.6075 33.6734 16.0986 33.8557 15.4201 33.8557ZM13.6655 52.8629V51.6932L14.8732 51.4653V50.2576H10.1716L10.1033 49.2778L14.8201 41.8039H16.7797V48.9132H18.1469V50.2576H16.7797V51.4653L17.9798 51.6932V52.8629H13.6655ZM11.9793 48.9132H14.8732V44.4091L14.8276 44.3939L14.6605 44.7509L11.9793 48.9132ZM32.3806 24.1845C32.9232 24.3494 33.4657 24.4319 34.0082 24.4319C34.6506 24.4319 35.217 24.3277 35.7075 24.1194C36.1979 23.9111 36.5799 23.6203 36.8533 23.247C37.1311 22.8694 37.27 22.4289 37.27 21.9254C37.27 21.1962 37.0074 20.6081 36.4822 20.1611C35.957 19.7097 35.1801 19.3516 34.1515 19.0869C33.5178 18.9176 33.0252 18.7418 32.6736 18.5595C32.322 18.3729 32.0747 18.1602 31.9314 17.9215C31.7882 17.6784 31.7166 17.3985 31.7166 17.0816C31.7166 16.7518 31.8056 16.4566 31.9835 16.1962C32.1658 15.9358 32.424 15.7297 32.7582 15.5777C33.0924 15.4215 33.4918 15.3434 33.9562 15.3434C34.4293 15.3434 34.8524 15.4063 35.2257 15.5322C35.599 15.658 35.9223 15.8316 36.1957 16.053L36.2934 17.3942H36.9379V15.7014C36.5907 15.402 36.1654 15.1567 35.6619 14.9658C35.1628 14.7748 34.5942 14.6793 33.9562 14.6793C33.3529 14.6793 32.8233 14.7835 32.3676 14.9918C31.9162 15.1958 31.5647 15.4801 31.3129 15.8447C31.0612 16.2049 30.9353 16.6216 30.9353 17.0947C30.9353 17.5591 31.0373 17.9606 31.2413 18.2991C31.4497 18.6333 31.7708 18.9198 32.2049 19.1585C32.6432 19.3972 33.2075 19.6055 33.8976 19.7835C34.5399 19.9484 35.0477 20.1307 35.421 20.3303C35.7986 20.53 36.0699 20.7622 36.2348 21.027C36.4041 21.2874 36.4887 21.5912 36.4887 21.9384C36.4887 22.2987 36.3845 22.6177 36.1762 22.8955C35.9722 23.1689 35.6836 23.3837 35.3103 23.54C34.9414 23.6919 34.5074 23.7678 34.0082 23.7678C33.5872 23.7678 33.1706 23.7093 32.7582 23.5921C32.3459 23.4749 31.9488 23.2969 31.5668 23.0582L31.4692 21.5803H30.8181V23.4163C31.3216 23.7635 31.8424 24.0196 32.3806 24.1845ZM41.1564 24.0869C41.6425 24.3169 42.1851 24.4319 42.784 24.4319C43.396 24.4319 43.945 24.3169 44.4312 24.0869C44.9216 23.8568 45.3383 23.5291 45.6812 23.1038C46.024 22.6784 46.2845 22.1728 46.4624 21.5869C46.6447 20.9966 46.7359 20.3412 46.7359 19.6207V19.497C46.7359 18.7765 46.6447 18.1233 46.4624 17.5374C46.2845 16.9471 46.0219 16.4393 45.6747 16.0139C45.3318 15.5843 44.9151 15.2544 44.4247 15.0244C43.9385 14.7943 43.3895 14.6793 42.7775 14.6793C42.1786 14.6793 41.636 14.7943 41.1499 15.0244C40.6638 15.2544 40.2471 15.5843 39.8999 16.0139C39.5527 16.4393 39.2858 16.9471 39.0991 17.5374C38.9168 18.1233 38.8257 18.7765 38.8257 19.497V19.6207C38.8257 20.3412 38.919 20.9966 39.1056 21.5869C39.2923 22.1728 39.5592 22.6784 39.9064 23.1038C40.2536 23.5291 40.6703 23.8568 41.1564 24.0869ZM44.5158 23.234C44.047 23.5769 43.4698 23.7483 42.784 23.7483C42.1286 23.7483 41.5622 23.5769 41.0848 23.234C40.6117 22.8911 40.2471 22.4093 39.9911 21.7887C39.7393 21.168 39.6135 20.4454 39.6135 19.6207V19.484C39.6135 18.6637 39.7393 17.9454 39.9911 17.329C40.2471 16.7084 40.6117 16.2266 41.0848 15.8837C41.5579 15.5365 42.1221 15.3629 42.7775 15.3629C43.4589 15.3629 44.0362 15.5365 44.5093 15.8837C44.9824 16.2266 45.3405 16.7062 45.5835 17.3225C45.8309 17.9389 45.9546 18.6593 45.9546 19.484V19.6207C45.9546 20.4454 45.8331 21.168 45.59 21.7887C45.347 22.4093 44.9889 22.8911 44.5158 23.234ZM48.2069 24.2952V23.7288L49.2681 23.6441V15.4736L48.2069 15.3889V14.816H51.1106V15.3889L50.0494 15.4736V23.6441L51.1106 23.7288V24.2952H48.2069ZM52.3668 23.7288V24.2952H58.8968V22.1207H58.2588L58.1872 23.6507H54.2093V15.4736L55.2705 15.3889V14.816H54.2093H53.428H52.3668V15.3889L53.428 15.4736V23.6441L52.3668 23.7288ZM35.128 38.8764C34.1905 38.8764 33.4006 38.6724 32.7582 38.2644C32.1202 37.8521 31.6363 37.2835 31.3064 36.5586C30.9809 35.8338 30.8181 35.0027 30.8181 34.0652V33.9415C30.8181 32.9953 30.9874 32.1619 31.326 31.4415C31.6688 30.7166 32.1528 30.1502 32.7778 29.7422C33.4028 29.3299 34.1363 29.1238 34.9783 29.1238C35.6293 29.1238 36.1892 29.2149 36.658 29.3972C37.1311 29.5795 37.5499 29.829 37.9145 30.1459V31.9883H37.2504L37.1853 30.4779C36.9944 30.3347 36.7925 30.2132 36.5799 30.1133C36.3715 30.0135 36.1372 29.9376 35.8767 29.8855C35.6207 29.829 35.3212 29.8008 34.9783 29.8008C34.2882 29.8008 33.6892 29.9766 33.1814 30.3282C32.6779 30.6754 32.2873 31.1593 32.0095 31.78C31.7361 32.3963 31.5994 33.1125 31.5994 33.9284V34.0652C31.5994 34.9072 31.7383 35.6385 32.0161 36.2592C32.2982 36.8798 32.7018 37.3594 33.227 37.698C33.7565 38.0365 34.3924 38.2058 35.1345 38.2058C35.5339 38.2058 35.918 38.1559 36.2869 38.056C36.6602 37.9562 36.9748 37.8238 37.2309 37.6589L37.296 36.2266H37.9536V38.1146C37.5673 38.3664 37.1311 38.5573 36.645 38.6876C36.1632 38.8134 35.6576 38.8764 35.128 38.8764ZM39.3986 38.1732V38.7396H41.7358V38.1732L40.9025 38.1146L41.6968 35.9727H45.9481L46.7359 38.1146L45.9025 38.1732V38.7396H48.2398V38.1732L47.5431 38.1277L44.2033 29.2605H43.4611L40.0952 38.1277L39.3986 38.1732ZM45.6942 35.2891H41.9507L43.676 30.6342L43.8127 30.2501H43.8517L43.9819 30.6342L45.6942 35.2891ZM49.522 38.7461V38.1732L50.5832 38.0886V29.918L49.522 29.8334V29.267H53.5194C54.1965 29.267 54.7694 29.3668 55.2382 29.5665C55.7069 29.7661 56.0628 30.0569 56.3059 30.4389C56.5533 30.8208 56.677 31.2917 56.677 31.8516C56.677 32.3941 56.549 32.8521 56.2929 33.2253C56.0411 33.5986 55.6852 33.8829 55.2252 34.0782C55.07 34.1432 54.9054 34.1974 54.7316 34.2408L56.4491 38.1146L57.2239 38.1667V38.7461H55.8957L53.9952 34.356C53.8727 34.3652 53.7467 34.3702 53.6171 34.3711L51.3645 34.3907V38.0886L52.4257 38.1732V38.7461H49.522ZM51.3645 33.7396H53.4413C54.2877 33.7396 54.9083 33.566 55.3033 33.2188C55.6983 32.8716 55.8957 32.4137 55.8957 31.8451C55.8957 31.2331 55.6983 30.76 55.3033 30.4258C54.9083 30.0873 54.3137 29.918 53.5194 29.918H51.3645V33.7396ZM30.6163 52.6177V53.1841H34.9262C35.842 53.1841 36.5733 52.9562 37.1202 52.5005C37.6714 52.0448 37.947 51.3915 37.947 50.5409C37.947 50.1546 37.8624 49.7987 37.6931 49.4731C37.5282 49.1433 37.296 48.8677 36.9965 48.6463C36.7014 48.425 36.3585 48.2817 35.9679 48.2166C36.4583 48.0908 36.8424 47.8477 37.1202 47.4875C37.4023 47.1229 37.5434 46.6932 37.5434 46.1984C37.5434 45.3651 37.2678 44.7422 36.7166 44.3299C36.1654 43.9132 35.3971 43.7049 34.4119 43.7049H31.6775H30.6163V44.2778L31.6775 44.3625V52.533L30.6163 52.6177ZM34.9262 52.533H32.4588V48.6138H35.0499C35.5056 48.6138 35.8919 48.6962 36.2088 48.8612C36.5256 49.0261 36.7643 49.2561 36.9249 49.5513C37.0855 49.8421 37.1658 50.1763 37.1658 50.5539C37.1658 51.1789 36.9661 51.665 36.5668 52.0122C36.1719 52.3594 35.625 52.533 34.9262 52.533ZM34.6398 47.9562H32.4588V44.3625H34.4119C35.1801 44.3625 35.7617 44.5144 36.1567 44.8182C36.556 45.1177 36.7556 45.5691 36.7556 46.1724C36.7556 46.754 36.5712 47.1967 36.2023 47.5005C35.8377 47.8043 35.3168 47.9562 34.6398 47.9562ZM43.3569 53.3208C42.758 53.3208 42.2155 53.2058 41.7293 52.9757C41.2432 52.7457 40.8266 52.418 40.4793 51.9927C40.1321 51.5673 39.8652 51.0617 39.6786 50.4757C39.4919 49.8855 39.3986 49.2301 39.3986 48.5096V48.3859C39.3986 47.6654 39.4898 47.0122 39.672 46.4263C39.8587 45.836 40.1256 45.3282 40.4728 44.9028C40.8201 44.4731 41.2367 44.1433 41.7228 43.9132C42.2089 43.6832 42.7515 43.5682 43.3504 43.5682C43.9624 43.5682 44.5115 43.6832 44.9976 43.9132C45.488 44.1433 45.9047 44.4731 46.2476 44.9028C46.5948 45.3282 46.8574 45.836 47.0353 46.4263C47.2176 47.0122 47.3088 47.6654 47.3088 48.3859V48.5096C47.3088 49.2301 47.2176 49.8855 47.0353 50.4757C46.8574 51.0617 46.597 51.5673 46.2541 51.9927C45.9112 52.418 45.4945 52.7457 45.0041 52.9757C44.518 53.2058 43.9689 53.3208 43.3569 53.3208ZM43.3569 52.6372C44.0427 52.6372 44.62 52.4658 45.0887 52.1229C45.5618 51.78 45.9199 51.2982 46.1629 50.6776C46.406 50.0569 46.5275 49.3343 46.5275 48.5096V48.3729C46.5275 47.5482 46.4038 46.8277 46.1564 46.2114C45.9134 45.5951 45.5553 45.1155 45.0822 44.7726C44.6091 44.4254 44.0319 44.2518 43.3504 44.2518C42.695 44.2518 42.1308 44.4254 41.6577 44.7726C41.1846 45.1155 40.8201 45.5973 40.564 46.2179C40.3122 46.8343 40.1864 47.5526 40.1864 48.3729V48.5096C40.1864 49.3343 40.3122 50.0569 40.564 50.6776C40.8201 51.2982 41.1846 51.78 41.6577 52.1229C42.1352 52.4658 42.7016 52.6372 43.3569 52.6372ZM48.7864 52.6177V53.1841H51.69V52.6177L50.5832 52.533V45.0135L50.6223 45.0005L56.0976 53.1841H56.8267V44.3625L57.8879 44.2778V43.7049H56.8267H54.9843V44.2778L56.0911 44.3625V51.8429L56.052 51.856L50.6353 43.7049H49.8476H48.7864V44.2778L49.8476 44.3625V52.533L48.7864 52.6177Z" fill="white"/>
<rect x="2" y="1.5" width="65" height="65" stroke="white" stroke-width="3"/>
</svg>
