<svg width="1179" height="704" viewBox="0 0 1179 704" fill="none" xmlns="http://www.w3.org/2000/svg">
<path d="M1163 443H1155V451H1163V443Z" fill="#4D5370"/>
<path d="M1147 443H1139V451H1147V443Z" fill="#4D5370"/>
<path d="M1163 427H1155V435H1163V427Z" fill="#4D5370"/>
<path d="M1147 427H1139V435H1147V427Z" fill="#4D5370"/>
<path d="M1179 427H1171V435H1179V427Z" fill="#4D5370"/>
<path d="M1179 443H1171V451H1179V443Z" fill="#4D5370"/>
<path d="M1163 411H1155V419H1163V411Z" fill="#4D5370"/>
<path d="M1147 411H1139V419H1147V411Z" fill="#4D5370"/>
<path d="M1179 411H1171V419H1179V411Z" fill="#4D5370"/>
<path d="M635 8V0C628.588 0 622.549 2.49027 618.035 7.03502C616.883 8.18677 615.887 9.40078 615.016 10.7393C614.144 9.43191 613.117 8.18677 611.996 7.03502C607.42 2.49027 601.412 0 595 0V8C603.156 8 609.879 14.1323 610.875 22.0078C606.486 18.1167 600.914 16 595 16V24C603.809 24 611 31.1907 611 40H619C619 31.1907 626.191 24 635 24V16C629.086 16 623.514 18.1167 619.125 22.0078C620.121 14.1323 626.844 8 635 8Z" fill="#4D5370"/>
<path d="M370 664H330V672H370V664Z" fill="#4D5370"/>
<path d="M370 680H330V688H370V680Z" fill="#4D5370"/>
<path d="M370 696H330V704H370V696Z" fill="#4D5370"/>
<path d="M977 703.969H969C969 699.552 965.42 695.975 961 695.975V687.981C969.809 687.981 977 695.166 977 703.969Z" fill="#4D5370"/>
<path d="M973.451 674.513C973.451 674.513 973.669 674.607 973.794 674.669C977.031 671.683 980.673 669.257 984.72 667.453C989.856 665.151 995.335 664 1001 664V671.994C996.455 671.994 992.097 672.927 987.988 674.762C985.467 675.882 983.132 677.313 981.016 679.023C981.918 679.77 982.821 680.547 983.63 681.387C984.72 682.476 985.685 683.596 986.619 684.809C990.728 681.729 995.77 680.019 1001 680.019V688.012C997.171 688.012 993.498 689.381 990.603 691.838C992.191 695.695 993 699.77 993 704H985C985 697.593 982.51 691.589 977.965 687.048C973.42 682.507 967.412 680.019 961 680.019V672.025C965.327 672.025 969.498 672.865 973.451 674.544V674.513Z" fill="#4D5370"/>
<path d="M1001 695.975V703.969H993C993 699.552 996.58 695.975 1001 695.975Z" fill="#4D5370"/>
</svg>
