<svg width="398" height="704" viewBox="0 0 398 704" fill="none" xmlns="http://www.w3.org/2000/svg">
<path d="M40 343V335C33.5876 335 27.5486 337.49 23.035 342.035C21.8833 343.187 20.8872 344.401 20.0156 345.739C19.144 344.432 18.1167 343.187 16.9961 342.035C12.4202 337.49 6.41245 335 0 335V343C8.15564 343 14.8794 349.132 15.8755 357.008C11.4864 353.117 5.9144 351 0 351V359C8.80934 359 16 366.191 16 375H24C24 366.191 31.1907 359 40 359V351C34.0856 351 28.5136 353.117 24.1245 357.008C25.1206 349.132 31.8444 343 40 343Z" fill="#4D5370"/>
<path d="M382 48H374V56H382V48Z" fill="#4D5370"/>
<path d="M366 48H358V56H366V48Z" fill="#4D5370"/>
<path d="M382 32H374V40H382V32Z" fill="#4D5370"/>
<path d="M366 32H358V40H366V32Z" fill="#4D5370"/>
<path d="M398 32H390V40H398V32Z" fill="#4D5370"/>
<path d="M398 48H390V56H398V48Z" fill="#4D5370"/>
<path d="M382 16H374V24H382V16Z" fill="#4D5370"/>
<path d="M366 16H358V24H366V16Z" fill="#4D5370"/>
<path d="M398 16H390V24H398V16Z" fill="#4D5370"/>
<path d="M40 528H0V536H40V528Z" fill="#4D5370"/>
<path d="M40 544H0V552H40V544Z" fill="#4D5370"/>
<path d="M40 560H0V568H40V560Z" fill="#4D5370"/>
<path d="M374 687.969H366C366 683.552 362.42 679.975 358 679.975V671.981C366.809 671.981 374 679.166 374 687.969Z" fill="#4D5370"/>
<path d="M370.451 658.513C370.451 658.513 370.669 658.607 370.794 658.669C374.031 655.683 377.673 653.257 381.72 651.453C386.856 649.151 392.335 648 398 648V655.994C393.455 655.994 389.097 656.927 384.988 658.762C382.467 659.882 380.132 661.313 378.016 663.023C378.918 663.77 379.821 664.547 380.63 665.387C381.72 666.476 382.685 667.596 383.619 668.809C387.728 665.729 392.77 664.019 398 664.019V672.012C394.171 672.012 390.498 673.381 387.603 675.838C389.191 679.695 390 683.77 390 688H382C382 681.593 379.51 675.589 374.965 671.048C370.42 666.507 364.412 664.019 358 664.019V656.025C362.327 656.025 366.498 656.865 370.451 658.544V658.513Z" fill="#4D5370"/>
<path d="M398 679.975V687.969H390C390 683.552 393.58 679.975 398 679.975Z" fill="#4D5370"/>
</svg>
