<svg width="25" height="24" viewBox="0 0 25 24" fill="none" xmlns="http://www.w3.org/2000/svg">
<path d="M10.3334 11L21.3334 11.9C21.9334 11.9 22.2334 12.4 22.1334 13L21.3334 18H20.3334" stroke="white" stroke-linecap="round" stroke-linejoin="round"/>
<path d="M16.3334 18H11.3334" stroke="white" stroke-linecap="round" stroke-linejoin="round"/>
<path d="M18.3334 5C18.0682 5 17.8138 5.10536 17.6263 5.29289C17.4387 5.48043 17.3334 5.73478 17.3334 6V11.573" stroke="white" stroke-linecap="round" stroke-linejoin="round"/>
<path d="M3.33337 4H12.3334L13.3334 11.246" stroke="white" stroke-linecap="round" stroke-linejoin="round"/>
<path d="M4.33337 11V4" stroke="white" stroke-linecap="round" stroke-linejoin="round"/>
<path d="M7.33337 15H7.34337" stroke="white" stroke-linecap="round" stroke-linejoin="round"/>
<path d="M8.33337 10.1V4" stroke="white" stroke-linecap="round" stroke-linejoin="round"/>
<path d="M18.3334 20C19.4379 20 20.3334 19.1046 20.3334 18C20.3334 16.8954 19.4379 16 18.3334 16C17.2288 16 16.3334 16.8954 16.3334 18C16.3334 19.1046 17.2288 20 18.3334 20Z" stroke="white" stroke-linecap="round" stroke-linejoin="round"/>
<path d="M7.33337 20C10.0948 20 12.3334 17.7614 12.3334 15C12.3334 12.2386 10.0948 10 7.33337 10C4.57195 10 2.33337 12.2386 2.33337 15C2.33337 17.7614 4.57195 20 7.33337 20Z" stroke="white" stroke-linecap="round" stroke-linejoin="round"/>
</svg>
