<svg width="85" height="33" viewBox="0 0 85 33" fill="none" xmlns="http://www.w3.org/2000/svg">
<g clip-path="url(#clip0_495_48989)">
<path d="M20.355 8.53236C20.8504 9.6908 21.1242 10.9511 21.1242 12.2368C21.1242 14.821 20.2246 17.1888 18.6211 18.8183C20.3811 17.1761 21.3719 14.7064 21.3719 11.9822C21.3719 10.6456 21.072 9.32163 20.5375 8.125C20.4854 8.26503 20.4202 8.40506 20.355 8.53236Z" fill="#A2C617"/>
<mask id="mask0_495_48989" style="mask-type:luminance" maskUnits="userSpaceOnUse" x="6" y="2" width="9" height="3">
<path d="M6.75757 4.8003C8.16554 3.48911 10.0428 2.71257 12.2852 2.7253C12.8588 2.7253 13.4324 2.80168 13.98 2.92898C14.0582 2.83987 14.1494 2.76349 14.2277 2.67438C13.6801 2.54708 13.1195 2.48343 12.5459 2.4707C12.5198 2.4707 12.4938 2.4707 12.4677 2.4707C10.108 2.4707 8.16554 3.36181 6.75757 4.8003Z" fill="white"/>
</mask>
<g mask="url(#mask0_495_48989)">
<path d="M12.7024 7.74019L5.79285 4.32853L8.28288 -0.470703L15.1793 2.95368L12.7024 7.74019Z" fill="url(#paint0_linear_495_48989)"/>
</g>
<path d="M14.2277 2.67578C14.1886 2.71397 14.1495 2.75216 14.1103 2.79035C14.1103 2.79035 14.1103 2.79035 14.0973 2.80308C14.0582 2.84127 14.0191 2.87946 13.98 2.93038C14.1495 2.96857 14.3189 3.01949 14.4754 3.05768C14.5666 2.96857 14.6449 2.89219 14.7361 2.81581C14.5666 2.76489 14.3972 2.71397 14.2277 2.67578Z" fill="#D2881E"/>
<path d="M14.7361 2.81641C14.6448 2.89279 14.5666 2.9819 14.4753 3.05828C14.9838 3.21104 15.4792 3.41472 15.9485 3.66932L16.3526 3.50383C15.8442 3.21104 15.2967 2.9819 14.7361 2.81641Z" fill="#DA8F57"/>
<path d="M16.6394 3.65625L16.509 3.98723C18.0474 4.94198 19.3119 6.36775 20.1333 8.03539C20.1985 7.89536 20.2506 7.76806 20.3158 7.62803C19.4684 5.98585 18.1908 4.58554 16.6394 3.65625Z" fill="#CF0E5C"/>
<path d="M16.6395 3.65625L16.2354 3.82174C16.3266 3.87266 16.4179 3.92358 16.5091 3.98723L16.6395 3.65625Z" fill="#97141C"/>
<mask id="mask1_495_48989" style="mask-type:luminance" maskUnits="userSpaceOnUse" x="14" y="0" width="8" height="8">
<path d="M14.7361 2.81513C15.2967 2.98062 15.8442 3.22249 16.3657 3.50255L16.2353 3.8208L16.6395 3.65531C18.1908 4.58461 19.4684 5.98491 20.3028 7.62709C21.5413 4.73737 21.7108 2.11497 20.6809 0.854698C20.6157 0.803778 20.5505 0.765588 20.4853 0.727398C20.1333 0.510987 19.7422 0.421875 19.299 0.421875C17.9953 0.421875 16.3396 1.30025 14.7361 2.81513Z" fill="white"/>
</mask>
<g mask="url(#mask1_495_48989)">
<path d="M19.7031 -2.67188L25.0612 5.55174L16.7437 10.7201L11.3856 2.49653L19.7031 -2.67188Z" fill="url(#paint1_linear_495_48989)"/>
</g>
<path d="M13.8496 9.36106L14.0712 9.27195L16.2223 3.82349C16.1702 3.79802 16.118 3.75984 16.0659 3.73438L13.8496 9.36106Z" fill="#BF4832"/>
<path d="M16.131 3.59302L16.0789 3.73305C16.131 3.75851 16.1832 3.78397 16.2353 3.82216L16.3657 3.50391L16.131 3.59302Z" fill="#C0175D"/>
<path d="M16.5091 3.97408C16.4178 3.92316 16.3266 3.85951 16.2353 3.80859L14.0842 9.25706L14.4884 9.09157L16.5091 3.97408Z" fill="#8F1F11"/>
<mask id="mask2_495_48989" style="mask-type:luminance" maskUnits="userSpaceOnUse" x="13" y="3" width="4" height="7">
<path d="M15.9487 3.66818L13.6672 9.43489L13.8498 9.35851L16.079 3.73183L16.1312 3.5918L15.9487 3.66818Z" fill="white"/>
</mask>
<g mask="url(#mask2_495_48989)">
<path d="M16.1312 3.5918H13.6672V9.44763H16.1312V3.5918Z" fill="url(#paint2_linear_495_48989)"/>
</g>
<mask id="mask3_495_48989" style="mask-type:luminance" maskUnits="userSpaceOnUse" x="10" y="9" width="5" height="8">
<path d="M13.6672 9.43502L10.9946 16.2456L11.2032 16.5384L11.3075 16.2838L14.0713 9.26953L13.6672 9.43502Z" fill="white"/>
</mask>
<g mask="url(#mask3_495_48989)">
<path d="M14.0713 9.26953H10.9946V16.5384H14.0713V9.26953Z" fill="url(#paint3_radial_495_48989)"/>
</g>
<mask id="mask4_495_48989" style="mask-type:luminance" maskUnits="userSpaceOnUse" x="11" y="3" width="10" height="14">
<path d="M11.6465 16.2708C13.7454 16.1054 16.6396 13.8267 18.8167 10.415C19.3252 9.62575 19.7554 8.83648 20.1074 8.05995C20.1074 8.04722 20.1204 8.04722 20.1204 8.03449C19.3121 6.36685 18.0476 4.94108 16.4962 3.98633L11.6465 16.2708Z" fill="white"/>
</mask>
<g mask="url(#mask4_495_48989)">
<path d="M25.7654 7.38563L17.7739 19.9757L6.01465 12.8596L14.0062 0.269531L25.7654 7.38563Z" fill="url(#paint4_linear_495_48989)"/>
</g>
<path d="M11.6464 16.2705L14.4754 9.10352L14.0713 9.26901L11.2944 16.2833C11.4118 16.2833 11.5291 16.2833 11.6464 16.2705Z" fill="#E94F35"/>
<path d="M11.3075 16.2823L11.5291 16.5878L11.6595 16.2695C11.5291 16.2823 11.4118 16.2823 11.3075 16.2823Z" fill="#E3051B"/>
<path d="M6.84892 4.69922L6.67944 4.86471C6.70552 4.83925 6.73159 4.81379 6.75766 4.80106C6.78374 4.76287 6.80981 4.73741 6.84892 4.69922Z" fill="#3B652C"/>
<mask id="mask5_495_48989" style="mask-type:luminance" maskUnits="userSpaceOnUse" x="3" y="4" width="16" height="18">
<path d="M3.9939 11.6124C3.9939 16.5135 8.06138 20.9944 12.7677 21.109C15.1925 21.1727 17.1871 20.2815 18.6212 18.8176C17.2132 20.1288 15.3098 20.9053 13.0284 20.8544C8.33515 20.7398 4.25463 16.2588 4.25463 11.3578C4.25463 8.77357 5.15417 6.41851 6.7577 4.78906C4.99773 6.43124 3.9939 8.88814 3.9939 11.6124Z" fill="white"/>
</mask>
<g mask="url(#mask5_495_48989)">
<path d="M10.5644 28.2768L-4.33667 12.1478L12.0636 -2.30078L26.9647 13.8282L10.5644 28.2768Z" fill="url(#paint5_linear_495_48989)"/>
</g>
<path d="M18.5298 18.9194L18.6993 18.7539C18.6732 18.7794 18.6471 18.8048 18.621 18.8303C18.595 18.8557 18.5559 18.8812 18.5298 18.9194Z" fill="#ECE200"/>
<mask id="mask6_495_48989" style="mask-type:luminance" maskUnits="userSpaceOnUse" x="11" y="0" width="11" height="17">
<path d="M20.3811 0.574426C22.1281 1.98746 21.4632 6.27749 18.8167 10.4148C16.6265 13.8264 13.7454 16.1051 11.6465 16.2706L11.5161 16.5888C13.6411 16.7416 16.783 14.3865 19.1296 10.7203C21.3068 7.32136 22.1411 3.80786 21.398 1.88562C21.2155 1.35096 20.9287 0.930869 20.5115 0.650807L20.2899 0.498047C20.329 0.523507 20.3551 0.548966 20.3811 0.574426Z" fill="white"/>
</mask>
<g mask="url(#mask6_495_48989)">
<path d="M4.16333 12.4014L14.3712 -4.08398L29.5069 4.85252L19.3121 21.3252L4.16333 12.4014Z" fill="url(#paint6_linear_495_48989)"/>
</g>
<path d="M14.7362 2.81558C16.8873 0.791503 19.1296 -0.0996022 20.4985 0.740582C20.5637 0.778772 20.6289 0.829692 20.681 0.867883C20.5897 0.766042 20.4985 0.664201 20.3942 0.575091C20.3942 0.575091 20.3942 0.575091 20.3812 0.575091C20.3551 0.562361 20.329 0.536901 20.3029 0.524171L20.1726 0.435061C18.7646 -0.430583 16.444 0.549632 14.2278 2.68828C14.3973 2.71374 14.5667 2.76466 14.7362 2.81558Z" fill="#E5007D"/>
<mask id="mask7_495_48989" style="mask-type:luminance" maskUnits="userSpaceOnUse" x="4" y="2" width="18" height="19">
<path d="M6.75771 4.80071C5.15418 6.43015 4.25464 8.78521 4.25464 11.3694C4.25464 16.2705 8.33516 20.7515 13.0284 20.866C15.3099 20.917 17.2132 20.1404 18.6212 18.8292C20.2247 17.1871 21.1243 14.832 21.1243 12.2478C21.1243 10.9621 20.8505 9.70178 20.3551 8.54334C20.0161 9.26896 19.612 9.99457 19.1427 10.7329C16.796 14.3992 13.6411 16.7415 11.5292 16.6015L11.3076 16.2959L11.2033 16.5633C10.9686 16.5124 10.7339 16.4233 10.5384 16.3087C10.4862 16.2832 10.4471 16.245 10.395 16.2068L10.1864 16.0668C9.78225 15.7867 9.4824 15.3667 9.29988 14.832C8.55679 12.9098 9.39114 9.39626 11.5683 5.99733C12.3114 4.8389 13.1327 3.80776 13.9801 2.94212C13.4326 2.81482 12.872 2.75117 12.2853 2.73844C12.2592 2.73844 12.2332 2.73844 12.2071 2.73844C9.99083 2.72571 8.13961 3.50224 6.75771 4.80071Z" fill="white"/>
</mask>
<g mask="url(#mask7_495_48989)">
<path d="M21.1243 2.72656H4.25464V20.9178H21.1243V2.72656Z" fill="url(#paint7_linear_495_48989)"/>
</g>
<mask id="mask8_495_48989" style="mask-type:luminance" maskUnits="userSpaceOnUse" x="9" y="2" width="6" height="15">
<path d="M11.5551 5.97217C9.37794 9.3711 8.54359 12.8846 9.28669 14.8068C9.4692 15.3415 9.75601 15.7616 10.1732 16.0417L10.3948 16.1944C10.3687 16.169 10.3427 16.1562 10.3166 16.1308C8.56966 14.7177 9.23454 10.4277 11.881 6.29043C12.6763 5.04288 13.5628 3.96082 14.4753 3.05699C14.3059 3.00607 14.1494 2.96788 13.9799 2.92969C13.1325 3.7826 12.2982 4.81374 11.5551 5.97217Z" fill="white"/>
</mask>
<g mask="url(#mask8_495_48989)">
<path d="M14.4754 2.92969H8.55664V16.1944H14.4754V2.92969Z" fill="url(#paint8_linear_495_48989)"/>
</g>
<mask id="mask9_495_48989" style="mask-type:luminance" maskUnits="userSpaceOnUse" x="9" y="3" width="7" height="14">
<path d="M11.8812 6.28913C9.39114 10.1718 8.66108 14.1945 10.0299 15.8367C10.0951 15.8876 10.1473 15.9258 10.2125 15.964C10.4471 16.104 10.7079 16.2059 10.9947 16.244L13.6672 9.43346L15.9487 3.65401C15.4793 3.41214 14.9839 3.20846 14.4755 3.04297C13.5629 3.9468 12.6764 5.04159 11.8812 6.28913Z" fill="white"/>
</mask>
<g mask="url(#mask9_495_48989)">
<path d="M19.2078 3.87117L15.4923 17.9634L5.40186 15.4301L9.11735 1.33789L19.2078 3.87117Z" fill="url(#paint9_linear_495_48989)"/>
</g>
<path d="M10.2124 15.9652C10.1472 15.927 10.082 15.8761 10.0168 15.8379C10.1603 16.0161 10.3297 16.1689 10.5253 16.2834C10.7339 16.4107 10.9555 16.4999 11.1902 16.538L10.9816 16.2453C10.7078 16.2071 10.4471 16.118 10.2124 15.9652Z" fill="#766F2D"/>
<path d="M33.1573 20.3963C29.2723 20.3963 27.1343 18.0158 27.1343 13.7003C27.1343 8.6465 30.224 6.85156 33.1182 6.85156C35.0085 6.85156 36.6903 7.66629 37.7593 9.07932L36.0906 10.4287C35.191 9.41031 34.2002 8.88837 33.1703 8.88837C31.0975 8.88837 29.859 10.6324 29.859 13.573C29.859 16.6664 31.1627 18.3595 33.5223 18.3595C34.5522 18.3595 35.4909 18.0413 36.5469 17.3411L37.5246 19.047C36.3904 19.8999 34.7999 20.3963 33.1573 20.3963Z" fill="#13A538"/>
<path d="M42.8957 7.24609H40.158V20.0271H42.8957V7.24609Z" fill="#13A538"/>
<path d="M41.5138 4.73679C40.5491 4.73679 39.8972 4.12574 39.8972 3.23464C39.8972 2.34353 40.5751 1.70703 41.5138 1.70703C42.4524 1.70703 43.1303 2.35626 43.1303 3.23464C43.1434 4.10028 42.4524 4.73679 41.5138 4.73679Z" fill="#E5007D"/>
<path d="M49.4793 20.0262H46.7415V9.15469V9.14196V9.12923L46.533 7.25791H48.7101L48.9969 8.9892L49.1403 9.82939L49.4532 9.02739C49.9747 7.7162 51.161 6.86328 52.4908 6.86328C53.1817 6.86328 53.8466 7.00331 54.3811 7.27064L53.9118 9.46021C53.3121 9.18015 52.7515 9.05285 52.1649 9.05285C50.6396 9.05285 49.5314 10.2367 49.4793 11.9426V20.0262Z" fill="#13A538"/>
<path d="M60.1956 20.3699C56.8452 20.3699 55.1504 18.2949 55.1504 14.2085C55.1504 9.53659 57.6143 6.86328 61.9165 6.86328C62.7248 6.86328 64.576 7.0415 66.4794 7.71619V17.7475V17.7602V17.7729L66.701 20.0389H64.3935L64.237 18.8423L64.211 18.6895L64.1458 18.0148L63.7808 18.5749L63.6895 18.7022C62.9464 19.7588 61.6818 20.3699 60.1956 20.3699ZM61.5254 8.68368C59.1657 8.68368 57.862 10.6059 57.862 14.1067C57.862 17.0855 58.8789 18.6004 60.8996 18.6004C62.6987 18.6004 63.7808 17.3147 63.7808 16.0798V9.25653V9.10377L63.6374 9.04012C63.155 8.82371 62.3206 8.68368 61.5254 8.68368Z" fill="#13A538"/>
<path d="M74.7056 20.4208C71.3421 20.4208 69.6343 18.3077 69.6343 14.1577C69.6343 9.65122 72.0461 6.86334 75.918 6.86334C76.8045 6.86334 77.4173 7.0161 77.9518 7.16886L78.2646 7.25797V6.93972V2.19141H80.9763V17.6712V17.6839V17.6966L81.1979 20.0262H78.9165L78.734 18.8041L78.7079 18.6514L78.6166 18.0403L78.2777 18.5495L78.1864 18.6896C77.4042 19.7843 76.1396 20.4208 74.7056 20.4208ZM75.9962 8.68374C73.6627 8.68374 72.3329 10.5678 72.3329 13.8649C72.3329 16.9837 73.3498 18.575 75.3444 18.575C77.0783 18.575 78.2516 17.3274 78.2516 16.1563V9.33297V9.18021L78.1082 9.11656C77.6519 8.92561 76.9088 8.68374 75.9962 8.68374Z" fill="#13A538"/>
<path d="M29.1026 24.3431C29.1808 24.0376 29.3894 23.8594 29.6371 23.8594C29.8848 23.8594 30.0934 24.0376 30.1716 24.3431L30.9147 27.1055H30.7061L30.4324 26.1126H28.8419L28.5811 27.1055H28.3726L29.1026 24.3431ZM30.3802 25.9344L29.9761 24.394C29.9239 24.2031 29.8327 24.0631 29.6371 24.0631C29.4546 24.0631 29.3634 24.1904 29.2982 24.394L28.881 25.9471H30.3802V25.9344Z" fill="black"/>
<path d="M31.4495 25.055C31.4495 24.2912 31.8536 23.8711 32.5967 23.8711C32.9096 23.8711 33.1834 23.922 33.4962 24.0111L33.4441 24.2021C33.1703 24.1257 32.8965 24.0748 32.5967 24.0748C31.8406 24.0748 31.6711 24.5967 31.6711 25.1186V25.9588C31.6711 26.4808 31.8406 26.99 32.5967 26.99C32.8835 26.99 33.1573 26.9263 33.4441 26.8627V25.7297L33.6396 25.6915V27.0027C33.2877 27.1045 32.9617 27.1809 32.5967 27.1809C31.8536 27.1809 31.4495 26.7608 31.4495 25.997V25.055Z" fill="black"/>
<path d="M34.5391 24.0249C34.865 23.923 35.1779 23.8594 35.5038 23.8594C36.1426 23.8594 36.4685 24.3304 36.4685 24.8269C36.4685 25.1833 36.2469 25.6798 35.6472 25.7689L36.3512 27.1183H36.1296L35.4256 25.7816H34.7477V27.1183H34.5391V24.0249ZM35.4516 25.5907C35.9861 25.5907 36.2599 25.2088 36.2599 24.8269C36.2599 24.4577 36.0644 24.0631 35.5168 24.0631C35.2561 24.0631 35.0084 24.1012 34.7607 24.1776V25.5907H35.4516Z" fill="black"/>
<path d="M37.2769 23.9219H37.4854V27.028C37.4854 27.0789 37.4463 27.1044 37.4072 27.1044H37.2769V23.9219Z" fill="black"/>
<path d="M38.3328 25.055C38.3328 24.2912 38.7369 23.8711 39.48 23.8711C39.7929 23.8711 40.0667 23.922 40.3795 24.0111L40.3274 24.2021C40.0536 24.1257 39.7799 24.0748 39.48 24.0748C38.7239 24.0748 38.5544 24.5967 38.5544 25.1186V25.9461C38.5544 26.468 38.7239 26.99 39.48 26.99C39.7799 26.99 40.0536 26.939 40.3274 26.8627L40.3795 27.0536C40.0667 27.13 39.7929 27.1936 39.48 27.1936C38.7369 27.1936 38.3328 26.7735 38.3328 26.0097V25.055Z" fill="black"/>
<path d="M41.0836 23.9219H41.2922V26.0605C41.2922 26.5315 41.579 26.9771 42.2048 26.9771C42.8305 26.9771 43.1304 26.5315 43.1304 26.0605V23.9219H43.339V25.9714C43.339 26.748 42.9218 27.168 42.2048 27.168C41.4877 27.168 41.0706 26.7352 41.0706 25.9714V23.9219H41.0836Z" fill="black"/>
<path d="M44.2515 23.9219H44.4601V26.9134H46.0505V27.028C46.0505 27.0789 46.0114 27.1044 45.9723 27.1044H44.2645V23.9219H44.2515Z" fill="black"/>
<path d="M47.0545 24.1128H46.1028V23.9219H48.2017V24.1128H47.2631V27.1171H47.0545V24.1128Z" fill="black"/>
<path d="M48.8797 23.9219H49.0883V26.0605C49.0883 26.5315 49.3751 26.9771 50.0009 26.9771C50.6267 26.9771 50.9265 26.5315 50.9265 26.0605V23.9219H51.1351V25.9714C51.1351 26.748 50.7179 27.168 50.0009 27.168C49.2839 27.168 48.8667 26.7352 48.8667 25.9714V23.9219H48.8797Z" fill="black"/>
<path d="M52.0605 24.0249C52.3865 23.923 52.6993 23.8594 53.0253 23.8594C53.6641 23.8594 53.99 24.3304 53.99 24.8269C53.99 25.1833 53.7684 25.6798 53.1687 25.7689L53.8727 27.1183H53.651L52.9471 25.7816H52.2691V27.1183H52.0605V24.0249ZM52.9731 25.5907C53.5076 25.5907 53.7814 25.2088 53.7814 24.8269C53.7814 24.4577 53.5859 24.0631 53.0383 24.0631C52.7776 24.0631 52.5299 24.1012 52.2822 24.1776V25.5907H52.9731Z" fill="black"/>
<path d="M55.2675 24.3431C55.3588 24.0376 55.5543 23.8594 55.802 23.8594C56.0497 23.8594 56.2453 24.0376 56.3365 24.3431L57.0796 27.1055H56.871L56.5973 26.1126H54.9937L54.733 27.1055H54.5244L55.2675 24.3431ZM56.5451 25.9344L56.1279 24.394C56.0758 24.2031 55.9845 24.0631 55.789 24.0631C55.6065 24.0631 55.5152 24.1904 55.45 24.394L55.0328 25.9471H56.5451V25.9344Z" fill="black"/>
<path d="M57.7969 23.9219H58.0055V26.9134H59.596V27.028C59.596 27.0789 59.5568 27.1044 59.5177 27.1044H57.8099V23.9219H57.7969Z" fill="black"/>
<path d="M61.5903 24.0249C61.9163 23.923 62.2291 23.8594 62.5551 23.8594C63.1939 23.8594 63.5198 24.3304 63.5198 24.8269C63.5198 25.1833 63.2982 25.6798 62.6985 25.7689L63.4024 27.1183H63.1808L62.4768 25.7816H61.7989V27.1183H61.5903V24.0249ZM62.5029 25.5907C63.0374 25.5907 63.3112 25.2088 63.3112 24.8269C63.3112 24.4577 63.1156 24.0631 62.5551 24.0631C62.2943 24.0631 62.0466 24.1012 61.7989 24.1776V25.5907H62.5029Z" fill="black"/>
<path d="M64.2239 24.6857C64.2239 24.2274 64.4977 23.9219 65.0843 23.9219H65.9056V24.1128H65.0843C64.5759 24.1128 64.4325 24.3547 64.4325 24.673V25.3731H65.7753V25.5641H64.4325V26.3406C64.4325 26.6716 64.5759 26.9007 65.0843 26.9007H65.9317V27.0153C65.9317 27.0662 65.8926 27.0917 65.8535 27.0917H65.0973C64.5107 27.0917 64.2369 26.7861 64.2369 26.3279V24.6857H64.2239Z" fill="black"/>
<path d="M66.5837 26.8255C66.8575 26.9019 67.1182 26.9782 67.405 26.9782C67.9395 26.9782 68.1742 26.7109 68.1742 26.3035C68.1742 25.4634 66.5837 25.667 66.5837 24.6868C66.5837 24.1649 66.9618 23.8594 67.5354 23.8594C67.7831 23.8594 68.0177 23.923 68.2524 24.0121L68.2003 24.1904C67.9786 24.114 67.757 24.0503 67.5354 24.0503C67.053 24.0503 66.8053 24.2795 66.8053 24.6868C66.8053 25.4506 68.3958 25.2979 68.3958 26.3035C68.3958 26.8255 68.0308 27.1692 67.405 27.1692C67.1182 27.1692 66.8314 27.1055 66.5576 27.0292L66.5837 26.8255Z" fill="black"/>
<path d="M69.0996 24.6857C69.0996 24.2274 69.3734 23.9219 69.96 23.9219H70.7814V24.1128H69.96C69.4386 24.1128 69.3082 24.3547 69.3082 24.673V25.3731H70.651V25.5641H69.3082V26.3406C69.3082 26.6716 69.4516 26.9007 69.96 26.9007H70.8074V27.0153C70.8074 27.0662 70.7683 27.0917 70.7292 27.0917H69.9731C69.3864 27.0917 69.1126 26.7861 69.1126 26.3279V24.6857H69.0996Z" fill="black"/>
<path d="M72.0851 24.3431C72.1634 24.0376 72.372 23.8594 72.6197 23.8594C72.8674 23.8594 73.0759 24.0376 73.1542 24.3431L73.8973 27.1055H73.6887L73.4149 26.1126H71.8114L71.5506 27.1055H71.342L72.0851 24.3431ZM73.3627 25.9344L72.9456 24.394C72.8934 24.2031 72.8022 24.0631 72.6066 24.0631C72.4241 24.0631 72.3328 24.1904 72.2677 24.394L71.8505 25.9471H73.3627V25.9344Z" fill="black"/>
<path d="M74.6143 24.0249C74.9402 23.923 75.2531 23.8594 75.579 23.8594C76.2178 23.8594 76.5437 24.3304 76.5437 24.8269C76.5437 25.1833 76.3221 25.6798 75.7224 25.7689L76.4264 27.1183H76.2048L75.5008 25.7816H74.8228V27.1183H74.6143V24.0249ZM75.5268 25.5907C76.0613 25.5907 76.3351 25.2088 76.3351 24.8269C76.3351 24.4577 76.1396 24.0631 75.579 24.0631C75.3182 24.0631 75.0705 24.1012 74.8228 24.1776V25.5907H75.5268Z" fill="black"/>
<path d="M77.2085 25.055C77.2085 24.2912 77.6126 23.8711 78.3557 23.8711C78.6686 23.8711 78.9424 23.922 79.2553 24.0111L79.2031 24.2021C78.9294 24.1257 78.6556 24.0748 78.3557 24.0748C77.5996 24.0748 77.4301 24.5967 77.4301 25.1186V25.9461C77.4301 26.468 77.5996 26.99 78.3557 26.99C78.6556 26.99 78.9294 26.939 79.2031 26.8627L79.2553 27.0536C78.9424 27.13 78.6686 27.1936 78.3557 27.1936C77.6126 27.1936 77.2085 26.7735 77.2085 26.0097V25.055Z" fill="black"/>
<path d="M80.0244 23.9219H80.233V25.3731H81.993V23.9219H82.2016V27.028C82.2016 27.0789 82.1755 27.1044 82.1233 27.1044H81.993V25.5641H80.233V27.1044H80.0244V23.9219Z" fill="black"/>
<path d="M28.6204 29.4082H30.3021V29.6119H28.842V30.9104H30.1587V31.114H28.842V32.6035H28.6204V29.4082Z" fill="black"/>
<path d="M30.9019 30.6177C30.9019 29.8539 31.3451 29.3574 32.0882 29.3574C32.8313 29.3574 33.2746 29.8539 33.2746 30.6177V31.3942C33.2746 32.1835 32.8313 32.6672 32.0882 32.6672C31.3451 32.6672 30.9019 32.1835 30.9019 31.3942V30.6177ZM32.0882 32.4636C32.8183 32.4636 33.066 31.9416 33.066 31.3433V30.6559C33.066 30.0703 32.8313 29.5356 32.0882 29.5356C31.3581 29.5356 31.1104 30.0576 31.1104 30.6559V31.3433C31.1235 31.9416 31.3581 32.4636 32.0882 32.4636Z" fill="black"/>
<path d="M34.1218 29.5092C34.4477 29.4074 34.7606 29.3438 35.0866 29.3438C35.7254 29.3438 36.0513 29.8148 36.0513 30.3112C36.0513 30.6677 35.8296 31.1641 35.23 31.2533L35.9339 32.6026H35.7123L35.0083 31.266H34.3304V32.6026H34.1218V29.5092ZM35.0344 31.075C35.5689 31.075 35.8427 30.6931 35.8427 30.3112C35.8427 29.9421 35.6471 29.5474 35.0866 29.5474C34.8258 29.5474 34.5781 29.5856 34.3304 29.662V31.075H35.0344Z" fill="black"/>
<path d="M38.072 29.4082H39.141C39.9102 29.4082 40.2883 29.7519 40.2883 30.5157V31.4959C40.2883 32.2597 39.9102 32.6035 39.141 32.6035H38.072V29.4082ZM39.128 32.3998C39.8581 32.3998 40.0536 32.0179 40.0536 31.4323V30.5666C40.0536 29.9811 39.8581 29.5992 39.128 29.5992H38.2806V32.3998H39.128Z" fill="black"/>
<path d="M41.0315 30.172C41.0315 29.7137 41.3053 29.4082 41.8919 29.4082H42.7132V29.5992H41.8919C41.3705 29.5992 41.2401 29.841 41.2401 30.1593V30.8594H42.5829V31.0504H41.2401V31.8269C41.2401 32.1579 41.3835 32.387 41.8919 32.387H42.7393V32.5016C42.7393 32.5525 42.7002 32.578 42.6611 32.578H41.905C41.3183 32.578 41.0445 32.2725 41.0445 31.8142V30.172H41.0315Z" fill="black"/>
<path d="M43.2607 29.4082H43.4824L44.3558 31.8906C44.408 32.0306 44.4732 32.2725 44.5123 32.4252C44.5644 32.2597 44.6296 32.0306 44.6687 31.8906L45.5422 29.4082H45.7638L44.6557 32.6035H44.3819L43.2607 29.4082Z" fill="black"/>
<path d="M46.2722 30.172C46.2722 29.7137 46.546 29.4082 47.1326 29.4082H47.954V29.5992H47.1326C46.6242 29.5992 46.4808 29.841 46.4808 30.1593V30.8594H47.8236V31.0504H46.4808V31.8269C46.4808 32.1579 46.6242 32.387 47.1326 32.387H47.98V32.5016C47.98 32.5525 47.9409 32.578 47.9018 32.578H47.1457C46.559 32.578 46.2853 32.2725 46.2853 31.8142V30.172H46.2722Z" fill="black"/>
<path d="M48.7754 29.4082H48.984V32.3998H50.5745V32.5143C50.5745 32.5653 50.5354 32.5907 50.4832 32.5907H48.7754V29.4082Z" fill="black"/>
<path d="M51.135 30.6177C51.135 29.8539 51.5783 29.3574 52.3214 29.3574C53.0645 29.3574 53.5077 29.8539 53.5077 30.6177V31.3942C53.5077 32.1835 53.0645 32.6672 52.3214 32.6672C51.5783 32.6672 51.135 32.1835 51.135 31.3942V30.6177ZM52.3344 32.4636C53.0645 32.4636 53.3122 31.9416 53.3122 31.3433V30.6559C53.3122 30.0703 53.0775 29.5356 52.3344 29.5356C51.6043 29.5356 51.3566 30.0576 51.3566 30.6559V31.3433C51.3566 31.9416 51.5913 32.4636 52.3344 32.4636Z" fill="black"/>
<path d="M54.3682 29.4082H55.2286C55.8935 29.4082 56.2585 29.841 56.2585 30.3757C56.2585 30.8976 55.9065 31.3304 55.2286 31.3304H54.5767V32.5907H54.3682V29.4082ZM55.2156 31.1395C55.8153 31.1395 56.0238 30.7321 56.0238 30.3757C56.0238 30.0065 55.8153 29.6119 55.2156 29.6119H54.5637V31.1395H55.2156Z" fill="black"/>
<path d="M57.1711 29.4082H57.4579L58.1619 31.8396C58.2271 32.0815 58.2922 32.1706 58.4226 32.1706C58.553 32.1706 58.6051 32.0942 58.6834 31.8396L59.3873 29.4082H59.6741L60.1565 32.6035H59.9479L59.5699 30.1084C59.5568 29.9683 59.5177 29.7519 59.5047 29.5992C59.4656 29.7519 59.4134 29.9683 59.3743 30.1084L58.8789 31.8906C58.8007 32.1961 58.6703 32.3616 58.4226 32.3616C58.1749 32.3616 58.0576 32.1961 57.9663 31.8906L57.4709 30.1084C57.4318 29.9683 57.3797 29.7519 57.3406 29.5864C57.3275 29.7519 57.3015 29.9938 57.2754 30.1338L56.9103 32.6035H56.6887L57.1711 29.4082Z" fill="black"/>
<path d="M60.8213 30.172C60.8213 29.7137 61.0951 29.4082 61.6817 29.4082H62.503V29.5992H61.6817C61.1602 29.5992 61.0299 29.841 61.0299 30.1593V30.8594H62.3727V31.0504H61.0299V31.8269C61.0299 32.1579 61.1733 32.387 61.6817 32.387H62.5291V32.5016C62.5291 32.5525 62.49 32.578 62.4379 32.578H61.6817C61.0951 32.578 60.8213 32.2725 60.8213 31.8142V30.172Z" fill="black"/>
<path d="M63.3245 29.4082H63.5331L65.2539 32.247C65.2539 32.0688 65.2409 31.8651 65.2409 31.7123V29.4082H65.4495V32.6035H65.2409L63.52 29.7646C63.52 29.9429 63.5331 30.1593 63.5331 30.2993V32.6035H63.3245V29.4082Z" fill="black"/>
<path d="M67.1573 29.6119H66.2056V29.4082H68.3045V29.6119H67.3658V32.6035H67.1573V29.6119Z" fill="black"/>
</g>
<defs>
<linearGradient id="paint0_linear_495_48989" x1="17.8179" y1="7.26685" x2="8.14461" y2="2.24534" gradientUnits="userSpaceOnUse">
<stop stop-color="#ECE200"/>
<stop offset="0.2067" stop-color="#ECE200"/>
<stop offset="0.364" stop-color="#E9E101"/>
<stop offset="0.4762" stop-color="#E0DF03"/>
<stop offset="0.5744" stop-color="#D0DA07"/>
<stop offset="0.6646" stop-color="#BAD40D"/>
<stop offset="0.7493" stop-color="#9DCC14"/>
<stop offset="0.8299" stop-color="#7AC21D"/>
<stop offset="0.9073" stop-color="#50B628"/>
<stop offset="0.9803" stop-color="#21A934"/>
<stop offset="1" stop-color="#13A538"/>
</linearGradient>
<linearGradient id="paint1_linear_495_48989" x1="16.5521" y1="1.44867" x2="18.7661" y2="5.01629" gradientUnits="userSpaceOnUse">
<stop stop-color="#EC6095"/>
<stop offset="0.2517" stop-color="#EB4C90"/>
<stop offset="0.7632" stop-color="#E81A84"/>
<stop offset="1" stop-color="#E6007E"/>
</linearGradient>
<linearGradient id="paint2_linear_495_48989" x1="14.9004" y1="2.75328" x2="14.9004" y2="20.8629" gradientUnits="userSpaceOnUse">
<stop stop-color="#ECE200"/>
<stop offset="0.055596" stop-color="#D4DB06"/>
<stop offset="0.1867" stop-color="#A1CD13"/>
<stop offset="0.3206" stop-color="#76C11F"/>
<stop offset="0.4548" stop-color="#52B728"/>
<stop offset="0.5893" stop-color="#36AF2F"/>
<stop offset="0.7246" stop-color="#23A934"/>
<stop offset="0.8609" stop-color="#17A637"/>
<stop offset="1" stop-color="#13A538"/>
</linearGradient>
<radialGradient id="paint3_radial_495_48989" cx="0" cy="0" r="1" gradientUnits="userSpaceOnUse" gradientTransform="translate(12.5357 12.905) scale(2.8491 2.78207)">
<stop stop-color="#B17F4A"/>
<stop offset="1" stop-color="#685C25"/>
</radialGradient>
<linearGradient id="paint4_linear_495_48989" x1="18.6405" y1="5.7889" x2="14.3447" y2="12.8879" gradientUnits="userSpaceOnUse">
<stop stop-color="#BF4832"/>
<stop offset="1" stop-color="#AF1917"/>
</linearGradient>
<linearGradient id="paint5_linear_495_48989" x1="16.0954" y1="18.1633" x2="7.55128" y2="8.46596" gradientUnits="userSpaceOnUse">
<stop stop-color="#A2C617"/>
<stop offset="0.0300538" stop-color="#9BC41A"/>
<stop offset="0.1414" stop-color="#87BD23"/>
<stop offset="0.2516" stop-color="#7AB928"/>
<stop offset="0.3583" stop-color="#76B82A"/>
<stop offset="0.4757" stop-color="#6AA72A"/>
<stop offset="0.8255" stop-color="#48772C"/>
<stop offset="1" stop-color="#3B652C"/>
</linearGradient>
<linearGradient id="paint6_linear_495_48989" x1="11.8617" y1="16.662" x2="21.1114" y2="0.987513" gradientUnits="userSpaceOnUse">
<stop stop-color="#E6332A"/>
<stop offset="0.004808" stop-color="#E6332A"/>
<stop offset="0.0138675" stop-color="#E2322A"/>
<stop offset="0.2247" stop-color="#911720"/>
<stop offset="0.374" stop-color="#5E061A"/>
<stop offset="0.4471" stop-color="#4A0018"/>
<stop offset="0.6875" stop-color="#4A0018"/>
<stop offset="0.8798" stop-color="#E6007E"/>
<stop offset="0.9025" stop-color="#D60174"/>
<stop offset="0.9472" stop-color="#AB0358"/>
<stop offset="1" stop-color="#710533"/>
</linearGradient>
<linearGradient id="paint7_linear_495_48989" x1="12.681" y1="2.75487" x2="12.681" y2="20.8637" gradientUnits="userSpaceOnUse">
<stop stop-color="#ECE200"/>
<stop offset="0.055596" stop-color="#D4DB06"/>
<stop offset="0.1867" stop-color="#A1CD13"/>
<stop offset="0.3206" stop-color="#76C11F"/>
<stop offset="0.4548" stop-color="#52B728"/>
<stop offset="0.5893" stop-color="#36AF2F"/>
<stop offset="0.7246" stop-color="#23A934"/>
<stop offset="0.8609" stop-color="#17A637"/>
<stop offset="1" stop-color="#13A538"/>
</linearGradient>
<linearGradient id="paint8_linear_495_48989" x1="9.03" y1="9.56133" x2="14.4726" y2="9.56133" gradientUnits="userSpaceOnUse">
<stop stop-color="#8A6E28"/>
<stop offset="0.077841" stop-color="#927127"/>
<stop offset="0.4738" stop-color="#B67E21"/>
<stop offset="0.7952" stop-color="#CD861E"/>
<stop offset="1" stop-color="#D5891D"/>
</linearGradient>
<linearGradient id="paint9_linear_495_48989" x1="14.0757" y1="2.95264" x2="10.7354" y2="16.2439" gradientUnits="userSpaceOnUse">
<stop stop-color="#E0A532"/>
<stop offset="0.3213" stop-color="#C2932D"/>
<stop offset="0.7644" stop-color="#9D7E28"/>
<stop offset="1" stop-color="#8F7626"/>
</linearGradient>
<clipPath id="clip0_495_48989">
<rect width="85" height="32" fill="white" transform="translate(0 0.5)"/>
</clipPath>
</defs>
</svg>
