<svg width="75" height="20" viewBox="0 0 75 20" fill="none" xmlns="http://www.w3.org/2000/svg">
<path d="M15.9794 7.95153C16.4478 9.04672 16.7066 10.2382 16.7066 11.4537C16.7066 13.8968 15.8562 16.1354 14.3402 17.6758C16.0041 16.1233 16.9408 13.7885 16.9408 11.213C16.9408 9.94934 16.6573 8.6977 16.152 7.56641C16.1027 7.69879 16.0411 7.83118 15.9794 7.95153Z" fill="white" fill-opacity="0.69"/>
<mask id="mask0_2528_10459" style="mask-type:luminance" maskUnits="userSpaceOnUse" x="3" y="2" width="8" height="3">
<path d="M3.12445 4.42507C4.45556 3.18546 6.23036 2.45132 8.35027 2.46336C8.89257 2.46336 9.43488 2.53557 9.95253 2.65592C10.0265 2.57167 10.1128 2.49946 10.1867 2.41522C9.66905 2.29487 9.13907 2.23469 8.59677 2.22266C8.57212 2.22266 8.54747 2.22266 8.52282 2.22266C6.29199 2.22266 4.45556 3.06511 3.12445 4.42507Z" fill="white"/>
</mask>
<g mask="url(#mask0_2528_10459)">
<path d="M8.74474 7.20596L2.21246 3.98057L4.56655 -0.556641L11.0865 2.68079L8.74474 7.20596Z" fill="url(#paint0_linear_2528_10459)"/>
</g>
<path d="M10.1868 2.41406C10.1498 2.45017 10.1128 2.48627 10.0758 2.52238C10.0758 2.52238 10.0758 2.52238 10.0635 2.53441C10.0265 2.57052 9.98955 2.60662 9.95258 2.65476C10.1128 2.69087 10.273 2.73901 10.4209 2.77511C10.5072 2.69087 10.5812 2.61866 10.6674 2.54645C10.5072 2.49831 10.347 2.45017 10.1868 2.41406Z" fill="#D2881E"/>
<path d="M10.6675 2.5459C10.5812 2.61811 10.5072 2.70235 10.421 2.77456C10.9016 2.91898 11.37 3.11154 11.8137 3.35225L12.1958 3.19579C11.7151 2.91898 11.1974 2.70235 10.6675 2.5459Z" fill="#DA8F57"/>
<path d="M12.4669 3.34082L12.3436 3.65373C13.798 4.55636 14.9935 5.90428 15.77 7.48087C15.8316 7.34849 15.8809 7.22814 15.9425 7.09575C15.1414 5.54323 13.9336 4.21938 12.4669 3.34082Z" fill="#CF0E5C"/>
<path d="M12.4669 3.34082L12.0848 3.49727C12.1711 3.54541 12.2574 3.59356 12.3437 3.65373L12.4669 3.34082Z" fill="#97141C"/>
<mask id="mask1_2528_10459" style="mask-type:luminance" maskUnits="userSpaceOnUse" x="10" y="0" width="7" height="8">
<path d="M10.6676 2.54677C11.1976 2.70322 11.7152 2.93189 12.2082 3.19666L12.085 3.49754L12.4671 3.34108C13.9337 4.21964 15.1416 5.5435 15.9304 7.09602C17.1013 4.36406 17.2615 1.88484 16.2878 0.693372C16.2262 0.645232 16.1646 0.609127 16.1029 0.573022C15.7702 0.368426 15.4004 0.28418 14.9814 0.28418C13.7489 0.28418 12.1836 1.1146 10.6676 2.54677Z" fill="white"/>
</mask>
<g mask="url(#mask1_2528_10459)">
<path d="M15.3634 -2.64062L20.429 5.13401L12.5657 10.0202L7.50006 2.2456L15.3634 -2.64062Z" fill="url(#paint1_linear_2528_10459)"/>
</g>
<path d="M9.82928 8.73355L10.0388 8.64931L12.0724 3.49831C12.0231 3.47424 11.9738 3.43813 11.9245 3.41406L9.82928 8.73355Z" fill="#BF4832"/>
<path d="M11.9862 3.28151L11.9369 3.4139C11.9862 3.43797 12.0355 3.46204 12.0848 3.49814L12.208 3.19727L11.9862 3.28151Z" fill="#C0175D"/>
<path d="M12.3437 3.64181C12.2575 3.59367 12.1712 3.53349 12.0849 3.48535L10.0513 8.63635L10.4333 8.47989L12.3437 3.64181Z" fill="#8F1F11"/>
<mask id="mask2_2528_10459" style="mask-type:luminance" maskUnits="userSpaceOnUse" x="9" y="3" width="3" height="6">
<path d="M11.8137 3.35346L9.65686 8.80533L9.82941 8.73312L11.937 3.41363L11.9863 3.28125L11.8137 3.35346Z" fill="white"/>
</mask>
<g mask="url(#mask2_2528_10459)">
<path d="M11.9863 3.28125H9.65686V8.81737H11.9863V3.28125Z" fill="url(#paint2_linear_2528_10459)"/>
</g>
<mask id="mask3_2528_10459" style="mask-type:luminance" maskUnits="userSpaceOnUse" x="7" y="8" width="4" height="8">
<path d="M9.65676 8.80587L7.13013 15.2446L7.32733 15.5214L7.42593 15.2807L10.0388 8.64941L9.65676 8.80587Z" fill="white"/>
</mask>
<g mask="url(#mask3_2528_10459)">
<path d="M10.0388 8.64941H7.13013V15.5214H10.0388V8.64941Z" fill="url(#paint3_radial_2528_10459)"/>
</g>
<mask id="mask4_2528_10459" style="mask-type:luminance" maskUnits="userSpaceOnUse" x="7" y="3" width="9" height="13">
<path d="M7.74646 15.2681C9.73079 15.1117 12.467 12.9574 14.5252 9.73199C15.0059 8.98582 15.4126 8.23965 15.7454 7.50551C15.7454 7.49348 15.7577 7.49348 15.7577 7.48144C14.9936 5.90485 13.7981 4.55693 12.3314 3.6543L7.74646 15.2681Z" fill="white"/>
</mask>
<g mask="url(#mask4_2528_10459)">
<path d="M21.0945 6.86821L13.5393 18.7709L2.42206 12.0433L9.97731 0.140625L21.0945 6.86821Z" fill="url(#paint4_linear_2528_10459)"/>
</g>
<path d="M7.74635 15.2669L10.4209 8.49121L10.0388 8.64767L7.41357 15.279C7.5245 15.279 7.63542 15.279 7.74635 15.2669Z" fill="#E94F35"/>
<path d="M7.42596 15.2796L7.63549 15.5685L7.75874 15.2676C7.63549 15.2796 7.52456 15.2796 7.42596 15.2796Z" fill="#E3051B"/>
<path d="M3.21082 4.32812L3.0506 4.48458C3.07525 4.46051 3.0999 4.43644 3.12455 4.42441C3.1492 4.3883 3.17385 4.36423 3.21082 4.32812Z" fill="#3B652C"/>
<mask id="mask5_2528_10459" style="mask-type:luminance" maskUnits="userSpaceOnUse" x="0" y="4" width="15" height="16">
<path d="M0.511658 10.8629C0.511658 15.4964 4.35707 19.7327 8.80641 19.841C11.0989 19.9012 12.9846 19.0588 14.3404 17.6747C13.0093 18.9143 11.2098 19.6485 9.05292 19.6003C4.6159 19.492 0.758159 15.2557 0.758159 10.6222C0.758159 8.17908 1.60859 5.9526 3.12457 4.41211C1.46069 5.96463 0.511658 8.2874 0.511658 10.8629Z" fill="white"/>
</mask>
<g mask="url(#mask5_2528_10459)">
<path d="M6.72345 26.6172L-7.36407 11.3688L8.14083 -2.29102L22.2284 12.9574L6.72345 26.6172Z" fill="url(#paint5_linear_2528_10459)"/>
</g>
<path d="M14.2537 17.7707L14.4139 17.6143C14.3893 17.6383 14.3646 17.6624 14.34 17.6865C14.3153 17.7105 14.2784 17.7346 14.2537 17.7707Z" fill="white"/>
<mask id="mask6_2528_10459" style="mask-type:luminance" maskUnits="userSpaceOnUse" x="7" y="0" width="11" height="16">
<path d="M16.0042 0.428654C17.6558 1.76454 17.0272 5.82035 14.5252 9.73174C12.4546 12.9571 9.73075 15.1114 7.74642 15.2679L7.62317 15.5687C9.63215 15.7132 12.6025 13.4867 14.821 10.0206C16.8793 6.80723 17.6681 3.48556 16.9656 1.66826C16.793 1.16279 16.5219 0.765636 16.1275 0.500865L15.9179 0.356445C15.9549 0.380515 15.9796 0.404584 16.0042 0.428654Z" fill="white"/>
</mask>
<g mask="url(#mask6_2528_10459)">
<path d="M0.671814 11.6088L10.3223 -3.97656L24.6317 4.47204L14.9935 20.0454L0.671814 11.6088Z" fill="url(#paint6_linear_2528_10459)"/>
</g>
<path d="M10.6675 2.54738C12.7011 0.633807 14.821 -0.208647 16.1152 0.585666C16.1768 0.621772 16.2384 0.669912 16.2877 0.706017C16.2015 0.609737 16.1152 0.513456 16.0166 0.42921C16.0166 0.42921 16.0166 0.42921 16.0043 0.42921C15.9796 0.417175 15.9549 0.393106 15.9303 0.381071L15.807 0.296826C14.4759 -0.521557 12.2821 0.405141 10.1868 2.42703C10.3471 2.4511 10.5073 2.49924 10.6675 2.54738Z" fill="#E5007D"/>
<mask id="mask7_2528_10459" style="mask-type:luminance" maskUnits="userSpaceOnUse" x="0" y="2" width="17" height="18">
<path d="M3.12465 4.42443C1.60867 5.96492 0.75824 8.1914 0.75824 10.6345C0.75824 15.268 4.61598 19.5043 9.05299 19.6127C11.2099 19.6608 13.0093 18.9267 14.3404 17.687C15.8564 16.1345 16.7068 13.908 16.7068 11.4649C16.7068 10.2494 16.448 9.05792 15.9797 7.96273C15.6592 8.64873 15.2771 9.33473 14.8334 10.0328C12.6149 13.4989 9.63227 15.7133 7.63561 15.5809L7.42609 15.2921L7.32749 15.5448C7.10564 15.4967 6.88379 15.4124 6.69891 15.3041C6.64961 15.28 6.61264 15.2439 6.56334 15.2078L6.36613 15.0754C5.98406 14.8107 5.70058 14.4135 5.52803 13.908C4.8255 12.0908 5.61431 8.76908 7.67259 5.55573C8.37512 4.46054 9.15159 3.4857 9.95272 2.66732C9.43507 2.54697 8.90509 2.48679 8.35047 2.47476C8.32582 2.47476 8.30117 2.47476 8.27652 2.47476C6.18126 2.46272 4.4311 3.19686 3.12465 4.42443Z" fill="white"/>
</mask>
<g mask="url(#mask7_2528_10459)">
<path d="M16.7068 2.46289H0.75824V19.661H16.7068V2.46289Z" fill="url(#paint7_linear_2528_10459)"/>
</g>
<mask id="mask8_2528_10459" style="mask-type:luminance" maskUnits="userSpaceOnUse" x="5" y="2" width="6" height="14">
<path d="M7.6599 5.53165C5.60162 8.74501 4.81282 12.0667 5.51535 13.884C5.6879 14.3894 5.95905 14.7866 6.35345 15.0514L6.56297 15.1958C6.53832 15.1717 6.51367 15.1597 6.48902 15.1356C4.83747 13.7997 5.46605 9.74391 7.96803 5.83253C8.71986 4.65309 9.55796 3.63011 10.4207 2.77562C10.2605 2.72748 10.1126 2.69138 9.95236 2.65527C9.15123 3.46162 8.36243 4.43646 7.6599 5.53165Z" fill="white"/>
</mask>
<g mask="url(#mask8_2528_10459)">
<path d="M10.4207 2.65527H4.82513V15.1958H10.4207V2.65527Z" fill="url(#paint8_linear_2528_10459)"/>
</g>
<mask id="mask9_2528_10459" style="mask-type:luminance" maskUnits="userSpaceOnUse" x="5" y="2" width="7" height="14">
<path d="M7.96834 5.83163C5.61425 9.50232 4.92405 13.3054 6.21818 14.8579C6.27981 14.9061 6.32911 14.9422 6.39073 14.9783C6.61258 15.1106 6.85908 15.2069 7.13023 15.243L9.65687 8.80429L11.8138 3.34038C11.3701 3.11171 10.9017 2.91915 10.421 2.7627C9.55827 3.61718 8.72017 4.6522 7.96834 5.83163Z" fill="white"/>
</mask>
<g mask="url(#mask9_2528_10459)">
<path d="M14.895 3.54536L11.3824 16.8682L1.84277 14.4732L5.35541 1.15039L14.895 3.54536Z" fill="url(#paint9_linear_2528_10459)"/>
</g>
<path d="M6.39063 14.9797C6.329 14.9436 6.26737 14.8955 6.20575 14.8594C6.34132 15.0279 6.50155 15.1723 6.68643 15.2806C6.88363 15.401 7.09315 15.4852 7.315 15.5213L7.1178 15.2445C6.85898 15.2084 6.61248 15.1241 6.39063 14.9797Z" fill="#766F2D"/>
<path d="M28.0827 19.1676C24.4099 19.1676 22.3885 16.917 22.3885 12.8372C22.3885 8.05925 25.3096 6.3623 28.0457 6.3623C29.8329 6.3623 31.4228 7.13255 32.4335 8.46844L30.8559 9.74415C30.0054 8.78135 29.0687 8.28791 28.095 8.28791C26.1354 8.28791 24.9645 9.93671 24.9645 12.7168C24.9645 15.6413 26.197 17.242 28.4278 17.242C29.4015 17.242 30.2889 16.9411 31.2872 16.2792L32.2116 17.8919C31.1393 18.6982 29.6357 19.1676 28.0827 19.1676Z" fill="white"/>
<path d="M37.2896 6.73535H34.7013V18.8185H37.2896V6.73535Z" fill="white"/>
<path d="M35.983 4.36532C35.071 4.36532 34.4547 3.78763 34.4547 2.94518C34.4547 2.10273 35.0956 1.50098 35.983 1.50098C36.8704 1.50098 37.5113 2.11476 37.5113 2.94518C37.5236 3.76356 36.8704 4.36532 35.983 4.36532Z" fill="white"/>
<path d="M43.5139 18.8192H40.9256V8.54131V8.52927V8.51724L40.7284 6.74809H42.7867L43.0578 8.38485L43.1934 9.17917L43.4892 8.42096C43.9822 7.18135 45.1038 6.375 46.3609 6.375C47.0142 6.375 47.6427 6.50739 48.1481 6.76012L47.7044 8.83015C47.1374 8.56538 46.6074 8.44503 46.0528 8.44503C44.6108 8.44503 43.5632 9.56429 43.5139 11.177V18.8192Z" fill="white"/>
<path d="M53.645 19.1442C50.4774 19.1442 48.8752 17.1825 48.8752 13.3192C48.8752 8.90236 51.2046 6.375 55.2719 6.375C56.036 6.375 57.7862 6.54349 59.5856 7.18135V16.665V16.677V16.689L59.7952 18.8313H57.6136L57.4657 17.7L57.4411 17.5556L57.3795 16.9177L57.0344 17.4472L56.9481 17.5676C56.2456 18.5665 55.05 19.1442 53.645 19.1442ZM54.9021 8.09601C52.6713 8.09601 51.4388 9.9133 51.4388 13.2229C51.4388 16.0391 52.4001 17.4713 54.3105 17.4713C56.0114 17.4713 57.0344 16.2558 57.0344 15.0884V8.63759V8.49317L56.8988 8.43299C56.4428 8.2284 55.654 8.09601 54.9021 8.09601Z" fill="white"/>
<path d="M67.3627 19.1912C64.1829 19.1912 62.5683 17.1934 62.5683 13.27C62.5683 9.00956 64.8484 6.37389 68.509 6.37389C69.3471 6.37389 69.9264 6.51831 70.4317 6.66273L70.7275 6.74697V6.4461V1.95703H73.2911V16.5916V16.6037V16.6157L73.5006 18.8181H71.3437L71.1712 17.6628L71.1465 17.5183L71.0603 16.9407L70.7398 17.4221L70.6535 17.5544C69.914 18.5895 68.7185 19.1912 67.3627 19.1912ZM68.5829 8.0949C66.3767 8.0949 65.1196 9.87608 65.1196 12.9932C65.1196 15.9417 66.0809 17.4461 67.9667 17.4461C69.6059 17.4461 70.7152 16.2667 70.7152 15.1595V8.70869V8.56427L70.5796 8.50409C70.1482 8.32357 69.4457 8.0949 68.5829 8.0949Z" fill="white"/>
<g style="mix-blend-mode:color">
<rect x="0.511658" width="73.8438" height="20" fill="#2C324B"/>
</g>
<defs>
<linearGradient id="paint0_linear_2528_10459" x1="13.581" y1="6.75847" x2="4.43582" y2="2.01112" gradientUnits="userSpaceOnUse">
<stop stop-color="#ECE200"/>
<stop offset="0.2067" stop-color="#ECE200"/>
<stop offset="0.364" stop-color="#E9E101"/>
<stop offset="0.4762" stop-color="#E0DF03"/>
<stop offset="0.5744" stop-color="#D0DA07"/>
<stop offset="0.6646" stop-color="#BAD40D"/>
<stop offset="0.7493" stop-color="#9DCC14"/>
<stop offset="0.8299" stop-color="#7AC21D"/>
<stop offset="0.9073" stop-color="#50B628"/>
<stop offset="0.9803" stop-color="#21A934"/>
<stop offset="1" stop-color="#13A538"/>
</linearGradient>
<linearGradient id="paint1_linear_2528_10459" x1="12.3845" y1="1.25496" x2="14.4776" y2="4.62779" gradientUnits="userSpaceOnUse">
<stop stop-color="white"/>
<stop offset="0.2517" stop-color="white" stop-opacity="0.74"/>
<stop offset="0.7632" stop-color="white" stop-opacity="0.43"/>
<stop offset="1" stop-color="white" stop-opacity="0.4"/>
</linearGradient>
<linearGradient id="paint2_linear_2528_10459" x1="10.8227" y1="2.48851" x2="10.8227" y2="19.6094" gradientUnits="userSpaceOnUse">
<stop stop-color="#ECE200"/>
<stop offset="0.055596" stop-color="#D4DB06"/>
<stop offset="0.1867" stop-color="#A1CD13"/>
<stop offset="0.3206" stop-color="#76C11F"/>
<stop offset="0.4548" stop-color="#52B728"/>
<stop offset="0.5893" stop-color="#36AF2F"/>
<stop offset="0.7246" stop-color="#23A934"/>
<stop offset="0.8609" stop-color="#17A637"/>
<stop offset="1" stop-color="#13A538"/>
</linearGradient>
<radialGradient id="paint3_radial_2528_10459" cx="0" cy="0" r="1" gradientUnits="userSpaceOnUse" gradientTransform="translate(8.58707 12.0864) scale(2.69355 2.63018)">
<stop stop-color="#B17F4A"/>
<stop offset="1" stop-color="#685C25"/>
</radialGradient>
<linearGradient id="paint4_linear_2528_10459" x1="14.3586" y1="5.35866" x2="10.2973" y2="12.0701" gradientUnits="userSpaceOnUse">
<stop stop-color="#BF4832"/>
<stop offset="1" stop-color="#AF1917"/>
</linearGradient>
<linearGradient id="paint5_linear_2528_10459" x1="11.9525" y1="17.0558" x2="3.87483" y2="7.8879" gradientUnits="userSpaceOnUse">
<stop stop-color="white" stop-opacity="0.75"/>
<stop offset="0.0300538" stop-color="white" stop-opacity="0.75"/>
<stop offset="0.1414" stop-color="white" stop-opacity="0.7"/>
<stop offset="0.2516" stop-color="white" stop-opacity="0.56"/>
<stop offset="0.3583" stop-color="white" stop-opacity="0.39"/>
<stop offset="0.4757" stop-color="white" stop-opacity="0.26"/>
<stop offset="0.8255" stop-color="white" stop-opacity="0.08"/>
<stop offset="1" stop-color="white" stop-opacity="0.05"/>
</linearGradient>
<linearGradient id="paint6_linear_2528_10459" x1="7.94987" y1="15.6368" x2="16.6946" y2="0.818049" gradientUnits="userSpaceOnUse">
<stop stop-color="#E6332A"/>
<stop offset="0.004808" stop-color="#E6332A"/>
<stop offset="0.0138675" stop-color="#E2322A"/>
<stop offset="0.2247" stop-color="#911720"/>
<stop offset="0.374" stop-color="#5E061A"/>
<stop offset="0.4471" stop-color="#4A0018"/>
<stop offset="0.6875" stop-color="#4A0018"/>
<stop offset="0.8798" stop-color="#E6007E"/>
<stop offset="0.9025" stop-color="#D60174"/>
<stop offset="0.9472" stop-color="#AB0358"/>
<stop offset="1" stop-color="#710533"/>
</linearGradient>
<linearGradient id="paint7_linear_2528_10459" x1="8.72452" y1="2.48965" x2="8.72452" y2="19.6098" gradientUnits="userSpaceOnUse">
<stop stop-color="white"/>
<stop offset="0.055596" stop-color="white"/>
<stop offset="0.1867" stop-color="white" stop-opacity="0.72"/>
<stop offset="0.3206" stop-color="white" stop-opacity="0.56"/>
<stop offset="0.4548" stop-color="white" stop-opacity="0.45"/>
<stop offset="0.5893" stop-color="white" stop-opacity="0.36"/>
<stop offset="0.7246" stop-color="white" stop-opacity="0.3"/>
<stop offset="0.8609" stop-color="white" stop-opacity="0.22"/>
<stop offset="1" stop-color="white" stop-opacity="0.16"/>
</linearGradient>
<linearGradient id="paint8_linear_2528_10459" x1="5.27265" y1="8.92485" x2="10.4181" y2="8.92485" gradientUnits="userSpaceOnUse">
<stop stop-color="#8A6E28"/>
<stop offset="0.077841" stop-color="#927127"/>
<stop offset="0.4738" stop-color="#B67E21"/>
<stop offset="0.7952" stop-color="#CD861E"/>
<stop offset="1" stop-color="#D5891D"/>
</linearGradient>
<linearGradient id="paint9_linear_2528_10459" x1="10.043" y1="2.67698" x2="6.88514" y2="15.2425" gradientUnits="userSpaceOnUse">
<stop stop-color="#E0A532"/>
<stop offset="0.3213" stop-color="#C2932D"/>
<stop offset="0.7644" stop-color="#9D7E28"/>
<stop offset="1" stop-color="#8F7626"/>
</linearGradient>
</defs>
</svg>
