<svg width="103" height="26" viewBox="0 0 103 26" fill="none" xmlns="http://www.w3.org/2000/svg">
<path d="M41.4222 17.6239C41.4222 17.4201 41.2818 17.2692 40.9947 17.2104V17.0785C41.1536 17.0785 41.6829 17.0987 41.8318 17.0987C41.9606 17.0987 42.4731 17.0785 42.6326 17.0785V17.2104C42.3661 17.2596 42.2262 17.4084 42.2262 17.6239V20.2119C42.2262 21.0314 42.7019 21.4946 43.6968 21.4946C44.5541 21.4946 45.2211 21.1304 45.2211 20.2728V17.6138C45.2211 17.4216 45.0935 17.2692 44.7723 17.2104V17.0785C44.8892 17.0785 45.3268 17.0987 45.4762 17.0987C45.6038 17.0987 46.0631 17.0785 46.1806 17.0785V17.2104C45.8708 17.2804 45.733 17.4115 45.733 17.6138V20.1302C45.733 21.2596 45.0386 21.9082 43.5401 21.9082C42.1451 21.9082 41.4222 21.3083 41.4222 20.2472V17.6239Z" fill="white"/>
<path d="M47.4062 21.7044C47.7308 21.6472 47.8589 21.4917 47.8589 21.301V17.7242C47.8589 17.4208 47.6882 17.2843 47.3972 17.2091V17.0772C47.5619 17.0888 47.8381 17.0957 47.9792 17.0957C48.1073 17.0957 48.3066 17.0936 48.4408 17.0772L51.7198 20.7251V17.613C51.7198 17.4212 51.5912 17.2688 51.2712 17.2091V17.0772C51.3886 17.0772 51.8106 17.0978 51.9605 17.0978C52.0909 17.0978 52.543 17.0772 52.6621 17.0772V17.2091C52.3493 17.2789 52.1984 17.4113 52.1984 17.613V21.9072H52.0008C51.8765 21.8802 51.6415 21.7537 51.2834 21.3821L48.3497 18.1488V21.301C48.3497 21.4927 48.4665 21.6446 48.7867 21.7044V21.8368C48.6692 21.8368 48.2473 21.8157 48.0973 21.8157C47.9681 21.8157 47.5254 21.8368 47.4062 21.8368V21.7044Z" fill="white"/>
<path d="M73.2802 20.7405H73.4189C73.4923 21.0078 73.6539 21.2515 73.8805 21.3923C74.1163 21.5495 74.4861 21.6247 74.7848 21.6247C75.4445 21.6247 75.8626 21.3155 75.8626 20.8263C75.8626 20.3196 75.327 20.0565 74.6853 19.7531C74.2079 19.5271 73.2701 19.1539 73.2701 18.2961C73.2701 17.4971 73.9142 17.0001 74.9444 17.0001C75.6242 17.0001 75.9432 17.1573 76.402 17.1371L76.3931 18.1065H76.2531C76.0696 17.5353 75.5213 17.3362 74.9208 17.3362C74.2493 17.3362 73.9981 17.6995 73.9981 18.069C73.9981 18.598 74.5453 18.8647 75.1653 19.1263C75.8626 19.4201 76.6191 19.7913 76.6191 20.6177C76.6191 21.4002 75.9722 21.9668 74.7899 21.9668C74.0865 21.9668 73.6646 21.7767 73.2947 21.7337L73.2802 20.7405Z" fill="white"/>
<path d="M87.3716 19.8679L86.0365 17.8413C85.8088 17.4855 85.6342 17.2979 85.3801 17.2091V17.0776C85.5631 17.0776 86.0573 17.0984 86.1976 17.0984C86.3246 17.0984 86.8579 17.0776 87.0504 17.0776V17.2091C86.8797 17.2376 86.7997 17.3186 86.7997 17.4404C86.7997 17.5478 86.8771 17.6861 86.9547 17.8063C87.0309 17.9253 87.9391 19.3507 87.9391 19.3507L88.8874 17.8069C88.9832 17.6522 89.0509 17.4987 89.0509 17.3975C89.0509 17.3054 88.982 17.2291 88.8204 17.2091V17.0776C88.9809 17.0776 89.3183 17.0984 89.4258 17.0984C89.5333 17.0984 89.921 17.0776 90.0804 17.0776V17.2001C89.7156 17.3415 89.4879 17.6442 89.2669 17.9952L88.0532 19.9145M88.136 19.6725V21.2915C88.136 21.452 88.2652 21.6537 88.5572 21.7044V21.8369C88.3945 21.8369 87.863 21.8157 87.7091 21.8157C87.5798 21.8157 87.07 21.8369 86.8859 21.8369V21.7044C87.1791 21.6537 87.3196 21.452 87.3196 21.2915V19.7435" fill="white"/>
<path d="M62.5635 17.0776H65.6942C65.791 17.0776 65.9606 17.0671 66.0573 17.0274H66.1974L66.1754 17.9898H66.0367C65.9175 17.687 65.7938 17.4446 65.1879 17.4446H63.8286V19.1219H64.8762C65.0289 19.1219 65.2141 19.1096 65.2942 19.0916C65.5297 19.0429 65.6334 18.919 65.6809 18.729H65.8207C65.8107 18.874 65.8107 19.205 65.8107 19.3029C65.8107 19.4014 65.8207 19.7497 65.8207 19.9075H65.6809C65.6136 19.718 65.522 19.5739 65.2942 19.5211C65.2141 19.5009 65.0257 19.4845 64.8762 19.4845H63.8286V21.452H65.307C65.9528 21.452 66.1403 21.1973 66.3008 20.8373L66.4391 20.8678L66.3008 21.8564C65.8207 21.8162 65.5326 21.8162 64.9875 21.8162H63.4253C63.2747 21.8162 62.7224 21.8369 62.5618 21.8369V21.705C62.8438 21.6541 63.0085 21.5222 63.0085 21.2666V17.6278C63.0085 17.4022 62.8802 17.2613 62.5635 17.2111V17.0776Z" fill="white"/>
<path d="M54.5673 17.6537C54.5673 17.4097 54.4135 17.2753 54.1118 17.2137V17.083C54.2798 17.083 54.8232 17.1031 54.9815 17.1031C55.1141 17.1031 55.6726 17.083 55.8427 17.083V17.2137C55.5427 17.2753 55.3854 17.3969 55.3854 17.6537V21.2672C55.3854 21.5112 55.5399 21.6441 55.8427 21.7044V21.8369C55.6731 21.8369 55.1375 21.8162 54.9815 21.8162C54.8465 21.8162 54.2798 21.8369 54.1113 21.8369V21.7044C54.4197 21.65 54.5673 21.5224 54.5673 21.2672V17.6537Z" fill="white"/>
<path d="M78.3169 17.6537C78.3169 17.4097 78.1612 17.2753 77.8602 17.2137V17.083C78.0282 17.083 78.572 17.1031 78.7292 17.1031C78.863 17.1031 79.4214 17.083 79.591 17.083V17.2137C79.2911 17.2753 79.1343 17.3969 79.1343 17.6537V21.2672C79.1343 21.5112 79.2888 21.6441 79.591 21.7044V21.8369C79.4226 21.8369 78.8876 21.8162 78.7292 21.8162C78.5966 21.8162 78.0282 21.8369 77.8602 21.8369V21.7044C78.168 21.65 78.3169 21.5224 78.3169 21.2672V17.6537Z" fill="white"/>
<path d="M82.6685 17.0978C80.9523 17.0978 80.6777 17.0676 80.3267 17.0469L80.3296 18.0275H80.4694C80.5976 17.5928 80.8533 17.4917 81.1846 17.4917H82.2612V21.2672C82.2612 21.5223 82.1135 21.65 81.8046 21.7044V21.8369C81.9741 21.8369 82.5459 21.8162 82.678 21.8162C82.8353 21.8162 83.3725 21.8369 83.5398 21.8369V21.7044C83.2364 21.6441 83.0827 21.5112 83.0827 21.2672V17.4917H84.1507C84.4943 17.4917 84.7401 17.6024 84.8681 18.0275H85.0063L85.0086 17.0469C84.66 17.0676 84.3853 17.0978 82.6685 17.0978Z" fill="white"/>
<path d="M68.9739 21.2673C68.9739 21.5113 69.1378 21.6437 69.4405 21.7045V21.837C69.2726 21.837 68.7237 21.8163 68.5671 21.8163C68.4327 21.8163 67.8967 21.837 67.7278 21.837V21.7045C68.0086 21.6538 68.1742 21.5225 68.1742 21.2673V17.6169C68.1742 17.3924 68.045 17.251 67.7289 17.2002V17.0689C67.8967 17.0689 68.4276 17.0889 68.5777 17.0889C68.8235 17.0889 69.5217 17.0498 69.7964 17.0498C70.9994 17.0498 71.6693 17.5205 71.6693 18.3273C71.6693 18.9615 71.1707 19.3905 70.4029 19.5657C70.4029 19.5657 70.5782 19.662 70.7527 19.8542C70.9648 20.0908 71.5377 20.8687 71.7755 21.1407C72.0129 21.4135 72.3167 21.7178 72.6423 21.7316V21.838C72.4862 21.8703 72.2361 21.8984 72.0447 21.8984C71.6362 21.8984 71.3101 21.7619 70.9934 21.3992C70.7192 21.0836 70.2542 20.4287 69.9805 20.0978C69.8054 19.8871 69.5933 19.7224 69.2049 19.662C69.1299 19.6499 69.0589 19.6398 68.9739 19.6303V21.2673ZM68.9739 19.3274C69.134 19.348 69.3694 19.3576 69.6023 19.3576C70.5441 19.3576 70.8406 18.8451 70.8406 18.3915C70.8406 17.7498 70.3878 17.3521 69.5636 17.3521C69.393 17.3521 69.1456 17.3723 68.9739 17.4029V19.3274Z" fill="white"/>
<path d="M57.049 17.6699C56.9394 17.4401 56.771 17.2717 56.4839 17.212V17.0779C56.6623 17.0779 57.2807 17.0992 57.4166 17.0992C57.5415 17.0992 58.082 17.0779 58.2656 17.0779V17.2082C58.1026 17.2378 57.9169 17.3231 57.9169 17.4809C57.9169 17.5936 57.9891 17.7472 58.1273 18.0363L59.4232 20.8263L60.6498 18.0315C60.7467 17.806 60.8166 17.6312 60.8166 17.4978C60.8166 17.3502 60.6728 17.2479 60.469 17.2082V17.0779C60.632 17.0779 61.0314 17.0992 61.1557 17.0992C61.2692 17.0992 61.7381 17.0779 61.9172 17.0779V17.212C61.6112 17.2903 61.4247 17.4497 61.253 17.8272L59.4478 21.8545H59.0393L57.049 17.6699Z" fill="white"/>
<path d="M61.6772 4.96785C61.4685 4.53207 61.1484 4.21441 60.6062 4.10061V3.84698C60.9436 3.84698 62.0638 3.88511 62.3212 3.88511C62.5585 3.88511 63.6435 3.84698 63.9893 3.84698V4.09425C63.6826 4.15097 63.3301 4.31298 63.3301 4.61205C63.3301 4.82323 63.4689 5.11511 63.7263 5.66193L66.1844 10.9494L68.5105 5.65294C68.6918 5.22411 68.8272 4.89638 68.8272 4.64275C68.8272 4.36107 68.5519 4.17004 68.1664 4.09425V3.84698C68.4741 3.84698 69.2222 3.88511 69.46 3.88511C69.6761 3.88511 70.5647 3.84698 70.9027 3.84698V4.08634C70.323 4.23515 69.9682 4.55018 69.6453 5.26536L66.2259 12.8994H65.452L61.6772 4.96785Z" fill="white"/>
<path d="M28.5776 12.6097C29.0241 12.5133 29.338 12.3212 29.338 11.8426V4.84386C29.338 4.38434 29.0459 4.19367 28.5776 4.07831V3.82996C28.812 3.82996 29.822 3.86762 30.0677 3.86762C30.3508 3.86762 31.4095 3.82996 31.6423 3.82996V4.07831C31.1963 4.17413 30.8656 4.36575 30.8656 4.84386V7.76745H36.3761V4.84386C36.3761 4.36575 36.0824 4.17413 35.6168 4.07831V3.82996C35.8495 3.82996 36.8893 3.86762 37.1718 3.86762C37.4158 3.86762 38.4494 3.82996 38.6798 3.82996V4.07831C38.2334 4.17413 37.9026 4.36575 37.9026 4.84386V11.8426C37.9026 12.3021 38.2131 12.4948 38.6798 12.6097V12.8389C38.4494 12.8389 37.4158 12.8199 37.1718 12.8199C36.8893 12.8199 35.8495 12.8389 35.6168 12.8389V12.6097C36.0601 12.5133 36.3761 12.3212 36.3761 11.8426V8.53504H30.8656V11.8426C30.8656 12.3212 31.1756 12.4948 31.6423 12.6097V12.8389C31.4095 12.8389 30.3508 12.8199 30.0677 12.8199C29.822 12.8199 28.812 12.8389 28.5776 12.8389V12.6097Z" fill="white"/>
<path d="M92.3171 12.6091C92.8889 12.5127 93.204 12.2978 93.204 11.8039V4.84328C93.204 4.36362 92.8934 4.17355 92.3407 4.07773V3.82938C92.6589 3.82938 93.6952 3.86704 93.9823 3.86704C94.4457 3.86704 95.7382 3.77122 96.7444 3.77122C100.134 3.77122 102.192 5.56231 102.192 8.28575C102.192 10.9329 100.051 12.8945 96.5556 12.8945C95.5479 12.8945 94.3528 12.8193 93.885 12.8193C93.6007 12.8193 92.6343 12.8574 92.3171 12.8574V12.6091ZM94.7305 12.1479C95.0757 12.2073 95.7136 12.2443 96.2166 12.2443C99.0642 12.2443 100.547 10.6227 100.547 8.36094C100.547 6.01608 98.9826 4.36625 96.3202 4.36625C95.7762 4.36625 95.0965 4.40487 94.7305 4.46111V12.1479Z" fill="white"/>
<path d="M53.9474 11.7782C53.9474 12.2421 54.2579 12.494 54.8292 12.6089V12.8572C54.5109 12.8572 53.474 12.8191 53.1758 12.8191C52.9239 12.8191 51.9066 12.8572 51.5889 12.8572V12.6089C52.1193 12.5126 52.4321 12.2627 52.4321 11.7782V4.86752C52.4321 4.44229 52.1892 4.17344 51.5899 4.0775V3.82915C51.9084 3.82915 52.9133 3.86681 53.1953 3.86681C53.6614 3.86681 54.9832 3.7933 55.5046 3.7933C57.7843 3.7933 59.0533 4.68536 59.0533 6.21119C59.0533 7.41408 58.1066 8.22352 56.6535 8.55761C56.6535 8.55761 56.983 8.73929 57.3147 9.10504C57.7171 9.55245 58.8274 11.0561 59.2762 11.5711C59.7248 12.0869 60.3006 12.6629 60.9162 12.6894V12.8923C60.6212 12.9525 60.149 13.0039 59.7881 13.0039C59.0109 13.0039 58.3937 12.7466 57.7933 12.0582C57.2757 11.4611 56.3703 10.1915 55.8515 9.56468C55.5203 9.16535 55.1209 8.85417 54.3873 8.73929C54.2428 8.7159 54.1069 8.69792 53.9474 8.68101V11.7782ZM53.9474 8.10768C54.249 8.14522 54.6949 8.16429 55.1371 8.16429C56.9198 8.16429 57.4799 7.19331 57.4799 6.33555C57.4799 5.11743 56.6226 4.36603 55.0609 4.36603C54.7391 4.36603 54.2703 4.40476 53.9474 4.46088V8.10768Z" fill="white"/>
<path d="M83.9935 11.7782C83.9935 12.2421 84.3052 12.494 84.8772 12.6089V12.8572C84.5593 12.8572 83.5235 12.8191 83.2252 12.8191C82.969 12.8191 81.9551 12.8572 81.636 12.8572V12.6089C82.1654 12.5126 82.4789 12.2627 82.4789 11.7782V4.86752C82.4789 4.44229 82.2338 4.17344 81.6378 4.0775V3.82915C81.9573 3.82915 82.959 3.86681 83.2432 3.86681C83.7104 3.86681 85.0314 3.7933 85.5497 3.7933C87.8333 3.7933 89.0984 4.68536 89.0984 6.21119C89.0984 7.41408 88.1539 8.22352 86.6997 8.55761C86.6997 8.55761 87.0309 8.73929 87.3599 9.10504C87.7661 9.55245 88.8762 11.0561 89.3233 11.5711C89.7738 12.0869 90.3495 12.6629 90.9617 12.6894V12.8923C90.6708 12.9525 90.1958 13.0039 89.8387 13.0039C89.0598 13.0039 88.4398 12.7466 87.841 12.0582C87.3234 11.4611 86.4209 10.1915 85.8977 9.56468C85.5664 9.16535 85.1682 8.85417 84.4361 8.73929C84.2896 8.7159 84.1551 8.69792 83.9935 8.68101V11.7782ZM83.9935 8.10768C84.299 8.14522 84.7422 8.16429 85.1848 8.16429C86.9683 8.16429 87.5267 7.19331 87.5267 6.33555C87.5267 5.11743 86.6688 4.36603 85.11 4.36603C84.7853 4.36603 84.3186 4.40476 83.9935 4.46088V8.10768Z" fill="white"/>
<path d="M40.1296 12.6074C40.7328 12.4741 41.0641 12.1045 41.2839 11.61L44.3358 4.66219C44.4656 4.37475 44.6167 3.7838 44.6167 3.7838H45.4707C45.4707 3.7838 45.6234 4.37631 45.7504 4.66435L48.9757 11.629C49.2057 12.1087 49.4546 12.455 50.0959 12.6074L50.0943 12.8389C49.7451 12.8389 48.6596 12.8198 48.4127 12.8198C48.1671 12.8198 47.1302 12.8389 46.7817 12.8389L46.7828 12.6074C47.2523 12.4984 47.4005 12.2724 47.4005 12.0536C47.4005 11.8679 47.3194 11.6582 47.221 11.4406L46.5276 9.9443H42.9738L42.3388 11.449C42.2677 11.6195 42.1832 11.8605 42.1832 12.023C42.1832 12.2739 42.3219 12.4741 42.8546 12.6074L42.8535 12.8389C42.5379 12.8389 41.7047 12.8198 41.5095 12.8198L40.1291 12.8389L40.1296 12.6074ZM46.2059 9.23487L44.6883 5.88942L43.2749 9.23487H46.2059Z" fill="white"/>
<path d="M70.3644 12.6074C70.9671 12.4741 71.2994 12.1045 71.5182 11.61L74.5711 4.66219C74.701 4.37475 74.8537 3.7838 74.8537 3.7838H75.7076C75.7076 3.7838 75.8588 4.37631 75.9853 4.66435L79.2117 11.629C79.4398 12.1087 79.6912 12.455 80.3297 12.6074L80.3285 12.8389C79.9805 12.8389 78.8938 12.8198 78.6453 12.8198C78.402 12.8198 77.3656 12.8389 77.0164 12.8389V12.6074C77.4888 12.4984 77.6348 12.2724 77.6348 12.0536C77.6348 11.8679 77.5547 11.6582 77.458 11.4406L76.7619 9.9443H73.208L72.5724 11.449C72.5013 11.6195 72.4174 11.8605 72.4174 12.023C72.4174 12.2739 72.5562 12.4741 73.0889 12.6074V12.8389C72.7722 12.8389 71.9402 12.8198 71.7438 12.8198L70.3632 12.8389L70.3644 12.6074ZM76.4407 9.23487L74.9221 5.88942L73.5097 9.23487H76.4407Z" fill="white"/>
<path d="M0.401428 1.02015H21.6804V8.62554C21.6804 12.1102 20.3095 19.5001 11.1203 25C11.1203 25 1.16352 21.0656 0.401428 8.62554L0.401428 1.02015Z" fill="#6E7389"/>
<path d="M0.357788 1.00002H21.6575V8.61069C21.6575 12.0966 20.2849 19.4905 11.0873 24.9941C11.0873 24.9941 1.12102 21.0573 0.357788 8.61069L0.357788 1.00002Z" stroke="#1D2133" stroke-width="0.306667"/>
<path d="M16.5072 10.7923C16.5072 10.7923 16.3175 11.3646 15.4738 10.7764L12.5769 10.7102C12.5769 10.7102 12.1976 10.8257 12.146 10.4502C12.146 10.4502 12.2154 9.70012 12.1802 9.6344C12.1802 9.6344 12.1976 9.42263 11.817 9.42263C11.817 9.42263 11.2317 9.48774 11.2143 8.99752C11.2143 8.99752 11.112 8.47552 11.9216 8.49291C11.9216 8.49291 12.1802 8.60671 12.1976 8.296C12.1976 8.296 12.1635 6.17455 12.1802 6.01254C12.1802 6.01254 12.2495 5.81767 11.8522 5.78434C11.8522 5.78434 11.2838 5.89814 11.2143 5.5403C11.2143 5.5403 11.1802 5.00188 11.5602 4.96854C11.5602 4.96854 12.0252 5.00188 12.1112 4.887C12.1112 4.887 12.2154 4.95151 12.1976 4.5619L12.2154 3.89156C12.2154 3.89156 12.2652 3.71265 12.559 3.73015C12.559 3.73015 13.0939 3.76241 13.1638 3.71265C13.1638 3.71265 13.2831 3.56659 13.3183 3.50027C13.3183 3.50027 13.5947 3.48444 13.6457 3.55004C13.6457 3.55004 14.0597 3.8111 15.6287 3.71265C15.6287 3.71265 15.8705 3.71265 15.9208 3.77836C15.9208 3.77836 16.2151 3.99001 16.3869 3.76241C16.3869 3.76241 16.6455 3.71265 17.421 3.73015C17.421 3.73015 18.267 3.94133 18.8518 3.48444L19.042 3.5173C19.042 3.5173 19.2832 3.89156 19.4556 3.77836C19.4556 3.77836 19.9732 3.73015 20.0587 3.82753C20.0587 3.82753 20.2306 4.0706 20.1449 4.70904C20.1449 4.70904 20.0426 4.98545 20.5422 4.98545C20.5422 4.98545 21.1119 4.887 21.0419 5.39257C21.0419 5.39257 21.1969 5.96385 20.2496 5.88279C20.2496 5.88279 20.1282 6.04588 20.1449 6.16028C20.1449 6.16028 20.1282 8.01911 20.1108 8.23245C20.1108 8.23245 20.094 8.52636 20.507 8.50934C20.507 8.50934 21.0593 8.47552 21.0777 8.94931C21.0777 8.94931 21.146 9.56929 20.352 9.4544C20.352 9.4544 20.1108 9.48774 20.075 9.6344L20.0426 10.4502C20.0426 10.4502 20.0587 10.8579 19.577 10.7595C19.5082 10.7595 16.8877 10.8098 16.6629 10.7447C16.6629 10.7447 16.5408 10.7283 16.5072 10.7923Z" fill="white"/>
<path d="M10.9379 13.5194C10.9379 13.5194 11.0589 13.4712 11.093 13.3908C11.093 13.3908 11.4556 13.3573 11.5064 13.3087L12.6451 13.3908C12.6451 13.3908 13.7654 13.4712 14.2483 13.1435C14.2483 13.1435 14.4218 13.1435 14.5426 13.1933C14.5426 13.1933 14.7826 13.243 14.8514 13.3394L15.5073 13.323C15.5073 13.323 15.8866 13.4384 15.8514 13.6671V13.9599C15.8514 13.9599 15.7821 14.5476 15.9544 14.5809H16.4557C16.4557 14.5809 16.8699 14.76 16.8178 14.9881C16.8178 14.9881 16.8352 15.3132 16.4737 15.3794C16.4737 15.3794 16.11 15.4767 15.9907 15.4614C15.9907 15.4614 15.8693 15.6076 15.8514 15.787L15.8011 17.9244C15.8011 17.9244 15.7659 18.1526 16.1285 18.1202C16.1285 18.1202 16.6617 18.071 16.8178 18.3495C16.8178 18.3495 16.9559 18.8217 16.6802 18.9032L16.4737 19.0001L16.0243 19.068C16.0243 19.068 15.8358 19.0828 15.8178 19.3925V19.9626C15.8178 19.9626 15.8358 20.3556 15.5073 20.3556L15.0244 20.3883C15.0244 20.3883 14.904 20.4847 14.663 20.4196C14.663 20.4196 11.7313 20.4698 11.6278 20.4366L11.2827 20.5027C11.2827 20.5027 10.9037 20.8289 10.5932 20.5832L10.352 20.4036C10.352 20.4036 10.1792 20.4366 10.1115 20.4196C10.0422 20.4036 6.86934 20.4529 6.86934 20.4529C6.86934 20.4529 6.19673 20.5191 6.14578 20.3058C6.14578 20.3058 6.05973 19.4745 6.09382 19.375C6.09382 19.375 6.09382 19.1314 5.93882 19.1156C5.93882 19.1156 5.26621 19.0828 5.24885 19.0166C5.24885 19.0166 4.88624 18.7731 4.98979 18.5289C4.98979 18.5289 5.11121 18.2012 5.47267 18.1689C5.47267 18.1689 6.02437 18.2515 6.02437 18.1044C6.02437 18.1044 6.05973 18.0064 6.05973 17.8439C6.05973 17.8439 6.09382 15.9014 6.07646 15.7711C6.07646 15.7711 6.12791 15.5265 5.90358 15.5265C5.90358 15.5265 5.6624 15.5911 5.5079 15.4938C5.5079 15.4938 5.09384 15.5102 5.00766 15.1998C5.00766 15.1998 4.93833 15.0045 5.04125 14.8398C5.04125 14.8398 5.23161 14.4814 5.78331 14.5962C5.78331 14.5962 6.09382 14.6783 6.12791 14.467L6.11169 13.6824C6.11169 13.6824 6.04173 13.4712 6.47315 13.3573C6.47315 13.3573 7.02485 13.5035 7.19671 13.243C7.19671 13.243 7.38695 12.8829 7.5403 13.1277C7.5403 13.1277 7.86932 13.4221 8.76575 13.3908C8.76575 13.3908 10.3179 13.2754 10.352 13.3394C10.352 13.3394 10.7315 13.3908 10.8344 13.5035L10.9379 13.5194Z" fill="white"/>
<path d="M6.25051 10.7925C6.25051 10.7925 6.06027 11.3647 5.21542 10.776L2.31903 10.7103C2.31903 10.7103 1.9397 10.8258 1.88761 10.45C1.88761 10.45 1.95706 9.70025 1.9212 9.63454C1.9212 9.63454 1.9397 9.42169 1.55973 9.42169C1.55973 9.42169 0.974449 9.48836 0.957592 8.99874C0.957592 8.99874 0.853539 8.47506 1.66379 8.49305C1.66379 8.49305 1.9212 8.60685 1.9397 8.29674C1.9397 8.29674 1.90497 6.17624 1.9212 6.0122C1.9212 6.0122 1.99166 5.81841 1.59497 5.78495C1.59497 5.78495 1.02527 5.89828 0.957592 5.53936C0.957592 5.53936 0.922359 5.00201 1.30118 4.96868C1.30118 4.96868 1.76683 5.00201 1.85352 4.88917C1.85352 4.88917 1.95706 4.95225 1.9397 4.56036L1.95706 3.8923C1.95706 3.8923 2.00903 3.71278 2.30053 3.72921C2.30053 3.72921 2.83664 3.76147 2.90597 3.71278C2.90597 3.71278 3.02637 3.56672 3.05932 3.50041C3.05932 3.50041 3.33688 3.48506 3.38834 3.54862C3.38834 3.54862 3.80126 3.81123 5.37195 3.71278C5.37195 3.71278 5.61199 3.71278 5.66408 3.7785C5.66408 3.7785 5.95672 3.99015 6.12909 3.76147C6.12909 3.76147 6.38764 3.71278 7.16418 3.72921C7.16418 3.72921 8.0075 3.94099 8.59456 3.48506L8.78366 3.51852C8.78366 3.51852 9.02485 3.8923 9.19886 3.7785C9.19886 3.7785 9.71532 3.72921 9.80201 3.82766C9.80201 3.82766 9.97489 4.07229 9.88706 4.70918C9.88706 4.70918 9.78465 4.98606 10.2844 4.98606C10.2844 4.98606 10.8528 4.88917 10.7846 5.3927C10.7846 5.3927 10.9401 5.96399 9.99174 5.88293C9.99174 5.88293 9.87033 6.04649 9.88706 6.16041C9.88706 6.16041 9.87033 8.01925 9.85347 8.23259C9.85347 8.23259 9.83674 8.52434 10.2503 8.50947C10.2503 8.50947 10.802 8.47506 10.8187 8.95005C10.8187 8.95005 10.8875 9.56942 10.0952 9.45454C10.0952 9.45454 9.85347 9.48836 9.81824 9.63454L9.78465 10.45C9.78465 10.45 9.80201 10.8581 9.318 10.7607C9.24918 10.7607 6.62997 10.8089 6.40488 10.7449C6.40488 10.7449 6.2846 10.7284 6.25051 10.7925Z" fill="white"/>
<path d="M16.5072 10.7923C16.5072 10.7923 16.3175 11.3646 15.4738 10.7764L12.5769 10.7102C12.5769 10.7102 12.1976 10.8257 12.146 10.4502C12.146 10.4502 12.2154 9.70012 12.1802 9.6344C12.1802 9.6344 12.1976 9.42263 11.817 9.42263C11.817 9.42263 11.2317 9.48774 11.2143 8.99752C11.2143 8.99752 11.112 8.47552 11.9216 8.49291C11.9216 8.49291 12.1802 8.60671 12.1976 8.296C12.1976 8.296 12.1635 6.17455 12.1802 6.01254C12.1802 6.01254 12.2495 5.81767 11.8522 5.78434C11.8522 5.78434 11.2838 5.89814 11.2143 5.5403C11.2143 5.5403 11.1802 5.00188 11.5602 4.96854C11.5602 4.96854 12.0252 5.00188 12.1112 4.887C12.1112 4.887 12.2154 4.95151 12.1976 4.5619L12.2154 3.89156C12.2154 3.89156 12.2652 3.71265 12.559 3.73015C12.559 3.73015 13.0939 3.76241 13.1638 3.71265C13.1638 3.71265 13.2831 3.56659 13.3183 3.50027C13.3183 3.50027 13.5947 3.48444 13.6457 3.55004C13.6457 3.55004 14.0597 3.8111 15.6287 3.71265C15.6287 3.71265 15.8705 3.71265 15.9208 3.77836C15.9208 3.77836 16.2151 3.99001 16.3869 3.76241C16.3869 3.76241 16.6455 3.71265 17.421 3.73015C17.421 3.73015 18.267 3.94133 18.8518 3.48444L19.042 3.5173C19.042 3.5173 19.2832 3.89156 19.4556 3.77836C19.4556 3.77836 19.9732 3.73015 20.0587 3.82753C20.0587 3.82753 20.2306 4.0706 20.1449 4.70904C20.1449 4.70904 20.0426 4.98545 20.5422 4.98545C20.5422 4.98545 21.1119 4.887 21.0419 5.39257C21.0419 5.39257 21.1969 5.96385 20.2496 5.88279C20.2496 5.88279 20.1282 6.04588 20.1449 6.16028C20.1449 6.16028 20.1282 8.01911 20.1108 8.23245C20.1108 8.23245 20.094 8.52636 20.507 8.50934C20.507 8.50934 21.0593 8.47552 21.0777 8.94931C21.0777 8.94931 21.146 9.56929 20.352 9.4544C20.352 9.4544 20.1108 9.48774 20.075 9.6344L20.0426 10.4502C20.0426 10.4502 20.0587 10.8579 19.577 10.7595C19.5082 10.7595 16.8877 10.8098 16.6629 10.7447C16.6629 10.7447 16.5408 10.7283 16.5072 10.7923Z" fill="#1D2133"/>
<path d="M16.5073 10.7932C16.5073 10.7932 16.3175 11.3656 15.4738 10.7774L12.5763 10.7112C12.5763 10.7112 12.197 10.8265 12.1455 10.4507C12.1455 10.4507 12.2155 9.70052 12.1796 9.63481C12.1796 9.63481 12.197 9.42304 11.817 9.42304C11.817 9.42304 11.2312 9.48875 11.2138 8.99841C11.2138 8.99841 11.1114 8.47641 11.921 8.49332C11.921 8.49332 12.1796 8.60724 12.197 8.29701C12.197 8.29701 12.1629 6.17544 12.1796 6.01295C12.1796 6.01295 12.2495 5.8176 11.8522 5.78474C11.8522 5.78474 11.2832 5.89867 11.2138 5.54071C11.2138 5.54071 11.1802 5.00168 11.5596 4.96895C11.5596 4.96895 12.0246 5.00168 12.1109 4.8874C12.1109 4.8874 12.2155 4.95192 12.197 4.56171L12.2155 3.89149C12.2155 3.89149 12.2646 3.71257 12.5596 3.73008C12.5596 3.73008 13.0939 3.76234 13.1633 3.71257C13.1633 3.71257 13.2826 3.56699 13.3183 3.50068C13.3183 3.50068 13.5943 3.48437 13.6457 3.55009C13.6457 3.55009 14.0593 3.81103 15.6287 3.71257C15.6287 3.71257 15.8705 3.71257 15.9208 3.77817C15.9208 3.77817 16.2151 3.98994 16.387 3.76234C16.387 3.76234 16.6455 3.71257 17.421 3.73008C17.421 3.73008 18.267 3.94126 18.8523 3.48437L19.0427 3.51663C19.0427 3.51663 19.2837 3.89149 19.4556 3.77817C19.4556 3.77817 19.9732 3.73008 20.0588 3.82686C20.0588 3.82686 20.2311 4.07101 20.1456 4.70837C20.1456 4.70837 20.0427 4.98586 20.5428 4.98586C20.5428 4.98586 21.112 4.8874 21.0419 5.3925C21.0419 5.3925 21.1969 5.96426 20.2496 5.88272C20.2496 5.88272 20.1287 6.0458 20.1456 6.16069C20.1456 6.16069 20.1287 8.01952 20.1114 8.23238C20.1114 8.23238 20.094 8.52617 20.5075 8.51034C20.5075 8.51034 21.0604 8.47641 21.0783 8.94972C21.0783 8.94972 21.1461 9.56969 20.3525 9.45481C20.3525 9.45481 20.1114 9.48875 20.0756 9.63481L20.0427 10.4507C20.0427 10.4507 20.0588 10.8589 19.5777 10.7605C19.5088 10.7605 16.8877 10.8102 16.6629 10.7451C16.6629 10.7451 16.5408 10.7292 16.5073 10.7932Z" stroke="#1D2133" stroke-width="0.0133333"/>
<path d="M13.249 4.07207C13.249 4.07207 13.283 4.39873 13.283 4.48135C13.283 4.56229 13.2322 9.19494 13.2322 9.19494C13.2322 9.19494 13.283 9.55385 12.9568 9.73384C12.9568 9.73384 12.8695 9.76562 12.8533 9.53742L12.887 4.64492C12.887 4.64492 12.9216 4.03969 13.249 4.07207Z" fill="white"/>
<path d="M13.2495 4.07152C13.2495 4.07152 13.2831 4.39817 13.2831 4.48079C13.2831 4.56222 13.2328 9.19546 13.2328 9.19546C13.2328 9.19546 13.2831 9.55437 12.9569 9.73377C12.9569 9.73377 12.8695 9.76615 12.8522 9.53794L12.8869 4.64436C12.8869 4.64436 12.921 4.03914 13.2495 4.07152Z" stroke="#1D2133" stroke-width="0.016"/>
<path d="M12.6804 9.78196C12.6804 9.78196 12.7146 5.1817 12.6984 5.10015C12.6804 5.01969 12.7146 5.16683 12.7146 5.16683C12.7146 5.16683 12.6631 4.36626 12.8875 4.03912C12.8875 4.03912 12.8176 3.76332 12.4214 4.10532L12.404 4.77338C12.404 4.77338 12.404 5.14932 12.0425 5.13289C12.0425 5.13289 11.6285 5.11598 11.4387 5.2955C11.4387 5.2955 11.3353 5.65489 11.7314 5.59037C11.7314 5.59037 12.3525 5.59037 12.3873 5.83333L12.3525 8.29739C12.3525 8.29739 12.4907 8.70714 12.0084 8.70714C12.0084 8.70714 11.4204 8.67225 11.4387 9.01485C11.4387 9.01485 11.5602 9.30805 12.0599 9.21116C12.0599 9.21116 12.4214 9.27519 12.404 9.60292V10.2224C12.404 10.2224 12.3693 10.4686 12.7146 10.484H15.4043C15.4043 10.484 15.5414 10.4998 15.5414 10.3367C15.5414 10.3367 15.5247 10.2066 15.3181 10.2066L13.0771 10.1737C13.0771 10.1737 12.7146 10.2886 12.6804 9.78196Z" fill="white"/>
<path d="M13.198 9.77418C13.198 9.77418 13.1287 10.0024 13.3871 9.95466H15.1633L15.645 10.0537C15.645 10.0537 16.1447 9.93835 15.645 9.67777C15.645 9.67777 14.0592 9.69264 13.9216 9.66086C13.9216 9.66086 13.5937 9.5798 13.5231 9.56349C13.5231 9.56349 13.3525 9.49837 13.198 9.77418Z" fill="white"/>
<path d="M13.1975 9.7737C13.1975 9.7737 13.1282 10.0024 13.3866 9.95478H15.1632L15.6451 10.0537C15.6451 10.0537 16.1452 9.93787 15.6451 9.67681C15.6451 9.67681 14.0592 9.69156 13.9209 9.66038C13.9209 9.66038 13.5932 9.57884 13.5232 9.56241C13.5232 9.56241 13.352 9.49729 13.1975 9.7737Z" stroke="#1D2133" stroke-width="0.016"/>
<path d="M16.1452 10.0034C16.1452 10.0034 15.8178 10.0034 15.8347 10.412C15.8347 10.412 15.8693 10.7207 16.214 10.7207C16.214 10.7207 16.5234 10.6726 16.4904 10.3464C16.4904 10.3464 16.3002 9.93872 16.1452 10.0034Z" fill="white"/>
<path d="M16.3869 9.84047C16.3869 9.84047 16.5419 9.67798 16.646 9.67798C16.646 9.67798 18.37 9.82404 18.661 9.62869C18.661 9.62869 18.9212 9.58001 18.9906 9.62869C18.9906 9.62869 19.2486 9.82404 19.2486 9.93844C19.2486 9.93844 19.2317 10.0861 18.9212 10.0025C18.9212 10.0025 16.9729 10.0205 16.8693 10.0205C16.8693 10.0205 16.3338 10.1338 16.3869 9.84047Z" fill="white"/>
<path d="M16.3864 9.841C16.3864 9.841 16.5414 9.67791 16.6455 9.67791C16.6455 9.67791 18.37 9.82409 18.6616 9.62863C18.6616 9.62863 18.9217 9.57994 18.9912 9.62863C18.9912 9.62863 19.2491 9.82409 19.2491 9.93945C19.2491 9.93945 19.2323 10.0872 18.9217 10.0035C18.9217 10.0035 16.9723 10.0215 16.8688 10.0215C16.8688 10.0215 16.3333 10.1348 16.3864 9.841Z" stroke="#1D2133" stroke-width="0.016"/>
<path d="M16.6108 10.3689C16.6108 10.3689 16.6108 10.237 16.8525 10.237L19.2653 10.2212C19.2653 10.2212 19.4903 10.3356 19.4903 9.9448C19.4903 9.9448 19.5786 8.16655 19.5865 6.20866C19.5893 5.62574 19.6173 5.01428 19.5955 4.44767C19.5955 4.44767 19.5418 4.20256 19.4724 4.1528C19.4724 4.1528 19.4724 3.89234 19.7661 3.99031C19.7661 3.99031 20.0246 4.00674 19.9558 4.38316L19.9737 4.95168C19.9737 4.95168 19.9217 5.19787 20.3861 5.1318C20.3861 5.1318 20.8511 5.19787 20.8696 5.35988C20.8696 5.35988 21.0073 5.68762 20.4566 5.65428H20.0582C20.0582 5.65428 19.8865 5.75177 19.938 5.9482L19.8865 8.31416C19.8865 8.31416 19.8518 8.72128 20.2658 8.70593C20.2658 8.70593 20.6961 8.68903 20.7828 8.81986C20.7828 8.81986 21.0777 9.22745 20.4387 9.19472C20.4387 9.19472 20.042 9.17769 19.9558 9.24388C19.9558 9.24388 19.8865 9.32483 19.8349 10.0925C19.8349 10.0925 19.8702 10.5494 19.5075 10.4992C19.5075 10.4992 17.1105 10.5314 16.8867 10.4833C16.8867 10.4833 16.6455 10.5494 16.6108 10.3689Z" fill="white"/>
<path d="M13.508 3.92319L13.4559 9.16141C13.4559 9.16141 13.4392 9.40448 13.8701 9.45365C13.8701 9.45365 14.3697 9.50234 14.4895 9.45365C14.4895 9.45365 14.8191 9.43674 15.6623 9.47008C15.6623 9.47008 15.8704 9.66758 15.8878 9.42091C15.8878 9.42091 16.0243 5.18112 15.9572 4.29805C15.9572 4.29805 15.9382 3.92319 15.6461 3.90676C15.6461 3.90676 14.3356 4.00689 14.2148 3.90676L13.6972 3.77761C13.6972 3.77761 13.4901 3.79344 13.508 3.92319Z" fill="white"/>
<path d="M16.2314 4.18534C16.2314 4.18534 16.18 6.6488 16.1972 6.73034L16.1631 8.80155L16.0931 9.51998C16.0931 9.51998 16.1972 9.66651 16.2835 9.56914C16.2835 9.56914 16.8352 9.43675 17.1798 9.4882C17.1798 9.4882 18.2845 9.58509 18.5077 9.42092C18.5077 9.42092 18.6805 9.50247 18.731 9.24141C18.731 9.24141 18.7992 4.67508 18.7674 4.59353C18.7674 4.59353 18.8339 3.93915 18.7992 3.87559C18.7992 3.87559 18.7841 3.72893 18.4903 3.85868C18.4903 3.85868 18.5239 3.98999 16.8872 3.93915C16.8872 3.93915 16.2666 3.9232 16.2314 4.18534Z" fill="white"/>
<path d="M18.9738 4.12054L18.957 9.27458C18.957 9.27458 19.0947 9.73303 19.3185 9.68494C19.3185 9.68494 19.3521 9.58589 19.3688 9.4228L19.4388 4.51183C19.4388 4.51183 19.2653 3.73033 18.9738 4.12054Z" fill="white"/>
<path d="M18.9732 4.12042L18.9565 9.27555C18.9565 9.27555 19.0946 9.73411 19.3185 9.6859C19.3185 9.6859 19.3527 9.58685 19.3694 9.42376L19.4387 4.51171C19.4387 4.51171 19.2653 3.73021 18.9732 4.12042Z" stroke="#1D2133" stroke-width="0.016"/>
<path d="M16.8564 5.66482C16.8049 5.53459 17.1495 5.51816 17.1495 5.51816L17.3225 5.55041C17.4435 5.53459 17.5642 5.58375 17.5642 5.58375C17.6846 5.76279 17.4776 5.86016 17.4776 5.86016L17.4087 6.07301C17.3909 6.25301 17.4087 7.8027 17.4087 7.8027C17.4435 7.88316 17.5811 8.02934 17.5811 8.02934C17.5811 8.17696 17.3909 8.1447 17.3909 8.1447L16.8916 8.16113C16.7361 8.1447 16.7876 7.98102 16.7876 7.98102C16.9599 7.89959 17.012 7.6052 17.012 7.6052V5.99099L16.8564 5.66482Z" fill="#1D2133"/>
<path d="M14.5292 7.18213L14.4951 7.6877L14.649 7.93185C14.7537 8.06208 14.5807 8.16113 14.5807 8.16113L14.029 8.11233C13.9265 8.06208 14.029 7.89947 14.029 7.89947C14.1672 7.81913 14.1845 7.60568 14.1845 7.60568L14.1672 6.65965L14.1845 5.97456C14.1845 5.89242 14.0468 5.74684 14.0468 5.74684C13.9265 5.73041 13.9606 5.58375 13.9606 5.58375C13.9949 5.50173 14.2869 5.55041 14.2869 5.55041H15.0121C15.702 5.76279 15.5985 6.23598 15.5985 6.23598C15.6506 6.70834 15.1161 6.90524 15.1161 6.90524L15.0804 7.1663L15.5811 7.91542C15.6673 7.98102 15.6506 8.04721 15.6506 8.04721C15.5811 8.22673 15.3047 8.04721 15.3047 8.04721L14.6848 7.13296C14.6327 7.06725 14.5292 7.18213 14.5292 7.18213ZM14.5466 5.89242C14.5633 6.25241 14.5633 6.74167 14.5633 6.74167C14.8918 6.98678 15.0804 6.64322 15.0804 6.64322C15.5107 6.25241 15.0804 5.89242 15.0121 5.79553C14.9421 5.69707 14.5975 5.77862 14.5975 5.77862L14.5466 5.89242Z" fill="#1D2133"/>
<path d="M10.9379 13.5194C10.9379 13.5194 11.0589 13.4712 11.093 13.3908C11.093 13.3908 11.4556 13.3573 11.5064 13.3087L12.6451 13.3908C12.6451 13.3908 13.7654 13.4712 14.2483 13.1435C14.2483 13.1435 14.4218 13.1435 14.5426 13.1933C14.5426 13.1933 14.7826 13.243 14.8514 13.3394L15.5073 13.323C15.5073 13.323 15.8866 13.4384 15.8514 13.6671V13.9599C15.8514 13.9599 15.7821 14.5476 15.9544 14.5809H16.4557C16.4557 14.5809 16.8699 14.76 16.8178 14.9881C16.8178 14.9881 16.8352 15.3132 16.4737 15.3794C16.4737 15.3794 16.11 15.4767 15.9907 15.4614C15.9907 15.4614 15.8693 15.6076 15.8514 15.787L15.8011 17.9244C15.8011 17.9244 15.7659 18.1526 16.1285 18.1202C16.1285 18.1202 16.6617 18.071 16.8178 18.3495C16.8178 18.3495 16.9559 18.8217 16.6802 18.9032L16.4737 19.0001L16.0243 19.068C16.0243 19.068 15.8358 19.0828 15.8178 19.3925V19.9626C15.8178 19.9626 15.8358 20.3556 15.5073 20.3556L15.0244 20.3883C15.0244 20.3883 14.904 20.4847 14.663 20.4196C14.663 20.4196 11.7313 20.4698 11.6278 20.4366L11.2827 20.5027C11.2827 20.5027 10.9037 20.8289 10.5932 20.5832L10.352 20.4036C10.352 20.4036 10.1792 20.4366 10.1115 20.4196C10.0422 20.4036 6.86934 20.4529 6.86934 20.4529C6.86934 20.4529 6.19673 20.5191 6.14578 20.3058C6.14578 20.3058 6.05973 19.4745 6.09382 19.375C6.09382 19.375 6.09382 19.1314 5.93882 19.1156C5.93882 19.1156 5.26621 19.0828 5.24885 19.0166C5.24885 19.0166 4.88624 18.7731 4.98979 18.5289C4.98979 18.5289 5.11121 18.2012 5.47267 18.1689C5.47267 18.1689 6.02437 18.2515 6.02437 18.1044C6.02437 18.1044 6.05973 18.0064 6.05973 17.8439C6.05973 17.8439 6.09382 15.9014 6.07646 15.7711C6.07646 15.7711 6.12791 15.5265 5.90358 15.5265C5.90358 15.5265 5.6624 15.5911 5.5079 15.4938C5.5079 15.4938 5.09384 15.5102 5.00766 15.1998C5.00766 15.1998 4.93833 15.0045 5.04125 14.8398C5.04125 14.8398 5.23161 14.4814 5.78331 14.5962C5.78331 14.5962 6.09382 14.6783 6.12791 14.467L6.11169 13.6824C6.11169 13.6824 6.04173 13.4712 6.47315 13.3573C6.47315 13.3573 7.02485 13.5035 7.19671 13.243C7.19671 13.243 7.38695 12.8829 7.5403 13.1277C7.5403 13.1277 7.86932 13.4221 8.76575 13.3908C8.76575 13.3908 10.3179 13.2754 10.352 13.3394C10.352 13.3394 10.7315 13.3908 10.8344 13.5035L10.9379 13.5194Z" fill="#1D2133"/>
<path d="M10.938 13.4997C10.938 13.4997 11.0576 13.4521 11.093 13.3705C11.093 13.3705 11.4549 13.3372 11.5064 13.2884L12.6446 13.3705C12.6446 13.3705 13.7654 13.4521 14.2483 13.1244C14.2483 13.1244 14.4218 13.1244 14.5426 13.1741C14.5426 13.1741 14.7832 13.2233 14.8509 13.3197L15.5078 13.3038C15.5078 13.3038 15.8866 13.4192 15.8514 13.6473V13.9408C15.8514 13.9408 15.7826 14.5283 15.955 14.5607H16.4557C16.4557 14.5607 16.8693 14.7407 16.8183 14.9689C16.8183 14.9689 16.8357 15.294 16.4737 15.3602C16.4737 15.3602 16.1106 15.4576 15.9913 15.4416C15.9913 15.4416 15.8699 15.5883 15.8514 15.7678L15.8005 17.9057C15.8005 17.9057 15.7659 18.1328 16.1278 18.101C16.1278 18.101 16.6617 18.053 16.8183 18.3297C16.8183 18.3297 16.9566 18.8026 16.6807 18.8846L16.4737 18.9821L16.0243 19.0483C16.0243 19.0483 15.8352 19.0641 15.8185 19.3728V19.9451C15.8185 19.9451 15.8352 20.3363 15.5078 20.3363L15.0249 20.3692C15.0249 20.3692 14.904 20.4666 14.663 20.4015C14.663 20.4015 11.7313 20.4507 11.6278 20.4169L11.2821 20.483C11.2821 20.483 10.9037 20.8096 10.5932 20.5634L10.3515 20.3839C10.3515 20.3839 10.1792 20.4169 10.111 20.4015C10.0415 20.3839 6.86935 20.4343 6.86935 20.4343C6.86935 20.4343 6.19623 20.5 6.14477 20.2871C6.14477 20.2871 6.0591 19.4548 6.09319 19.3563C6.09319 19.3563 6.09319 19.1128 5.93768 19.0964C5.93768 19.0964 5.26571 19.0641 5.24784 18.9984C5.24784 18.9984 4.88574 18.7534 4.98916 18.5092C4.98916 18.5092 5.11058 18.1821 5.47267 18.1491C5.47267 18.1491 6.02386 18.233 6.02386 18.084C6.02386 18.084 6.0591 17.9866 6.0591 17.8246C6.0591 17.8246 6.09319 15.8822 6.07646 15.7519C6.07646 15.7519 6.12792 15.5063 5.90295 15.5063C5.90295 15.5063 5.66189 15.5714 5.50676 15.4745C5.50676 15.4745 5.09334 15.4904 5.00716 15.1807C5.00716 15.1807 4.9372 14.9854 5.04125 14.8212C5.04125 14.8212 5.23047 14.4622 5.78268 14.5766C5.78268 14.5766 6.09319 14.6592 6.12792 14.4474L6.11055 13.6633C6.11055 13.6633 6.04123 13.4521 6.47265 13.3372C6.47265 13.3372 7.02435 13.4843 7.19672 13.2233C7.19672 13.2233 7.38581 12.8639 7.54031 13.1074C7.54031 13.1074 7.86932 13.4018 8.76512 13.3705C8.76512 13.3705 10.3179 13.2551 10.3515 13.3197C10.3515 13.3197 10.7315 13.3705 10.8344 13.4843L10.938 13.4997Z" stroke="#1D2133" stroke-width="0.0133333"/>
<path d="M11.3861 19.9313C11.3861 19.9313 11.5937 19.8323 11.732 19.8662C11.8701 19.8986 13.8868 19.8503 13.8868 19.8503C13.8868 19.8503 14.7659 19.9149 14.9047 19.7994L15.11 19.7349C15.11 19.7349 15.1967 19.6375 15.1967 19.5078C15.1967 19.376 15.2141 18.9354 15.2141 18.9354L15.2667 18.7735C15.2667 18.7735 15.2488 18.6103 15.2667 14.2536C15.2667 14.2536 15.3343 13.9127 15.11 13.6993C15.11 13.6993 15.11 13.5701 15.1788 13.5855C15.2488 13.603 15.2141 13.603 15.2141 13.603C15.2141 13.603 15.5241 13.5198 15.575 13.6341C15.575 13.6341 15.7143 14.0243 15.5929 14.2536C15.5929 14.2536 15.5582 14.7274 15.819 14.7274C15.819 14.7274 15.9208 14.826 16.1279 14.7762C16.1279 14.7762 16.576 14.826 16.576 14.9551C16.576 14.9551 16.576 15.25 16.2655 15.2008L15.8509 15.2325C15.8509 15.2325 15.575 15.2828 15.6102 15.5916C15.6455 15.9017 15.5929 18.1206 15.5929 18.1206C15.5929 18.1206 15.5929 18.3827 16.0249 18.3663C16.0249 18.3663 16.5588 18.3494 16.5588 18.4954C16.5588 18.4954 16.6963 18.8216 16.3176 18.8386C16.3176 18.8386 15.5929 18.8216 15.6455 19.017C15.6455 19.017 15.5929 19.4749 15.5582 19.5554C15.5582 19.5554 15.6288 19.9313 15.5409 19.997C15.5409 19.997 15.49 20.2082 15.025 20.176C15.025 20.176 12.0599 20.16 11.5937 20.1924C11.5937 20.1924 11.3173 20.16 11.3861 19.9313Z" fill="white"/>
<path d="M10.8529 19.6208C10.8529 19.6208 11.1455 19.669 11.1455 19.9306C11.1455 20.191 11.1629 20.3382 10.9895 20.3705C10.8176 20.4033 10.6285 20.3552 10.5776 20.1433C10.5245 19.9306 10.6105 19.669 10.8529 19.6208Z" fill="white"/>
<path d="M11.197 19.491C11.197 19.491 11.507 19.294 11.6278 19.328C11.6278 19.328 13.1964 19.4248 13.6804 19.3448C14.1626 19.2628 13.8695 19.328 13.8695 19.328C13.8695 19.328 14.2837 19.328 14.4033 19.1802C14.4033 19.1802 14.5247 19.1489 14.5935 19.2628L14.8509 19.5248C14.8509 19.5248 14.8705 19.6863 14.5762 19.6699C14.5762 19.6699 11.765 19.6699 11.6799 19.6863C11.6799 19.6863 11.1456 19.7668 11.197 19.491Z" fill="white"/>
<path d="M11.1965 19.4914C11.1965 19.4914 11.5065 19.2944 11.6273 19.3278C11.6273 19.3278 13.1969 19.4252 13.6803 19.3452C14.1633 19.2627 13.8694 19.3278 13.8694 19.3278C13.8694 19.3278 14.2841 19.3278 14.4039 19.1795C14.4039 19.1795 14.5248 19.1489 14.5941 19.2627L14.8515 19.5252C14.8515 19.5252 14.8706 19.6873 14.5768 19.6703C14.5768 19.6703 11.7655 19.6703 11.6794 19.6873C11.6794 19.6873 11.145 19.7678 11.1965 19.4914Z" stroke="#1D2133" stroke-width="0.016"/>
<path d="M7.11116 13.6993C7.11116 13.6993 7.23207 13.6993 7.21458 13.8953L7.17948 18.8216C7.17948 18.8216 7.23207 19.1487 6.9388 19.36C6.9388 19.36 6.78265 19.5389 6.78265 19.2626L6.85312 14.2378C6.85312 14.2378 6.86947 13.8623 7.11116 13.6993Z" fill="white"/>
<path d="M7.11114 13.6992C7.11114 13.6992 7.23205 13.6992 7.21571 13.8951L7.17946 18.8226C7.17946 18.8226 7.23205 19.1497 6.93827 19.361C6.93827 19.361 6.78149 19.5399 6.78149 19.2635L6.85209 14.2382C6.85209 14.2382 6.86882 13.8622 7.11114 13.6992Z" stroke="#1D2133" stroke-width="0.016"/>
<path d="M6.83522 13.7316C6.83522 13.7316 6.62813 14.0911 6.64549 14.1732L6.62813 15.2648C6.62813 15.2648 6.61077 15.9664 6.62813 16.0484C6.64549 16.1294 6.61077 18.1853 6.61077 18.1853C6.61077 18.1853 6.59353 18.5759 6.61077 18.7072V19.5877C6.61077 19.5877 6.57617 19.98 6.88617 19.8805C6.88617 19.8805 9.92122 19.8159 10.1115 19.8656C10.1115 19.8656 10.3862 19.9139 10.2843 20.0446C10.2843 20.0446 10.2843 20.1596 10.093 20.1262C10.093 20.1262 8.66218 20.2558 7.36956 20.2077C7.36956 20.2077 6.50735 20.2558 6.45475 20.1596C6.45475 20.1596 6.31762 20.1431 6.31762 19.6693C6.31762 19.6693 6.31762 19.2299 6.28403 19.1482C6.28403 19.1482 6.31762 18.9169 5.88683 18.8698C5.88683 18.8698 5.28355 18.9682 5.26618 18.6258C5.26618 18.6258 5.35186 18.3811 5.93879 18.4129C5.93879 18.4129 6.36971 18.4785 6.28403 18.1514L6.33498 15.7386C6.33498 15.7386 6.38809 15.3126 6.0938 15.2955C6.0938 15.2955 5.81902 15.2823 5.73119 15.3126C5.73119 15.3126 5.23158 15.3126 5.26618 15.0372C5.26618 15.0372 5.43855 14.7428 5.93879 14.8084C5.93879 14.8084 6.31762 14.8732 6.33498 14.4664C6.33498 14.4664 6.31762 13.6337 6.52408 13.6019C6.52408 13.6019 6.95613 13.6167 6.83522 13.7316Z" fill="white"/>
<path d="M7.35176 19.1314C7.35176 19.1314 7.59345 19.3749 7.99078 19.3607L10.3336 19.3924C10.3336 19.3924 10.5939 19.4098 10.5775 19.539C10.5775 19.539 10.5407 19.7345 10.2318 19.6693L7.40372 19.6371L7.0927 19.6549C7.0927 19.6549 6.88561 19.6211 7.21462 19.2463L7.35176 19.1314Z" fill="white"/>
<path d="M7.35113 19.1311C7.35113 19.1311 7.59295 19.3751 7.99079 19.3602L10.3342 19.3926C10.3342 19.3926 10.5938 19.4095 10.5782 19.5391C10.5782 19.5391 10.5418 19.7351 10.2329 19.6706L7.40322 19.6382L7.09207 19.6551C7.09207 19.6551 6.88561 19.6219 7.214 19.2459L7.35113 19.1311Z" stroke="#1D2133" stroke-width="0.016"/>
<path d="M14.5936 18.9183C14.5936 18.9183 14.8005 19.2942 14.9041 19.3455C14.9041 19.3455 15.0938 19.5558 15.0424 19.1809L15.0764 14.4822C15.0764 14.4822 15.0244 14.3186 15.0764 14.0586L14.87 13.6996C14.87 13.6996 14.645 13.5366 14.645 13.7971L14.6109 18.806L14.5936 18.9183Z" fill="white"/>
<path d="M14.593 18.9191C14.593 18.9191 14.8006 19.2945 14.9047 19.3464C14.9047 19.3464 15.0944 19.5571 15.0429 19.1813L15.077 14.4814C15.077 14.4814 15.0249 14.3189 15.077 14.0589L14.8701 13.6995C14.8701 13.6995 14.6445 13.5369 14.6445 13.7974L14.6104 18.8068L14.593 18.9191Z" stroke="#1D2133" stroke-width="0.016"/>
<path d="M10.7662 16.6847C10.7662 16.6847 10.7835 17.075 10.7309 17.4493C10.7029 17.6563 10.8008 18.6093 10.7136 19.098C10.7136 19.098 10.6978 19.2615 10.3341 19.1155C10.3341 19.1155 8.12781 19.1636 8.05899 19.098C8.05899 19.098 7.45584 19.1155 7.40375 18.8211C7.40375 18.8211 7.48993 16.5863 7.43847 16.5032C7.43847 16.5032 7.40375 15.2802 7.43847 15.1664C7.43847 15.1664 7.48993 14.0408 7.45584 13.9105C7.45584 13.9105 7.4732 13.6494 7.42111 13.5182C7.42111 13.5182 7.42111 13.3551 7.71489 13.4526C7.71489 13.4526 7.81679 13.6326 8.38636 13.5526C8.38636 13.5526 8.80093 13.6173 9.19775 13.568C9.19775 13.568 10.0762 13.5029 10.3012 13.568C10.3012 13.568 10.6464 13.5029 10.7482 13.8629L10.7309 14.8735L10.8338 15.1997L10.9553 15.1186L11.0062 14.8735L11.0236 13.7967C11.0236 13.7967 11.0924 13.6002 11.3693 13.568C11.3693 13.568 11.8002 13.5182 11.8702 13.5526C11.939 13.5839 12.8684 13.6326 13.1286 13.5839C13.3865 13.5351 13.4375 13.7469 14.2148 13.3726C14.2148 13.3726 14.4217 13.3891 14.4217 13.5182C14.4217 13.5182 14.3513 14.907 14.4217 15.1664C14.4217 15.1664 14.4217 17.7109 14.368 17.8904L14.4032 18.7061C14.4032 18.7061 14.4374 19.0652 13.8353 19.098C13.8353 19.098 14.2148 19.1471 11.8338 19.082C11.8338 19.082 11.455 19.0652 11.0414 19.2441C11.0414 19.2441 10.9553 19.2282 10.9553 19.0164C10.9553 19.0164 11.0236 18.2504 10.9553 17.4985L10.9218 16.6669L10.7662 16.6847Z" fill="white"/>
<path d="M9.21396 15.5268C9.21396 15.5268 9.26605 16.7335 9.21396 16.8965L9.19774 17.1582C9.19774 17.1582 9.26605 17.3365 9.3696 17.4027C9.3696 17.4027 9.45629 17.6303 9.24869 17.6144C9.24869 17.6144 8.81841 17.5816 8.71486 17.5971C8.71486 17.5971 8.47253 17.5971 8.71486 17.3052C8.71486 17.3052 8.80104 17.1892 8.78317 16.8965C8.78317 16.8965 8.78317 15.5268 8.81841 15.4459C8.81841 15.4459 8.8525 15.2653 8.73159 15.2161L8.52399 15.233L8.26658 15.4612C8.26658 15.4612 8.21398 15.7069 8.0932 15.4459V15.3141L8.24934 14.9228L8.35289 14.9058C8.35289 14.9058 8.50726 15.0038 8.6449 15.0377H9.45629L9.74893 14.9058C9.74893 14.9058 9.86921 14.9228 9.83626 15.0694C9.83626 15.0694 9.88657 15.4459 9.66275 15.4936C9.66275 15.4936 9.5246 15.4459 9.45629 15.2653C9.45629 15.2653 9.23196 15.1521 9.21396 15.5268Z" fill="#1D2133"/>
<path d="M13.024 15.0859C13.024 15.0859 12.3699 15.0366 12.3536 15.7053C12.3536 15.7053 12.2825 16.1633 13.0077 16.4572C13.0077 16.4572 13.5427 16.7007 13.5068 17.0105C13.5068 17.0105 13.438 17.5653 12.869 17.2883C12.869 17.2883 12.5937 17.157 12.6121 17.0105C12.6121 17.0105 12.5243 16.8305 12.4213 16.8637C12.4213 16.8637 12.2999 16.8956 12.3536 17.4345C12.3536 17.4345 12.3536 17.6468 12.6121 17.4345L12.748 17.4678C12.748 17.4678 13.2142 17.8268 13.6099 17.3853C13.6099 17.3853 14.0418 17.0105 13.7307 16.5541C13.7307 16.5541 13.5068 16.229 13.1108 16.0654C13.1108 16.0654 12.7313 15.9008 12.6458 15.6238C12.6458 15.6238 12.7665 15.1335 13.231 15.3946C13.231 15.3946 13.4039 15.5905 13.5068 15.6238C13.5068 15.6238 13.6451 15.6238 13.6099 15.3289L13.5773 15.0859C13.5773 15.0859 13.5427 14.9043 13.3004 15.0859C13.3004 15.0859 13.076 15.1664 13.024 15.0859Z" fill="#1D2133"/>
<path d="M10.9211 14.7428C11.0414 14.8259 11.0588 14.9885 11.0588 14.9885C11.4035 15.8525 11.6973 17.1098 11.6973 17.1098C11.7828 17.2713 11.9385 17.4026 11.9385 17.4026C12.2316 17.5 11.9385 17.5811 11.9385 17.5811C11.8176 17.6308 11.422 17.5662 11.422 17.5662C11.2138 17.5313 11.2995 17.4678 11.2995 17.4678C11.3867 17.3862 11.3173 17.059 11.3173 17.059C11.2995 16.9298 11.1456 16.7171 11.1456 16.7171C11.0768 16.6841 10.9559 16.8309 10.9559 16.8309C10.9559 16.8309 10.7668 16.8965 10.7483 16.8309C10.7309 16.7646 10.6106 16.7028 10.6106 16.7028C10.4035 16.7028 10.318 17.1892 10.318 17.1892C10.4383 17.5975 10.318 17.5313 10.318 17.5313C10.2151 17.6632 9.88657 17.5662 9.88657 17.5662C9.73156 17.5313 9.83612 17.4175 9.83612 17.4175C10.0247 17.3862 10.0762 17.1892 10.0762 17.1892C10.163 17.0754 10.7135 14.9551 10.7135 14.9551C10.7668 14.8566 10.8002 14.6612 10.9211 14.7428ZM10.6465 15.8191C10.6285 15.9012 10.5071 16.358 10.5071 16.358L10.6106 16.5227C10.6106 16.5227 10.8871 16.5376 10.99 16.5376C11.0924 16.5376 11.1109 16.4576 11.1109 16.3743C11.1109 16.2935 10.9211 15.8043 10.9211 15.8043L10.8339 15.7063L10.6465 15.8191Z" fill="#1D2133"/>
<path d="M6.25051 10.7925C6.25051 10.7925 6.06027 11.3647 5.21542 10.776L2.31903 10.7103C2.31903 10.7103 1.9397 10.8258 1.88761 10.45C1.88761 10.45 1.95706 9.70025 1.9212 9.63454C1.9212 9.63454 1.9397 9.42169 1.55973 9.42169C1.55973 9.42169 0.974449 9.48836 0.957592 8.99874C0.957592 8.99874 0.853539 8.47506 1.66379 8.49305C1.66379 8.49305 1.9212 8.60685 1.9397 8.29674C1.9397 8.29674 1.90497 6.17624 1.9212 6.0122C1.9212 6.0122 1.99166 5.81841 1.59497 5.78495C1.59497 5.78495 1.02527 5.89828 0.957592 5.53936C0.957592 5.53936 0.922359 5.00201 1.30118 4.96868C1.30118 4.96868 1.76683 5.00201 1.85352 4.88917C1.85352 4.88917 1.95706 4.95225 1.9397 4.56036L1.95706 3.8923C1.95706 3.8923 2.00903 3.71278 2.30053 3.72921C2.30053 3.72921 2.83664 3.76147 2.90597 3.71278C2.90597 3.71278 3.02637 3.56672 3.05932 3.50041C3.05932 3.50041 3.33688 3.48506 3.38834 3.54862C3.38834 3.54862 3.80126 3.81123 5.37195 3.71278C5.37195 3.71278 5.61199 3.71278 5.66408 3.7785C5.66408 3.7785 5.95672 3.99015 6.12909 3.76147C6.12909 3.76147 6.38764 3.71278 7.16418 3.72921C7.16418 3.72921 8.0075 3.94099 8.59456 3.48506L8.78366 3.51852C8.78366 3.51852 9.02485 3.8923 9.19886 3.7785C9.19886 3.7785 9.71532 3.72921 9.80201 3.82766C9.80201 3.82766 9.97489 4.07229 9.88706 4.70918C9.88706 4.70918 9.78465 4.98606 10.2844 4.98606C10.2844 4.98606 10.8528 4.88917 10.7846 5.3927C10.7846 5.3927 10.9401 5.96399 9.99174 5.88293C9.99174 5.88293 9.87033 6.04649 9.88706 6.16041C9.88706 6.16041 9.87033 8.01925 9.85347 8.23259C9.85347 8.23259 9.83674 8.52434 10.2503 8.50947C10.2503 8.50947 10.802 8.47506 10.8187 8.95005C10.8187 8.95005 10.8875 9.56942 10.0952 9.45454C10.0952 9.45454 9.85347 9.48836 9.81824 9.63454L9.78465 10.45C9.78465 10.45 9.80201 10.8581 9.318 10.7607C9.24918 10.7607 6.62997 10.8089 6.40488 10.7449C6.40488 10.7449 6.2846 10.7284 6.25051 10.7925Z" fill="#1D2133"/>
<path d="M6.25053 10.7934C6.25053 10.7934 6.0603 11.3657 5.21545 10.777L2.31855 10.7114C2.31855 10.7114 1.93909 10.8267 1.88713 10.4504C1.88713 10.4504 1.95709 9.7007 1.92122 9.63498C1.92122 9.63498 1.93909 9.42273 1.55913 9.42273C1.55913 9.42273 0.97384 9.4894 0.957111 8.99966C0.957111 8.99966 0.853564 8.4755 1.66381 8.49349C1.66381 8.49349 1.92122 8.60741 1.93909 8.29767C1.93909 8.29767 1.90437 6.17621 1.92122 6.01264C1.92122 6.01264 1.99169 5.81826 1.59449 5.7854C1.59449 5.7854 1.02479 5.89884 0.957111 5.53933C0.957111 5.53933 0.921877 5.00186 1.30121 4.96912C1.30121 4.96912 1.76622 5.00186 1.85354 4.88866C1.85354 4.88866 1.95709 4.95269 1.93909 4.5608L1.95709 3.89215C1.95709 3.89215 2.00855 3.71275 2.30055 3.72966C2.30055 3.72966 2.83616 3.76144 2.90548 3.71275C2.90548 3.71275 3.02639 3.56717 3.05935 3.50086C3.05935 3.50086 3.33627 3.48503 3.38836 3.54906C3.38836 3.54906 3.80078 3.8112 5.37197 3.71275C5.37197 3.71275 5.61202 3.71275 5.66411 3.77834C5.66411 3.77834 5.95675 3.99012 6.12912 3.76144C6.12912 3.76144 6.38817 3.71275 7.1642 3.72966C7.1642 3.72966 8.00816 3.94035 8.59459 3.48503L8.78419 3.51836C8.78419 3.51836 9.02538 3.89215 9.19889 3.77834C9.19889 3.77834 9.71535 3.72966 9.80318 3.82703C9.80318 3.82703 9.97491 4.07226 9.88772 4.70854C9.88772 4.70854 9.78468 4.98651 10.2844 4.98651C10.2844 4.98651 10.854 4.88866 10.7847 5.39267C10.7847 5.39267 10.9402 5.96444 9.99228 5.88289C9.99228 5.88289 9.87035 6.04646 9.88772 6.16086C9.88772 6.16086 9.87035 8.0197 9.85413 8.23255C9.85413 8.23255 9.83677 8.52527 10.2503 8.51052C10.2503 8.51052 10.802 8.4755 10.8194 8.95097C10.8194 8.95097 10.8876 9.56987 10.0952 9.45499C10.0952 9.45499 9.85413 9.4894 9.8189 9.63498L9.78468 10.4504C9.78468 10.4504 9.80318 10.8591 9.31865 10.7616C9.24983 10.7616 6.62999 10.8093 6.4049 10.7453C6.4049 10.7453 6.28463 10.7293 6.25053 10.7934Z" stroke="#1D2133" stroke-width="0.0133333"/>
<path d="M2.99162 4.07343C2.99162 4.07343 3.02635 4.39901 3.02635 4.48055C3.02635 4.5621 2.97375 9.19522 2.97375 9.19522C2.97375 9.19522 3.02635 9.55521 2.69797 9.73365C2.69797 9.73365 2.61229 9.76698 2.59442 9.53878L2.62966 4.64472C2.62966 4.64472 2.66375 4.04058 2.99162 4.07343Z" fill="white"/>
<path d="M2.9922 4.07291C2.9922 4.07291 3.0268 4.39849 3.0268 4.48003C3.0268 4.56158 2.9742 9.19518 2.9742 9.19518C2.9742 9.19518 3.0268 9.55517 2.69791 9.73469C2.69791 9.73469 2.61223 9.76754 2.59436 9.53934L2.62845 4.64468C2.62845 4.64468 2.66318 4.04054 2.9922 4.07291Z" stroke="#1D2133" stroke-width="0.016"/>
<path d="M2.4226 9.78241C2.4226 9.78241 2.45618 5.18214 2.43996 5.1C2.4226 5.01954 2.45618 5.16619 2.45618 5.16619C2.45618 5.16619 2.40587 4.36778 2.62956 4.04065C2.62956 4.04065 2.56024 3.76316 2.16354 4.10517L2.14783 4.77442C2.14783 4.77442 2.14783 5.14977 1.78472 5.13334C1.78472 5.13334 1.37066 5.11643 1.18042 5.29702C1.18042 5.29702 1.07738 5.65534 1.47306 5.59082C1.47306 5.59082 2.09472 5.59082 2.12881 5.83377L2.09472 8.29783C2.09472 8.29783 2.23287 8.70555 1.74948 8.70555C1.74948 8.70555 1.16356 8.67425 1.18042 9.01686C1.18042 9.01686 1.3012 9.31065 1.80208 9.2122C1.80208 9.2122 2.16354 9.2778 2.14783 9.60241V10.2239C2.14783 10.2239 2.11145 10.4691 2.45618 10.4839H5.14649C5.14649 10.4839 5.28426 10.5002 5.28426 10.3367C5.28426 10.3367 5.26677 10.208 5.06094 10.208L2.82043 10.1742C2.82043 10.1742 2.45618 10.2886 2.4226 9.78241Z" fill="white"/>
<path d="M2.88816 9.81441C2.88816 9.81441 2.81984 10.0437 3.07725 9.99333H4.85326L5.33614 10.0908C5.33614 10.0908 5.83752 9.9769 5.33614 9.71536C5.33614 9.71536 3.74986 9.73287 3.61159 9.70001C3.61159 9.70001 3.28485 9.61859 3.21553 9.60204C3.21553 9.60204 3.04265 9.53752 2.88816 9.81441Z" fill="white"/>
<path d="M2.88755 9.81443C2.88755 9.81443 2.81923 10.0447 3.07664 9.99334H4.85328L5.3368 10.0918C5.3368 10.0918 5.83805 9.978 5.3368 9.71598C5.3368 9.71598 3.74976 9.73336 3.61161 9.69955C3.61161 9.69955 3.28424 9.61848 3.21492 9.60265C3.21492 9.60265 3.04192 9.53754 2.88755 9.81443Z" stroke="#1D2133" stroke-width="0.016"/>
<path d="M5.83701 10.0444C5.83701 10.0444 5.50863 10.0444 5.52586 10.4499C5.52586 10.4499 5.56059 10.7617 5.90469 10.7617C5.90469 10.7617 6.21533 10.711 6.18174 10.3864C6.18174 10.3864 5.99138 9.9777 5.83701 10.0444Z" fill="white"/>
<path d="M6.07761 9.88035C6.07761 9.88035 6.2321 9.71726 6.33666 9.71726C6.33666 9.71726 8.0602 9.86452 8.35335 9.66906C8.35335 9.66906 8.61291 9.62037 8.68072 9.66906C8.68072 9.66906 8.93927 9.86452 8.93927 9.97832C8.93927 9.97832 8.92241 10.1265 8.61291 10.045C8.61291 10.045 6.66289 10.0603 6.56049 10.0603C6.56049 10.0603 6.02552 10.1741 6.07761 9.88035Z" fill="white"/>
<path d="M6.07706 9.8798C6.07706 9.8798 6.23206 9.71623 6.33611 9.71623C6.33611 9.71623 8.06016 9.86397 8.35331 9.66851C8.35331 9.66851 8.61351 9.61934 8.68118 9.66851C8.68118 9.66851 8.93973 9.86397 8.93973 9.97825C8.93973 9.97825 8.923 10.1266 8.61351 10.0444C8.61351 10.0444 6.66348 10.0604 6.55994 10.0604C6.55994 10.0604 6.02497 10.1742 6.07706 9.8798Z" stroke="#1D2133" stroke-width="0.016"/>
<path d="M6.35352 10.3693C6.35352 10.3693 6.35352 10.2395 6.59356 10.2395L9.00922 10.2226C9.00922 10.2226 9.23241 10.3353 9.23241 9.94511C9.23241 9.94511 9.32088 8.16626 9.32874 6.20837C9.33203 5.62605 9.3589 5.01459 9.33545 4.44799C9.33545 4.44799 9.284 4.20395 9.21518 4.15359C9.21518 4.15359 9.21518 3.89265 9.50947 3.99158C9.50947 3.99158 9.76624 4.00705 9.69793 4.38179L9.71479 4.95308C9.71479 4.95308 9.66333 5.19771 10.1288 5.13259C10.1288 5.13259 10.5939 5.19771 10.6106 5.3608C10.6106 5.3608 10.75 5.68793 10.1988 5.65459H9.80262C9.80262 5.65459 9.62974 5.75209 9.6812 5.94851L9.62974 8.3134C9.62974 8.3134 9.59388 8.72112 10.0091 8.70625C10.0091 8.70625 10.44 8.68934 10.525 8.81957C10.525 8.81957 10.8193 9.22777 10.1809 9.19503C10.1809 9.19503 9.78411 9.178 9.69793 9.24312C9.69793 9.24312 9.62974 9.32622 9.57765 10.0919C9.57765 10.0919 9.61175 10.5488 9.24978 10.4995C9.24978 10.4995 6.85312 10.5313 6.62994 10.4831C6.62994 10.4831 6.38761 10.5488 6.35352 10.3693Z" fill="white"/>
<path d="M3.24902 3.92378L3.19871 9.16093C3.19871 9.16093 3.18134 9.404 3.61213 9.45317C3.61213 9.45317 4.11301 9.50245 4.23278 9.45317C4.23278 9.45317 4.55951 9.43734 5.40499 9.4702C5.40499 9.4702 5.61209 9.66494 5.62882 9.42151C5.62882 9.42151 5.76709 5.17908 5.69814 4.29864C5.69814 4.29864 5.68142 3.92378 5.38712 3.90735C5.38712 3.90735 4.07777 4.00485 3.95686 3.90735L3.4404 3.77652C3.4404 3.77652 3.23229 3.79199 3.24902 3.92378Z" fill="white"/>
<path d="M8.71485 4.11996L8.698 9.27556C8.698 9.27556 8.83627 9.73364 9.06123 9.68484C9.06123 9.68484 9.09533 9.58638 9.11218 9.42222L9.18214 4.51125C9.18214 4.51125 9.00914 3.72807 8.71485 4.11996Z" fill="white" stroke="#1D2133" stroke-width="0.016"/>
<path d="M8.71485 4.11996L8.698 9.27556C8.698 9.27556 8.83627 9.73364 9.06123 9.68484C9.06123 9.68484 9.09533 9.58638 9.11218 9.42222L9.18214 4.51125C9.18214 4.51125 9.00914 3.72807 8.71485 4.11996Z" stroke="#1D2133" stroke-width="0.016"/>
<path d="M5.97518 4.16449C5.97518 4.16449 5.92322 6.62747 5.93944 6.71009L5.90687 8.78226L5.83704 9.49805C5.83704 9.49805 5.93944 9.64687 6.02613 9.5483C6.02613 9.5483 6.57847 9.41855 6.92307 9.46687C6.92307 9.46687 8.0271 9.56532 8.25042 9.40164C8.25042 9.40164 8.42279 9.4827 8.47475 9.22164C8.47475 9.22164 8.54306 4.65471 8.50884 4.57269C8.50884 4.57269 8.5783 3.92094 8.54306 3.85642C8.54306 3.85642 8.5257 3.70809 8.2342 3.83784C8.2342 3.83784 8.26766 3.96963 6.63043 3.92094C6.63043 3.92094 6.0094 3.90403 5.97518 4.16449Z" fill="white"/>
<path d="M5.4425 5.67323L5.28648 5.98453C5.28648 5.98453 4.90867 7.566 4.70221 7.89157C4.70221 7.89157 4.66748 8.21883 4.37433 7.95717C4.37433 7.95717 3.70122 5.95119 3.667 5.8856L3.44267 5.73882C3.44267 5.73882 3.30668 5.55942 3.54672 5.54348L4.1846 5.55942C4.1846 5.55942 4.39106 5.72191 4.11578 5.90347C4.11578 5.90347 4.15 6.16405 4.51197 7.1578C4.51197 7.1578 4.61489 7.53314 4.7358 7.25565L5.08104 6.09725L4.97749 5.75477C4.97749 5.75477 4.87344 5.59168 5.02958 5.57585C5.02958 5.57585 5.39168 5.54347 5.4425 5.67323Z" fill="#1D2133"/>
<path d="M6.44355 5.93491L6.42505 7.66412L6.37473 7.79435C6.37473 7.79435 6.20186 8.00564 6.32213 8.02255C6.32213 8.02255 6.16827 8.121 7.42502 8.13683C7.42502 8.13683 7.90904 8.21789 7.78763 7.63078C7.78763 7.63078 7.73617 7.41888 7.56266 7.72923C7.56266 7.72923 7.51121 7.98909 6.89183 7.90815C6.89183 7.90815 6.75356 7.79435 6.75356 7.66412V6.94569C6.75356 6.94569 6.73518 6.76558 7.02884 6.78416C7.02884 6.78416 7.3562 6.97903 7.40829 6.8964C7.40829 6.8964 7.52857 6.63642 7.40829 6.47286C7.40829 6.47286 7.25266 6.45751 7.23593 6.52262C7.23593 6.52262 7.13238 6.71737 6.83923 6.60309C6.83923 6.60309 6.70159 6.34263 6.78765 6.13025C6.78765 6.13025 6.75356 5.72217 7.04683 5.75539C7.04683 5.75539 7.39144 5.82003 7.42502 5.91908C7.42502 5.91908 7.51121 6.1155 7.59853 5.88682L7.51121 5.60825C7.51121 5.60825 7.46089 5.49385 7.37408 5.52671C7.37408 5.52671 6.78765 5.60825 6.71782 5.54206L6.25217 5.59182C6.25217 5.59182 6.18399 5.75539 6.39159 5.83598C6.39159 5.83598 6.44355 5.86931 6.44355 5.93491Z" fill="#1D2133"/>
</svg>
