<svg width="101" height="25" viewBox="0 0 101 25" fill="none" xmlns="http://www.w3.org/2000/svg">
<mask id="mask0_495_49099" style="mask-type:luminance" maskUnits="userSpaceOnUse" x="0" y="0" width="101" height="25">
<path d="M0 7.62939e-06H101V25H0V7.62939e-06Z" fill="white"/>
</mask>
<g mask="url(#mask0_495_49099)">
<path d="M41.3168 16.929C41.3168 16.736 41.1838 16.5932 40.9121 16.5376V16.4128C41.0625 16.4128 41.5635 16.4318 41.7045 16.4318C41.8264 16.4318 42.3115 16.4128 42.4625 16.4128V16.5376C42.2103 16.5842 42.0778 16.725 42.0778 16.929V19.3787C42.0778 20.1544 42.5281 20.5929 43.4698 20.5929C44.2813 20.5929 44.9127 20.2481 44.9127 19.4363V16.9195C44.9127 16.7375 44.7919 16.5932 44.4879 16.5376V16.4128C44.5985 16.4128 45.0127 16.4318 45.1542 16.4318C45.275 16.4318 45.7098 16.4128 45.821 16.4128V16.5376C45.5276 16.6038 45.3972 16.728 45.3972 16.9195V19.3014C45.3972 20.3704 44.7399 20.9844 43.3216 20.9844C42.0011 20.9844 41.3168 20.4165 41.3168 19.4121V16.929Z" fill="#1D1D1B"/>
<path d="M46.9812 20.7924C47.2884 20.7383 47.4097 20.5911 47.4097 20.4106V17.0248C47.4097 16.7376 47.2481 16.6085 46.9727 16.5373V16.4124C47.1285 16.4234 47.39 16.4299 47.5236 16.4299C47.6448 16.4299 47.8334 16.428 47.9605 16.4124L51.0643 19.8654V16.9196C51.0643 16.7381 50.9425 16.5938 50.6396 16.5373V16.4124C50.7508 16.4124 51.1502 16.4319 51.2921 16.4319C51.4156 16.4319 51.8435 16.4124 51.9563 16.4124V16.5373C51.6602 16.6033 51.5173 16.7287 51.5173 16.9196V20.9844H51.3303C51.2126 20.9588 50.9901 20.8391 50.6512 20.4873L47.8742 17.4267V20.4106C47.8742 20.592 47.9848 20.7358 48.2879 20.7924V20.9177C48.1767 20.9177 47.7773 20.8978 47.6354 20.8978C47.513 20.8978 47.0939 20.9177 46.9812 20.9177V20.7924Z" fill="#1D1D1B"/>
<path d="M71.4726 19.8803H71.604C71.6734 20.1333 71.8264 20.3639 72.0409 20.4972C72.264 20.646 72.6141 20.7172 72.8969 20.7172C73.5213 20.7172 73.9171 20.4245 73.9171 19.9614C73.9171 19.4818 73.4101 19.2328 72.8027 18.9456C72.3508 18.7317 71.4631 18.3784 71.4631 17.5665C71.4631 16.8102 72.0728 16.3397 73.0479 16.3397C73.6914 16.3397 73.9934 16.4885 74.4277 16.4694L74.4193 17.387H74.2867C74.113 16.8463 73.594 16.6578 73.0256 16.6578C72.39 16.6578 72.1522 17.0018 72.1522 17.3515C72.1522 17.8522 72.6701 18.1046 73.257 18.3523C73.9171 18.6304 74.6332 18.9817 74.6332 19.764C74.6332 20.5047 74.0209 21.041 72.9017 21.041C72.2358 21.041 71.8365 20.8611 71.4864 20.8204L71.4726 19.8803Z" fill="#1D1D1B"/>
<path d="M84.8111 19.0541L83.5473 17.1358C83.3318 16.799 83.1666 16.6215 82.926 16.5374V16.413C83.0993 16.413 83.567 16.4326 83.6998 16.4326C83.82 16.4326 84.3249 16.413 84.5071 16.413V16.5374C84.3455 16.5644 84.2698 16.641 84.2698 16.7564C84.2698 16.8581 84.343 16.9889 84.4165 17.1027C84.4886 17.2154 85.3483 18.5646 85.3483 18.5646L86.2459 17.1032C86.3366 16.9568 86.4007 16.8115 86.4007 16.7157C86.4007 16.6285 86.3354 16.5563 86.1824 16.5374V16.413C86.3344 16.413 86.6538 16.4326 86.7555 16.4326C86.8573 16.4326 87.2242 16.413 87.3752 16.413V16.5289C87.0299 16.6627 86.8143 16.9493 86.6051 17.2816L85.4563 19.0983M85.5346 18.8692V20.4017C85.5346 20.5536 85.657 20.7445 85.9334 20.7925V20.918C85.7793 20.918 85.2762 20.8979 85.1306 20.8979C85.0082 20.8979 84.5256 20.918 84.3514 20.918V20.7925C84.6289 20.7445 84.7619 20.5536 84.7619 20.4017V18.9364" fill="#1D1D1B"/>
<path d="M61.3285 16.414H64.2919C64.3836 16.414 64.5441 16.404 64.6356 16.3665H64.7682L64.7474 17.2775H64.6161C64.5033 16.9909 64.3862 16.7614 63.8126 16.7614H62.526V18.349H63.5176C63.6622 18.349 63.8375 18.3374 63.9133 18.3204C64.1362 18.2743 64.2343 18.157 64.2793 17.9772H64.4116C64.4022 18.1144 64.4022 18.4277 64.4022 18.5204C64.4022 18.6136 64.4116 18.9434 64.4116 19.0927H64.2793C64.2156 18.9133 64.1289 18.777 63.9133 18.7269C63.8375 18.7078 63.6591 18.6923 63.5176 18.6923H62.526V20.5546H63.9254C64.5367 20.5546 64.7142 20.3135 64.8661 19.9728L64.997 20.0017L64.8661 20.9375C64.4116 20.8994 64.139 20.8994 63.623 20.8994H62.1442C62.0017 20.8994 61.4789 20.919 61.3269 20.919V20.7941C61.5938 20.746 61.7497 20.6211 61.7497 20.3791V16.9348C61.7497 16.7213 61.6283 16.5879 61.3285 16.5404V16.414Z" fill="#1D1D1B"/>
<path d="M53.7596 16.9583C53.7596 16.7273 53.614 16.6 53.3285 16.5418V16.4181C53.4874 16.4181 54.0019 16.437 54.1517 16.437C54.2772 16.437 54.8059 16.4181 54.9669 16.4181V16.5418C54.6829 16.6 54.534 16.7151 54.534 16.9583V20.3787C54.534 20.6097 54.6803 20.7354 54.9669 20.7925V20.918C54.8064 20.918 54.2994 20.8983 54.1517 20.8983C54.0239 20.8983 53.4874 20.918 53.328 20.918V20.7925C53.6199 20.741 53.7596 20.6202 53.7596 20.3787V16.9583Z" fill="#1D1D1B"/>
<path d="M76.2401 16.9583C76.2401 16.7273 76.0928 16.6 75.8079 16.5418V16.4181C75.9668 16.4181 76.4816 16.437 76.6304 16.437C76.757 16.437 77.2856 16.4181 77.4461 16.4181V16.5418C77.1623 16.6 77.0139 16.7151 77.0139 16.9583V20.3787C77.0139 20.6097 77.1601 20.7354 77.4461 20.7925V20.918C77.2867 20.918 76.7803 20.8983 76.6304 20.8983C76.5049 20.8983 75.9668 20.918 75.8079 20.918V20.7925C76.0991 20.741 76.2401 20.6202 76.2401 20.3787V16.9583Z" fill="#1D1D1B"/>
<path d="M80.3592 16.4321C78.7347 16.4321 78.4748 16.4035 78.1426 16.3839L78.1453 17.3121H78.2777C78.399 16.9006 78.641 16.8049 78.9546 16.8049H79.9737V20.3787C79.9737 20.6201 79.8339 20.741 79.5415 20.7925V20.918C79.7019 20.918 80.2432 20.8983 80.3682 20.8983C80.5171 20.8983 81.0257 20.918 81.184 20.918V20.7925C80.8968 20.7354 80.7513 20.6097 80.7513 20.3787V16.8049H81.7623C82.0875 16.8049 82.3201 16.9097 82.4413 17.3121H82.5722L82.5743 16.3839C82.2443 16.4035 81.9843 16.4321 80.3592 16.4321Z" fill="#1D1D1B"/>
<path d="M67.3964 20.3792C67.3964 20.6102 67.5516 20.7355 67.8382 20.793V20.9184C67.6792 20.9184 67.1596 20.8988 67.0113 20.8988C66.8842 20.8988 66.3768 20.9184 66.2169 20.9184V20.793C66.4828 20.745 66.6394 20.6207 66.6394 20.3792V16.9238C66.6394 16.7113 66.5172 16.5775 66.218 16.5294V16.4051C66.3768 16.4051 66.8794 16.424 67.0214 16.424C67.254 16.424 67.9149 16.387 68.175 16.387C69.3138 16.387 69.9478 16.8325 69.9478 17.5962C69.9478 18.1966 69.4759 18.6026 68.7491 18.7685C68.7491 18.7685 68.915 18.8596 69.0802 19.0416C69.281 19.2655 69.8233 20.0019 70.0483 20.2593C70.273 20.5175 70.5606 20.8056 70.8688 20.8187V20.9194C70.7211 20.9499 70.4843 20.9766 70.3032 20.9766C69.9165 20.9766 69.6078 20.8473 69.308 20.504C69.0485 20.2053 68.6084 19.5854 68.3492 19.2721C68.1836 19.0727 67.9827 18.9168 67.6151 18.8596C67.5441 18.8481 67.4769 18.8386 67.3964 18.8296V20.3792ZM67.3964 18.5429C67.548 18.5624 67.7709 18.5715 67.9912 18.5715C68.8827 18.5715 69.1635 18.0864 69.1635 17.657C69.1635 17.0496 68.7348 16.6732 67.9547 16.6732C67.7932 16.6732 67.559 16.6922 67.3964 16.7212V18.5429Z" fill="#1D1D1B"/>
<path d="M56.1087 16.9726C56.0049 16.7551 55.8455 16.5957 55.5737 16.5392V16.4123C55.7426 16.4123 56.328 16.4324 56.4566 16.4324C56.5749 16.4324 57.0864 16.4123 57.2602 16.4123V16.5355C57.106 16.5636 56.9302 16.6443 56.9302 16.7937C56.9302 16.9004 56.9985 17.0458 57.1294 17.3194L58.356 19.9604L59.5171 17.3149C59.6087 17.1014 59.675 16.936 59.675 16.8097C59.675 16.6699 59.5388 16.5731 59.3459 16.5355V16.4123C59.5002 16.4123 59.8783 16.4324 59.9959 16.4324C60.1034 16.4324 60.5473 16.4123 60.7168 16.4123V16.5392C60.427 16.6133 60.2506 16.7641 60.088 17.1215L58.3793 20.9336H57.9926L56.1087 16.9726Z" fill="#1D1D1B"/>
<path d="M60.4896 4.94926C60.2921 4.53676 59.9891 4.23607 59.4758 4.12835V3.88828C59.7952 3.88828 60.8556 3.92438 61.0992 3.92438C61.3238 3.92438 62.3509 3.88828 62.6781 3.88828V4.12234C62.3878 4.17603 62.0542 4.32938 62.0542 4.61247C62.0542 4.81236 62.1856 5.08865 62.4292 5.60625L64.756 10.6112L66.9578 5.59774C67.1294 5.19183 67.2576 4.8816 67.2576 4.64153C67.2576 4.3749 66.997 4.19407 66.6321 4.12234V3.88828C66.9233 3.88828 67.6315 3.92438 67.8566 3.92438C68.0611 3.92438 68.9022 3.88828 69.2222 3.88828V4.11485C68.6734 4.25571 68.3376 4.5539 68.032 5.23087L64.7952 12.457H64.0627L60.4896 4.94926Z" fill="#1D1D1B"/>
<path d="M29.1584 12.1835C29.5811 12.0922 29.8783 11.9104 29.8783 11.4574V4.83257C29.8783 4.3976 29.6017 4.21712 29.1584 4.10792V3.87284C29.3804 3.87284 30.3364 3.90848 30.5689 3.90848C30.8369 3.90848 31.839 3.87284 32.0594 3.87284V4.10792C31.6372 4.19862 31.3242 4.38 31.3242 4.83257V7.59994H36.5403V4.83257C36.5403 4.38 36.2622 4.19862 35.8216 4.10792V3.87284C36.0419 3.87284 37.0261 3.90848 37.2935 3.90848C37.5244 3.90848 38.5028 3.87284 38.7209 3.87284V4.10792C38.2983 4.19862 37.9852 4.38 37.9852 4.83257V11.4574C37.9852 11.8923 38.2791 12.0747 38.7209 12.1835V12.4004C38.5028 12.4004 37.5244 12.3825 37.2935 12.3825C37.0261 12.3825 36.0419 12.4004 35.8216 12.4004V12.1835C36.2411 12.0922 36.5403 11.9104 36.5403 11.4574V8.32652H31.3242V11.4574C31.3242 11.9104 31.6177 12.0747 32.0594 12.1835V12.4004C31.839 12.4004 30.8369 12.3825 30.5689 12.3825C30.3364 12.3825 29.3804 12.4004 29.1584 12.4004V12.1835Z" fill="#1D1D1B"/>
<path d="M89.4923 12.183C90.0336 12.0917 90.3318 11.8883 90.3318 11.4208V4.83207C90.3318 4.37803 90.0378 4.19811 89.5146 4.10742V3.87234C89.8159 3.87234 90.7968 3.90798 91.0686 3.90798C91.5072 3.90798 92.7306 3.81729 93.683 3.81729C96.8917 3.81729 98.8397 5.51267 98.8397 8.0906C98.8397 10.5963 96.8128 12.4531 93.5044 12.4531C92.5505 12.4531 91.4192 12.382 90.9764 12.382C90.7073 12.382 89.7926 12.4179 89.4923 12.4179V12.183ZM91.7767 11.7464C92.1035 11.8026 92.7073 11.8377 93.1835 11.8377C95.8789 11.8377 97.2821 10.3027 97.2821 8.16177C97.2821 5.94219 95.8017 4.38052 93.2815 4.38052C92.7666 4.38052 92.1232 4.41707 91.7767 4.47031V11.7464Z" fill="#1D1D1B"/>
<path d="M53.1728 11.3965C53.1728 11.8355 53.4667 12.074 54.0075 12.1827V12.4178C53.7062 12.4178 52.7247 12.3817 52.4424 12.3817C52.2041 12.3817 51.2411 12.4178 50.9403 12.4178V12.1827C51.4424 12.0916 51.7385 11.855 51.7385 11.3965V4.85499C51.7385 4.45248 51.5086 4.19799 50.9413 4.10719V3.87211C51.2427 3.87211 52.194 3.90775 52.4609 3.90775C52.9021 3.90775 54.1533 3.83817 54.6468 3.83817C56.8047 3.83817 58.006 4.68257 58.006 6.12687C58.006 7.26549 57.1098 8.03168 55.7344 8.34792C55.7344 8.34792 56.0463 8.51989 56.3602 8.86609C56.7411 9.2896 57.7921 10.7129 58.2169 11.2004C58.6415 11.6886 59.1866 12.2338 59.7692 12.2589V12.451C59.4901 12.5079 59.0431 12.5566 58.7014 12.5566C57.9658 12.5566 57.3815 12.313 56.8132 11.6615C56.3233 11.0962 55.4662 9.89449 54.9752 9.30118C54.6617 8.92319 54.2836 8.62863 53.5892 8.51989C53.4524 8.49775 53.3238 8.48073 53.1728 8.46472V11.3965ZM53.1728 7.92203C53.4583 7.95756 53.8804 7.97561 54.2989 7.97561C55.9864 7.97561 56.5165 7.05652 56.5165 6.24458C56.5165 5.09154 55.7051 4.38029 54.2268 4.38029C53.9222 4.38029 53.4785 4.41696 53.1728 4.47008V7.92203Z" fill="#1D1D1B"/>
<path d="M81.6136 11.3965C81.6136 11.8355 81.9086 12.074 82.45 12.1827V12.4178C82.1491 12.4178 81.1686 12.3817 80.8864 12.3817C80.6438 12.3817 79.684 12.4178 79.3821 12.4178V12.1827C79.8832 12.0916 80.1799 11.855 80.1799 11.3965V4.85499C80.1799 4.45248 79.9478 4.19799 79.3838 4.10719V3.87211C79.6862 3.87211 80.6343 3.90775 80.9034 3.90775C81.3456 3.90775 82.596 3.83817 83.0866 3.83817C85.2482 3.83817 86.4457 4.68257 86.4457 6.12687C86.4457 7.26549 85.5517 8.03168 84.1752 8.34792C84.1752 8.34792 84.4886 8.51989 84.8001 8.86609C85.1846 9.2896 86.2354 10.7129 86.6586 11.2004C87.085 11.6886 87.63 12.2338 88.2095 12.2589V12.451C87.9341 12.5079 87.4845 12.5566 87.1464 12.5566C86.4092 12.5566 85.8223 12.313 85.2555 11.6615C84.7655 11.0962 83.9112 9.89449 83.416 9.30118C83.1024 8.92319 82.7255 8.62863 82.0325 8.51989C81.8939 8.49775 81.7666 8.48073 81.6136 8.46472V11.3965ZM81.6136 7.92203C81.9027 7.95756 82.3223 7.97561 82.7412 7.97561C84.4294 7.97561 84.958 7.05652 84.958 6.24458C84.958 5.09154 84.1459 4.38029 82.6704 4.38029C82.363 4.38029 81.9213 4.41696 81.6136 4.47008V7.92203Z" fill="#1D1D1B"/>
<path d="M40.0933 12.1813C40.6642 12.0551 40.9778 11.7053 41.1859 11.2371L44.0748 4.6606C44.1976 4.38852 44.3406 3.82914 44.3406 3.82914H45.149C45.149 3.82914 45.2935 4.38999 45.4137 4.66265L48.4667 11.2552C48.6844 11.7092 48.92 12.037 49.5271 12.1813L49.5255 12.4004C49.195 12.4004 48.1675 12.3823 47.9338 12.3823C47.7013 12.3823 46.7198 12.4004 46.3899 12.4004L46.391 12.1813C46.8353 12.0781 46.9757 11.8642 46.9757 11.6571C46.9757 11.4813 46.8989 11.2828 46.8057 11.0769L46.1494 9.66049H42.7855L42.1844 11.0848C42.1171 11.2462 42.0371 11.4743 42.0371 11.6281C42.0371 11.8656 42.1685 12.0551 42.6727 12.1813L42.6716 12.4004C42.3729 12.4004 41.5842 12.3823 41.3995 12.3823L40.0928 12.4004L40.0933 12.1813ZM45.8449 8.98896L44.4084 5.82226L43.0705 8.98896H45.8449Z" fill="#1D1D1B"/>
<path d="M68.7125 12.1813C69.2831 12.0551 69.5976 11.7053 69.8047 11.2371L72.6945 4.6606C72.8175 4.38852 72.962 3.82914 72.962 3.82914H73.7702C73.7702 3.82914 73.9134 4.38999 74.0331 4.66265L77.0871 11.2552C77.3031 11.7092 77.541 12.037 78.1454 12.1813L78.1443 12.4004C77.8149 12.4004 76.7862 12.3823 76.551 12.3823C76.3206 12.3823 75.3397 12.4004 75.0092 12.4004V12.1813C75.4563 12.0781 75.5945 11.8642 75.5945 11.6571C75.5945 11.4813 75.5187 11.2828 75.4271 11.0769L74.7683 9.66049H71.4042L70.8026 11.0848C70.7353 11.2462 70.6559 11.4743 70.6559 11.6281C70.6559 11.8656 70.7872 12.0551 71.2915 12.1813V12.4004C70.9917 12.4004 70.2042 12.3823 70.0182 12.3823L68.7114 12.4004L68.7125 12.1813ZM74.4641 8.98896L73.0267 5.82226L71.6898 8.98896H74.4641Z" fill="#1D1D1B"/>
<path d="M2.48779 1.21353H22.6298V8.41255C22.6298 11.711 21.3321 18.7061 12.634 23.9121C12.634 23.9121 3.20916 20.188 2.48779 8.41255L2.48779 1.21353Z" fill="#A81D28"/>
<path d="M2.44653 1.19416H22.6081V8.39818C22.6081 11.6978 21.3089 18.6967 12.6028 23.9062C12.6028 23.9062 3.16898 20.1797 2.44653 8.39818L2.44653 1.19416Z" stroke="#12110C" stroke-width="0.306667"/>
<path d="M17.733 10.4629C17.733 10.4629 17.5535 11.0046 16.7548 10.4478L14.0127 10.3851C14.0127 10.3851 13.6536 10.4944 13.6048 10.139C13.6048 10.139 13.6706 9.42904 13.6372 9.36684C13.6372 9.36684 13.6536 9.16638 13.2934 9.16638C13.2934 9.16638 12.7394 9.22801 12.7229 8.76398C12.7229 8.76398 12.6261 8.26988 13.3925 8.28634C13.3925 8.28634 13.6372 8.39406 13.6536 8.09995C13.6536 8.09995 13.6214 6.09185 13.6372 5.9385C13.6372 5.9385 13.7028 5.75404 13.3267 5.72249C13.3267 5.72249 12.7887 5.83021 12.7229 5.49149C12.7229 5.49149 12.6907 4.98183 13.0503 4.95028C13.0503 4.95028 13.4905 4.98183 13.5719 4.87309C13.5719 4.87309 13.6706 4.93416 13.6536 4.56537L13.6706 3.93084C13.6706 3.93084 13.7177 3.76149 13.9958 3.77806C13.9958 3.77806 14.5021 3.8086 14.5683 3.76149C14.5683 3.76149 14.6812 3.62323 14.7145 3.56046C14.7145 3.56046 14.9762 3.54548 15.0244 3.60757C15.0244 3.60757 15.4163 3.85468 16.9014 3.76149C16.9014 3.76149 17.1303 3.76149 17.178 3.82369C17.178 3.82369 17.4565 4.02404 17.6192 3.80859C17.6192 3.80859 17.8639 3.76149 18.598 3.77806C18.598 3.77806 19.3988 3.97795 19.9523 3.54548L20.1324 3.57658C20.1324 3.57658 20.3607 3.93084 20.5239 3.82369C20.5239 3.82369 21.0138 3.77806 21.0948 3.87023C21.0948 3.87023 21.2575 4.10032 21.1764 4.70464C21.1764 4.70464 21.0796 4.96628 21.5525 4.96628C21.5525 4.96628 22.0917 4.87309 22.0254 5.35165C22.0254 5.35165 22.1721 5.89241 21.2755 5.81568C21.2755 5.81568 21.1605 5.97005 21.1764 6.07834C21.1764 6.07834 21.1605 7.83786 21.1441 8.03979C21.1441 8.03979 21.1281 8.318 21.5191 8.30189C21.5191 8.30189 22.0419 8.26988 22.0593 8.71835C22.0593 8.71835 22.124 9.3052 21.3724 9.19646C21.3724 9.19646 21.1441 9.22801 21.1101 9.36684L21.0796 10.139C21.0796 10.139 21.0948 10.525 20.6388 10.4318C20.5736 10.4318 18.0932 10.4795 17.8804 10.4178C17.8804 10.4178 17.7648 10.4023 17.733 10.4629Z" fill="white"/>
<path d="M12.4614 13.0453C12.4614 13.0453 12.5759 12.9997 12.6081 12.9235C12.6081 12.9235 12.9514 12.8918 12.9995 12.8459L14.0774 12.9235C14.0774 12.9235 15.1378 12.9997 15.5949 12.6895C15.5949 12.6895 15.7591 12.6895 15.8734 12.7366C15.8734 12.7366 16.1007 12.7837 16.1658 12.8749L16.7866 12.8594C16.7866 12.8594 17.1457 12.9686 17.1124 13.185V13.4622C17.1124 13.4622 17.0467 14.0185 17.2099 14.0501H17.6844C17.6844 14.0501 18.0764 14.2196 18.0271 14.4355C18.0271 14.4355 18.0435 14.7432 17.7014 14.8058C17.7014 14.8058 17.3571 14.898 17.2442 14.8835C17.2442 14.8835 17.1293 15.0219 17.1124 15.1917L17.0647 17.2149C17.0647 17.2149 17.0314 17.4309 17.3746 17.4002C17.3746 17.4002 17.8793 17.3537 18.0271 17.6173C18.0271 17.6173 18.1579 18.0643 17.8968 18.1415L17.7014 18.2332L17.276 18.2974C17.276 18.2974 17.0976 18.3114 17.0806 18.6046V19.1442C17.0806 19.1442 17.0976 19.5162 16.7866 19.5162L16.3296 19.5472C16.3296 19.5472 16.2156 19.6384 15.9874 19.5768C15.9874 19.5768 13.2124 19.6243 13.1144 19.5929L12.7877 19.6554C12.7877 19.6554 12.429 19.9642 12.1351 19.7316L11.9068 19.5617C11.9068 19.5617 11.7432 19.5929 11.6791 19.5768C11.6135 19.5617 8.61021 19.6083 8.61021 19.6083C8.61021 19.6083 7.97354 19.671 7.92531 19.4691C7.92531 19.4691 7.84385 18.6822 7.87612 18.588C7.87612 18.588 7.87612 18.3575 7.7294 18.3425C7.7294 18.3425 7.09273 18.3114 7.0763 18.2487C7.0763 18.2487 6.73307 18.0183 6.83108 17.7871C6.83108 17.7871 6.94601 17.477 7.28816 17.4463C7.28816 17.4463 7.81038 17.5245 7.81038 17.3852C7.81038 17.3852 7.84385 17.2925 7.84385 17.1387C7.84385 17.1387 7.87612 15.3 7.85969 15.1767C7.85969 15.1767 7.90839 14.9451 7.69605 14.9451C7.69605 14.9451 7.46775 15.0063 7.32151 14.9141C7.32151 14.9141 6.92957 14.9297 6.848 14.6359C6.848 14.6359 6.78237 14.451 6.87979 14.2952C6.87979 14.2952 7.05998 13.9559 7.5822 14.0645C7.5822 14.0645 7.87612 14.1423 7.90839 13.9423L7.89304 13.1996C7.89304 13.1996 7.82682 12.9997 8.23519 12.8918C8.23519 12.8918 8.75741 13.0302 8.92009 12.7837C8.92009 12.7837 9.10016 12.4428 9.24532 12.6745C9.24532 12.6745 9.55676 12.9531 10.4053 12.9235C10.4053 12.9235 11.8745 12.8143 11.9068 12.8749C11.9068 12.8749 12.266 12.9235 12.3634 13.0302L12.4614 13.0453Z" fill="white"/>
<path d="M8.02448 10.463C8.02448 10.463 7.84441 11.0047 7.0447 10.4475L4.30307 10.3853C4.30307 10.3853 3.944 10.4946 3.89469 10.1388C3.89469 10.1388 3.96044 9.42917 3.92649 9.36697C3.92649 9.36697 3.944 9.16549 3.58434 9.16549C3.58434 9.16549 3.03032 9.2286 3.01437 8.76514C3.01437 8.76514 2.91587 8.26944 3.68283 8.28647C3.68283 8.28647 3.92649 8.39419 3.944 8.10065C3.944 8.10065 3.91113 6.09345 3.92649 5.93817C3.92649 5.93817 3.99319 5.75474 3.61769 5.72307C3.61769 5.72307 3.07843 5.83034 3.01437 5.4906C3.01437 5.4906 2.98102 4.98196 3.3396 4.95041C3.3396 4.95041 3.78036 4.98196 3.86242 4.87515C3.86242 4.87515 3.96044 4.93486 3.944 4.56391L3.96044 3.93154C3.96044 3.93154 4.00962 3.76162 4.28555 3.77717C4.28555 3.77717 4.79302 3.8077 4.85864 3.76162C4.85864 3.76162 4.97261 3.62336 5.0038 3.56059C5.0038 3.56059 5.26653 3.54606 5.31524 3.60622C5.31524 3.60622 5.70609 3.85481 7.19286 3.76162C7.19286 3.76162 7.42008 3.76162 7.46939 3.82382C7.46939 3.82382 7.74639 4.02417 7.90955 3.8077C7.90955 3.8077 8.15428 3.76162 8.88933 3.77717C8.88933 3.77717 9.6876 3.97763 10.2433 3.54606L10.4223 3.57773C10.4223 3.57773 10.6506 3.93154 10.8153 3.82382C10.8153 3.82382 11.3042 3.77717 11.3862 3.87036C11.3862 3.87036 11.5499 4.10192 11.4667 4.70477C11.4667 4.70477 11.3698 4.96687 11.8428 4.96687C11.8428 4.96687 12.3809 4.87515 12.3163 5.35178C12.3163 5.35178 12.4635 5.89254 11.5658 5.81581C11.5658 5.81581 11.4509 5.97064 11.4667 6.07847C11.4667 6.07847 11.4509 7.83799 11.4349 8.03992C11.4349 8.03992 11.4191 8.31609 11.8106 8.30202C11.8106 8.30202 12.3328 8.26944 12.3486 8.71905C12.3486 8.71905 12.4138 9.30533 11.6637 9.19659C11.6637 9.19659 11.4349 9.2286 11.4016 9.36697L11.3698 10.1388C11.3698 10.1388 11.3862 10.5251 10.9281 10.4329C10.8629 10.4329 8.38366 10.4786 8.1706 10.418C8.1706 10.418 8.05675 10.4024 8.02448 10.463Z" fill="white"/>
<path d="M17.733 10.4629C17.733 10.4629 17.5535 11.0046 16.7548 10.4478L14.0127 10.3851C14.0127 10.3851 13.6536 10.4944 13.6048 10.139C13.6048 10.139 13.6706 9.42904 13.6372 9.36684C13.6372 9.36684 13.6536 9.16638 13.2934 9.16638C13.2934 9.16638 12.7394 9.22801 12.7229 8.76398C12.7229 8.76398 12.6261 8.26988 13.3925 8.28634C13.3925 8.28634 13.6372 8.39406 13.6536 8.09995C13.6536 8.09995 13.6214 6.09185 13.6372 5.9385C13.6372 5.9385 13.7028 5.75404 13.3267 5.72249C13.3267 5.72249 12.7887 5.83021 12.7229 5.49149C12.7229 5.49149 12.6907 4.98183 13.0503 4.95028C13.0503 4.95028 13.4905 4.98183 13.5719 4.87309C13.5719 4.87309 13.6706 4.93416 13.6536 4.56537L13.6706 3.93084C13.6706 3.93084 13.7177 3.76149 13.9958 3.77806C13.9958 3.77806 14.5021 3.8086 14.5683 3.76149C14.5683 3.76149 14.6812 3.62323 14.7145 3.56046C14.7145 3.56046 14.9762 3.54548 15.0244 3.60757C15.0244 3.60757 15.4163 3.85468 16.9014 3.76149C16.9014 3.76149 17.1303 3.76149 17.178 3.82369C17.178 3.82369 17.4565 4.02404 17.6192 3.80859C17.6192 3.80859 17.8639 3.76149 18.598 3.77806C18.598 3.77806 19.3988 3.97795 19.9523 3.54548L20.1324 3.57658C20.1324 3.57658 20.3607 3.93084 20.5239 3.82369C20.5239 3.82369 21.0138 3.77806 21.0948 3.87023C21.0948 3.87023 21.2575 4.10032 21.1764 4.70464C21.1764 4.70464 21.0796 4.96628 21.5525 4.96628C21.5525 4.96628 22.0917 4.87309 22.0254 5.35165C22.0254 5.35165 22.1721 5.89241 21.2755 5.81568C21.2755 5.81568 21.1605 5.97005 21.1764 6.07834C21.1764 6.07834 21.1605 7.83786 21.1441 8.03979C21.1441 8.03979 21.1281 8.318 21.5191 8.30189C21.5191 8.30189 22.0419 8.26988 22.0593 8.71835C22.0593 8.71835 22.124 9.3052 21.3724 9.19646C21.3724 9.19646 21.1441 9.22801 21.1101 9.36684L21.0796 10.139C21.0796 10.139 21.0948 10.525 20.6388 10.4318C20.5736 10.4318 18.0932 10.4795 17.8804 10.4178C17.8804 10.4178 17.7648 10.4023 17.733 10.4629Z" fill="#12110C"/>
<path d="M17.733 10.4648C17.733 10.4648 17.5535 11.0065 16.7548 10.4498L14.0121 10.3871C14.0121 10.3871 13.6531 10.4963 13.6043 10.1406C13.6043 10.1406 13.6706 9.43046 13.6366 9.36825C13.6366 9.36825 13.6531 9.16779 13.2934 9.16779C13.2934 9.16779 12.7389 9.23 12.7225 8.76585C12.7225 8.76585 12.6255 8.27175 13.3919 8.28775C13.3919 8.28775 13.6366 8.39559 13.6531 8.10193C13.6531 8.10193 13.6208 6.09372 13.6366 5.93991C13.6366 5.93991 13.7028 5.755 13.3267 5.7239C13.3267 5.7239 12.7881 5.83174 12.7225 5.49291C12.7225 5.49291 12.6907 4.98268 13.0497 4.95169C13.0497 4.95169 13.4899 4.98268 13.5716 4.87451C13.5716 4.87451 13.6706 4.93557 13.6531 4.56621L13.6706 3.93181C13.6706 3.93181 13.7171 3.76245 13.9963 3.77902C13.9963 3.77902 14.5021 3.80956 14.5678 3.76245C14.5678 3.76245 14.6807 3.62465 14.7145 3.56188C14.7145 3.56188 14.9757 3.54644 15.0244 3.60864C15.0244 3.60864 15.4159 3.85564 16.9014 3.76245C16.9014 3.76245 17.1303 3.76245 17.178 3.82454C17.178 3.82454 17.4565 4.025 17.6192 3.80956C17.6192 3.80956 17.8639 3.76245 18.598 3.77902C18.598 3.77902 19.3988 3.97891 19.9528 3.54644L20.133 3.57697C20.133 3.57697 20.3612 3.93181 20.5239 3.82454C20.5239 3.82454 21.0138 3.77902 21.0948 3.87062C21.0948 3.87062 21.258 4.10173 21.177 4.70504C21.177 4.70504 21.0796 4.9677 21.553 4.9677C21.553 4.9677 22.0917 4.87451 22.0254 5.35261C22.0254 5.35261 22.1721 5.89383 21.2755 5.81664C21.2755 5.81664 21.161 5.97101 21.177 6.07975C21.177 6.07975 21.161 7.83927 21.1446 8.04075C21.1446 8.04075 21.1281 8.31885 21.5196 8.30387C21.5196 8.30387 22.0429 8.27175 22.0598 8.71977C22.0598 8.71977 22.124 9.30662 21.3729 9.19787C21.3729 9.19787 21.1446 9.23 21.1108 9.36825L21.0796 10.1406C21.0796 10.1406 21.0948 10.527 20.6394 10.4338C20.5743 10.4338 18.0932 10.4809 17.8804 10.4192C17.8804 10.4192 17.7648 10.4041 17.733 10.4648Z" stroke="#12110C" stroke-width="0.0133333"/>
<path d="M14.649 4.1022C14.649 4.1022 14.6812 4.41141 14.6812 4.48961C14.6812 4.56623 14.6331 8.95135 14.6331 8.95135C14.6331 8.95135 14.6812 9.29108 14.3724 9.46146C14.3724 9.46146 14.2898 9.49154 14.2744 9.27553L14.3063 4.64444C14.3063 4.64444 14.3391 4.07156 14.649 4.1022Z" fill="white"/>
<path d="M14.6494 4.10168C14.6494 4.10168 14.6812 4.41088 14.6812 4.48909C14.6812 4.56616 14.6336 8.95185 14.6336 8.95185C14.6336 8.95185 14.6812 9.29158 14.3724 9.46139C14.3724 9.46139 14.2898 9.49204 14.2733 9.27603L14.3062 4.64392C14.3062 4.64392 14.3385 4.07103 14.6494 4.10168Z" stroke="#12110C" stroke-width="0.016"/>
<path d="M14.1107 9.50699C14.1107 9.50699 14.1431 5.15252 14.1277 5.07534C14.1107 4.99917 14.1431 5.13845 14.1431 5.13845C14.1431 5.13845 14.0942 4.38066 14.3067 4.071C14.3067 4.071 14.2405 3.80993 13.8655 4.13366L13.849 4.76602C13.849 4.76602 13.849 5.12188 13.5069 5.10633C13.5069 5.10633 13.1149 5.09032 12.9354 5.26025C12.9354 5.26025 12.8375 5.60043 13.2124 5.53937C13.2124 5.53937 13.8003 5.53937 13.8332 5.76934L13.8003 8.10174C13.8003 8.10174 13.9311 8.4896 13.4746 8.4896C13.4746 8.4896 12.918 8.45657 12.9354 8.78087C12.9354 8.78087 13.0503 9.0584 13.5233 8.96668C13.5233 8.96668 13.8655 9.0273 13.849 9.33752V9.92391C13.849 9.92391 13.8162 10.1569 14.1431 10.1715H16.689C16.689 10.1715 16.8188 10.1865 16.8188 10.0321C16.8188 10.0321 16.803 9.90893 16.6075 9.90893L14.4862 9.87783C14.4862 9.87783 14.1431 9.98657 14.1107 9.50699Z" fill="white"/>
<path d="M14.6007 9.49908C14.6007 9.49908 14.535 9.71509 14.7796 9.66991H16.4609L16.9169 9.76367C16.9169 9.76367 17.3899 9.65448 16.9169 9.40782C16.9169 9.40782 15.4158 9.42189 15.2856 9.39181C15.2856 9.39181 14.9752 9.31508 14.9084 9.29964C14.9084 9.29964 14.7469 9.23801 14.6007 9.49908Z" fill="white"/>
<path d="M14.6002 9.50058C14.6002 9.50058 14.5345 9.71704 14.7792 9.67198H16.4609L16.917 9.76562C16.917 9.76562 17.3904 9.65597 16.917 9.40886C16.917 9.40886 15.4158 9.42282 15.2849 9.39331C15.2849 9.39331 14.9747 9.31613 14.9085 9.30057C14.9085 9.30057 14.7464 9.23894 14.6002 9.50058Z" stroke="#12110C" stroke-width="0.016"/>
<path d="M17.3905 9.71747C17.3905 9.71747 17.0806 9.71747 17.0965 10.1043C17.0965 10.1043 17.1293 10.3965 17.4556 10.3965C17.4556 10.3965 17.7484 10.351 17.7173 10.0422C17.7173 10.0422 17.5372 9.65629 17.3905 9.71747Z" fill="white"/>
<path d="M17.6192 9.56315C17.6192 9.56315 17.7659 9.40934 17.8644 9.40934C17.8644 9.40934 19.4964 9.5476 19.7718 9.36269C19.7718 9.36269 20.0181 9.3166 20.0837 9.36269C20.0837 9.36269 20.328 9.5476 20.328 9.65589C20.328 9.65589 20.312 9.79562 20.0181 9.7165C20.0181 9.7165 18.1738 9.73353 18.0758 9.73353C18.0758 9.73353 17.569 9.84079 17.6192 9.56315Z" fill="white"/>
<path d="M17.6187 9.56273C17.6187 9.56273 17.7655 9.40836 17.864 9.40836C17.864 9.40836 19.4964 9.54673 19.7724 9.3617C19.7724 9.3617 20.0186 9.31562 20.0843 9.3617C20.0843 9.3617 20.3285 9.54673 20.3285 9.65592C20.3285 9.65592 20.3126 9.79577 20.0186 9.71654C20.0186 9.71654 18.1734 9.73356 18.0753 9.73356C18.0753 9.73356 17.5685 9.84083 17.6187 9.56273Z" stroke="#12110C" stroke-width="0.016"/>
<path d="M17.8311 10.062C17.8311 10.062 17.8311 9.93716 18.0598 9.93716L20.3438 9.92217C20.3438 9.92217 20.5567 10.0305 20.5567 9.66053C20.5567 9.66053 20.6403 7.97729 20.6478 6.12402C20.6504 5.57224 20.6769 4.99346 20.6563 4.45712C20.6563 4.45712 20.6054 4.22511 20.5398 4.178C20.5398 4.178 20.5398 3.93146 20.8178 4.0242C20.8178 4.0242 21.0625 4.03975 20.9974 4.39605L21.0143 4.93421C21.0143 4.93421 20.9651 5.16724 21.4047 5.1047C21.4047 5.1047 21.8448 5.16724 21.8623 5.32059C21.8623 5.32059 21.9926 5.63082 21.4714 5.59926H21.0943C21.0943 5.59926 20.9318 5.69154 20.9805 5.87747L20.9318 8.11702C20.9318 8.11702 20.8989 8.50239 21.2908 8.48786C21.2908 8.48786 21.6981 8.47186 21.7802 8.5957C21.7802 8.5957 22.0593 8.98152 21.4545 8.95053C21.4545 8.95053 21.079 8.93441 20.9974 8.99707C20.9974 8.99707 20.9318 9.07369 20.8829 9.80038C20.8829 9.80038 20.9163 10.2328 20.573 10.1853C20.573 10.1853 18.3041 10.2158 18.0922 10.1703C18.0922 10.1703 17.8639 10.2328 17.8311 10.062Z" fill="white"/>
<path d="M14.8941 3.96184L14.8448 8.92018C14.8448 8.92018 14.829 9.15027 15.2369 9.19681C15.2369 9.19681 15.7098 9.24289 15.8231 9.19681C15.8231 9.19681 16.1352 9.1808 16.9333 9.21236C16.9333 9.21236 17.1303 9.39931 17.1468 9.16582C17.1468 9.16582 17.276 5.15256 17.2125 4.31667C17.2125 4.31667 17.1945 3.96184 16.918 3.94629C16.918 3.94629 15.6775 4.04107 15.5632 3.94629L15.0732 3.82404C15.0732 3.82404 14.8772 3.83903 14.8941 3.96184Z" fill="white"/>
<path d="M17.4721 4.21013C17.4721 4.21013 17.4234 6.54197 17.4397 6.61916L17.4074 8.5797L17.3412 9.25974C17.3412 9.25974 17.4397 9.39845 17.5214 9.30628C17.5214 9.30628 18.0436 9.18096 18.3698 9.22966C18.3698 9.22966 19.4154 9.32137 19.6267 9.16598C19.6267 9.16598 19.7903 9.24317 19.8381 8.99605C19.8381 8.99605 19.9026 4.67371 19.8725 4.59652C19.8725 4.59652 19.9355 3.9771 19.9026 3.91694C19.9026 3.91694 19.8884 3.77811 19.6103 3.90093C19.6103 3.90093 19.6421 4.02523 18.0928 3.9771C18.0928 3.9771 17.5054 3.962 17.4721 4.21013Z" fill="white"/>
<path d="M20.0678 4.14753L20.052 9.02619C20.052 9.02619 20.1823 9.46014 20.3942 9.41462C20.3942 9.41462 20.4259 9.32086 20.4418 9.16649L20.508 4.51792C20.508 4.51792 20.3438 3.77817 20.0678 4.14753Z" fill="white"/>
<path d="M20.0673 4.14845L20.0515 9.02813C20.0515 9.02813 20.1823 9.46219 20.3941 9.41656C20.3941 9.41656 20.4265 9.3228 20.4424 9.16843L20.508 4.51883C20.508 4.51883 20.3439 3.77909 20.0673 4.14845Z" stroke="#12110C" stroke-width="0.016"/>
<path d="M18.0636 5.60972C18.0149 5.48645 18.3411 5.4709 18.3411 5.4709L18.5048 5.50143C18.6193 5.48645 18.7336 5.53299 18.7336 5.53299C18.8476 5.70246 18.6516 5.79463 18.6516 5.79463L18.5864 5.99611C18.5695 6.16649 18.5864 7.63337 18.5864 7.63337C18.6193 7.70954 18.7496 7.84791 18.7496 7.84791C18.7496 7.98764 18.5695 7.95711 18.5695 7.95711L18.0969 7.97266C17.9497 7.95711 17.9984 7.80216 17.9984 7.80216C18.1616 7.72509 18.2109 7.44642 18.2109 7.44642V5.91847L18.0636 5.60972Z" fill="#12110C"/>
<path d="M15.8608 7.04596L15.8285 7.52452L15.9741 7.75563C16.0732 7.8789 15.9095 7.97266 15.9095 7.97266L15.3872 7.92646C15.2903 7.8789 15.3872 7.72498 15.3872 7.72498C15.5181 7.64893 15.5344 7.44688 15.5344 7.44688L15.5181 6.5514L15.5344 5.90292C15.5344 5.82516 15.4042 5.68736 15.4042 5.68736C15.2903 5.67181 15.3226 5.53299 15.3226 5.53299C15.355 5.45535 15.6314 5.50143 15.6314 5.50143H16.3178C16.9709 5.70246 16.8729 6.15037 16.8729 6.15037C16.9222 6.59748 16.4163 6.78387 16.4163 6.78387L16.3825 7.03098L16.8565 7.74007C16.9381 7.80216 16.9222 7.86482 16.9222 7.86482C16.8565 8.03475 16.5948 7.86482 16.5948 7.86482L16.0081 6.99942C15.9588 6.93722 15.8608 7.04596 15.8608 7.04596ZM15.8772 5.82516C15.893 6.16592 15.893 6.62904 15.893 6.62904C16.204 6.86105 16.3825 6.53585 16.3825 6.53585C16.7898 6.16592 16.3825 5.82516 16.3178 5.73345C16.2516 5.64025 15.9254 5.71744 15.9254 5.71744L15.8772 5.82516Z" fill="#12110C"/>
<path d="M12.4614 13.0453C12.4614 13.0453 12.5759 12.9997 12.6081 12.9235C12.6081 12.9235 12.9514 12.8918 12.9995 12.8459L14.0774 12.9235C14.0774 12.9235 15.1378 12.9997 15.5949 12.6895C15.5949 12.6895 15.7591 12.6895 15.8734 12.7366C15.8734 12.7366 16.1007 12.7837 16.1658 12.8749L16.7866 12.8594C16.7866 12.8594 17.1457 12.9686 17.1124 13.185V13.4622C17.1124 13.4622 17.0467 14.0185 17.2099 14.0501H17.6844C17.6844 14.0501 18.0764 14.2196 18.0271 14.4355C18.0271 14.4355 18.0435 14.7432 17.7014 14.8058C17.7014 14.8058 17.3571 14.898 17.2442 14.8835C17.2442 14.8835 17.1293 15.0219 17.1124 15.1917L17.0647 17.2149C17.0647 17.2149 17.0314 17.4309 17.3746 17.4002C17.3746 17.4002 17.8793 17.3537 18.0271 17.6173C18.0271 17.6173 18.1579 18.0643 17.8968 18.1415L17.7014 18.2332L17.276 18.2974C17.276 18.2974 17.0976 18.3114 17.0806 18.6046V19.1442C17.0806 19.1442 17.0976 19.5162 16.7866 19.5162L16.3296 19.5472C16.3296 19.5472 16.2156 19.6384 15.9874 19.5768C15.9874 19.5768 13.2124 19.6243 13.1144 19.5929L12.7877 19.6554C12.7877 19.6554 12.429 19.9642 12.1351 19.7316L11.9068 19.5617C11.9068 19.5617 11.7432 19.5929 11.6791 19.5768C11.6135 19.5617 8.61021 19.6083 8.61021 19.6083C8.61021 19.6083 7.97354 19.671 7.92531 19.4691C7.92531 19.4691 7.84385 18.6822 7.87612 18.588C7.87612 18.588 7.87612 18.3575 7.7294 18.3425C7.7294 18.3425 7.09273 18.3114 7.0763 18.2487C7.0763 18.2487 6.73307 18.0183 6.83108 17.7871C6.83108 17.7871 6.94601 17.477 7.28816 17.4463C7.28816 17.4463 7.81038 17.5245 7.81038 17.3852C7.81038 17.3852 7.84385 17.2925 7.84385 17.1387C7.84385 17.1387 7.87612 15.3 7.85969 15.1767C7.85969 15.1767 7.90839 14.9451 7.69605 14.9451C7.69605 14.9451 7.46775 15.0063 7.32151 14.9141C7.32151 14.9141 6.92957 14.9297 6.848 14.6359C6.848 14.6359 6.78237 14.451 6.87979 14.2952C6.87979 14.2952 7.05998 13.9559 7.5822 14.0645C7.5822 14.0645 7.87612 14.1423 7.90839 13.9423L7.89304 13.1996C7.89304 13.1996 7.82682 12.9997 8.23519 12.8918C8.23519 12.8918 8.75741 13.0302 8.92009 12.7837C8.92009 12.7837 9.10016 12.4428 9.24532 12.6745C9.24532 12.6745 9.55676 12.9531 10.4053 12.9235C10.4053 12.9235 11.8745 12.8143 11.9068 12.8749C11.9068 12.8749 12.266 12.9235 12.3634 13.0302L12.4614 13.0453Z" fill="#12110C"/>
<path d="M12.4614 13.0275C12.4614 13.0275 12.5746 12.9825 12.6081 12.9053C12.6081 12.9053 12.9507 12.8737 12.9995 12.8275L14.0769 12.9053C14.0769 12.9053 15.1378 12.9825 15.5948 12.6722C15.5948 12.6722 15.7591 12.6722 15.8734 12.7194C15.8734 12.7194 16.1012 12.7659 16.1653 12.8572L16.7871 12.8421C16.7871 12.8421 17.1457 12.9514 17.1123 13.1673V13.445C17.1123 13.445 17.0472 14.0012 17.2103 14.0319H17.6843C17.6843 14.0319 18.0758 14.2022 18.0276 14.4183C18.0276 14.4183 18.044 14.726 17.7014 14.7886C17.7014 14.7886 17.3577 14.8808 17.2448 14.8657C17.2448 14.8657 17.1298 15.0045 17.1123 15.1745L17.0641 17.1981C17.0641 17.1981 17.0313 17.4131 17.374 17.383C17.374 17.383 17.8793 17.3375 18.0276 17.5995C18.0276 17.5995 18.1584 18.0471 17.8973 18.1247L17.7014 18.217L17.276 18.2796C17.276 18.2796 17.097 18.2946 17.0811 18.5868V19.1286C17.0811 19.1286 17.097 19.4989 16.7871 19.4989L16.33 19.53C16.33 19.53 16.2156 19.6222 15.9874 19.5606C15.9874 19.5606 13.2124 19.6071 13.1144 19.5751L12.7871 19.6377C12.7871 19.6377 12.429 19.9469 12.1351 19.7138L11.9063 19.5439C11.9063 19.5439 11.7431 19.5751 11.6786 19.5606C11.6129 19.5439 8.61018 19.5916 8.61018 19.5916C8.61018 19.5916 7.97303 19.6538 7.92432 19.4523C7.92432 19.4523 7.84322 18.6644 7.87549 18.5712C7.87549 18.5712 7.87549 18.3407 7.72829 18.3252C7.72829 18.3252 7.09222 18.2946 7.07531 18.2324C7.07531 18.2324 6.73256 18.0005 6.83045 17.7694C6.83045 17.7694 6.94538 17.4598 7.28813 17.4285C7.28813 17.4285 7.80987 17.5079 7.80987 17.3669C7.80987 17.3669 7.84322 17.2747 7.84322 17.1214C7.84322 17.1214 7.87549 15.2828 7.85966 15.1594C7.85966 15.1594 7.90837 14.9269 7.69542 14.9269C7.69542 14.9269 7.46724 14.9885 7.3204 14.8968C7.3204 14.8968 6.92907 14.9119 6.84749 14.6187C6.84749 14.6187 6.78126 14.4338 6.87976 14.2784C6.87976 14.2784 7.05887 13.9386 7.58157 14.0469C7.58157 14.0469 7.87549 14.1251 7.90837 13.9246L7.89193 13.1824C7.89193 13.1824 7.82631 12.9825 8.23468 12.8737C8.23468 12.8737 8.7569 13.013 8.92006 12.7659C8.92006 12.7659 9.09905 12.4257 9.24529 12.6562C9.24529 12.6562 9.55673 12.9349 10.4047 12.9053C10.4047 12.9053 11.8745 12.796 11.9063 12.8572C11.9063 12.8572 12.266 12.9053 12.3634 13.013L12.4614 13.0275Z" stroke="#12110C" stroke-width="0.0133333"/>
<path d="M12.8857 19.1142C12.8857 19.1142 13.0822 19.0205 13.2131 19.0526C13.3438 19.0832 15.2528 19.0375 15.2528 19.0375C15.2528 19.0375 16.0849 19.0987 16.2162 18.9894L16.4106 18.9283C16.4106 18.9283 16.4926 18.8361 16.4926 18.7133C16.4926 18.5886 16.5091 18.1715 16.5091 18.1715L16.5588 18.0183C16.5588 18.0183 16.5419 17.8638 16.5588 13.7399C16.5588 13.7399 16.6229 13.4172 16.4106 13.2152C16.4106 13.2152 16.4106 13.0929 16.4757 13.1075C16.5419 13.1241 16.5091 13.1241 16.5091 13.1241C16.5091 13.1241 16.8025 13.0453 16.8507 13.1535C16.8507 13.1535 16.9826 13.5228 16.8676 13.7399C16.8676 13.7399 16.8348 14.1883 17.0817 14.1883C17.0817 14.1883 17.178 14.2816 17.374 14.2345C17.374 14.2345 17.7982 14.2816 17.7982 14.4039C17.7982 14.4039 17.7982 14.683 17.5043 14.6365L17.1119 14.6664C17.1119 14.6664 16.8507 14.7141 16.8841 15.0064C16.9174 15.2999 16.8676 17.4002 16.8676 17.4002C16.8676 17.4002 16.8676 17.6483 17.2766 17.6328C17.2766 17.6328 17.7819 17.6168 17.7819 17.755C17.7819 17.755 17.9121 18.0638 17.5536 18.0799C17.5536 18.0799 16.8676 18.0638 16.9174 18.2487C16.9174 18.2487 16.8676 18.6822 16.8348 18.7584C16.8348 18.7584 16.9016 19.1142 16.8185 19.1764C16.8185 19.1764 16.7702 19.3763 16.3301 19.3458C16.3301 19.3458 13.5234 19.3307 13.0822 19.3613C13.0822 19.3613 12.8205 19.3307 12.8857 19.1142Z" fill="white"/>
<path d="M12.3808 18.8206C12.3808 18.8206 12.6578 18.8662 12.6578 19.1137C12.6578 19.3603 12.6742 19.4996 12.5101 19.5302C12.3475 19.5612 12.1685 19.5157 12.1202 19.3151C12.07 19.1137 12.1514 18.8662 12.3808 18.8206Z" fill="white"/>
<path d="M12.7067 18.6973C12.7067 18.6973 13.0001 18.5108 13.1144 18.5431C13.1144 18.5431 14.5992 18.6347 15.0573 18.559C15.5138 18.4813 15.2363 18.5431 15.2363 18.5431C15.2363 18.5431 15.6284 18.5431 15.7416 18.4031C15.7416 18.4031 15.8566 18.3735 15.9217 18.4813L16.1654 18.7293C16.1654 18.7293 16.1838 18.8822 15.9053 18.8667C15.9053 18.8667 13.2443 18.8667 13.1638 18.8822C13.1638 18.8822 12.658 18.9584 12.7067 18.6973Z" fill="white"/>
<path d="M12.7061 18.6968C12.7061 18.6968 12.9995 18.5103 13.1138 18.542C13.1138 18.542 14.5996 18.6341 15.0572 18.5584C15.5144 18.4803 15.2362 18.542 15.2362 18.542C15.2362 18.542 15.6287 18.542 15.7421 18.4016C15.7421 18.4016 15.8565 18.3726 15.9222 18.4803L16.1658 18.7288C16.1658 18.7288 16.1838 18.8823 15.9057 18.8661C15.9057 18.8661 13.2447 18.8661 13.1631 18.8823C13.1631 18.8823 12.6574 18.9584 12.7061 18.6968Z" stroke="#12110C" stroke-width="0.016"/>
<path d="M8.83903 13.2148C8.83903 13.2148 8.95348 13.2148 8.93693 13.4003L8.9037 18.0634C8.9037 18.0634 8.95348 18.373 8.67588 18.573C8.67588 18.573 8.52808 18.7424 8.52808 18.4809L8.59478 13.7244C8.59478 13.7244 8.61025 13.369 8.83903 13.2148Z" fill="white"/>
<path d="M8.83914 13.2157C8.83914 13.2157 8.95359 13.2157 8.93811 13.4011L8.9038 18.0653C8.9038 18.0653 8.95359 18.375 8.6755 18.575C8.6755 18.575 8.5271 18.7444 8.5271 18.4827L8.59392 13.7259C8.59392 13.7259 8.60976 13.37 8.83914 13.2157Z" stroke="#12110C" stroke-width="0.016"/>
<path d="M8.5779 13.2452C8.5779 13.2452 8.38187 13.5855 8.3983 13.6633L8.38187 14.6966C8.38187 14.6966 8.36543 15.3606 8.38187 15.4382C8.3983 15.515 8.36543 17.461 8.36543 17.461C8.36543 17.461 8.34912 17.8307 8.36543 17.955V18.7885C8.36543 18.7885 8.33268 19.1598 8.62612 19.0656C8.62612 19.0656 11.499 19.0045 11.6791 19.0515C11.6791 19.0515 11.9392 19.0972 11.8427 19.221C11.8427 19.221 11.8427 19.3298 11.6616 19.2982C11.6616 19.2982 10.3072 19.4209 9.08368 19.3753C9.08368 19.3753 8.26754 19.4209 8.21775 19.3298C8.21775 19.3298 8.08795 19.3142 8.08795 18.8657C8.08795 18.8657 8.08795 18.4498 8.05615 18.3725C8.05615 18.3725 8.08795 18.1535 7.68017 18.1089C7.68017 18.1089 7.10913 18.2021 7.09269 17.8779C7.09269 17.8779 7.17379 17.6464 7.72936 17.6764C7.72936 17.6764 8.13725 17.7385 8.05615 17.4289L8.10438 15.1451C8.10438 15.1451 8.15465 14.7417 7.87608 14.7256C7.87608 14.7256 7.61599 14.7131 7.53285 14.7417C7.53285 14.7417 7.05994 14.7417 7.09269 14.4811C7.09269 14.4811 7.25585 14.2025 7.72936 14.2646C7.72936 14.2646 8.08795 14.3258 8.10438 13.9408C8.10438 13.9408 8.08795 13.1526 8.28337 13.1225C8.28337 13.1225 8.69235 13.1365 8.5779 13.2452Z" fill="white"/>
<path d="M9.06684 18.3571C9.06684 18.3571 9.29562 18.5877 9.67172 18.5742L11.8893 18.6042C11.8893 18.6042 12.1357 18.6207 12.1203 18.7429C12.1203 18.7429 12.0854 18.928 11.793 18.8663L9.11603 18.8358L8.82162 18.8527C8.82162 18.8527 8.6256 18.8207 8.93703 18.4659L9.06684 18.3571Z" fill="white"/>
<path d="M9.06623 18.3559C9.06623 18.3559 9.29513 18.5869 9.67171 18.5728L11.8899 18.6035C11.8899 18.6035 12.1356 18.6195 12.1209 18.7422C12.1209 18.7422 12.0864 18.9276 11.7941 18.8666L9.11553 18.8359L8.82101 18.8519C8.82101 18.8519 8.62558 18.8205 8.93642 18.4646L9.06623 18.3559Z" stroke="#12110C" stroke-width="0.016"/>
<path d="M15.9216 18.1552C15.9216 18.1552 16.1175 18.511 16.2156 18.5596C16.2156 18.5596 16.3951 18.7586 16.3464 18.4038L16.3787 13.9561C16.3787 13.9561 16.3294 13.8013 16.3787 13.5552L16.1833 13.2153C16.1833 13.2153 15.9703 13.0611 15.9703 13.3076L15.9381 18.0489L15.9216 18.1552Z" fill="white"/>
<path d="M15.9211 18.1551C15.9211 18.1551 16.1177 18.5104 16.2161 18.5595C16.2161 18.5595 16.3957 18.7589 16.347 18.4032L16.3793 13.9544C16.3793 13.9544 16.33 13.8006 16.3793 13.5545L16.1834 13.2143C16.1834 13.2143 15.9698 13.0604 15.9698 13.307L15.9376 18.0487L15.9211 18.1551Z" stroke="#12110C" stroke-width="0.016"/>
<path d="M12.2987 16.0422C12.2987 16.0422 12.3152 16.4116 12.2654 16.7659C12.2389 16.9619 12.3315 17.8639 12.2489 18.3265C12.2489 18.3265 12.2341 18.4813 11.8898 18.343C11.8898 18.343 9.80134 18.3886 9.7362 18.3265C9.7362 18.3265 9.16527 18.343 9.11597 18.0644C9.11597 18.0644 9.19755 15.949 9.14884 15.8703C9.14884 15.8703 9.11597 14.7127 9.14884 14.6049C9.14884 14.6049 9.19755 13.5395 9.16527 13.4161C9.16527 13.4161 9.18171 13.169 9.1324 13.0449C9.1324 13.0449 9.1324 12.8905 9.41049 12.9828C9.41049 12.9828 9.50694 13.1531 10.0461 13.0774C10.0461 13.0774 10.4385 13.1386 10.8141 13.092C10.8141 13.092 11.6456 13.0303 11.8586 13.092C11.8586 13.092 12.1854 13.0303 12.2817 13.3711L12.2654 14.3277L12.3628 14.6365L12.4777 14.5598L12.5259 14.3277L12.5424 13.3084C12.5424 13.3084 12.6075 13.1225 12.8697 13.092C12.8697 13.092 13.2775 13.0449 13.3438 13.0774C13.4089 13.1071 14.2886 13.1531 14.5349 13.1071C14.7791 13.0609 14.8273 13.2613 15.5631 12.9071C15.5631 12.9071 15.759 12.9226 15.759 13.0449C15.759 13.0449 15.6923 14.3594 15.759 14.6049C15.759 14.6049 15.759 17.0135 15.7081 17.1834L15.7414 17.9555C15.7414 17.9555 15.7738 18.2955 15.2039 18.3265C15.2039 18.3265 15.5631 18.373 13.3093 18.3114C13.3093 18.3114 12.9507 18.2955 12.5593 18.4648C12.5593 18.4648 12.4777 18.4497 12.4777 18.2493C12.4777 18.2493 12.5424 17.5242 12.4777 16.8125L12.446 16.0253L12.2987 16.0422Z" fill="white"/>
<path d="M10.8294 14.945C10.8294 14.945 10.8787 16.0873 10.8294 16.2415L10.8141 16.4892C10.8141 16.4892 10.8787 16.658 10.9768 16.7207C10.9768 16.7207 11.0588 16.9361 10.8623 16.9211C10.8623 16.9211 10.455 16.89 10.357 16.9047C10.357 16.9047 10.1276 16.9047 10.357 16.6284C10.357 16.6284 10.4386 16.5186 10.4217 16.2415C10.4217 16.2415 10.4217 14.945 10.455 14.8684C10.455 14.8684 10.4873 14.6975 10.3728 14.6509L10.1763 14.6669L9.93267 14.8829C9.93267 14.8829 9.88288 15.1155 9.76855 14.8684V14.7437L9.91636 14.3733L10.0144 14.3572C10.0144 14.3572 10.1605 14.45 10.2908 14.482H11.0588L11.3358 14.3572C11.3358 14.3572 11.4497 14.3733 11.4185 14.5121C11.4185 14.5121 11.4661 14.8684 11.2542 14.9136C11.2542 14.9136 11.1235 14.8684 11.0588 14.6975C11.0588 14.6975 10.8465 14.5903 10.8294 14.945Z" fill="#12110C"/>
<path d="M14.436 14.5291C14.436 14.5291 13.8168 14.4825 13.8014 15.1154C13.8014 15.1154 13.7341 15.5489 14.4206 15.8271C14.4206 15.8271 14.927 16.0577 14.893 16.3509C14.893 16.3509 14.8279 16.8761 14.2892 16.6139C14.2892 16.6139 14.0287 16.4896 14.0461 16.3509C14.0461 16.3509 13.963 16.1805 13.8655 16.2119C13.8655 16.2119 13.7506 16.2421 13.8014 16.7522C13.8014 16.7522 13.8014 16.9532 14.0461 16.7522L14.1748 16.7838C14.1748 16.7838 14.616 17.1235 14.9906 16.7057C14.9906 16.7057 15.3994 16.3509 15.1049 15.9189C15.1049 15.9189 14.893 15.6111 14.5181 15.4563C14.5181 15.4563 14.1589 15.3004 14.078 15.0382C14.078 15.0382 14.1923 14.5742 14.632 14.8213C14.632 14.8213 14.7956 15.0068 14.893 15.0382C14.893 15.0382 15.0239 15.0382 14.9906 14.7591L14.9597 14.5291C14.9597 14.5291 14.927 14.3572 14.6976 14.5291C14.6976 14.5291 14.4853 14.6053 14.436 14.5291Z" fill="#12110C"/>
<path d="M12.4454 14.2031C12.5593 14.2817 12.5757 14.4357 12.5757 14.4357C12.902 15.2535 13.1801 16.4436 13.1801 16.4436C13.2611 16.5965 13.4084 16.7208 13.4084 16.7208C13.6859 16.813 13.4084 16.8897 13.4084 16.8897C13.294 16.9368 12.9195 16.8757 12.9195 16.8757C12.7224 16.8426 12.8035 16.7825 12.8035 16.7825C12.8861 16.7053 12.8205 16.3955 12.8205 16.3955C12.8035 16.2733 12.6579 16.0719 12.6579 16.0719C12.5928 16.0407 12.4783 16.1796 12.4783 16.1796C12.4783 16.1796 12.2993 16.2417 12.2818 16.1796C12.2654 16.1168 12.1515 16.0584 12.1515 16.0584C11.9555 16.0584 11.8745 16.5188 11.8745 16.5188C11.9884 16.9053 11.8745 16.8426 11.8745 16.8426C11.7771 16.9675 11.4661 16.8757 11.4661 16.8757C11.3194 16.8426 11.4184 16.7349 11.4184 16.7349C11.5969 16.7053 11.6456 16.5188 11.6456 16.5188C11.7278 16.4111 12.2489 14.4041 12.2489 14.4041C12.2993 14.3108 12.331 14.1259 12.4454 14.2031ZM12.1855 15.2219C12.1684 15.2996 12.0535 15.732 12.0535 15.732L12.1515 15.8879C12.1515 15.8879 12.4132 15.902 12.5106 15.902C12.6075 15.902 12.625 15.8263 12.625 15.7475C12.625 15.671 12.4454 15.2079 12.4454 15.2079L12.3629 15.1151L12.1855 15.2219Z" fill="#12110C"/>
<path d="M8.02448 10.463C8.02448 10.463 7.84441 11.0047 7.0447 10.4475L4.30307 10.3853C4.30307 10.3853 3.944 10.4946 3.89469 10.1388C3.89469 10.1388 3.96044 9.42917 3.92649 9.36697C3.92649 9.36697 3.944 9.16549 3.58434 9.16549C3.58434 9.16549 3.03032 9.2286 3.01437 8.76514C3.01437 8.76514 2.91587 8.26944 3.68283 8.28647C3.68283 8.28647 3.92649 8.39419 3.944 8.10065C3.944 8.10065 3.91113 6.09345 3.92649 5.93817C3.92649 5.93817 3.99319 5.75474 3.61769 5.72307C3.61769 5.72307 3.07843 5.83034 3.01437 5.4906C3.01437 5.4906 2.98102 4.98196 3.3396 4.95041C3.3396 4.95041 3.78036 4.98196 3.86242 4.87515C3.86242 4.87515 3.96044 4.93486 3.944 4.56391L3.96044 3.93154C3.96044 3.93154 4.00962 3.76162 4.28555 3.77717C4.28555 3.77717 4.79302 3.8077 4.85864 3.76162C4.85864 3.76162 4.97261 3.62336 5.0038 3.56059C5.0038 3.56059 5.26653 3.54606 5.31524 3.60622C5.31524 3.60622 5.70609 3.85481 7.19286 3.76162C7.19286 3.76162 7.42008 3.76162 7.46939 3.82382C7.46939 3.82382 7.74639 4.02417 7.90955 3.8077C7.90955 3.8077 8.15428 3.76162 8.88933 3.77717C8.88933 3.77717 9.6876 3.97763 10.2433 3.54606L10.4223 3.57773C10.4223 3.57773 10.6506 3.93154 10.8153 3.82382C10.8153 3.82382 11.3042 3.77717 11.3862 3.87036C11.3862 3.87036 11.5499 4.10192 11.4667 4.70477C11.4667 4.70477 11.3698 4.96687 11.8428 4.96687C11.8428 4.96687 12.3809 4.87515 12.3163 5.35178C12.3163 5.35178 12.4635 5.89254 11.5658 5.81581C11.5658 5.81581 11.4509 5.97064 11.4667 6.07847C11.4667 6.07847 11.4509 7.83799 11.4349 8.03992C11.4349 8.03992 11.4191 8.31609 11.8106 8.30202C11.8106 8.30202 12.3328 8.26944 12.3486 8.71905C12.3486 8.71905 12.4138 9.30533 11.6637 9.19659C11.6637 9.19659 11.4349 9.2286 11.4016 9.36697L11.3698 10.1388C11.3698 10.1388 11.3862 10.5251 10.9281 10.4329C10.8629 10.4329 8.38366 10.4786 8.1706 10.418C8.1706 10.418 8.05675 10.4024 8.02448 10.463Z" fill="#12110C"/>
<path d="M8.02442 10.4649C8.02442 10.4649 7.84434 11.0067 7.04464 10.4494L4.30252 10.3873C4.30252 10.3873 3.94334 10.4965 3.89415 10.1403C3.89415 10.1403 3.96038 9.43062 3.92642 9.36842C3.92642 9.36842 3.94334 9.1675 3.58368 9.1675C3.58368 9.1675 3.02966 9.23061 3.01383 8.76704C3.01383 8.76704 2.91581 8.27089 3.68277 8.28791C3.68277 8.28791 3.92642 8.39575 3.94334 8.10255C3.94334 8.10255 3.91047 6.09445 3.92642 5.93962C3.92642 5.93962 3.99313 5.75562 3.61715 5.72452C3.61715 5.72452 3.07789 5.8319 3.01383 5.4916C3.01383 5.4916 2.98048 4.98285 3.33954 4.95186C3.33954 4.95186 3.7797 4.98285 3.86236 4.87569C3.86236 4.87569 3.96038 4.93631 3.94334 4.56536L3.96038 3.93242C3.96038 3.93242 4.00908 3.76261 4.28549 3.77862C4.28549 3.77862 4.79247 3.8087 4.8581 3.76261C4.8581 3.76261 4.97255 3.62481 5.00374 3.56204C5.00374 3.56204 5.26587 3.54706 5.31518 3.60767C5.31518 3.60767 5.70555 3.85581 7.1928 3.76261C7.1928 3.76261 7.42002 3.76261 7.46932 3.8247C7.46932 3.8247 7.74633 4.02516 7.90949 3.8087C7.90949 3.8087 8.1547 3.76261 8.88927 3.77862C8.88927 3.77862 9.68814 3.97806 10.2432 3.54706L10.4227 3.57861C10.4227 3.57861 10.651 3.93242 10.8152 3.8247C10.8152 3.8247 11.3041 3.77862 11.3872 3.87079C11.3872 3.87079 11.5498 4.10292 11.4673 4.7052C11.4673 4.7052 11.3697 4.96832 11.8428 4.96832C11.8428 4.96832 12.3819 4.87569 12.3163 5.35277C12.3163 5.35277 12.4635 5.89399 11.5662 5.8168C11.5662 5.8168 11.4508 5.97163 11.4673 6.07992C11.4673 6.07992 11.4508 7.83944 11.4355 8.04092C11.4355 8.04092 11.419 8.31799 11.8105 8.30403C11.8105 8.30403 12.3327 8.27089 12.3491 8.72095C12.3491 8.72095 12.4137 9.30678 11.6637 9.19804C11.6637 9.19804 11.4355 9.23061 11.4021 9.36842L11.3697 10.1403C11.3697 10.1403 11.3872 10.5271 10.9286 10.4348C10.8635 10.4348 8.3836 10.48 8.17054 10.4194C8.17054 10.4194 8.05669 10.4043 8.02442 10.4649Z" stroke="#12110C" stroke-width="0.0133333"/>
<path d="M4.9397 4.10349C4.9397 4.10349 4.97257 4.41167 4.97257 4.48886C4.97257 4.56605 4.92279 8.95162 4.92279 8.95162C4.92279 8.95162 4.97257 9.29237 4.66173 9.46128C4.66173 9.46128 4.58064 9.49283 4.56372 9.27682L4.59707 4.64426C4.59707 4.64426 4.62934 4.07239 4.9397 4.10349Z" fill="white"/>
<path d="M4.94018 4.10403C4.94018 4.10403 4.97293 4.41221 4.97293 4.4894C4.97293 4.56658 4.92314 8.95261 4.92314 8.95261C4.92314 8.95261 4.97293 9.29336 4.66161 9.46329C4.66161 9.46329 4.58051 9.49439 4.5636 9.27838L4.59587 4.64525C4.59587 4.64525 4.62874 4.07338 4.94018 4.10403Z" stroke="#12110C" stroke-width="0.016"/>
<path d="M4.40099 9.50742C4.40099 9.50742 4.43278 5.15295 4.41743 5.07519C4.40099 4.99903 4.43278 5.13785 4.43278 5.13785C4.43278 5.13785 4.38516 4.3821 4.5969 4.07245C4.5969 4.07245 4.53128 3.80979 4.15578 4.13352L4.1409 4.76701C4.1409 4.76701 4.1409 5.1223 3.79719 5.10675C3.79719 5.10675 3.40526 5.09074 3.22518 5.26169C3.22518 5.26169 3.12765 5.60086 3.50219 5.53979C3.50219 5.53979 4.09063 5.53979 4.12291 5.76976L4.09063 8.10216C4.09063 8.10216 4.2214 8.4881 3.76384 8.4881C3.76384 8.4881 3.20923 8.45847 3.22518 8.78277C3.22518 8.78277 3.33951 9.06087 3.81363 8.96768C3.81363 8.96768 4.15578 9.02977 4.1409 9.33704V9.92536C4.1409 9.92536 4.10647 10.1574 4.43278 10.1714H6.97935C6.97935 10.1714 7.10975 10.1869 7.10975 10.0321C7.10975 10.0321 7.0932 9.91026 6.89837 9.91026L4.77757 9.87825C4.77757 9.87825 4.43278 9.98654 4.40099 9.50742Z" fill="white"/>
<path d="M4.84176 9.53914C4.84176 9.53914 4.7771 9.75617 5.02075 9.7085H6.70186L7.15894 9.80078C7.15894 9.80078 7.63354 9.69295 7.15894 9.44538C7.15894 9.44538 5.65742 9.46195 5.52654 9.43085C5.52654 9.43085 5.21726 9.35378 5.15164 9.33811C5.15164 9.33811 4.988 9.27705 4.84176 9.53914Z" fill="white"/>
<path d="M4.84115 9.53823C4.84115 9.53823 4.77649 9.75617 5.02014 9.70759H6.70185L7.15953 9.80078C7.15953 9.80078 7.63401 9.69306 7.15953 9.44504C7.15953 9.44504 5.65729 9.4615 5.52653 9.42949C5.52653 9.42949 5.21665 9.35276 5.15103 9.33777C5.15103 9.33777 4.98727 9.27614 4.84115 9.53823Z" stroke="#12110C" stroke-width="0.016"/>
<path d="M7.63303 9.75653C7.63303 9.75653 7.3222 9.75653 7.33851 10.1404C7.33851 10.1404 7.37138 10.4355 7.6971 10.4355C7.6971 10.4355 7.99114 10.3875 7.95935 10.0803C7.95935 10.0803 7.77915 9.69342 7.63303 9.75653Z" fill="white"/>
<path d="M7.8608 9.60011C7.8608 9.60011 8.00704 9.44574 8.10602 9.44574C8.10602 9.44574 9.73746 9.58513 10.015 9.40011C10.015 9.40011 10.2606 9.35402 10.3248 9.40011C10.3248 9.40011 10.5696 9.58513 10.5696 9.69285C10.5696 9.69285 10.5536 9.83315 10.2606 9.75596C10.2606 9.75596 8.41482 9.77049 8.31788 9.77049C8.31788 9.77049 7.8115 9.87821 7.8608 9.60011Z" fill="white"/>
<path d="M7.86019 9.59959C7.86019 9.59959 8.00691 9.44476 8.10541 9.44476C8.10541 9.44476 9.73733 9.58461 10.0148 9.39959C10.0148 9.39959 10.2611 9.35305 10.3252 9.39959C10.3252 9.39959 10.5699 9.58461 10.5699 9.69278C10.5699 9.69278 10.5541 9.83319 10.2611 9.75544C10.2611 9.75544 8.41528 9.77054 8.31727 9.77054C8.31727 9.77054 7.81089 9.87826 7.86019 9.59959Z" stroke="#12110C" stroke-width="0.016"/>
<path d="M8.12183 10.0643C8.12183 10.0643 8.12183 9.94145 8.34905 9.94145L10.6356 9.92544C10.6356 9.92544 10.8469 10.0321 10.8469 9.66278C10.8469 9.66278 10.9306 7.97898 10.9381 6.1257C10.9412 5.57449 10.9666 4.99571 10.9444 4.45937C10.9444 4.45937 10.8957 4.22838 10.8306 4.18071C10.8306 4.18071 10.8306 3.93371 11.1092 4.02735C11.1092 4.02735 11.3522 4.042 11.2875 4.39671L11.3035 4.93748C11.3035 4.93748 11.2548 5.16904 11.6954 5.1074C11.6954 5.1074 12.1356 5.16904 12.1514 5.32341C12.1514 5.32341 12.2834 5.63307 11.7617 5.60151H11.3866C11.3866 5.60151 11.223 5.69379 11.2717 5.87972L11.223 8.11825C11.223 8.11825 11.1891 8.50419 11.5821 8.49011C11.5821 8.49011 11.99 8.47411 12.0705 8.59738C12.0705 8.59738 12.349 8.98377 11.7447 8.95278C11.7447 8.95278 11.3691 8.93666 11.2875 8.99829C11.2875 8.99829 11.223 9.07696 11.1737 9.80172C11.1737 9.80172 11.206 10.2342 10.8633 10.1875C10.8633 10.1875 8.59474 10.2176 8.38348 10.172C8.38348 10.172 8.1541 10.2342 8.12183 10.0643Z" fill="white"/>
<path d="M5.18322 3.96138L5.13559 8.9187C5.13559 8.9187 5.11915 9.14878 5.52693 9.19532C5.52693 9.19532 6.00104 9.24197 6.11441 9.19532C6.11441 9.19532 6.42369 9.18034 7.224 9.21144C7.224 9.21144 7.42002 9.39578 7.43586 9.16536C7.43586 9.16536 7.56674 5.1496 7.50148 4.31621C7.50148 4.31621 7.48565 3.96138 7.20708 3.94583C7.20708 3.94583 5.96769 4.03811 5.85324 3.94583L5.36437 3.82199C5.36437 3.82199 5.16738 3.83663 5.18322 3.96138Z" fill="white"/>
<path d="M10.357 4.14698L10.3411 9.02711C10.3411 9.02711 10.4719 9.46072 10.6849 9.41452C10.6849 9.41452 10.7172 9.32133 10.7331 9.16594L10.7993 4.51736C10.7993 4.51736 10.6356 3.77603 10.357 4.14698Z" fill="white" stroke="#12110C" stroke-width="0.016"/>
<path d="M10.357 4.14698L10.3411 9.02711C10.3411 9.02711 10.4719 9.46072 10.6849 9.41452C10.6849 9.41452 10.7172 9.32133 10.7331 9.16594L10.7993 4.51736C10.7993 4.51736 10.6356 3.77603 10.357 4.14698Z" stroke="#12110C" stroke-width="0.016"/>
<path d="M7.76382 4.19028C7.76382 4.19028 7.71463 6.52167 7.72999 6.59987L7.69916 8.56133L7.63306 9.23887C7.63306 9.23887 7.72999 9.37973 7.81205 9.28643C7.81205 9.28643 8.33487 9.16361 8.66106 9.20935C8.66106 9.20935 9.70611 9.30255 9.91749 9.1476C9.91749 9.1476 10.0806 9.22434 10.1298 8.97723C10.1298 8.97723 10.1945 4.65431 10.1621 4.57667C10.1621 4.57667 10.2278 3.95975 10.1945 3.89868C10.1945 3.89868 10.1781 3.75827 9.90213 3.88108C9.90213 3.88108 9.93381 4.00583 8.38406 3.95975C8.38406 3.95975 7.79621 3.94374 7.76382 4.19028Z" fill="white"/>
<path d="M7.2595 5.61904L7.11182 5.91371C7.11182 5.91371 6.75419 7.41068 6.55877 7.71886C6.55877 7.71886 6.52589 8.02863 6.24841 7.78095C6.24841 7.78095 5.61126 5.88215 5.57887 5.82006L5.36652 5.68113C5.36652 5.68113 5.2378 5.51132 5.46502 5.49622L6.06882 5.51132C6.06882 5.51132 6.26424 5.66512 6.00367 5.83698C6.00367 5.83698 6.03606 6.08363 6.37869 7.02429C6.37869 7.02429 6.47611 7.37958 6.59056 7.11691L6.91735 6.02041L6.81934 5.69622C6.81934 5.69622 6.72084 5.54185 6.86864 5.52687C6.86864 5.52687 7.21139 5.49622 7.2595 5.61904Z" fill="#12110C"/>
<path d="M8.20717 5.86526L8.18965 7.50208L8.14202 7.62535C8.14202 7.62535 7.97839 7.82535 8.09224 7.84136C8.09224 7.84136 7.9466 7.93455 9.1362 7.94953C9.1362 7.94953 9.59436 8.02626 9.47943 7.47052C9.47943 7.47052 9.43072 7.26995 9.26648 7.56371C9.26648 7.56371 9.21778 7.80969 8.63149 7.73307C8.63149 7.73307 8.50061 7.62535 8.50061 7.50208V6.82204C8.50061 6.82204 8.48321 6.65155 8.76118 6.66914C8.76118 6.66914 9.07106 6.85359 9.12036 6.77538C9.12036 6.77538 9.23421 6.5293 9.12036 6.37447C9.12036 6.37447 8.97304 6.35994 8.95721 6.42157C8.95721 6.42157 8.85919 6.60591 8.58171 6.49774C8.58171 6.49774 8.45142 6.2512 8.53288 6.05017C8.53288 6.05017 8.50061 5.6639 8.77821 5.69534C8.77821 5.69534 9.10441 5.75652 9.1362 5.85028C9.1362 5.85028 9.21778 6.03621 9.30044 5.81974L9.21778 5.55606C9.21778 5.55606 9.17015 5.44777 9.08797 5.47887C9.08797 5.47887 8.53288 5.55606 8.46678 5.4934L8.02601 5.54051C8.02601 5.54051 7.96147 5.69534 8.15798 5.77162C8.15798 5.77162 8.20717 5.80317 8.20717 5.86526Z" fill="#12110C"/>
</g>
</svg>
