<svg width="51" height="12" viewBox="0 0 51 12" fill="none" xmlns="http://www.w3.org/2000/svg">
<g clip-path="url(#clip0_2528_10456)">
<path d="M2.75316 0.112751C2.83661 0.112751 2.91171 0.177181 2.91171 0.257718V11.7101C2.91171 11.7906 2.84495 11.855 2.75316 11.855H0.600202C0.516754 11.855 0.44165 11.7906 0.44165 11.7101V0.257718C0.44165 0.177181 0.508409 0.112751 0.600202 0.112751H2.75316ZM14.9449 0.112751C15.0283 0.112751 15.1034 0.177181 15.1034 0.257718V11.7101C15.1034 11.7906 15.0367 11.855 14.9449 11.855H12.7836C12.7335 11.855 12.6835 11.8309 12.6501 11.7906L7.4012 4.08322V11.7101C7.4012 11.7906 7.33445 11.855 7.24265 11.855H5.08135C4.99791 11.855 4.9228 11.7906 4.9228 11.7101V0.257718C4.9228 0.177181 4.98956 0.112751 5.08135 0.112751H7.24265C7.29272 0.112751 7.34279 0.136913 7.37617 0.177181L12.6417 7.91678V0.257718C12.6417 0.177181 12.7085 0.112751 12.8003 0.112751H14.9449ZM23.974 6.91007L26.686 11.5409C26.6944 11.5651 26.7027 11.5893 26.7027 11.6054V11.7101C26.7027 11.7906 26.6359 11.855 26.5441 11.855H24.2326C24.1742 11.855 24.1242 11.8228 24.0991 11.7745L21.6541 7.44161H19.4928V11.702C19.4928 11.7826 19.426 11.847 19.3343 11.847H17.1813C17.0978 11.847 17.0227 11.7826 17.0227 11.702V0.257718C17.0227 0.177181 17.0895 0.112751 17.1813 0.112751H21.5456C23.006 0.112751 24.1575 0.426845 24.9586 1.03893C25.7681 1.65906 26.1853 2.56107 26.1853 3.72081C26.1853 4.51812 25.9767 5.18658 25.5511 5.72617C25.1756 6.2255 24.6415 6.62819 23.974 6.91007ZM23.1562 5.08993C23.5317 4.77584 23.7153 4.35705 23.7153 3.8094C23.7153 3.23758 23.54 2.79463 23.1979 2.48859C22.8474 2.18255 22.3133 2.02148 21.6124 2.00537H19.4928V5.55705H21.554C22.2382 5.55705 22.7807 5.40403 23.1562 5.08993ZM34.4216 7.8604L32.6275 3.12483L31.1087 7.15168L30.825 7.90873H34.4467L34.4216 7.8604ZM44.0014 2.00537C41.6148 2.00537 39.6705 3.80134 39.6705 6C39.6705 6.36242 39.7206 6.72483 39.8291 7.0792C42.2741 6.13691 44.3019 4.44564 45.5703 2.28725C45.0696 2.10201 44.5439 2.00537 44.0014 2.00537ZM50.5104 6C50.5104 9.31007 47.5897 12 44.0014 12H43.9931C42.6496 12 41.3562 11.6215 40.263 10.9047C39.6622 10.5181 39.1448 10.043 38.7192 9.4953C38.7109 9.4792 38.7025 9.47114 38.6942 9.45504C38.6858 9.45504 38.6775 9.45503 38.6608 9.46309C38.3186 9.54362 37.9682 9.60805 37.6177 9.66443L38.4355 11.6617C38.4522 11.702 38.4438 11.7584 38.4188 11.7906C38.3937 11.8309 38.3437 11.855 38.2936 11.855H36.0405C35.9738 11.855 35.9153 11.8148 35.8903 11.7584L35.156 9.8255L35.1309 9.76108H30.099L29.348 11.7503C29.323 11.8067 29.2646 11.847 29.1978 11.847H26.953C26.903 11.847 26.8529 11.8228 26.8279 11.7826C26.8028 11.7423 26.7945 11.694 26.8112 11.6537L31.501 0.201342C31.526 0.144966 31.5844 0.112751 31.6428 0.112751H33.5788C33.6456 0.112751 33.704 0.15302 33.7207 0.201342L36.8416 7.80403C37.142 7.77181 37.4424 7.72349 37.7345 7.66711C37.5593 7.12752 37.4758 6.56376 37.4758 5.99195C37.4758 4.73557 37.8931 3.57584 38.6107 2.61745C39.779 1.03893 41.7484 0 43.9764 0C44.8777 0 45.7455 0.169127 46.5633 0.499329C47.1391 0.732886 47.6732 1.03893 48.1572 1.4094C48.2072 1.44966 48.2239 1.51409 48.1989 1.57047C47.9652 2.14228 47.6898 2.70604 47.3727 3.23758C45.9208 5.68591 43.6092 7.64295 40.8471 8.76242C40.8638 8.77853 40.8805 8.79463 40.8972 8.81074C41.4062 9.27785 42.0321 9.62416 42.7247 9.81745C43.1252 9.9302 43.5425 9.98658 43.9681 9.98658C46.2128 9.98658 48.0654 8.40806 48.2823 6.38658C48.2907 6.36242 48.2907 6.33826 48.2907 6.30604C48.3157 5.83893 48.3992 5.71007 48.516 5.52483L49.8094 3.65638C49.8345 3.63221 49.8929 3.58389 49.9596 3.66443C50.3268 4.39732 50.5104 5.19463 50.5104 6Z" fill="white"/>
</g>
<defs>
<clipPath id="clip0_2528_10456">
<rect width="50.0687" height="12" fill="white" transform="translate(0.44165)"/>
</clipPath>
</defs>
</svg>
