<svg width="80" height="19" viewBox="0 0 80 19" fill="none" xmlns="http://www.w3.org/2000/svg">
<path d="M4.45007 0.0961888C4.58197 0.0961888 4.70068 0.19803 4.70068 0.32533V18.4275C4.70068 18.5548 4.59516 18.6566 4.45007 18.6566H1.047C0.9151 18.6566 0.796387 18.5548 0.796387 18.4275V0.32533C0.796387 0.19803 0.901909 0.0961888 1.047 0.0961888H4.45007ZM23.7209 0.0961888C23.8528 0.0961888 23.9715 0.19803 23.9715 0.32533V18.4275C23.9715 18.5548 23.866 18.6566 23.7209 18.6566H20.3047C20.2255 18.6566 20.1464 18.6184 20.0936 18.5548L11.797 6.37211V18.4275C11.797 18.5548 11.6915 18.6566 11.5464 18.6566H8.13013C7.99823 18.6566 7.87951 18.5548 7.87951 18.4275V0.32533C7.87951 0.19803 7.98504 0.0961888 8.13013 0.0961888H11.5464C11.6255 0.0961888 11.7047 0.134379 11.7574 0.19803L20.0804 12.4316V0.32533C20.0804 0.19803 20.186 0.0961888 20.331 0.0961888H23.7209ZM37.9927 10.8404L42.2795 18.1601C42.2927 18.1983 42.3059 18.2365 42.3059 18.262V18.4275C42.3059 18.5548 42.2004 18.6566 42.0553 18.6566H38.4016C38.3093 18.6566 38.2301 18.6057 38.1906 18.5293L34.3258 11.6805H30.9096V18.4147C30.9096 18.542 30.804 18.6439 30.659 18.6439H27.2559C27.124 18.6439 27.0053 18.542 27.0053 18.4147V0.32533C27.0053 0.19803 27.1108 0.0961888 27.2559 0.0961888H34.1544C36.4626 0.0961888 38.2829 0.592661 39.5491 1.56015C40.8286 2.54036 41.4881 3.96613 41.4881 5.79925C41.4881 7.05953 41.1583 8.11613 40.4856 8.96904C39.8921 9.7583 39.0479 10.3948 37.9927 10.8404ZM36.7001 7.96336C37.2936 7.46689 37.5838 6.80493 37.5838 5.93929C37.5838 5.03545 37.3068 4.3353 36.766 3.85156C36.212 3.36781 35.3679 3.11321 34.2599 3.08775H30.9096V8.70171H34.1675C35.2491 8.70171 36.1065 8.45984 36.7001 7.96336ZM54.5068 12.3425L51.6709 4.85723L49.2703 11.2223L48.8218 12.4189H54.5464L54.5068 12.3425ZM69.6491 3.08775C65.8767 3.08775 62.8034 5.92655 62.8034 9.40186C62.8034 9.97471 62.8826 10.5476 63.054 11.1077C66.9188 9.61827 70.124 6.94496 72.1289 3.5333C71.3375 3.24051 70.5065 3.08775 69.6491 3.08775ZM79.9375 9.40186C79.9375 14.6339 75.3209 18.8858 69.6491 18.8858H69.6359C67.5123 18.8858 65.4678 18.2874 63.7399 17.1545C62.7902 16.5434 61.9725 15.7924 61.2998 14.9267C61.2866 14.9012 61.2734 14.8885 61.2602 14.8631C61.247 14.8631 61.2338 14.8631 61.2074 14.8758C60.6666 15.0031 60.1126 15.1049 59.5586 15.194L60.8513 18.3511C60.8777 18.4147 60.8645 18.5039 60.8249 18.5548C60.7853 18.6184 60.7062 18.6566 60.627 18.6566H57.0657C56.9602 18.6566 56.8678 18.593 56.8283 18.5039L55.6675 15.4486L55.628 15.3468H47.6743L46.4872 18.4911C46.4476 18.5802 46.3553 18.6439 46.2498 18.6439H42.7016C42.6225 18.6439 42.5433 18.6057 42.5037 18.542C42.4642 18.4784 42.451 18.402 42.4774 18.3384L49.8902 0.23622C49.9298 0.14711 50.0221 0.0961888 50.1145 0.0961888H53.1746C53.2801 0.0961888 53.3724 0.15984 53.3988 0.23622L58.332 12.2534C58.8068 12.2025 59.2817 12.1261 59.7433 12.037C59.4663 11.1841 59.3344 10.293 59.3344 9.38913C59.3344 7.40324 59.9939 5.57011 61.1283 4.05524C62.9749 1.56015 66.0878 -0.0820312 69.6096 -0.0820312C71.0341 -0.0820312 72.4059 0.1853 73.6985 0.707232C74.6086 1.0764 75.4528 1.56015 76.2178 2.14573C76.297 2.20938 76.3234 2.31122 76.2838 2.40033C75.9145 3.30416 75.4792 4.19527 74.978 5.03545C72.6829 8.90539 69.0292 11.9988 64.6632 13.7683C64.6896 13.7937 64.716 13.8192 64.7424 13.8447C65.547 14.583 66.5363 15.1304 67.631 15.4359C68.2642 15.6141 68.9237 15.7032 69.5964 15.7032C73.1445 15.7032 76.0728 13.2081 76.4157 10.0129C76.4289 9.97471 76.4289 9.93652 76.4289 9.8856C76.4685 9.14726 76.6004 8.94358 76.785 8.65079L78.8295 5.69741C78.8691 5.65922 78.9614 5.58284 79.0669 5.71014C79.6473 6.86858 79.9375 8.12885 79.9375 9.40186Z" fill="#009992"/>
</svg>
