<svg width="86" height="59" viewBox="0 0 86 59" fill="none" xmlns="http://www.w3.org/2000/svg">
<g clip-path="url(#clip0_495_49252)">
<path d="M17.5767 57.3897H54.6169V41.0684H17.5767V57.3897Z" fill="white"/>
<path d="M38.4793 13.9375C36.8728 15.2158 35.633 16.1242 33.6662 16.8975C31.9542 17.5728 30.1155 17.8477 28.0142 18.1323C26.6625 18.3205 25.2491 18.597 23.8989 18.6871C23.3439 18.724 22.7889 18.7593 22.2355 18.8028L0.000512185 20.4091V22.0394L22.3247 19.8946L25.2197 19.6261C26.2924 19.5247 27.2465 19.409 28.1325 19.2659C30.2957 18.9218 32.1602 18.3977 33.8318 17.6596C35.5649 16.9023 37.3191 15.6611 38.9499 14.3023C40.0583 13.3794 41.126 12.2186 42.2864 10.9499V10.3662C40.8827 11.8036 39.7174 12.9534 38.4793 13.9375ZM42.287 41.2423L0.000798852 40.1795V41.8051H42.287V41.2423ZM26.5281 38.3679L21.0593 38.31C14.0816 38.2119 7.11185 38.0865 0.000798852 37.9547V39.5802C6.78706 39.5369 13.9758 39.4853 21.0642 39.4066L26.5361 39.3262C28.3795 39.294 30.1857 39.2603 32.0111 39.2008C35.7711 39.0818 39.14 38.8197 42.2864 38.4065V37.8405C39.1271 38.1782 35.7547 38.355 31.9917 38.3792C30.1726 38.3952 28.3501 38.383 26.5278 38.3676M32.0539 35.8126C30.892 35.8576 29.6343 35.8801 28.2079 35.8801C27.6692 35.8801 27.1288 35.8775 26.5917 35.8724L21.1035 35.8065C17.3599 35.7791 13.6292 35.7727 10.1287 35.7696L0.00105685 35.7786V37.4025L10.1531 37.1405C13.6404 37.0553 17.3808 36.9668 21.1146 36.9009L26.598 36.8285C28.1023 36.806 30.087 36.7609 32.0974 36.6307C34.0674 36.5037 35.8605 36.3091 37.579 36.0374C39.1255 35.793 40.706 35.4634 42.2867 35.0631V34.4874C40.6623 34.8572 39.0476 35.1547 37.4819 35.3621C35.7731 35.5888 33.9977 35.7354 32.0539 35.8126ZM32.1616 33.1681C29.3737 33.3964 26.5208 33.3964 23.7605 33.3964C22.9021 33.3964 22.0436 33.3964 21.1852 33.4028C14.1312 33.4335 7.13396 33.4913 0.000262785 33.5524V35.1779C6.79484 34.9496 14.0014 34.7116 21.2096 34.4994C22.0648 34.4705 22.92 34.4496 23.7768 34.4271C26.5517 34.358 29.4207 34.2872 32.2377 33.985C34.2045 33.7759 35.9959 33.4688 37.7113 33.0492C39.2075 32.6842 40.7443 32.1986 42.2874 31.615V31.0168C40.6939 31.5828 39.1068 32.0459 37.5603 32.3835C35.8613 32.7549 34.0957 33.0106 32.1616 33.1681ZM32.3306 30.4855C29.3544 30.8794 26.2922 30.9245 23.3292 30.9679C22.6509 30.9769 21.971 30.9872 21.2927 31.0017L0.000535119 31.3811V33.0067L21.33 32.0966C22.005 32.0661 22.6834 32.0387 23.3617 32.013C26.3441 31.894 29.4292 31.7718 32.4458 31.2975C34.3542 31.0001 36.1911 30.5579 37.9063 29.9871C39.3262 29.516 40.7964 28.9067 42.286 28.1863V27.5625C40.72 28.2844 39.1799 28.8858 37.7016 29.3359C36.0074 29.8537 34.2016 30.2411 32.3306 30.4855ZM32.5207 27.8196C30.8995 28.1139 29.1552 28.302 27.0276 28.4097C26.2275 28.4515 25.3707 28.4805 24.2511 28.5062L0.000773052 29.1558V30.7845L21.5039 29.6719L24.2902 29.532C25.3774 29.4806 26.2667 29.4291 27.0894 29.3664C29.246 29.2024 31.0196 28.9676 32.6717 28.6252C34.5476 28.2393 36.3682 27.6766 38.0819 26.953C39.4629 26.3726 40.8455 25.6651 42.2865 24.8049V24.1505C40.7481 25.038 39.2845 25.7487 37.8305 26.3195C36.1413 26.9852 34.3545 27.49 32.5207 27.8196ZM32.7614 25.1652C31.1468 25.5399 29.3959 25.7794 27.2522 25.9225C26.4263 25.9772 25.537 26.0174 24.4546 26.0511L21.6392 26.1508C14.5444 26.4161 7.35083 26.7216 -0.000167215 27.0384V28.6671C7.30381 28.1735 14.4682 27.6928 21.6945 27.2458L24.5035 27.0785C25.6053 27.0158 26.5027 26.9531 27.3287 26.8776C29.5113 26.6782 31.2979 26.3872 32.9499 25.9643C34.8031 25.4916 36.6044 24.797 38.3034 23.903C39.6179 23.2132 40.929 22.3836 42.2872 21.3835V20.6873C40.8186 21.7372 39.41 22.5942 38.0016 23.292C36.3318 24.1201 34.5694 24.7504 32.7614 25.1652ZM33.0238 22.4579C31.4206 22.9242 29.6159 23.2393 27.5064 23.421C26.6512 23.495 25.7295 23.5512 24.6876 23.593L21.8446 23.7168C14.7808 24.0416 7.74949 24.4049 0.000887719 24.8117V26.4405C7.40377 25.8729 14.6576 25.3214 21.9097 24.8101L24.743 24.6188C25.8384 24.5464 26.7455 24.4692 27.599 24.3744C29.7605 24.1348 31.6104 23.765 33.2527 23.2441C35.0718 22.6733 36.8455 21.8452 38.5233 20.784C39.7615 20.0026 41.0013 19.07 42.2864 17.959V17.9301C40.8697 19.128 39.5196 19.3948 38.1744 20.1988C36.5257 21.1892 34.7926 21.9482 33.0238 22.4579ZM32.4835 19.3525C31.0036 20.1725 29.8969 20.6452 27.7839 20.8638C26.5068 21.0005 25.194 21.0648 23.9234 21.1275C23.31 21.158 22.695 21.1886 22.08 21.2272C18.2406 21.4443 14.4692 21.6854 10.6216 21.9331L0.000601052 22.6421V24.2757L10.7285 23.3014C14.1946 22.9926 18.2223 22.6373 22.1542 22.319L25.0135 22.1003C26.1299 22.0151 27.0452 21.925 27.8922 21.8157C30.0667 21.5375 31.9247 21.1018 33.5702 20.486C35.3422 19.83 37.0136 18.8106 38.6866 17.6113C40.1958 16.5308 42.2843 14.4002 42.286 14.373V13.7958C40.9213 15.1142 40.1359 15.8554 38.6413 16.8313C36.8547 17.9969 33.8104 18.6176 32.4829 19.3524M38.6293 10.8668C37.0747 12.2801 35.4519 13.3911 33.805 14.1693C32.1936 14.9395 30.3922 15.4797 28.2941 15.8206C27.4292 15.9637 26.488 16.0794 25.4185 16.1759L-0.000201615 18.2436V19.8772L22.5949 17.5024L25.5174 17.1985C26.6193 17.0715 27.5799 16.93 28.4529 16.766C30.6258 16.3592 32.4903 15.753 34.1504 14.9105C35.8478 14.06 37.5437 12.645 39.1209 11.1465C40.1789 10.1415 41.198 8.84401 42.2869 7.48382V6.93876C41.0292 8.48874 39.8284 9.77835 38.6293 10.8668ZM34.1702 11.2678C32.575 12.1763 30.7333 12.8419 28.6951 13.2439C27.8253 13.4192 26.876 13.5607 25.7952 13.6764C25.1591 13.7455 24.5197 13.8001 23.8788 13.8549C23.5331 13.8838 23.1875 13.9143 22.8418 13.9449C15.033 14.6395 7.26494 15.3775 -5.82813e-05 16.0753V17.7137C7.32169 16.8391 15.1451 15.9113 22.9505 15.0366C23.2977 14.9965 23.645 14.9579 23.9923 14.9209C24.6316 14.8517 25.2726 14.781 25.9136 14.6974C27.0252 14.5511 27.9972 14.3822 28.8849 14.1829C31.0026 13.7134 32.9143 12.9738 34.5678 11.9817C36.21 11.0057 37.6606 9.63745 39.2218 7.96516C40.1938 6.92487 41.2746 5.4553 42.2871 4.07585V3.47452C41.0944 5.07594 39.9634 6.42168 38.8454 7.56975C37.3217 9.13419 35.7491 10.377 34.1702 11.2678ZM-0.000488281 15.5006C-0.000488281 15.5006 25.4799 12.2333 26.1988 12.1177C27.3023 11.9393 28.2808 11.7303 29.1945 11.481C31.2554 10.9215 33.1525 10.0677 34.8318 8.94221C36.4432 7.87299 37.941 6.31658 39.4259 4.60896C40.3687 3.52204 41.3602 2.10552 42.2852 0.738964V0.078125C41.1882 1.68759 40.1075 3.07528 38.996 4.29862C37.5225 5.92416 35.9777 7.25231 34.4019 8.24899C32.7759 9.28766 30.947 10.0611 28.9624 10.5514C28.0731 10.7733 27.1222 10.9534 26.0513 11.1013C25.347 11.1994 24.62 11.275 23.9173 11.3473C23.6366 11.378 -0.000402281 13.862 -0.000402281 13.862L-0.000488281 15.5006Z" fill="#BDBCBC"/>
<path d="M59.8962 40.486C59.8962 40.486 66.8659 40.74 68.9835 40.7851C71.1011 40.8301 85.9769 41.4121 85.9769 41.4121V41.8157L59.8959 41.7996L59.8962 40.486ZM59.8813 37.0083C59.8813 37.0083 64.3146 37.7495 68.9833 38.5004C72.4835 39.0647 77.2269 39.4201 77.7332 39.4409C78.2395 39.4635 85.9769 39.9796 85.9769 39.9796V40.3815C85.9769 40.3815 81.0258 40.1339 77.7332 39.9571C74.3044 39.7722 70.8965 39.5712 68.9606 39.375C64.6245 38.9345 59.8813 38.3525 59.8813 38.3525V37.0083ZM59.8962 33.649C59.8962 33.649 65.2999 35.2761 68.9835 36.2167C72.6672 37.1573 76.0522 37.5383 77.7561 37.6493C79.46 37.7618 85.9542 38.2764 85.9542 38.2764V38.6574C85.9542 38.6574 82.2705 38.413 77.7335 38.0979C74.0644 37.8439 71.1175 37.5753 68.9609 37.1123C66.5706 36.5994 59.8816 35.0526 59.8816 35.0526L59.8962 33.649ZM59.8962 30.2451C59.8962 30.2451 65.2236 32.4607 68.9835 33.9094C72.6835 35.3356 75.5087 35.4562 77.7561 35.7022C78.746 35.81 85.9542 36.5302 85.9542 36.5302V36.9322C85.9542 36.9322 81.6473 36.5978 77.7335 36.2617C73.8196 35.9257 72.13 35.7842 68.9609 34.7616C65.7528 33.7277 59.8816 31.7389 59.8816 31.7389L59.8962 30.2451ZM59.8962 26.886C59.8962 26.886 66.6679 30.4635 68.9609 31.5809C71.5167 32.827 73.727 33.4251 77.7335 33.8865C81.6671 34.3432 85.9771 34.7837 85.9771 34.7837V35.1873C85.9771 35.1873 81.9916 34.7725 77.7335 34.3801C73.5126 33.9927 72.0085 33.8126 68.9609 32.4989C66.2347 31.3252 59.8816 28.4537 59.8816 28.4537L59.8962 26.886ZM59.881 23.5867C59.881 23.5867 67.5321 28.5357 68.9829 29.3202C70.4353 30.1033 72.1391 31.3799 77.7328 32.0745C83.328 32.7675 85.9536 33.081 85.9536 33.081V33.5071C85.9536 33.5071 81.3256 33.0151 77.7099 32.634C74.0945 32.253 71.6311 31.7385 68.9373 30.3043C66.2436 28.8717 59.8953 25.2734 59.8953 25.2734L59.8806 23.5868L59.881 23.5867ZM59.881 20.2873C59.881 20.2873 67.5094 26.1623 68.9376 27.1914C70.3656 28.222 72.2529 29.4231 77.7328 30.1934C83.1675 30.9555 85.9536 31.3349 85.9536 31.3349V31.7835C85.9536 31.7835 81.0269 31.0873 77.7328 30.6854C74.4402 30.2818 71.9152 30.1114 68.9603 28.1996C66.083 26.3393 59.8956 22.109 59.8956 22.109L59.881 20.2873ZM59.8962 16.8386C59.8962 16.8386 66.5836 22.8695 68.9609 24.931C71.1484 26.8267 72.9221 27.4168 77.7335 28.2449C82.5466 29.0729 85.9771 29.5874 85.9771 29.5874V30.0135C85.9771 30.0135 81.625 29.3189 77.7108 28.7144C73.7967 28.1098 71.3027 27.8719 68.9609 26.0276C66.259 23.8988 59.8962 18.81 59.8962 18.81V16.8386ZM59.8962 13.6139C59.8962 13.6139 66.9276 20.7705 68.9609 22.8252C71.1175 25.0038 73.881 25.811 77.7108 26.475C81.367 27.1085 85.9771 27.8417 85.9771 27.8417V28.2437C85.9771 28.2437 81.6476 27.5555 77.7108 26.9011C73.8503 26.258 71.1484 25.901 68.9382 23.9219C66.9585 22.15 59.8962 15.7186 59.8962 15.7186V13.6139ZM59.8813 10.1353C59.8813 10.1353 67.4969 18.8708 68.9606 20.4288C71.2406 22.855 72.3456 23.6912 77.7332 24.7058C79.8882 25.1126 85.9769 26.1625 85.9769 26.1625V26.5419C85.9769 26.5419 80.935 25.6464 77.7332 25.0868C74.5331 24.5273 71.8247 24.3183 68.938 21.5705C66.7391 19.4786 59.8959 12.3896 59.8959 12.3896L59.8813 10.1353ZM59.8962 6.79106C59.8962 6.79106 67.4178 16.4205 68.9382 18.3468C70.4572 20.2714 72.552 21.8615 77.7335 22.8471C80.7208 23.4162 85.9771 24.3697 85.9771 24.3697V24.7282C85.9771 24.7282 81.3718 23.8777 77.7335 23.2281C74.0954 22.5785 71.0917 21.9498 68.9382 19.5558C67.0494 17.4543 59.8816 9.19471 59.8816 9.19471L59.8962 6.79106ZM59.8962 3.38717C59.8962 3.38717 67.8784 14.7177 68.9382 16.1069C69.9979 17.4961 71.4243 19.7343 77.7335 21.0559C79.3627 21.3968 85.9998 22.6911 85.9998 22.6911V23.0497C85.9998 23.0497 80.9562 22.0865 77.7335 21.4145C74.509 20.7424 71.1224 20.1298 68.9609 17.4286C66.9974 14.975 59.8816 5.92597 59.8816 5.92597L59.8962 3.38717ZM59.8962 -0.00195312C59.8962 -0.00195312 67.6204 11.9171 69.034 14.1087C70.4458 16.2986 72.0603 18.0318 77.7756 19.2088C83.4909 20.3859 85.9786 20.9421 85.9786 20.9421V21.3666C85.9786 21.3666 82.3468 20.6141 77.6733 19.6011C73.0015 18.5882 71.0914 18.2457 68.9606 15.3676C67.1869 12.9719 59.8959 2.78933 59.8959 2.78933L59.8962 -0.00195312Z" fill="#BDBCBC"/>
<path d="M54.6253 17.25H17.5793V41.8052H54.6253V17.25Z" fill="#254AA5"/>
<path d="M17.5767 58.9994H54.6283V56.9043H17.5767V58.9994Z" fill="#254AA5"/>
<path d="M32.3131 36.0446H33.6015L32.563 36.8164L32.9638 38.04L31.9317 37.2859L30.8964 38.04L31.3053 36.8164L30.257 36.0446H31.5423L31.9317 34.85L32.3131 36.0446ZM29.3188 33.0782H30.6106L29.5704 33.8515L29.9728 35.0767L28.9392 34.321L27.9055 35.0767L28.3112 33.8515L27.2629 33.0782H28.5497L28.9392 31.8868L29.3188 33.0782ZM28.2235 28.9028H29.5136L28.475 29.6746L28.8775 30.8998L27.8438 30.1457L26.8084 30.8998L27.2157 29.6746L26.1691 28.9028H27.4543L27.8437 27.7098L28.2235 28.9028ZM29.3188 24.8528H30.6106L29.5704 25.6246L29.9728 26.8497L28.9392 26.094L27.9055 26.8497L28.3112 25.6246L27.2629 24.8528H28.5497L28.9392 23.6597L29.3188 24.8528ZM32.2701 21.8457H33.5585L32.52 22.6191L32.924 23.8426L31.8887 23.0869L30.8534 23.8426L31.2623 22.6191L30.214 21.8457H31.4992L31.8887 20.6526L32.2701 21.8457ZM44.7444 28.8926H46.0361L44.9959 29.6644L45.4 30.8896L44.3646 30.1339L43.3309 30.8896L43.7382 29.6644L42.6883 28.8926H43.9735L44.3646 27.6996L44.7444 28.8926ZM43.6072 33.0679H44.8956L43.857 33.8413L44.2611 35.0665L43.2258 34.3108L42.1937 35.0665L42.601 33.8413L41.5511 33.0679H42.8363L43.2258 31.8733L43.6072 33.0679ZM43.6072 24.8425H44.8956L43.857 25.6127L44.2611 26.8379L43.2258 26.0838L42.1937 26.8379L42.601 25.6127L41.5511 24.8425H42.8363L43.2258 23.6479L43.6072 24.8425ZM40.5719 21.8355H41.8636L40.8235 22.6072L41.2275 23.8308L40.1922 23.0767L39.1585 23.8308L39.5658 22.6072L38.5159 21.8355H39.8027L40.1922 20.6424L40.5719 21.8355ZM40.5719 36.0344H41.8636L40.8235 36.8062L41.2275 38.0298L40.1922 37.2741L39.1585 38.0298L39.5658 36.8062L38.5159 36.0344H39.8027L40.1922 34.8398L40.5719 36.0344ZM36.4838 37.1188H37.7755L36.7353 37.8921L37.1394 39.1141L36.104 38.3616L35.0704 39.1141L35.4777 37.8921L34.4277 37.1188H35.7146L36.104 35.9257L36.4838 37.1188ZM36.4383 20.7432H37.7268L36.6882 21.5455L37.0923 22.8174L36.0569 22.0343L35.0216 22.8174L35.4305 21.5455L34.3823 20.7432H35.6675L36.0569 19.502L36.4383 20.7432Z" fill="#FFF200"/>
<path d="M41.1367 47.9541H40.7164C40.6401 47.9541 40.6044 47.9187 40.6044 47.8447L40.6109 46.2176C40.6109 45.8751 40.5297 45.65 40.1906 45.65C39.9569 45.65 39.548 45.8349 39.389 45.9105V47.8447C39.389 47.9139 39.3598 47.9541 39.2786 47.9541H38.8632C38.782 47.9541 38.7528 47.9187 38.7528 47.8447V45.232C38.7528 45.158 38.782 45.1178 38.8632 45.1178H39.2786C39.3598 45.1178 39.389 45.1579 39.389 45.232V45.4072C39.3954 45.4072 39.402 45.4124 39.4069 45.4124C39.6227 45.2628 40.0316 45.0651 40.3887 45.0651C41.1773 45.0651 41.2487 45.5812 41.2487 46.1649V47.8451C41.2487 47.9143 41.2243 47.9544 41.1367 47.9544M37.6256 46.6627H36.9132C36.6211 46.6627 36.4329 46.7673 36.4329 47.1499C36.4329 47.4039 36.5205 47.4859 36.7964 47.4859C37.0479 47.4859 37.4032 47.3396 37.6256 47.2126L37.6256 46.6627ZM37.6613 47.6242C37.3692 47.8444 36.9765 48.0004 36.5854 48.0004C35.9655 48.0004 35.7854 47.6644 35.7854 47.1788C35.7789 46.5003 36.1473 46.2109 36.884 46.2109H37.6321V46.0613C37.6321 45.714 37.5022 45.5918 37.0235 45.5918C36.8304 45.5918 36.4621 45.6208 36.2284 45.6433C36.1115 45.6611 36.0823 45.6549 36.0661 45.5742L36.0126 45.3604C36.0009 45.2847 36.0191 45.2382 36.1473 45.1867C36.3988 45.0999 36.8597 45.0598 37.1355 45.0598C38.1465 45.0598 38.2682 45.4698 38.2682 46.1193V47.2368C38.2682 47.4732 38.2974 47.4796 38.4792 47.5021C38.5668 47.5085 38.5895 47.5262 38.5895 47.5889V47.8333C38.5895 47.8961 38.549 47.9362 38.45 47.9538C38.3559 47.9716 38.2634 47.9828 38.1757 47.9828C37.8999 47.9828 37.7311 47.9024 37.6727 47.6307L37.661 47.6242L37.6613 47.6242ZM33.7288 46.275H34.8858C34.8858 45.9213 34.7917 45.5804 34.3081 45.5804C33.8749 45.5804 33.758 45.8409 33.7288 46.275ZM33.7223 46.7091C33.7402 47.2944 33.9511 47.4568 34.4298 47.4568C34.6408 47.4568 34.967 47.415 35.1893 47.3924C35.2948 47.3809 35.3305 47.3809 35.3483 47.4906L35.3825 47.6819C35.4004 47.7687 35.3889 47.8154 35.2835 47.862C35.0547 47.9488 34.6296 48.0067 34.3423 48.0067C33.2259 48.0067 33.062 47.3008 33.062 46.5468C33.062 45.9856 33.1675 45.0595 34.3083 45.0595C35.3533 45.0595 35.54 45.7316 35.5578 46.3554C35.5643 46.5645 35.5059 46.7092 35.2722 46.7092L33.7223 46.7091ZM31.6025 45.6497C31.3623 45.6497 30.994 45.8169 30.8187 45.9102V47.3573C31.0816 47.4329 31.2925 47.4554 31.4921 47.4554C31.9124 47.4554 32.0585 47.2416 32.0585 46.5132C32.0585 45.7768 31.9125 45.6497 31.6025 45.6497ZM31.5555 48.0069C31.3624 48.0069 31.0946 47.9716 30.8253 47.8783L30.8188 47.8847V48.9041C30.8188 48.9667 30.8026 49.0199 30.7084 49.0199H30.293C30.2006 49.0199 30.1826 48.9797 30.1826 48.9041V45.2332C30.1826 45.1577 30.2119 45.1174 30.293 45.1174H30.7084C30.7913 45.1174 30.814 45.1625 30.814 45.2332V45.4069L30.8319 45.4184C31.0412 45.2737 31.4161 45.0712 31.7552 45.0712C32.5196 45.0712 32.7192 45.6435 32.7192 46.5182C32.7192 47.4621 32.4788 48.0069 31.5555 48.0069ZM28.5706 45.6147C28.074 45.6147 27.962 45.9282 27.962 46.5296C27.962 47.1438 28.0739 47.4445 28.5641 47.4445C29.0963 47.4445 29.2018 47.1486 29.2018 46.5296C29.2018 45.9154 29.1028 45.6147 28.5706 45.6147ZM28.5641 48.0008C27.3908 48.0008 27.3146 47.1486 27.3146 46.4894C27.3146 45.9443 27.4362 45.0584 28.5641 45.0584C29.6984 45.0584 29.8558 45.806 29.8558 46.4894C29.8558 47.1486 29.7747 48.0008 28.5641 48.0008ZM26.1108 47.844C26.1108 47.9132 26.0816 47.9533 26.0005 47.9533H25.5786C25.4974 47.9533 25.4682 47.9195 25.4682 47.844V45.2328C25.4682 45.1572 25.4974 45.1171 25.5786 45.1171H25.994C26.0816 45.1171 26.1108 45.1636 26.1108 45.2328V45.4869L26.1225 45.4985C26.2978 45.3377 26.7132 45.1399 26.9874 45.0885C27.0638 45.0707 27.1156 45.0885 27.1286 45.1865L27.1691 45.574C27.1743 45.656 27.1808 45.6897 27.0572 45.7138C26.7311 45.7766 26.3156 45.8923 26.1112 45.9791V47.8443L26.1108 47.844ZM24.8613 47.954H24.4459C24.3582 47.954 24.3355 47.9138 24.3355 47.8446V47.6646L24.3238 47.6581C24.095 47.8157 23.6975 48.0054 23.3421 48.0054C22.5534 48.0054 22.4771 47.5424 22.4771 46.9346V45.2319C22.4771 45.1628 22.5063 45.1177 22.5875 45.1177H23.0143C23.0906 45.1177 23.1198 45.1578 23.1198 45.2319V46.859C23.1198 47.2079 23.1895 47.4266 23.5466 47.4266C23.7981 47.4266 24.1827 47.2417 24.3352 47.1661V45.2319C24.3352 45.1628 24.358 45.1176 24.4456 45.1176H24.861C24.9422 45.1176 24.9714 45.1578 24.9714 45.2319V47.8446C24.9714 47.9186 24.9424 47.954 24.8613 47.954ZM19.7432 44.2251C19.7432 44.1495 19.7789 44.1094 19.86 44.1094H22.0101C22.08 44.1094 22.1222 44.1495 22.1222 44.2187V44.5789C22.1222 44.6481 22.093 44.6834 22.0053 44.6834H20.4102V45.6787H21.8236C21.8998 45.6787 21.9404 45.7141 21.9404 45.7831V46.1417C21.9404 46.2109 21.9112 46.2462 21.8236 46.2462H20.4102V47.3861H22.0459C22.1156 47.3861 22.1515 47.4215 22.1515 47.4971V47.8493C22.1515 47.9249 22.1222 47.9537 22.0394 47.9537H19.8601C19.7789 47.9537 19.7432 47.9183 19.7432 47.8493L19.7432 44.2251Z" fill="#5A5758"/>
<path d="M47.0535 54.0632H46.6332C46.5569 54.0632 46.5212 54.0278 46.5212 53.9539L46.5277 52.3267C46.5277 51.9842 46.4465 51.7591 46.1074 51.7591C45.8737 51.7591 45.4648 51.944 45.3058 52.0196V53.9539C45.3058 54.0231 45.2765 54.0632 45.1954 54.0632H44.78C44.6988 54.0632 44.6696 54.0278 44.6696 53.9539V51.3411C44.6696 51.2671 44.6988 51.2269 44.78 51.2269H45.1954C45.2765 51.2269 45.3058 51.267 45.3058 51.3411V51.5164C45.3122 51.5164 45.3175 51.5215 45.3237 51.5215C45.5395 51.372 45.95 51.1742 46.3055 51.1742C47.0941 51.1742 47.1655 51.6903 47.1655 52.274V53.9542C47.1655 54.0234 47.1412 54.0636 47.0535 54.0636M43.0688 51.7239C42.5722 51.7239 42.4619 52.0375 42.4619 52.6388C42.4619 53.253 42.5722 53.5537 43.0623 53.5537C43.5946 53.5537 43.7001 53.2579 43.7001 52.6388C43.7001 52.0246 43.601 51.7239 43.0688 51.7239ZM43.0624 54.11C41.8891 54.11 41.8128 53.2579 41.8128 52.5986C41.8128 52.0536 41.9345 51.1676 43.0624 51.1676C44.1967 51.1676 44.3541 51.9153 44.3541 52.5986C44.3541 53.2579 44.2729 54.11 43.0624 54.11ZM41.3805 53.9533C41.3805 54.016 41.3578 54.0626 41.275 54.0626H40.8596C40.7784 54.0626 40.7427 54.0288 40.7427 53.9533V51.3357C40.7427 51.2553 40.7784 51.2263 40.8596 51.2263H41.275C41.3578 51.2263 41.3805 51.2729 41.3805 51.3357V53.9533ZM41.0706 50.8098C40.7671 50.8098 40.7266 50.641 40.7266 50.4738C40.7266 50.2889 40.7899 50.1426 41.0706 50.1426C41.3578 50.1426 41.4162 50.276 41.4162 50.4738C41.4162 50.6523 41.3627 50.8098 41.0706 50.8098ZM39.1721 54.1098C38.8801 54.1098 38.489 54.0696 38.2666 53.9828C38.1498 53.9362 38.1255 53.8831 38.1433 53.7915L38.1838 53.6001C38.2017 53.5069 38.2422 53.5021 38.3364 53.5133C38.5928 53.5534 38.9676 53.5825 39.1656 53.5825C39.5404 53.5825 39.693 53.4844 39.693 53.2529C39.693 52.986 39.5923 52.9281 39.224 52.8767C38.6511 52.7946 38.1497 52.6741 38.1497 52.0422C38.1497 51.4698 38.5927 51.1691 39.2483 51.1691C39.4868 51.1691 39.8909 51.2029 40.1359 51.2961C40.235 51.3362 40.2771 51.3829 40.2593 51.4697L40.2123 51.6771C40.1945 51.7592 40.1603 51.7704 40.0549 51.7592C39.8033 51.7303 39.4755 51.6949 39.2597 51.6949C38.8865 51.6949 38.7989 51.7993 38.7989 52.0197C38.7989 52.2448 38.9384 52.2737 39.2954 52.3316C39.8504 52.4136 40.3518 52.5229 40.3518 53.2127C40.3518 53.8896 39.7742 54.1098 39.1721 54.1098ZM36.7243 54.1098C36.4322 54.1098 36.0411 54.0696 35.8188 53.9828C35.702 53.9363 35.6776 53.8831 35.6955 53.7915L35.736 53.6002C35.7539 53.5069 35.7944 53.5021 35.8885 53.5133C36.1449 53.5535 36.5198 53.5825 36.7178 53.5825C37.0926 53.5825 37.2452 53.4844 37.2452 53.2529C37.2452 52.986 37.1445 52.9281 36.7762 52.8767C36.2034 52.7946 35.7019 52.6741 35.7019 52.0422C35.7019 51.4698 36.1449 51.1691 36.8005 51.1691C37.0391 51.1691 37.4431 51.203 37.6881 51.2961C37.7872 51.3362 37.8293 51.3829 37.8115 51.4697L37.7645 51.6772C37.7466 51.7592 37.7126 51.7704 37.6071 51.7592C37.3555 51.7303 37.0278 51.6949 36.8119 51.6949C36.4387 51.6949 36.3511 51.7993 36.3511 52.0197C36.3511 52.2448 36.4906 52.2737 36.8476 52.3316C37.4026 52.4136 37.9041 52.523 37.9041 53.2127C37.9041 53.8896 37.3264 54.1098 36.7243 54.1098ZM35.2755 53.9534C35.2755 54.0161 35.2528 54.0627 35.17 54.0627H34.7545C34.6734 54.0627 34.6377 54.0289 34.6377 53.9534V51.3358C34.6377 51.2554 34.6734 51.2264 34.7545 51.2264H35.17C35.2528 51.2264 35.2755 51.273 35.2755 51.3358V53.9534ZM34.9656 50.8099C34.6621 50.8099 34.6215 50.6411 34.6215 50.4739C34.6215 50.289 34.6849 50.1427 34.9656 50.1427C35.2528 50.1427 35.3112 50.2761 35.3112 50.4739C35.3112 50.6524 35.2577 50.8099 34.9656 50.8099ZM34.0555 54.0633H33.6352C33.5525 54.0633 33.5232 54.0279 33.5232 53.9539V52.3091C33.5232 51.8798 33.4193 51.7592 33.1256 51.7592C32.9098 51.7592 32.5593 51.9264 32.3791 52.0197C32.3791 52.0775 32.3843 52.1821 32.3843 52.3139V53.9539C32.3843 54.0231 32.3616 54.0633 32.274 54.0633H31.8472C31.771 54.0633 31.7481 54.0279 31.7481 53.9539V52.2802C31.7481 51.9264 31.654 51.7592 31.3619 51.7592C31.1574 51.7592 30.8296 51.9039 30.6073 52.0197V53.9539C30.6073 54.0231 30.5781 54.0633 30.497 54.0633H30.0767C30.0004 54.0633 29.9712 54.0279 29.9712 53.9539V51.3412C29.9712 51.2672 30.0004 51.2269 30.0767 51.2269H30.4905C30.5781 51.2269 30.6073 51.272 30.6073 51.3412V51.51L30.6138 51.5164C30.841 51.3588 31.1623 51.1852 31.4852 51.174C31.8228 51.174 32.1035 51.2432 32.2853 51.5791C32.5773 51.3653 32.9392 51.174 33.3141 51.174C34.0849 51.174 34.1612 51.6724 34.1612 52.2512V53.9539C34.1612 54.0231 34.1366 54.0633 34.0555 54.0633ZM29.4755 54.0633H29.0553C28.9726 54.0633 28.9432 54.0279 28.9432 53.9539V52.3091C28.9432 51.8798 28.8394 51.7592 28.5456 51.7592C28.3298 51.7592 27.9793 51.9264 27.7992 52.0197C27.7992 52.0776 27.8044 52.1821 27.8044 52.3139V53.9539C27.8044 54.0231 27.7817 54.0633 27.694 54.0633H27.2672C27.191 54.0633 27.1682 54.0279 27.1682 53.9539V52.2802C27.1682 51.9264 27.0741 51.7592 26.782 51.7592C26.5775 51.7592 26.2497 51.9039 26.0274 52.0197V53.9539C26.0274 54.0231 25.9982 54.0633 25.9171 54.0633H25.4968C25.4204 54.0633 25.3912 54.0279 25.3912 53.9539V51.3412C25.3912 51.2672 25.4204 51.227 25.4968 51.227H25.9106C25.9982 51.227 26.0274 51.272 26.0274 51.3412V51.51L26.0339 51.5164C26.2611 51.3588 26.5824 51.1852 26.9053 51.174C27.2428 51.174 27.5236 51.2432 27.7053 51.5791C27.9974 51.3653 28.3593 51.174 28.7342 51.174C29.505 51.174 29.5812 51.6724 29.5812 52.2512V53.9539C29.5812 54.0231 29.5567 54.0633 29.4755 54.0633ZM23.773 51.724C23.2765 51.724 23.1645 52.0375 23.1645 52.6389C23.1645 53.2531 23.2765 53.5538 23.7665 53.5538C24.2988 53.5538 24.4043 53.2579 24.4043 52.6389C24.4043 52.0247 24.3052 51.724 23.773 51.724ZM23.7665 54.1101C22.5933 54.1101 22.517 53.2579 22.517 52.5987C22.517 52.0536 22.6387 51.1677 23.7665 51.1677C24.9009 51.1677 25.0583 51.9153 25.0583 52.5987C25.0583 53.2579 24.9771 54.1101 23.7665 54.1101ZM21.2669 50.1782C21.5525 50.1782 22.0263 50.2183 22.3362 50.3454C22.4304 50.3872 22.4644 50.4339 22.4466 50.5255L22.3947 50.7634C22.3768 50.8326 22.3477 50.8616 22.2421 50.8502C21.9565 50.8149 21.606 50.7747 21.3026 50.7747C20.5074 50.7747 20.3906 51.4115 20.3906 52.1639C20.3906 52.9228 20.5366 53.5194 21.3026 53.5194C21.6401 53.5194 21.9273 53.484 22.2421 53.4437C22.3542 53.4321 22.3768 53.4615 22.4012 53.537L22.4466 53.7573C22.4709 53.849 22.4414 53.902 22.3475 53.9422C22.0619 54.0627 21.5524 54.1158 21.2668 54.1158C19.9637 54.1158 19.6895 53.1607 19.6895 52.1751C19.6895 51.1863 19.9346 50.1782 21.2669 50.1782Z" fill="#5A5758"/>
</g>
<defs>
<clipPath id="clip0_495_49252">
<rect width="86" height="59" fill="white"/>
</clipPath>
</defs>
</svg>
