<svg width="62" height="28" viewBox="0 0 62 28" fill="none" xmlns="http://www.w3.org/2000/svg">
<path d="M24.3953 0.103516H0.527557V16.1383H24.3953V0.103516Z" fill="#4D5370"/>
<path d="M24.2916 0.207275V16.0348H0.631164V0.207275H24.2916ZM24.4989 0H0.423889V16.2421H24.4989V0Z" fill="white"/>
<path d="M12.7175 2.45633H13.5404L12.8771 2.97245L13.1341 3.79325L12.4729 3.2875L11.8138 3.79325L12.0729 2.97245L11.4054 2.45633H12.2242L12.4729 1.65625L12.7175 2.45633Z" fill="white"/>
<path d="M12.7465 13.0122H13.5714L12.9081 13.5117L13.1652 14.2993L12.504 13.8143L11.8427 14.2993L12.1039 13.5117L11.4344 13.0122H12.2552L12.504 12.2432L12.7465 13.0122Z" fill="white"/>
<path d="M15.3583 12.3139H16.1812L15.5179 12.8114L15.777 13.6011L15.1158 13.114L14.4546 13.6011L14.7158 12.8114L14.0442 12.3139H14.8671L15.1158 11.5449L15.3583 12.3139Z" fill="white"/>
<path d="M15.3583 3.16254H16.1812L15.5179 3.66L15.777 4.44765L15.1158 3.96262L14.4546 4.44765L14.7158 3.66L14.0442 3.16254H14.8671L15.1158 2.39355L15.3583 3.16254Z" fill="white"/>
<path d="M17.2962 5.10102H18.1191L17.4558 5.59848L17.7128 6.3882L17.0516 5.9011L16.3925 6.3882L16.6536 5.59848L15.9821 5.10102H16.8029L17.0516 4.33203L17.2962 5.10102Z" fill="white"/>
<path d="M17.2961 10.4028H18.119L17.4557 10.9002L17.7128 11.69L17.0516 11.2029L16.3924 11.69L16.6536 10.9002L15.982 10.4028H16.8028L17.0516 9.63379L17.2961 10.4028Z" fill="white"/>
<path d="M18.0216 7.70942H18.8466L18.1833 8.20688L18.4403 8.9966L17.7791 8.5095L17.1179 8.9966L17.3791 8.20688L16.7096 7.70942H17.5304L17.7791 6.94043L18.0216 7.70942Z" fill="white"/>
<path d="M10.0559 3.1684H10.8788L10.2155 3.66586L10.4726 4.45558L9.81136 3.96848L9.15015 4.45558L9.41132 3.66586L8.74182 3.1684H9.56263L9.81136 2.39941L10.0559 3.1684Z" fill="white"/>
<path d="M8.16981 5.1059H8.99476L8.33148 5.60336L8.5885 6.39308L7.92729 5.90598L7.26816 6.39308L7.52725 5.60336L6.85776 5.1059H7.68064L7.92729 4.33691L8.16981 5.1059Z" fill="white"/>
<path d="M7.47144 7.71711H8.29433L7.63105 8.21665L7.89014 9.00429L7.22893 8.51927L6.56773 9.00429L6.82682 8.21665L6.15939 7.71711H6.9802L7.22893 6.9502L7.47144 7.71711Z" fill="white"/>
<path d="M8.16984 10.4086H8.99479L8.33151 10.9061L8.58853 11.6958L7.92733 11.2087L7.26819 11.6958L7.52728 10.9061L6.85779 10.4086H7.68067L7.92733 9.63965L8.16984 10.4086Z" fill="white"/>
<path d="M10.083 12.3198H10.9059L10.2426 12.8172L10.4996 13.6069L9.8384 13.1199L9.17927 13.6069L9.43836 12.8172L8.77094 12.3198H9.58967L9.8384 11.5508L10.083 12.3198Z" fill="white"/>
<path d="M51.4203 8.21393C51.4203 4.50812 52.3305 0.737305 57.2716 0.737305C58.3335 0.737305 60.0889 0.889004 61.2375 1.36577C61.5842 1.51747 61.7143 1.69084 61.6492 2.03759L61.4542 2.92611C61.3892 3.18617 61.2808 3.29453 60.8907 3.25118C59.8288 3.12115 58.5286 2.96946 57.4016 2.96946C54.4543 2.96946 54.0209 5.35331 54.0209 8.17058C54.0209 11.0095 54.5627 13.2417 57.4016 13.2417C58.6586 13.2417 59.7205 13.1117 60.8907 12.96C61.3025 12.9166 61.3892 13.025 61.4759 13.3067L61.6492 14.1302C61.7359 14.477 61.6276 14.672 61.2808 14.8237C60.2189 15.2788 58.3335 15.4738 57.2716 15.4738C52.4389 15.4738 51.4203 11.8981 51.4203 8.21393Z" fill="white"/>
<path d="M46.5091 9.08045L49.3481 14.8234C49.4565 15.0834 49.3481 15.2785 49.1097 15.2785H47.246C46.9209 15.2785 46.7475 15.2134 46.6175 14.91L44.082 9.47054H41.8715V14.845C41.8715 15.1051 41.7631 15.2785 41.4597 15.2785H39.856C39.531 15.2785 39.4226 15.1484 39.4226 14.8667V1.30043C39.4226 1.04037 39.531 0.888672 39.856 0.888672H44.6671C46.8992 0.888672 49.088 2.12394 49.088 5.11459C49.088 6.65326 48.3946 8.3653 46.5091 9.08045ZM46.5525 5.11459C46.5525 3.48924 45.4256 3.03414 44.1686 3.03414H41.8715V7.41176H44.1253C45.1872 7.41176 46.5525 7.08668 46.5525 5.11459Z" fill="white"/>
<path d="M33.7365 11.2693V1.3221C33.7365 1.04037 33.8665 0.888672 34.1699 0.888672H35.7952C36.0986 0.888672 36.207 1.06204 36.207 1.3221V11.6377C36.207 14.0649 34.9284 15.4735 31.8511 15.4735C31.0275 15.4735 29.9873 15.3651 29.0988 15.0184C28.5787 14.8234 28.492 14.6717 28.6003 14.3249L28.8171 13.3497C28.9037 13.068 28.9688 13.003 29.2938 13.068C29.9656 13.1547 30.8758 13.2414 31.5043 13.2414C33.3464 13.2414 33.7365 12.5262 33.7365 11.2693Z" fill="white"/>
<path d="M61.6776 26.6122C61.6776 26.6944 61.6502 26.7424 61.5474 26.7424H61.0542C60.9652 26.7424 60.9241 26.7013 60.9241 26.6122L60.9309 24.6874C60.9309 24.2832 60.835 24.0161 60.4377 24.0161C60.1637 24.0161 59.6842 24.2353 59.4993 24.3243V26.6122C59.4993 26.6944 59.465 26.7424 59.3691 26.7424H58.8828C58.7869 26.7424 58.7526 26.7013 58.7526 26.6122V23.5229C58.7526 23.4338 58.7869 23.3859 58.8828 23.3859H59.3691C59.465 23.3859 59.4993 23.4338 59.4993 23.5229V23.7284C59.5061 23.7284 59.513 23.7352 59.5198 23.7352C59.7733 23.5571 60.2528 23.3242 60.6706 23.3242C61.5954 23.3242 61.6776 23.9339 61.6776 24.6257V26.6122Z" fill="white"/>
<path d="M58.1057 25.0103C58.1057 25.7912 58.0098 26.7982 56.5918 26.7982C55.215 26.7982 55.1259 25.7912 55.1259 25.0103C55.1259 24.3664 55.2698 23.3184 56.5918 23.3184C57.9207 23.3184 58.1057 24.202 58.1057 25.0103ZM57.3385 25.0583C57.3385 24.3322 57.222 23.976 56.5987 23.976C56.0164 23.976 55.8863 24.3459 55.8863 25.0583C55.8863 25.7844 56.0164 26.1406 56.5918 26.1406C57.2152 26.1406 57.3385 25.7912 57.3385 25.0583Z" fill="white"/>
<path d="M54.3857 22.4959C54.3857 22.7083 54.324 22.8932 53.9815 22.8932C53.6253 22.8932 53.5774 22.6946 53.5774 22.4959C53.5774 22.2767 53.6527 22.1055 53.9815 22.1055C54.3172 22.1055 54.3857 22.263 54.3857 22.4959ZM54.3446 23.5166V26.6128C54.3446 26.6881 54.3172 26.7429 54.2213 26.7429H53.7349C53.639 26.7429 53.5979 26.7018 53.5979 26.6128V23.5166C53.5979 23.4207 53.639 23.3864 53.7349 23.3864H54.2213C54.3172 23.3864 54.3446 23.4412 54.3446 23.5166Z" fill="white"/>
<path d="M52.8651 25.7364C52.8651 26.5379 52.1869 26.7982 51.4814 26.7982C51.1389 26.7982 50.6799 26.7502 50.4196 26.6475C50.2826 26.5927 50.2552 26.531 50.2758 26.4214L50.3237 26.1954C50.3443 26.0858 50.3922 26.0789 50.5018 26.0926C50.8032 26.1406 51.2416 26.1748 51.4745 26.1748C51.9129 26.1748 52.091 26.0584 52.091 25.7844C52.091 25.4693 51.9746 25.4008 51.543 25.3391C50.8717 25.2432 50.2826 25.0994 50.2826 24.3527C50.2826 23.6746 50.8032 23.3184 51.5704 23.3184C51.8513 23.3184 52.3239 23.3595 52.6116 23.4691C52.7281 23.517 52.776 23.5718 52.7555 23.6746L52.7007 23.9212C52.6801 24.0171 52.639 24.0308 52.5157 24.0171C52.2212 23.9828 51.8376 23.9417 51.5841 23.9417C51.1457 23.9417 51.043 24.065 51.043 24.3253C51.043 24.5925 51.2074 24.6267 51.6252 24.6952C52.276 24.7911 52.8651 24.9213 52.8651 25.7364Z" fill="white"/>
<path d="M49.5492 22.4959C49.5492 22.7083 49.4875 22.8932 49.145 22.8932C48.7888 22.8932 48.7409 22.6946 48.7409 22.4959C48.7409 22.2767 48.8162 22.1055 49.145 22.1055C49.4807 22.1055 49.5492 22.263 49.5492 22.4959ZM49.5081 23.5166V26.6128C49.5081 26.6881 49.4807 26.7429 49.3848 26.7429H48.8984C48.8025 26.7429 48.7614 26.7018 48.7614 26.6128V23.5166C48.7614 23.4207 48.8025 23.3864 48.8984 23.3864H49.3848C49.4807 23.3864 49.5081 23.4412 49.5081 23.5166Z" fill="white"/>
<path d="M47.9242 26.6122C47.9242 26.6944 47.8968 26.7424 47.8009 26.7424H47.3077C47.2118 26.7424 47.1776 26.7013 47.1776 26.6122V24.6668C47.1776 24.1599 47.0543 24.0161 46.7118 24.0161C46.4583 24.0161 46.0473 24.2147 45.835 24.3243C45.835 24.3928 45.8418 24.5161 45.8418 24.6737V26.6122C45.8418 26.6944 45.8144 26.7424 45.7117 26.7424H45.2116C45.1226 26.7424 45.0952 26.7013 45.0952 26.6122V24.6326C45.0952 24.2147 44.9856 24.0161 44.6431 24.0161C44.4033 24.0161 44.0197 24.1873 43.7594 24.3243V26.6122C43.7594 26.6944 43.7252 26.7424 43.6293 26.7424H43.1361C43.047 26.7424 43.0128 26.7013 43.0128 26.6122V23.5229C43.0128 23.4338 43.047 23.3859 43.1361 23.3859H43.6224C43.7252 23.3859 43.7594 23.4407 43.7594 23.5229V23.7215L43.7663 23.7284C44.0334 23.5434 44.4102 23.3379 44.7869 23.3242C45.1842 23.3242 45.513 23.4064 45.7254 23.8037C46.0679 23.5503 46.4926 23.3242 46.931 23.3242C47.8352 23.3242 47.9242 23.9133 47.9242 24.5983V26.6122Z" fill="white"/>
<path d="M42.2784 26.6122C42.2784 26.6944 42.251 26.7424 42.1551 26.7424H41.6619C41.566 26.7424 41.5317 26.7013 41.5317 26.6122V24.6668C41.5317 24.1599 41.4084 24.0161 41.0659 24.0161C40.8125 24.0161 40.4015 24.2147 40.1891 24.3243C40.1891 24.3928 40.196 24.5161 40.196 24.6737V26.6122C40.196 26.6944 40.1686 26.7424 40.0658 26.7424H39.5658C39.4767 26.7424 39.4493 26.7013 39.4493 26.6122V24.6326C39.4493 24.2147 39.3397 24.0161 38.9972 24.0161C38.7575 24.0161 38.3739 24.1873 38.1136 24.3243V26.6122C38.1136 26.6944 38.0793 26.7424 37.9834 26.7424H37.4902C37.4012 26.7424 37.3669 26.7013 37.3669 26.6122V23.5229C37.3669 23.4338 37.4012 23.3859 37.4902 23.3859H37.9766C38.0793 23.3859 38.1136 23.4407 38.1136 23.5229V23.7215L38.1204 23.7284C38.3876 23.5434 38.7643 23.3379 39.1411 23.3242C39.5384 23.3242 39.8672 23.4064 40.0795 23.8037C40.422 23.5503 40.8467 23.3242 41.2851 23.3242C42.1893 23.3242 42.2784 23.9133 42.2784 24.5983V26.6122Z" fill="white"/>
<path d="M36.6995 25.0103C36.6995 25.7912 36.6035 26.7982 35.1856 26.7982C33.8087 26.7982 33.7197 25.7912 33.7197 25.0103C33.7197 24.3664 33.8635 23.3184 35.1856 23.3184C36.5145 23.3184 36.6995 24.202 36.6995 25.0103ZM35.9322 25.0583C35.9322 24.3322 35.8158 23.976 35.1924 23.976C34.6102 23.976 34.48 24.3459 34.48 25.0583C34.48 25.7844 34.6102 26.1406 35.1856 26.1406C35.8089 26.1406 35.9322 25.7912 35.9322 25.0583Z" fill="white"/>
<path d="M29.9966 24.5097C29.9966 23.3384 30.2843 22.1465 31.8461 22.1465C32.1817 22.1465 32.7366 22.1944 33.0996 22.3451C33.2092 22.3931 33.2503 22.4479 33.2298 22.5575L33.1681 22.8383C33.1476 22.9205 33.1133 22.9548 32.99 22.9411C32.6544 22.9 32.2434 22.852 31.8872 22.852C30.9556 22.852 30.8186 23.6055 30.8186 24.496C30.8186 25.3934 30.9898 26.0989 31.8872 26.0989C32.2845 26.0989 32.6201 26.0578 32.99 26.0099C33.1202 25.9962 33.1476 26.0304 33.175 26.1195L33.2298 26.3798C33.2572 26.4894 33.2229 26.551 33.1133 26.599C32.7777 26.7428 32.1817 26.8045 31.8461 26.8045C30.3185 26.8045 29.9966 25.6742 29.9966 24.5097Z" fill="white"/>
<path d="M27.2938 26.6122C27.2938 26.6944 27.2664 26.7424 27.1636 26.7424H26.6704C26.5814 26.7424 26.5403 26.7013 26.5403 26.6122L26.5471 24.6874C26.5471 24.2832 26.4512 24.0161 26.0539 24.0161C25.7799 24.0161 25.3004 24.2353 25.1155 24.3243V26.6122C25.1155 26.6944 25.0812 26.7424 24.9853 26.7424H24.499C24.4031 26.7424 24.3688 26.7013 24.3688 26.6122V23.5229C24.3688 23.4338 24.4031 23.3859 24.499 23.3859H24.9853C25.0812 23.3859 25.1155 23.4338 25.1155 23.5229V23.7284C25.1223 23.7284 25.1292 23.7352 25.136 23.7352C25.3895 23.5571 25.869 23.3242 26.2868 23.3242C27.2116 23.3242 27.2938 23.9339 27.2938 24.6257V26.6122Z" fill="white"/>
<path d="M22.7724 25.8666V25.2158H21.9367C21.5942 25.2158 21.375 25.3391 21.375 25.7912C21.375 26.0926 21.4777 26.1885 21.7997 26.1885C22.0942 26.1885 22.5121 26.0173 22.7724 25.8666ZM22.8272 26.3598L22.8135 26.3529C22.471 26.6132 22.012 26.7982 21.5531 26.7982C20.827 26.7982 20.6146 26.4009 20.6146 25.8255C20.6078 25.024 21.0393 24.6815 21.9024 24.6815H22.7792V24.5034C22.7792 24.0924 22.6285 23.9486 22.0668 23.9486C21.8408 23.9486 21.4092 23.9828 21.1352 24.0102C20.9982 24.0308 20.964 24.0239 20.9434 23.928L20.8818 23.6746C20.8681 23.5855 20.8886 23.5307 21.0393 23.4691C21.3339 23.3663 21.875 23.3184 22.197 23.3184C23.382 23.3184 23.5259 23.8047 23.5259 24.5719V25.894C23.5259 26.1748 23.5601 26.1817 23.7725 26.2091C23.8752 26.2159 23.9026 26.2365 23.9026 26.3118V26.5995C23.9026 26.6749 23.8547 26.7228 23.7382 26.7434C23.6286 26.7639 23.519 26.7776 23.4163 26.7776C23.0943 26.7776 22.8957 26.6817 22.8272 26.3598Z" fill="white"/>
<path d="M19.7393 25.2706H17.924C17.9446 25.9625 18.1912 26.1543 18.7529 26.1543C18.9995 26.1543 19.3831 26.1063 19.6434 26.0789C19.7667 26.0652 19.8078 26.0652 19.8283 26.1954L19.8694 26.4214C19.89 26.5242 19.8763 26.579 19.753 26.6338C19.4858 26.7365 18.9858 26.805 18.6501 26.805C17.3418 26.805 17.15 25.9693 17.15 25.0788C17.15 24.4144 17.2733 23.3184 18.609 23.3184C19.8352 23.3184 20.0544 24.113 20.0749 24.8528C20.0818 25.0994 20.0133 25.2706 19.7393 25.2706ZM18.609 23.9349C18.1021 23.9349 17.9651 24.2431 17.9309 24.7569H19.2872C19.2872 24.339 19.1776 23.9349 18.609 23.9349Z" fill="white"/>
<path d="M16.6054 25.0436C16.6054 26.1601 16.3246 26.804 15.2423 26.804C15.0162 26.804 14.7011 26.7629 14.386 26.6533L14.3792 26.6602V27.8658C14.3792 27.9411 14.3586 28.0028 14.249 28.0028H13.7627C13.6531 28.0028 13.6325 27.9548 13.6325 27.8658V23.5229C13.6325 23.4338 13.6668 23.3859 13.7627 23.3859H14.249C14.3449 23.3859 14.3723 23.4407 14.3723 23.5229V23.7284L14.3929 23.7421C14.6395 23.5708 15.0779 23.3311 15.4752 23.3311C16.3725 23.3311 16.6054 24.0092 16.6054 25.0436ZM15.8314 25.0367C15.8314 24.1668 15.6601 24.0161 15.2971 24.0161C15.0162 24.0161 14.5847 24.2147 14.3792 24.3243V26.0368C14.6874 26.1259 14.934 26.1533 15.1669 26.1533C15.6601 26.1533 15.8314 25.8998 15.8314 25.0367Z" fill="white"/>
<path d="M12.972 25.0103C12.972 25.7912 12.8761 26.7982 11.4581 26.7982C10.0813 26.7982 9.99222 25.7912 9.99222 25.0103C9.99222 24.3664 10.1361 23.3184 11.4581 23.3184C12.787 23.3184 12.972 24.202 12.972 25.0103ZM12.2048 25.0583C12.2048 24.3322 12.0883 23.976 11.465 23.976C10.8827 23.976 10.7526 24.3459 10.7526 25.0583C10.7526 25.7844 10.8827 26.1406 11.4581 26.1406C12.0815 26.1406 12.2048 25.7912 12.2048 25.0583Z" fill="white"/>
<path d="M8.44237 24.4066V26.6123C8.44237 26.6945 8.40812 26.7425 8.31222 26.7425H7.81902C7.72312 26.7425 7.68887 26.7014 7.68887 26.6123V23.523C7.68887 23.4339 7.72312 23.386 7.81902 23.386H8.30537C8.40812 23.386 8.44237 23.4408 8.44237 23.523V23.8244L8.45607 23.8381C8.66157 23.6463 9.14792 23.4134 9.46987 23.3517C9.55892 23.3312 9.62057 23.3517 9.63427 23.4682L9.68222 23.9271C9.68907 24.023 9.69592 24.0641 9.55207 24.0915C9.16847 24.1669 8.68212 24.3039 8.44237 24.4066Z" fill="white"/>
<path d="M6.83087 26.6131C6.83087 26.7021 6.79662 26.7432 6.70072 26.7432H6.21437C6.11162 26.7432 6.08422 26.6953 6.08422 26.6131V26.4007L6.07052 26.3939C5.80337 26.5788 5.33757 26.8049 4.91972 26.8049C3.99496 26.8049 3.90591 26.2569 3.90591 25.5376V23.5237C3.90591 23.4415 3.94016 23.3867 4.03606 23.3867H4.53611C4.62516 23.3867 4.65941 23.4347 4.65941 23.5237V25.4486C4.65941 25.8596 4.74161 26.1199 5.15947 26.1199C5.45402 26.1199 5.90612 25.9007 6.08422 25.8116V23.5237C6.08422 23.4415 6.11162 23.3867 6.21437 23.3867H6.70072C6.79662 23.3867 6.83087 23.4347 6.83087 23.5237V26.6131Z" fill="white"/>
<path d="M0.423889 26.6194V22.3313C0.423889 22.2423 0.464989 22.1943 0.560889 22.1943H3.08169C3.16389 22.1943 3.21184 22.2423 3.21184 22.3245V22.7492C3.21184 22.8314 3.17759 22.8725 3.07484 22.8725H1.20479V24.0507H2.86249C2.95154 24.0507 2.99949 24.0918 2.99949 24.174V24.5987C2.99949 24.6809 2.96524 24.722 2.86249 24.722H1.20479V26.0714H3.12279C3.20499 26.0714 3.24609 26.1125 3.24609 26.2016V26.6194C3.24609 26.7085 3.21184 26.7427 3.11594 26.7427H0.560889C0.464989 26.7427 0.423889 26.7016 0.423889 26.6194Z" fill="white"/>
</svg>
