<svg width="86" height="25" viewBox="0 0 86 25" fill="none" xmlns="http://www.w3.org/2000/svg">
<g clip-path="url(#clip0_495_49264)">
<path d="M81.489 10.2037C81.1065 9.3635 80.592 8.63789 79.9457 8.01412C79.2994 7.39034 78.5476 6.9066 77.677 6.55016C76.8065 6.19372 75.8831 6.0155 74.9203 6.0155C73.9178 6.0155 72.9945 6.19372 72.1371 6.55016C71.715 6.72838 71.3061 6.93206 70.9368 7.17393C70.5543 7.4158 70.1982 7.69586 69.8684 8.01412C69.6706 8.20507 69.4727 8.40875 69.3012 8.62516C69.1034 8.86703 68.8923 9.18528 68.7604 9.37623C68.6022 9.6181 68.246 10.3437 68.0877 10.8529C68.1141 10 68.246 8.71427 68.7604 8.00138V1.78912C68.7604 1.38175 68.6153 1.03804 68.312 0.757981C68.0086 0.47792 67.6657 0.337891 67.27 0.337891C66.8479 0.337891 66.4917 0.47792 66.2015 0.757981C65.9114 1.03804 65.7663 1.38175 65.7663 1.78912V7.30123C65.1595 6.89387 64.5132 6.57562 63.8141 6.34648C63.115 6.11734 62.3896 6.00277 61.6245 6.00277C60.6485 6.00277 59.7383 6.18099 58.8678 6.53743C57.9972 6.89387 57.2454 7.37761 56.5991 8.00138C55.9528 8.62516 55.4384 9.35077 55.069 10.191C55.0426 10.2546 55.0163 10.3183 54.9899 10.3819C54.9635 10.3183 54.9371 10.2546 54.9107 10.191C54.5282 9.35077 54.0138 8.62516 53.3675 8.00138C52.7212 7.37761 51.9693 6.89387 51.0988 6.53743C50.2282 6.18099 49.3049 6.00277 48.342 6.00277C47.3396 6.00277 46.4163 6.18099 45.5589 6.53743C44.7015 6.89387 43.9497 7.37761 43.2902 8.00138C42.6307 8.62516 42.1163 9.35077 41.7469 10.191C41.7206 10.2546 41.6942 10.3055 41.6678 10.3692C41.6414 10.3055 41.615 10.2546 41.5887 10.191C41.2061 9.35077 40.6917 8.62516 40.0586 8.00138C39.4123 7.37761 38.6604 6.89387 37.7899 6.53743C36.9193 6.18099 36.0092 6.00277 35.0331 6.00277C34.0307 6.00277 33.1074 6.18099 32.25 6.53743C31.3926 6.89387 30.6408 7.37761 29.9813 8.00138C29.3218 8.62516 28.8074 9.35077 28.438 10.191C28.4117 10.2419 28.3985 10.3055 28.3721 10.3564C28.3457 10.3055 28.3325 10.2419 28.3061 10.191C27.9236 9.35077 27.4092 8.62516 26.7629 8.00138C26.1166 7.37761 25.3647 6.89387 24.4942 6.53743C23.6236 6.18099 22.7003 6.00277 21.7374 6.00277C20.735 6.00277 19.8117 6.18099 18.9543 6.53743C18.1629 6.86841 17.4638 7.31396 16.8439 7.87408V7.64494C16.8439 6.83022 16.158 6.16826 15.3138 6.16826H4.68252C3.83835 6.16826 3.15246 6.83022 3.15246 7.64494C3.15246 8.45967 3.83835 9.12163 4.68252 9.12163H13.0847L3.2316 21.9281C3.03374 22.1827 2.92822 22.4882 2.92822 22.8064V23.7612C2.92822 24.5759 3.61411 25.2379 4.45828 25.2379H15.8282C16.6328 25.2379 17.2923 24.6396 17.3451 23.8758C17.8463 24.2577 18.4135 24.5887 19.0203 24.8433C19.8908 25.1997 20.8009 25.3779 21.777 25.3779C23.2543 25.3779 24.5601 24.996 25.7209 24.2322C26.6574 23.6212 27.396 22.8574 27.9236 21.9408V23.9267C27.9236 24.3341 28.0687 24.6778 28.3589 24.9578C28.6491 25.2379 29.0052 25.3779 29.4273 25.3779C29.823 25.3779 30.166 25.2379 30.4693 24.9578C30.7727 24.6778 30.9178 24.3341 30.9178 23.9267V18.771V18.7583C30.9178 18.7583 27.5939 18.7583 27.185 18.7583C26.8684 18.7583 26.5914 18.8347 26.3408 19.0002C26.0902 19.1657 25.9055 19.3948 25.8132 19.6621L25.5626 20.1459C25.2196 20.8587 24.7184 21.4189 24.0457 21.839C23.373 22.2591 22.6212 22.4627 21.777 22.4627C21.223 22.4627 20.6954 22.3609 20.181 22.1572C19.6666 21.9535 19.2313 21.6735 18.862 21.3043C18.4926 20.9351 18.2025 20.515 17.9782 20.0313C17.754 19.5476 17.6485 19.0383 17.6485 18.5037V17.2052H27.2245H27.9368H30.931V12.8643C30.931 12.3296 31.0365 11.8204 31.2476 11.3494C31.4586 10.8657 31.7488 10.4456 32.1313 10.0764C32.5138 9.70722 32.9491 9.42715 33.4503 9.22347C33.9515 9.01979 34.4923 8.91795 35.0595 8.91795C35.6135 8.91795 36.1411 9.01979 36.6555 9.22347C37.1699 9.42715 37.6052 9.70722 37.9745 10.0764C38.3439 10.4456 38.6341 10.8657 38.8583 11.3494C39.0825 11.8331 39.188 12.3423 39.188 12.8643V23.9267C39.188 24.3341 39.3331 24.6778 39.6233 24.9578C39.9135 25.2379 40.2696 25.3779 40.6917 25.3779C41.0874 25.3779 41.4304 25.2379 41.7337 24.9578C42.0371 24.6778 42.1822 24.3341 42.1822 23.9267V21.9408C42.4988 22.4627 42.8813 22.9465 43.3166 23.3793C43.9629 24.0031 44.7147 24.4868 45.5853 24.8433C46.4558 25.1997 47.366 25.3779 48.342 25.3779C49.3181 25.3779 50.2282 25.1997 51.0988 24.8433C51.9693 24.4868 52.7212 24.0031 53.3807 23.3793C54.0402 22.7555 54.5546 22.0299 54.9239 21.1897C54.9503 21.1388 54.9635 21.0879 54.9767 21.037C55.0031 21.0879 55.0163 21.1388 55.0426 21.1897C55.412 22.0299 55.9264 22.7555 56.5859 23.3793C57.2454 24.0031 57.9972 24.4868 58.8546 24.8433C59.712 25.1997 60.6353 25.3779 61.6377 25.3779C62.6138 25.3779 63.5239 25.1997 64.3945 24.8433C65.265 24.4868 66.0169 24.0031 66.6632 23.3793C67.3095 22.7555 67.8239 22.0299 68.2065 21.1897C68.2328 21.1261 68.2592 21.0624 68.2856 20.9988C68.312 21.0624 68.3383 21.1261 68.3647 21.1897C68.7472 22.0299 69.2617 22.7555 69.908 23.3793C70.5543 24.0031 71.3061 24.4868 72.1767 24.8433C73.0472 25.1997 73.9574 25.3779 74.9334 25.3779C75.9095 25.3779 76.8196 25.1997 77.6902 24.8433C78.5607 24.4868 79.3126 24.0031 79.9721 23.3793C80.6316 22.7555 81.146 22.0299 81.5154 21.1897C81.8847 20.3495 82.0693 19.4584 82.0693 18.5291V12.8643C82.0693 11.9222 81.8715 11.0311 81.489 10.2037ZM6.74019 22.2972L14.7202 11.9222C14.6807 12.2278 14.6543 12.546 14.6543 12.8515V18.5164C14.6543 19.4584 14.839 20.3368 15.2215 21.177C15.3929 21.5716 15.604 21.9408 15.8414 22.2845C15.8282 22.2845 15.8282 22.2845 15.815 22.2845L6.74019 22.2972ZM25.9319 14.341H17.6617V12.8643C17.6617 12.3296 17.7672 11.8204 17.9782 11.3494C18.1893 10.8657 18.4795 10.4456 18.862 10.0764C19.2445 9.70722 19.6798 9.42715 20.181 9.22347C20.6822 9.01979 21.223 8.91795 21.8034 8.91795C22.3574 8.91795 22.885 9.01979 23.3994 9.22347C23.9138 9.42715 24.3491 9.70722 24.7184 10.0764C25.0877 10.4456 25.3779 10.8657 25.6022 11.3494C25.8264 11.8331 25.9319 12.3423 25.9319 12.8643V14.341ZM52.5101 18.5291C52.5101 19.0638 52.4046 19.573 52.1936 20.0568C51.9825 20.5405 51.6923 20.9606 51.3098 21.3298C50.9273 21.6989 50.492 21.979 49.9908 22.1827C49.4896 22.3864 48.9488 22.4882 48.3816 22.4882C47.8276 22.4882 47.3 22.3864 46.7856 22.1827C46.2712 21.979 45.8359 21.6989 45.4666 21.3298C45.0972 20.9606 44.8071 20.5405 44.5828 20.0568C44.3586 19.573 44.2531 19.0638 44.2531 18.5291V12.8643C44.2531 12.3296 44.3586 11.8204 44.5696 11.3494C44.7807 10.8657 45.0709 10.4456 45.4534 10.0764C45.8359 9.70722 46.2712 9.42715 46.7724 9.22347C47.2736 9.01979 47.8144 8.91795 48.3948 8.91795C48.9488 8.91795 49.4764 9.01979 49.9908 9.22347C50.5052 9.42715 50.9405 9.70722 51.3098 10.0764C51.6791 10.4456 51.9693 10.8657 52.1936 11.3494C52.4178 11.8331 52.5233 12.3423 52.5233 12.8643C52.5101 12.8643 52.5101 18.5291 52.5101 18.5291ZM65.7926 18.5291C65.7926 19.0638 65.6871 19.573 65.4629 20.0568C65.2387 20.5405 64.9485 20.9606 64.5792 21.3298C64.2098 21.6989 63.7746 21.979 63.2601 22.1827C62.7457 22.3864 62.2181 22.4882 61.6641 22.4882C61.0838 22.4882 60.543 22.3864 60.0549 22.1827C59.5537 21.979 59.1184 21.6989 58.7359 21.3298C58.3534 20.9606 58.0632 20.5405 57.8522 20.0568C57.6411 19.573 57.5356 19.0638 57.5356 18.5291V12.8643C57.5356 12.3296 57.6543 11.8204 57.8653 11.3494C58.0896 10.8657 58.3798 10.4456 58.7491 10.0764C59.1184 9.70722 59.5537 9.42715 60.0681 9.22347C60.5825 9.01979 61.1101 8.91795 61.6641 8.91795C62.2445 8.91795 62.7853 9.01979 63.2733 9.22347C63.7746 9.42715 64.2098 9.70722 64.5923 10.0764C64.9749 10.4456 65.265 10.8657 65.4761 11.3494C65.6871 11.8331 65.7926 12.3423 65.7926 12.8643V18.5291ZM79.0752 18.5291C79.0752 19.0638 78.9696 19.573 78.7586 20.0568C78.5476 20.5405 78.2574 20.9606 77.8749 21.3298C77.4923 21.6989 77.0571 21.979 76.5558 22.1827C76.0546 22.3864 75.5138 22.4882 74.9466 22.4882C74.3926 22.4882 73.865 22.3864 73.3506 22.1827C72.8362 21.979 72.4009 21.6989 72.0316 21.3298C71.6623 20.9606 71.3721 20.5405 71.1479 20.0568C70.9236 19.573 70.8181 19.0638 70.8181 18.5291V12.8643C70.8181 12.3296 70.9236 11.8204 71.1347 11.3494C71.3457 10.8657 71.6359 10.4456 72.0184 10.0764C72.4009 9.70722 72.8362 9.42715 73.3374 9.22347C73.8387 9.01979 74.3795 8.91795 74.9598 8.91795C75.5138 8.91795 76.0414 9.01979 76.5558 9.22347C77.0703 9.42715 77.5055 9.70722 77.8749 10.0764C78.2442 10.4456 78.5344 10.8657 78.7586 11.3494C78.9828 11.8331 79.0883 12.3423 79.0883 12.8643L79.0752 18.5291Z" fill="#0047A8"/>
</g>
<defs>
<clipPath id="clip0_495_49264">
<rect width="86" height="25" fill="white"/>
</clipPath>
</defs>
</svg>
