<svg width="55" height="18" viewBox="0 0 55 18" fill="none" xmlns="http://www.w3.org/2000/svg">
<g clip-path="url(#clip0_2528_10685)">
<path d="M53.7106 7.19802C53.4509 6.62761 53.1016 6.13498 52.6628 5.71149C52.224 5.288 51.7136 4.95958 51.1226 4.71759C50.5315 4.4756 49.9047 4.3546 49.251 4.3546C48.5704 4.3546 47.9435 4.4756 47.3615 4.71759C47.0749 4.83859 46.7973 4.97687 46.5466 5.14108C46.2869 5.30529 46.0451 5.49542 45.8212 5.71149C45.6869 5.84113 45.5526 5.97941 45.4361 6.12634C45.3018 6.29054 45.1585 6.50661 45.069 6.63625C44.9615 6.80046 44.7197 7.29309 44.6123 7.63879C44.6302 7.05974 44.7197 6.18683 45.069 5.70285V1.48526C45.069 1.20869 44.9705 0.975342 44.7645 0.785205C44.5586 0.595068 44.3257 0.5 44.0571 0.5C43.7705 0.5 43.5287 0.595068 43.3317 0.785205C43.1347 0.975342 43.0362 1.20869 43.0362 1.48526V5.2275C42.6243 4.95094 42.1855 4.73487 41.7109 4.57931C41.2363 4.42374 40.7437 4.34596 40.2243 4.34596C39.5617 4.34596 38.9438 4.46695 38.3527 4.70895C37.7617 4.95094 37.2513 5.27936 36.8125 5.70285C36.3737 6.12633 36.0245 6.61896 35.7737 7.18937C35.7558 7.23259 35.7379 7.2758 35.72 7.31901C35.7021 7.2758 35.6842 7.23259 35.6662 7.18937C35.4066 6.61896 35.0573 6.12633 34.6185 5.70285C34.1797 5.27936 33.6693 4.95094 33.0783 4.70895C32.4872 4.46695 31.8604 4.34596 31.2067 4.34596C30.5261 4.34596 29.8992 4.46695 29.3172 4.70895C28.7351 4.95094 28.2247 5.27936 27.7769 5.70285C27.3292 6.12633 26.9799 6.61896 26.7292 7.18937C26.7113 7.23259 26.6933 7.26716 26.6754 7.31037C26.6575 7.26716 26.6396 7.23259 26.6217 7.18937C26.362 6.61896 26.0128 6.12633 25.5829 5.70285C25.1441 5.27936 24.6337 4.95094 24.0427 4.70895C23.4516 4.46695 22.8338 4.34596 22.1711 4.34596C21.4905 4.34596 20.8637 4.46695 20.2816 4.70895C19.6995 4.95094 19.1891 5.27936 18.7413 5.70285C18.2936 6.12633 17.9443 6.61896 17.6936 7.18937C17.6757 7.22395 17.6667 7.26716 17.6488 7.30173C17.6309 7.26716 17.6219 7.22395 17.604 7.18937C17.3443 6.61896 16.9951 6.12633 16.5563 5.70285C16.1175 5.27936 15.6071 4.95094 15.016 4.70895C14.425 4.46695 13.7982 4.34596 13.1445 4.34596C12.4639 4.34596 11.837 4.46695 11.2549 4.70895C10.7176 4.93365 10.243 5.23615 9.82215 5.61642V5.46085C9.82215 4.90773 9.35649 4.45831 8.78337 4.45831H1.56565C0.992528 4.45831 0.526869 4.90773 0.526869 5.46085C0.526869 6.01398 0.992528 6.4634 1.56565 6.4634H7.26998L0.580599 15.1579C0.446274 15.3307 0.374634 15.5381 0.374634 15.7542V16.4024C0.374634 16.9555 0.840293 17.4049 1.41341 17.4049H9.13262C9.67887 17.4049 10.1266 16.9987 10.1624 16.4802C10.5027 16.7395 10.8878 16.9642 11.2997 17.137C11.8908 17.379 12.5086 17.5 13.1713 17.5C14.1743 17.5 15.0608 17.2407 15.8489 16.7222C16.4847 16.3073 16.9861 15.7888 17.3443 15.1665V16.5147C17.3443 16.7913 17.4428 17.0247 17.6399 17.2148C17.8369 17.4049 18.0787 17.5 18.3652 17.5C18.6339 17.5 18.8667 17.4049 19.0727 17.2148C19.2786 17.0247 19.3771 16.7913 19.3771 16.5147V13.0145V13.0058C19.3771 13.0058 17.1205 13.0058 16.8429 13.0058C16.6279 13.0058 16.4399 13.0577 16.2697 13.1701C16.0996 13.2824 15.9742 13.438 15.9115 13.6195L15.7414 13.9479C15.5086 14.4319 15.1683 14.8122 14.7116 15.0974C14.2549 15.3826 13.7444 15.5208 13.1713 15.5208C12.7952 15.5208 12.437 15.4517 12.0878 15.3134C11.7385 15.1751 11.443 14.985 11.1923 14.7344C10.9415 14.4837 10.7445 14.1985 10.5923 13.8701C10.44 13.5417 10.3684 13.196 10.3684 12.833V11.9514H16.8697H17.3533H19.3861V9.00432C19.3861 8.64133 19.4577 8.29563 19.601 7.97585C19.7443 7.64743 19.9413 7.36223 20.201 7.11159C20.4607 6.86096 20.7562 6.67082 21.0965 6.53254C21.4368 6.39425 21.8039 6.32511 22.189 6.32511C22.5651 6.32511 22.9233 6.39425 23.2725 6.53254C23.6218 6.67082 23.9173 6.86096 24.168 7.11159C24.4188 7.36223 24.6158 7.64743 24.768 7.97585C24.9203 8.30427 24.9919 8.64997 24.9919 9.00432V16.5147C24.9919 16.7913 25.0904 17.0247 25.2874 17.2148C25.4844 17.4049 25.7262 17.5 26.0128 17.5C26.2814 17.5 26.5142 17.4049 26.7202 17.2148C26.9262 17.0247 27.0247 16.7913 27.0247 16.5147V15.1665C27.2396 15.5208 27.4993 15.8493 27.7948 16.1431C28.2336 16.5666 28.744 16.895 29.3351 17.137C29.9261 17.379 30.544 17.5 31.2067 17.5C31.8693 17.5 32.4872 17.379 33.0783 17.137C33.6693 16.895 34.1797 16.5666 34.6275 16.1431C35.0752 15.7196 35.4245 15.227 35.6752 14.6566C35.6931 14.622 35.7021 14.5874 35.711 14.5529C35.7289 14.5874 35.7379 14.622 35.7558 14.6566C36.0065 15.227 36.3558 15.7196 36.8035 16.1431C37.2513 16.5666 37.7617 16.895 38.3438 17.137C38.9259 17.379 39.5527 17.5 40.2333 17.5C40.896 17.5 41.5139 17.379 42.1049 17.137C42.6959 16.895 43.2064 16.5666 43.6451 16.1431C44.0839 15.7196 44.4332 15.227 44.6929 14.6566C44.7108 14.6134 44.7287 14.5702 44.7466 14.5269C44.7645 14.5702 44.7824 14.6134 44.8003 14.6566C45.06 15.227 45.4093 15.7196 45.8481 16.1431C46.2869 16.5666 46.7973 16.895 47.3883 17.137C47.9794 17.379 48.5973 17.5 49.2599 17.5C49.9226 17.5 50.5405 17.379 51.1315 17.137C51.7225 16.895 52.233 16.5666 52.6807 16.1431C53.1285 15.7196 53.4777 15.227 53.7285 14.6566C53.9792 14.0862 54.1046 13.4812 54.1046 12.8503V9.00432C54.1046 8.36477 53.9702 7.75979 53.7106 7.19802ZM2.96263 15.4085L8.38039 8.36477C8.35353 8.57219 8.33562 8.78826 8.33562 8.99568V12.8416C8.33562 13.4812 8.46099 14.0775 8.72069 14.6479C8.8371 14.9159 8.98038 15.1665 9.14157 15.3998C9.13261 15.3998 9.13261 15.3998 9.12366 15.3998L2.96263 15.4085ZM15.9921 10.0069H10.3774V9.00432C10.3774 8.64133 10.449 8.29563 10.5923 7.97585C10.7356 7.64743 10.9326 7.36223 11.1923 7.11159C11.452 6.86096 11.7475 6.67082 12.0878 6.53254C12.4281 6.39425 12.7952 6.32511 13.1892 6.32511C13.5653 6.32511 13.9235 6.39425 14.2728 6.53254C14.622 6.67082 14.9175 6.86096 15.1683 7.11159C15.419 7.36223 15.616 7.64743 15.7683 7.97585C15.9205 8.30427 15.9921 8.64997 15.9921 9.00432V10.0069ZM34.0364 12.8503C34.0364 13.2133 33.9648 13.559 33.8215 13.8874C33.6782 14.2158 33.4812 14.501 33.2215 14.7517C32.9618 15.0023 32.6663 15.1924 32.326 15.3307C31.9858 15.469 31.6186 15.5381 31.2335 15.5381C30.8574 15.5381 30.4992 15.469 30.15 15.3307C29.8007 15.1924 29.5052 15.0023 29.2545 14.7517C29.0037 14.501 28.8067 14.2158 28.6545 13.8874C28.5023 13.559 28.4306 13.2133 28.4306 12.8503V9.00432C28.4306 8.64133 28.5023 8.29563 28.6455 7.97585C28.7888 7.64743 28.9858 7.36223 29.2455 7.11159C29.5052 6.86096 29.8007 6.67082 30.141 6.53254C30.4813 6.39425 30.8485 6.32511 31.2425 6.32511C31.6186 6.32511 31.9768 6.39425 32.326 6.53254C32.6753 6.67082 32.9708 6.86096 33.2215 7.11159C33.4723 7.36223 33.6693 7.64743 33.8215 7.97585C33.9738 8.30427 34.0454 8.64997 34.0454 9.00432C34.0364 9.00432 34.0364 12.8503 34.0364 12.8503ZM43.0541 12.8503C43.0541 13.2133 42.9825 13.559 42.8302 13.8874C42.678 14.2158 42.481 14.501 42.2303 14.7517C41.9795 15.0023 41.684 15.1924 41.3348 15.3307C40.9855 15.469 40.6273 15.5381 40.2512 15.5381C39.8572 15.5381 39.49 15.469 39.1587 15.3307C38.8184 15.1924 38.5229 15.0023 38.2632 14.7517C38.0035 14.501 37.8065 14.2158 37.6632 13.8874C37.5199 13.559 37.4483 13.2133 37.4483 12.8503V9.00432C37.4483 8.64133 37.5289 8.29563 37.6722 7.97585C37.8244 7.64743 38.0214 7.36223 38.2722 7.11159C38.5229 6.86096 38.8184 6.67082 39.1677 6.53254C39.5169 6.39425 39.8751 6.32511 40.2512 6.32511C40.6452 6.32511 41.0124 6.39425 41.3437 6.53254C41.684 6.67082 41.9795 6.86096 42.2392 7.11159C42.4989 7.36223 42.6959 7.64743 42.8392 7.97585C42.9825 8.30427 43.0541 8.64997 43.0541 9.00432V12.8503ZM52.0718 12.8503C52.0718 13.2133 52.0002 13.559 51.8569 13.8874C51.7136 14.2158 51.5166 14.501 51.2569 14.7517C50.9972 15.0023 50.7017 15.1924 50.3614 15.3307C50.0211 15.469 49.6539 15.5381 49.2689 15.5381C48.8928 15.5381 48.5346 15.469 48.1853 15.3307C47.8361 15.1924 47.5406 15.0023 47.2898 14.7517C47.0391 14.501 46.8421 14.2158 46.6898 13.8874C46.5376 13.559 46.466 13.2133 46.466 12.8503V9.00432C46.466 8.64133 46.5376 8.29563 46.6809 7.97585C46.8242 7.64743 47.0212 7.36223 47.2809 7.11159C47.5406 6.86096 47.8361 6.67082 48.1764 6.53254C48.5167 6.39425 48.8838 6.32511 49.2778 6.32511C49.6539 6.32511 50.0121 6.39425 50.3614 6.53254C50.7106 6.67082 51.0062 6.86096 51.2569 7.11159C51.5076 7.36223 51.7046 7.64743 51.8569 7.97585C52.0091 8.30427 52.0807 8.64997 52.0807 9.00432L52.0718 12.8503Z" fill="white"/>
</g>
<defs>
<clipPath id="clip0_2528_10685">
<rect width="53.7306" height="17" fill="white" transform="translate(0.374634 0.5)"/>
</clipPath>
</defs>
</svg>
