<svg width="6" height="8" viewBox="0 0 6 8" stroke="white" stroke-width="0" xmlns="http://www.w3.org/2000/svg">
  <path
    d="M4.69727 4.79102H5.78711C5.74023 5.23242 5.60547 5.62695 5.38281 5.97461C5.16406 6.32227 4.85352 6.5957 4.45117 6.79492C4.05273 6.99414 3.55859 7.09375 2.96875 7.09375C2.52734 7.09375 2.12891 7.01953 1.77344 6.87109C1.41797 6.71875 1.11328 6.50391 0.859375 6.22656C0.605469 5.94531 0.410156 5.60742 0.273438 5.21289C0.136719 4.81836 0.0683594 4.37695 0.0683594 3.88867V3.29102C0.0683594 2.80273 0.136719 2.36133 0.273438 1.9668C0.410156 1.57227 0.607422 1.23438 0.865234 0.953125C1.12305 0.671875 1.43359 0.457031 1.79688 0.308594C2.16406 0.15625 2.57422 0.0800781 3.02734 0.0800781C3.59766 0.0800781 4.07812 0.179688 4.46875 0.378906C4.85938 0.574219 5.16406 0.847656 5.38281 1.19922C5.60547 1.55078 5.74023 1.95508 5.78711 2.41211H4.69727C4.6582 2.11133 4.57812 1.85352 4.45703 1.63867C4.33594 1.42383 4.16016 1.25977 3.92969 1.14648C3.69922 1.0293 3.39844 0.970703 3.02734 0.970703C2.71875 0.970703 2.44727 1.02344 2.21289 1.12891C1.97852 1.23047 1.78125 1.38281 1.62109 1.58594C1.46484 1.78516 1.3457 2.02734 1.26367 2.3125C1.18555 2.59766 1.14648 2.92188 1.14648 3.28516V3.88867C1.14648 4.23242 1.18164 4.54688 1.25195 4.83203C1.32617 5.11328 1.4375 5.35742 1.58594 5.56445C1.73438 5.77148 1.92383 5.93164 2.1543 6.04492C2.38477 6.1543 2.65625 6.20898 2.96875 6.20898C3.35938 6.20898 3.67188 6.1543 3.90625 6.04492C4.14062 5.93555 4.31836 5.77539 4.43945 5.56445C4.56445 5.34961 4.65039 5.0918 4.69727 4.79102Z"
    fill="white" />
</svg>