<svg width="6" height="7" viewBox="0 0 6 7" stroke="white" stroke-width="0" xmlns="http://www.w3.org/2000/svg">
  <path
    d="M3.05078 4.43359H1.10547V3.53711H3.05078C3.41016 3.53711 3.70117 3.48633 3.92383 3.38477C4.14648 3.2793 4.31055 3.13672 4.41602 2.95703C4.52148 2.77734 4.57422 2.57031 4.57422 2.33594C4.57422 2.11328 4.52148 1.90625 4.41602 1.71484C4.31055 1.52344 4.14648 1.36914 3.92383 1.25195C3.70117 1.13086 3.41016 1.07031 3.05078 1.07031H1.39844V7H0.314453V0.173828H3.05078C3.60938 0.173828 4.08203 0.267578 4.46875 0.455078C4.85938 0.638672 5.1543 0.892578 5.35352 1.2168C5.55664 1.53711 5.6582 1.90625 5.6582 2.32422C5.6582 2.65234 5.60156 2.94727 5.48828 3.20898C5.375 3.4668 5.20703 3.6875 4.98438 3.87109C4.76172 4.05469 4.48828 4.19531 4.16406 4.29297C3.83984 4.38672 3.46875 4.43359 3.05078 4.43359Z"
    fill="white" />
</svg>